# Wavefront OBJ file
# Exported by Misfit Model 3D 1.3.8
# Thu Oct 27 22:12:26 2016

mtllib hat_peachcastle_model.mtl

# 259 Vertices
v 35.0989 80.879997 9.0532
v 36.753899 88.403 8.37718
v 47.347401 82.977997 9.1073
v 39.927101 72.033997 -35.445599
v 40.662498 79.230003 -38.034801
v 51.090199 74.932007 -37.1134
v -1.52766 115.949997 -21.8046
v -1.52766 123.431999 -23.281799
v 14.8484 119.691002 -22.5432
v -38.876801 72.108994 -36.961498
v -41.791302 79.052002 -38.569698
v -27.307199 78.572006 -39.263699
v -34.775101 80.588997 9.11628
v -37.241001 87.912003 8.48563
v -22.768999 86.653 8.35091
v 31.5305 55.895 21.9967
v 38.209702 54.841999 19.351999
v 39.238201 61.630001 19.0641
v 32.3969 62.709 21.3752
v -30.9527 56.015999 22.2069
v -38.6964 61.508999 18.8538
v -37.5299 54.659 19.072001
v -32.149101 62.820999 21.9424
v -0.201145 96.113998 -34.8396
v -1.51723 115.987999 -21.737301
v 15.0081 98.559013 -22.822001
v 8.82241 102.997002 -1.40776
v -0.462149 84.807007 -28.465401
v 10.8271 86.641998 -19.447201
v 0.079739 76.513 -35.427399
v 19.5077 79.613998 -20.1819
v -9.59222 102.995003 -1.41665
v -17.1078 98.75 -21.882601
v 20.2034 64.373993 -19.066299
v 8.15816 61.879002 -31.3339
v 21.118601 70.450996 -20.9499
v 8.53727 67.843987 -33.7635
v -8.71021 61.879002 -31.3339
v -9.08931 67.843987 -33.7635
v -20.7554 64.373993 -19.066299
v -21.670601 70.450996 -20.9499
v -22.455299 66.962013 -6.74271
v -23.446199 73.147003 -8.10999
v 21.903299 66.139008 -10.3918
v 22.8941 72.294006 -11.8894
v -0.276019 70.897987 -21.0919
v -10.1918 73.341003 -12.1819
v 9.6398 73.891998 -13.5341
v 22.8941 74.095001 -12.233
v 21.118601 72.251999 -21.2936
v 9.6398 72.932007 -13.4934
v -0.276019 72.257004 -21.223
v 8.53727 69.646004 -34.1073
v -9.08931 69.646004 -34.1073
v -23.446199 74.947998 -8.45368
v -10.1918 74.302002 -12.2226
v -21.670601 72.251999 -21.2936
v 33.982899 39.883999 4.87139
v 39.811501 64.569 0.046876
v 39.005402 42.148998 18.5625
v 43.0783 67.592003 16.3561
v 24.9114 67.167007 4.97636
v 21.6814 41.618 9.93921
v 25.4396 43.549 22.5774
v 28.992599 69.447006 21.4699
v 40.655602 66.580994 -2.40715
v 44.6078 68.957001 16.217501
v 24.1084 68.720993 4.18506
v 28.284401 71.307007 22.955299
v 35.298199 81.511002 9.05581
v -19.868601 41.613998 10.1956
v -33.4231 39.883999 4.87139
v -23.063299 67.452003 5.27867
v -38.073399 64.692001 -1.23679
v -38.203899 42.221001 17.8197
v -42.535198 67.587997 15.8051
v -28.3169 69.345001 22.1507
v -24.695499 43.727001 23.365999
v -22.260201 69.005997 4.48737
v -38.9855 66.407997 -2.52979
v -43.944801 69.057007 16.186199
v -27.6087 71.203987 23.636101
v -34.9142 81.228996 9.11999
v 43.625801 54.460999 -36.2901
v 37.447899 31.976 -26.4547
v 30.8748 54.245998 -41.1926
v 26.202101 32.056 -30.761299
v 26.821199 60.633999 -28.4484
v 22.401899 35.074001 -19.9123
v 33.825901 35.41 -14.9727
v 39.922901 58.966 -22.2551
v 45.360802 55.507 -37.614399
v 30.7876 55.598 -43.411701
v 26.440001 62.738998 -28.313101
v 41.363899 60.764011 -21.2251
v 39.896198 72.628998 -35.682999
v -21.8421 35.074001 -19.9123
v -24.6066 32.284 -31.674101
v -26.2232 60.610989 -28.483101
v -29.3566 53.713001 -41.984001
v -36.8881 31.976 -26.4547
v -43.144402 53.813999 -36.136398
v -39.333199 58.056 -22.047199
v -33.266102 35.41 -14.9727
v -29.254 55.098 -44.1744
v -25.8083 62.709 -28.308599
v -44.866199 54.904999 -37.430901
v -40.742802 59.862 -20.9769
v -38.935699 72.731987 -37.175301
v 15.9628 53.792 -46.508499
v 5.64906 66.947006 -24.6511
v 36.792301 58.17799 -24.948299
v 10.7415 67.580994 -21.530701
v 14.1458 68.531013 -16.862801
v -15.403 53.792 -46.508499
v -0.276013 66.723999 -25.7453
v -6.20109 66.947006 -24.6511
v -36.232498 58.17799 -24.948299
v -11.2936 67.580994 -21.530701
v -14.6979 68.531013 -16.862801
v -36.232498 65.203987 9.19149
v -15.8916 69.651001 -11.3557
v -14.6979 71.595001 -2.19944
v -21.045601 69.616997 30.6416
v -6.20108 73.179001 5.58886
v -11.2936 72.544998 2.46841
v -0.276018 73.401993 6.68303
v -11.4111 76.380997 29.6789
v 0.279896 81.755997 28.695
v 21.6054 69.616997 30.6416
v 11.9709 76.382004 29.6789
v 5.64906 73.179001 5.58886
v 36.792301 65.203987 9.19148
v 10.7415 72.544998 2.46839
v 14.1458 71.595001 -2.19944
v 15.3395 69.651001 -11.3557
v 36.153999 61.460999 9.62765
v 36.153999 54.397999 -25.100901
v 15.6633 50.250999 -45.078201
v -15.1035 50.250999 -45.078201
v 21.252399 65.810997 30.7682
v 0.279898 78.093002 28.827999
v 10.161 73.297997 29.6707
v -9.60123 73.297997 29.6707
v 9.5728 72.529007 26.309999
v 0.279897 77.021004 25.614799
v -20.692499 65.810997 30.7682
v -9.01301 72.529007 26.309999
v 14.8641 50.548 -43.186001
v -14.3043 50.548 -43.186001
v -19.7514 65.085007 27.5151
v 20.311199 65.085007 27.5152
v 0.279897 65.345993 27.468399
v 14.5252 32.283001 -35.5415
v -13.9655 32.283001 -35.5415
v -17.274599 45.882999 30.907801
v 0.279893 45.790001 31.056601
v 17.834299 45.882999 30.907801
v 6.19168 68.962013 32.723701
v -6.73822 68.962013 32.723701
v 6.19168 67.407997 25.0842
v -6.73822 67.407997 25.0842
v 6.53103 74.292007 23.7253
v 6.53103 75.845993 31.364799
v -7.07757 74.292007 23.7253
v -7.07757 75.845993 31.364799
v -5.14428 78.311996 30.877899
v -5.14428 76.758003 23.2384
v -0.273272 80.564003 30.4333
v -0.273272 79.009987 22.7938
v 4.59774 78.311996 30.877899
v 4.59774 76.758003 23.2384
v -0.273272 73.889999 31.750999
v 35.0989 80.891006 9.10153
v 47.347401 82.988998 9.15563
v 36.753899 88.412987 8.42551
v 39.927101 72.044998 -35.397202
v 51.090199 74.942993 -37.065102
v 40.662498 79.240997 -37.9865
v -1.52766 115.959999 -21.7563
v 14.8484 119.702003 -22.4949
v -1.52766 123.443001 -23.2335
v -38.876801 72.120003 -36.9132
v -27.307199 78.582001 -39.215401
v -41.791302 79.063004 -38.5214
v -34.775101 80.600014 9.16461
v -22.768999 86.664001 8.39924
v -37.241001 87.921997 8.53397
v -16.7344 75.925003 8.64199
v -15.9348 70.223999 9.28984
v -8.20115 76.585007 2.54763
v -16.5875 77.722 8.29927
v -9.08929 78.490013 13.49
v 15.3828 70.223999 9.28982
v 16.1845 75.860992 8.65662
v 16.0376 77.657997 8.31389
v 7.65129 76.521004 2.56224
v 8.53726 78.490013 13.49
v -8.31667 75.231003 2.67789
v 8.15817 71.223007 14.1994
v 8.53726 76.738007 13.8225
v -8.71021 71.223007 14.1994
v -9.08929 76.738007 13.8225
v -7.75398 72.097 0.488282
v 7.31596 72.097 0.488277
v 7.76681 75.166 2.6925
v 6.44829 90.151993 -2.58951
v 10.7489 85.049004 6.13836
v -0.505681 90.151001 -2.59306
v -0.161437 85.047997 6.13084
v -35.5942 54.397999 -25.100901
v -35.5942 61.460999 9.62765
v -33.891102 54.471001 -24.307301
v -33.891102 61.217999 8.86762
v -33.891102 57.922001 -7.13428
v -30.3652 41.835999 11.0209
v -30.3652 35.478001 -18.8769
v -30.3652 38.735001 -3.34245
v 34.450901 54.471001 -24.307301
v 34.450901 57.922001 -7.13429
v 34.450901 61.217999 8.8676
v 30.924999 35.478001 -18.8769
v 30.924999 38.735001 -3.34245
v 30.924999 41.835999 11.0209
v 0.279902 39.191002 -1.97018
v 12.1294 97.167999 -21.843599
v -0.380849 95.143013 -31.796101
v 7.18779 100.971001 -3.54552
v -0.442193 100.966003 -3.57043
v -14.4158 97.314003 -21.121599
v -8.23829 100.960999 -3.59533
v -0.505198 89.602997 -2.45464
v 6.45393 89.602997 -2.45093
v -7.63044 89.602013 -2.45836
v -13.2072 86.218002 -18.6952
v -0.461529 84.254997 -28.3449
v 10.837 86.091003 -19.319599
v 14.8225 78.480003 -18.8127
v -0.212732 76.061996 -30.6971
v -21.3155 79.873993 -18.902599
v -16.9342 78.667999 -17.8873
v -13.1979 86.768013 -18.823601
v -0.262538 66.182999 -27.9564
v -16.188101 68.661003 -15.7792
v -9.51237 72.669006 3.52555
v -9.50492 82.871986 2.38027
v 8.71431 82.878014 2.40956
v -11.7085 85.046013 6.12288
v -0.312251 82.875 2.39492
v -7.62577 90.151001 -2.59661
v 8.64396 72.737 3.8622
v 14.0247 68.485001 -16.6444
v -0.35115 72.703003 3.69387
v 0.279886 45.980999 32.175301
v 0.342481 69.970993 28.001101
v -15.7228 46.071999 32.043499
v -16.1171 69.970993 28.001101
v 16.407801 46.071999 32.043499
v 16.802099 69.970993 28.001101

# 1104 Texture Coordinates
vt 0.594742 0.020729
vt 0.594742 0.160319
vt 0.404038 0.090524
vt 0.594742 0.020729
vt 0.594742 0.160319
vt 0.404038 0.090524
vt 0.594742 0.020729
vt 0.594742 0.160319
vt 0.404038 0.090524
vt 0.594742 0.020729
vt 0.594742 0.160319
vt 0.404038 0.090524
vt 0.594742 0.020729
vt 0.594742 0.160319
vt 0.404038 0.090524
vt 0.440338 0.190983
vt 0.559374 0.190983
vt 0.559374 0.303317
vt 0.559374 0.303317
vt 0.440338 0.303317
vt 0.440338 0.190983
vt 0.440338 0.190983
vt 0.559374 0.303317
vt 0.559374 0.190983
vt 0.559374 0.303317
vt 0.440338 0.190983
vt 0.440338 0.303317
vt 0.928048 0.77607
vt 0.5 0.967671
vt 0.071952 0.77607
vt 0.928048 0.77607
vt 0.5 0.967671
vt 0.071952 0.77607
vt 3.71307 0.869511
vt 3.28693 0.869511
vt 3.92335 0.77607
vt 3.92335 0.77607
vt 3.28693 0.869511
vt 3.07665 0.77607
vt 0.928048 0.77607
vt 0.5 0.967671
vt 0.071952 0.77607
vt 0.928048 0.77607
vt 0.5 0.967671
vt 0.071952 0.77607
vt 0.928048 0.77607
vt 0.5 0.967671
vt 0.071952 0.77607
vt 1.5848 0.503625
vt 1.08301 0.503625
vt 1.5848 0.605168
vt 1.5848 0.605168
vt 1.08301 0.503625
vt 1.08301 0.605168
vt 0.500354 0.512849
vt 0.000354 0.512849
vt 0.501516 0.597383
vt 0.501516 0.597383
vt 0.000354 0.512849
vt 0.001516 0.597383
vt 1.08301 0.503625
vt 1.08301 0.605168
vt 1.5848 0.503625
vt 1.5848 0.503625
vt 1.08301 0.605168
vt 1.5848 0.605168
vt -0.000229 0.501902
vt 0.000933 0.605387
vt 0.249771 0.501902
vt 0.249771 0.501902
vt 0.000933 0.605387
vt 0.250933 0.605387
vt 0.500395 0.501902
vt 0.250395 0.501902
vt 0.501557 0.605387
vt 0.501557 0.605387
vt 0.250395 0.501902
vt 0.251557 0.605387
vt 1.68471 0.503625
vt 1.18292 0.503625
vt 1.64618 0.653144
vt 1.64618 0.653144
vt 1.18292 0.503625
vt 1.21488 0.651653
vt 0.378586 0.705238
vt 0.315925 0.675273
vt 0.441246 0.675273
vt 1.68471 0.503625
vt 1.18292 0.503625
vt 1.64618 0.653144
vt 1.64618 0.653144
vt 1.18292 0.503625
vt 1.21488 0.651653
vt 0.378586 0.705238
vt 0.315925 0.675273
vt 0.441246 0.675273
vt 0.441246 0.675273
vt 0.378586 0.705238
vt 0.315925 0.675273
vt 0.252252 0.675273
vt 0.315925 0.675273
vt 0.252252 0.705238
vt 0.252252 0.705238
vt 0.315925 0.675273
vt 0.378586 0.705238
vt 0.495064 0.705238
vt 0.441246 0.675273
vt 0.251446 0.705238
vt 0.251446 0.705238
vt 0.441246 0.675273
vt 0.315925 0.675273
vt 0.495064 0.675273
vt 0.495064 0.705238
vt 0.441246 0.675273
vt 0.441246 0.675273
vt 0.495064 0.705238
vt 0.378586 0.705238
vt 0.495064 0.675273
vt 0.495064 0.705238
vt 0.441246 0.675273
vt 0.441246 0.675273
vt 0.495064 0.705238
vt 0.378586 0.705238
vt 0.252252 0.675273
vt 0.315925 0.675273
vt 0.252252 0.705238
vt 0.252252 0.705238
vt 0.315925 0.675273
vt 0.378586 0.705238
vt 0.251446 0.705238
vt 0.495064 0.705238
vt 0.315925 0.675273
vt 0.315925 0.675273
vt 0.495064 0.705238
vt 0.441246 0.675273
vt 0.252252 0.675273
vt 0.315925 0.675273
vt 0.252252 0.705238
vt 0.252252 0.705238
vt 0.315925 0.675273
vt 0.378586 0.705238
vt 0.315925 0.675273
vt 0.251446 0.705238
vt 0.441246 0.675273
vt 0.441246 0.675273
vt 0.251446 0.705238
vt 0.495064 0.705238
vt 0.495064 0.675273
vt 0.495064 0.705238
vt 0.441246 0.675273
vt 0.441246 0.675273
vt 0.495064 0.705238
vt 0.378586 0.705238
vt -0.321501 0.503625
vt -0.321501 0.746751
vt -0.660399 0.503625
vt -0.660399 0.503625
vt -0.321501 0.746751
vt -0.620079 0.746751
vt 0.807758 0.746751
vt 0.807758 0.503625
vt 0.995222 0.746751
vt 0.995222 0.746751
vt 0.807758 0.503625
vt 0.995222 0.503625
vt 0.995222 0.503625
vt 0.807758 0.503625
vt 0.995222 0.746751
vt 0.995222 0.746751
vt 0.807758 0.503625
vt 0.807758 0.746751
vt -0.981093 0.503625
vt -0.660399 0.503625
vt -0.981093 0.746751
vt -0.981093 0.746751
vt -0.660399 0.503625
vt -0.620079 0.746751
vt 0.200677 0.773224
vt -0.5 0.773224
vt 0.200677 0.75
vt 0.200677 0.75
vt -0.5 0.773224
vt -0.5 0.75
vt 0.200677 0.773224
vt 0.200677 0.75
vt -0.5 0.773224
vt -0.5 0.773224
vt 0.200677 0.75
vt -0.5 0.75
vt -0.5 0.75
vt -1.20068 0.75
vt -0.5 0.773224
vt -0.5 0.773224
vt -1.20068 0.75
vt -1.20068 0.773224
vt -1.20068 0.773224
vt -1.20068 0.75
vt -0.5 0.773224
vt -0.5 0.773224
vt -1.20068 0.75
vt -0.5 0.75
vt -0.5 0.773224
vt 0.200677 0.773224
vt -0.5 0.968508
vt 0.200677 0.773224
vt -0.5 0.773224
vt -0.5 0.968508
vt -0.5 0.773224
vt -1.20068 0.773224
vt -0.5 0.968508
vt -1.20068 0.773224
vt -0.5 0.773224
vt -0.5 0.968508
vt 0.618684 0.18125
vt 0.605883 0.18125
vt 0.618684 0.094388
vt 0.618684 0.094388
vt 0.605883 0.18125
vt 0.605883 0.094388
vt 0.995222 0.503625
vt 0.807758 0.503625
vt 0.995222 0.746751
vt 0.995222 0.746751
vt 0.807758 0.503625
vt 0.807758 0.746751
vt -0.981093 0.503625
vt -0.660399 0.503625
vt -0.981093 0.746751
vt -0.981093 0.746751
vt -0.660399 0.503625
vt -0.620079 0.746751
vt -0.620079 0.746751
vt -0.660399 0.503625
vt -0.321501 0.746751
vt -0.321501 0.746751
vt -0.660399 0.503625
vt -0.321501 0.503625
vt 0.807758 0.746751
vt 0.807758 0.503625
vt 0.995222 0.746751
vt 0.995222 0.746751
vt 0.807758 0.503625
vt 0.995222 0.503625
vt -0.5 0.75
vt -1.20068 0.75
vt -0.5 0.773224
vt -0.5 0.773224
vt -1.20068 0.75
vt -1.20068 0.773224
vt -1.20068 0.75
vt -0.5 0.75
vt -1.20068 0.773224
vt -1.20068 0.773224
vt -0.5 0.75
vt -0.5 0.773224
vt -0.5 0.75
vt 0.200677 0.75
vt -0.5 0.773224
vt -0.5 0.773224
vt 0.200677 0.75
vt 0.200677 0.773224
vt 0.200677 0.773224
vt 0.200677 0.75
vt -0.5 0.773224
vt -0.5 0.773224
vt 0.200677 0.75
vt -0.5 0.75
vt -0.5 0.773224
vt -1.20068 0.773224
vt -0.5 0.968508
vt -1.20068 0.773224
vt -0.5 0.773224
vt -0.5 0.968508
vt -0.5 0.773224
vt 0.200677 0.773224
vt -0.5 0.968508
vt 0.200677 0.773224
vt -0.5 0.773224
vt -0.5 0.968508
vt 0.618684 0.18125
vt 0.618684 0.094388
vt 0.605883 0.18125
vt 0.605883 0.18125
vt 0.618684 0.094388
vt 0.605883 0.094388
vt -0.659462 0.746751
vt -0.621977 0.503625
vt -0.981093 0.746751
vt -0.981093 0.746751
vt -0.621977 0.503625
vt -0.981093 0.503625
vt 0.807758 0.746751
vt 0.807758 0.503625
vt 0.995222 0.746751
vt 0.995222 0.746751
vt 0.807758 0.503625
vt 0.995222 0.503625
vt 0.995222 0.503625
vt 0.807758 0.503625
vt 0.995222 0.746751
vt 0.995222 0.746751
vt 0.807758 0.503625
vt 0.807758 0.746751
vt -0.321501 0.503625
vt -0.621977 0.503625
vt -0.321501 0.746751
vt -0.321501 0.746751
vt -0.621977 0.503625
vt -0.659462 0.746751
vt -0.5 0.773224
vt -0.5 0.75
vt -1.20068 0.773224
vt -1.20068 0.773224
vt -0.5 0.75
vt -1.20068 0.75
vt -1.20068 0.773224
vt -1.20068 0.75
vt -0.5 0.773224
vt -0.5 0.773224
vt -1.20068 0.75
vt -0.5 0.75
vt -0.5 0.75
vt 0.200677 0.75
vt -0.5 0.773224
vt -0.5 0.773224
vt 0.200677 0.75
vt 0.200677 0.773224
vt 0.200677 0.75
vt -0.5 0.75
vt 0.200677 0.773224
vt 0.200677 0.773224
vt -0.5 0.75
vt -0.5 0.773224
vt -0.5 0.773224
vt -1.20068 0.773224
vt -0.5 0.968508
vt -1.20068 0.773224
vt -0.5 0.773224
vt -0.5 0.968508
vt -0.5 0.773224
vt 0.200677 0.773224
vt -0.5 0.968508
vt 0.200677 0.773224
vt -0.5 0.773224
vt -0.5 0.968508
vt 0.618684 0.18125
vt 0.618684 0.094388
vt 0.605883 0.18125
vt 0.605883 0.18125
vt 0.618684 0.094388
vt 0.605883 0.094388
vt 0.995222 0.503625
vt 0.807758 0.503625
vt 0.995222 0.746751
vt 0.995222 0.746751
vt 0.807758 0.503625
vt 0.807758 0.746751
vt -0.321501 0.503625
vt -0.660399 0.503625
vt -0.321501 0.746751
vt -0.321501 0.746751
vt -0.660399 0.503625
vt -0.620079 0.746751
vt -0.620079 0.746751
vt -0.660399 0.503625
vt -0.981093 0.746751
vt -0.981093 0.746751
vt -0.660399 0.503625
vt -0.981093 0.503625
vt 0.807758 0.503625
vt 0.995222 0.503625
vt 0.807758 0.746751
vt 0.807758 0.746751
vt 0.995222 0.503625
vt 0.995222 0.746751
vt 0.200677 0.773224
vt -0.5 0.773224
vt 0.200677 0.75
vt 0.200677 0.75
vt -0.5 0.773224
vt -0.5 0.75
vt 0.200677 0.75
vt -0.5 0.75
vt 0.200677 0.773224
vt 0.200677 0.773224
vt -0.5 0.75
vt -0.5 0.773224
vt -0.5 0.773224
vt -0.5 0.75
vt -1.20068 0.773224
vt -1.20068 0.773224
vt -0.5 0.75
vt -1.20068 0.75
vt -1.20068 0.773224
vt -1.20068 0.75
vt -0.5 0.773224
vt -0.5 0.773224
vt -1.20068 0.75
vt -0.5 0.75
vt -0.5 0.773224
vt 0.200677 0.773224
vt -0.5 0.968508
vt 0.200677 0.773224
vt -0.5 0.773224
vt -0.5 0.968508
vt -0.5 0.773224
vt -1.20068 0.773224
vt -0.5 0.968508
vt -1.20068 0.773224
vt -0.5 0.773224
vt -0.5 0.968508
vt 0.605883 0.094388
vt 0.618684 0.094388
vt 0.605883 0.18125
vt 0.605883 0.18125
vt 0.618684 0.094388
vt 0.618684 0.18125
vt -1.19062 0.773224
vt -1.46788 0.944492
vt -2.14945 0.773224
vt -1.46788 0.944492
vt -1.67004 0.944492
vt -2.14945 0.773224
vt -2.14945 0.773224
vt -1.67004 0.944492
vt -1.87219 0.944492
vt -0.367164 0.773224
vt 0.575081 0.773224
vt -0.094705 0.944492
vt -0.094705 0.944492
vt 0.575081 0.773224
vt 0.103959 0.944492
vt 0.103959 0.944492
vt 0.575081 0.773224
vt 0.302622 0.944492
vt -2.14945 0.773224
vt -1.19062 0.773224
vt -1.87219 0.944492
vt -1.87219 0.944492
vt -1.19062 0.773224
vt -1.67004 0.944492
vt -1.67004 0.944492
vt -1.19062 0.773224
vt -1.46788 0.944492
vt -2.5364 0.773224
vt -1.57758 0.773224
vt -2.25915 0.944492
vt -2.25915 0.944492
vt -1.57758 0.773224
vt -2.05699 0.944492
vt -2.05699 0.944492
vt -1.57758 0.773224
vt -1.85484 0.944492
vt -1.40231 0.773224
vt -1.67956 0.944492
vt -2.36113 0.773224
vt -1.67956 0.944492
vt -1.88172 0.944492
vt -2.36113 0.773224
vt -1.88172 0.944492
vt -2.08388 0.944492
vt -2.36113 0.773224
vt -2.50824 0.944492
vt -2.7104 0.944492
vt -2.36113 0.773224
vt 5.0 0.77607
vt 4.59801 0.77607
vt 4.0 0.944492
vt 4.0 0.944492
vt 4.59801 0.77607
vt 4.0 0.77607
vt 3.0 0.77607
vt 4.0 0.944492
vt 3.40507 0.77607
vt 4.0 0.944492
vt 4.0 0.77607
vt 3.40507 0.77607
vt -1.26861 0.944492
vt -1.40231 0.773224
vt -1.04373 0.944492
vt -2.36113 0.773224
vt -1.40231 0.773224
vt -2.08388 0.944492
vt -2.08388 0.944492
vt -1.40231 0.773224
vt -1.88172 0.944492
vt -1.88172 0.944492
vt -1.40231 0.773224
vt -1.67956 0.944492
vt -2.5364 0.773224
vt -1.57758 0.773224
vt -2.25915 0.944492
vt -2.25915 0.944492
vt -1.57758 0.773224
vt -2.05699 0.944492
vt -2.05699 0.944492
vt -1.57758 0.773224
vt -1.85484 0.944492
vt 0.689628 0.492152
vt 0.622384 0.492152
vt 0.689628 0.006568
vt 0.689628 0.006568
vt 0.622384 0.492152
vt 0.622384 0.006568
vt 0.622384 0.006568
vt 0.689628 0.006568
vt 0.622384 0.492152
vt 0.622384 0.492152
vt 0.689628 0.006568
vt 0.689628 0.492152
vt 0.622384 0.492152
vt 0.622384 0.006568
vt 0.689628 0.492152
vt 0.689628 0.492152
vt 0.622384 0.006568
vt 0.689628 0.006568
vt 0.622384 0.006568
vt 0.689628 0.006568
vt 0.622384 0.492152
vt 0.622384 0.492152
vt 0.689628 0.006568
vt 0.689628 0.492152
vt 0.689563 0.248439
vt 0.622319 0.248439
vt 0.689563 0.123656
vt 0.689563 0.123656
vt 0.622319 0.248439
vt 0.622319 0.123656
vt 0.622319 0.373221
vt 0.622319 0.248439
vt 0.689563 0.373221
vt 0.689563 0.373221
vt 0.622319 0.248439
vt 0.689563 0.248439
vt 0.624293 0.123656
vt 0.624293 0.248439
vt 0.604372 0.123656
vt 0.604372 0.123656
vt 0.624293 0.248439
vt 0.604372 0.248439
vt 0.689563 0.123656
vt 0.622319 0.123656
vt 0.689563 0.004967
vt 0.689563 0.004967
vt 0.622319 0.123656
vt 0.622319 0.004967
vt 0.62232 0.491911
vt 0.622319 0.373221
vt 0.689563 0.491911
vt 0.689563 0.491911
vt 0.622319 0.373221
vt 0.689563 0.373221
vt 0.624294 0.373221
vt 0.604372 0.373221
vt 0.624293 0.248439
vt 0.624293 0.248439
vt 0.604372 0.373221
vt 0.604372 0.248439
vt 0.599042 0.492152
vt 0.599042 0.006568
vt 0.618963 0.492152
vt 0.618963 0.492152
vt 0.599042 0.006568
vt 0.618963 0.006568
vt 0.604372 0.373221
vt 0.624294 0.373221
vt 0.604372 0.491911
vt 0.604372 0.491911
vt 0.624294 0.373221
vt 0.624294 0.491911
vt 0.624293 0.004967
vt 0.624293 0.123656
vt 0.604372 0.004967
vt 0.604372 0.004967
vt 0.624293 0.123656
vt 0.604372 0.123656
vt 0.835141 0.629607
vt 0.927642 0.589762
vt 0.982508 0.629604
vt 0.982508 0.629252
vt 0.927642 0.589762
vt 0.835141 0.629254
vt 0.835141 0.629607
vt 0.835141 0.539127
vt 0.927642 0.589762
vt 0.835141 0.539127
vt 0.835141 0.629254
vt 0.927642 0.589762
vt 0.111665 0.626934
vt 0.111665 0.503625
vt 0.629707 0.626934
vt 0.629707 0.626934
vt 0.111665 0.503625
vt 0.629707 0.503625
vt 0.5 0.626935
vt 0.5 0.503625
vt -0.000012 0.626935
vt -0.000012 0.626935
vt 0.5 0.503625
vt -0.000013 0.503625
vt 0.500566 0.503625
vt 0.005114 0.503625
vt 0.500567 0.626935
vt 0.500567 0.626935
vt 0.005114 0.503625
vt 0.005114 0.626935
vt 0.497716 0.338676
vt 0.497716 0.363941
vt 0.518698 0.338676
vt 0.518698 0.338676
vt 0.497716 0.363941
vt 0.518698 0.363941
vt 0.518698 0.338676
vt 0.518698 0.338013
vt 0.497716 0.338676
vt 0.497716 0.338676
vt 0.518698 0.338013
vt 0.497716 0.338013
vt 0.518698 0.363941
vt 0.497716 0.363941
vt 0.518698 0.364604
vt 0.518698 0.364604
vt 0.497716 0.363941
vt 0.497716 0.364604
vt 0.497716 0.360826
vt 0.518698 0.360826
vt 0.497716 0.364604
vt 0.497716 0.364604
vt 0.518698 0.360826
vt 0.518698 0.364604
vt 0.497716 0.351309
vt 0.518698 0.351309
vt 0.497716 0.360826
vt 0.497716 0.360826
vt 0.518698 0.351309
vt 0.518698 0.360826
vt 0.497716 0.351309
vt 0.497716 0.341791
vt 0.518698 0.351309
vt 0.518698 0.351309
vt 0.497716 0.341791
vt 0.518698 0.341791
vt 0.375136 0.014355
vt 0.371107 0.293135
vt 0.188725 0.211302
vt 0.497716 0.341791
vt 0.497716 0.338013
vt 0.518698 0.341791
vt 0.518698 0.341791
vt 0.497716 0.338013
vt 0.518698 0.338013
vt 0.188725 0.211302
vt 0.060879 0.39473
vt 0.00507 0.293135
vt 0.188725 0.211302
vt 0.00507 0.293135
vt 0.00104 0.014355
vt 0.375136 0.014355
vt 0.188725 0.211302
vt 0.00104 0.014355
vt 0.371107 0.293135
vt 0.315298 0.39473
vt 0.188725 0.211302
vt 0.315298 0.39473
vt 0.188088 0.477398
vt 0.188725 0.211302
vt 0.188088 0.477398
vt 0.060879 0.39473
vt 0.188725 0.211302
vt 0.594742 0.020729
vt 0.404038 0.090524
vt 0.594742 0.160319
vt 0.594742 0.020729
vt 0.404038 0.090524
vt 0.594742 0.160319
vt 0.594742 0.020729
vt 0.404038 0.090524
vt 0.594742 0.160319
vt 0.594742 0.020729
vt 0.404038 0.090524
vt 0.594742 0.160319
vt 0.594742 0.020729
vt 0.404038 0.090524
vt 0.594742 0.160319
vt 1.08301 0.605168
vt 1.08301 0.503625
vt 1.5848 0.605168
vt 1.5848 0.605168
vt 1.08301 0.503625
vt 1.5848 0.503625
vt 0.378586 0.705238
vt 0.315925 0.675273
vt 0.441246 0.675273
vt 1.08301 0.503625
vt 1.5848 0.503625
vt 1.08301 0.605168
vt 1.08301 0.605168
vt 1.5848 0.503625
vt 1.5848 0.605168
vt 0.441246 0.675273
vt 0.378586 0.705238
vt 0.315925 0.675273
vt 1.14799 0.643211
vt 1.11603 0.503625
vt 1.57928 0.618389
vt 1.57928 0.618389
vt 1.11603 0.503625
vt 1.61781 0.503625
vt 0.252252 0.675273
vt 0.315925 0.675273
vt 0.252252 0.705238
vt 0.252252 0.705238
vt 0.315925 0.675273
vt 0.378586 0.705238
vt 1.5848 0.503625
vt 1.5848 0.605168
vt 1.08301 0.503625
vt 1.08301 0.503625
vt 1.5848 0.605168
vt 1.08301 0.605168
vt 0.25 0.503642
vt 0.5 0.503642
vt 0.251162 0.627128
vt 0.251162 0.627128
vt 0.5 0.503642
vt 0.501162 0.627128
vt 0.250579 0.503642
vt 0.251741 0.627128
vt 0.000579 0.503642
vt 0.000579 0.503642
vt 0.251741 0.627128
vt 0.001741 0.627128
vt 1.08301 0.503625
vt 1.5848 0.503625
vt 1.11498 0.630547
vt 1.11498 0.630547
vt 1.5848 0.503625
vt 1.54627 0.630547
vt 1.57928 0.641535
vt 1.14799 0.60522
vt 1.61781 0.503625
vt 1.61781 0.503625
vt 1.14799 0.60522
vt 1.11603 0.503625
vt 0.441246 0.675273
vt 0.315925 0.675273
vt 0.495064 0.705238
vt 0.495064 0.705238
vt 0.315925 0.675273
vt 0.251446 0.705238
vt 0.441246 0.675273
vt 0.495064 0.675273
vt 0.378586 0.705238
vt 0.378586 0.705238
vt 0.495064 0.675273
vt 0.495064 0.705238
vt 0.495064 0.675273
vt 0.495064 0.705238
vt 0.441246 0.675273
vt 0.441246 0.675273
vt 0.495064 0.705238
vt 0.378586 0.705238
vt 0.252252 0.705238
vt 0.252252 0.675273
vt 0.378586 0.705238
vt 0.378586 0.705238
vt 0.252252 0.675273
vt 0.315925 0.675273
vt 0.495064 0.705238
vt 0.441246 0.675273
vt 0.251446 0.705238
vt 0.251446 0.705238
vt 0.441246 0.675273
vt 0.315925 0.675273
vt 0.251741 0.703899
vt 0.28196 0.745322
vt 0.298751 0.745322
vt 0.195273 0.745322
vt 0.251162 0.703899
vt 0.146781 0.745322
vt 3.71307 0.869511
vt 3.28693 0.869511
vt 3.92335 0.77607
vt 3.92335 0.77607
vt 3.28693 0.869511
vt 3.07665 0.77607
vt 3.5 0.869511
vt 3.512 0.77607
vt 3.71307 0.869511
vt 3.71307 0.869511
vt 3.512 0.77607
vt 3.92335 0.77607
vt 0.622384 0.492152
vt 0.622384 0.006568
vt 0.689628 0.492152
vt 0.689628 0.492152
vt 0.622384 0.006568
vt 0.689628 0.006568
vt 0.622384 0.492152
vt 0.622384 0.006568
vt 0.689628 0.492152
vt 0.689628 0.492152
vt 0.622384 0.006568
vt 0.689628 0.006568
vt 0.622384 0.492152
vt 0.622384 0.006568
vt 0.689628 0.492152
vt 0.689628 0.492152
vt 0.622384 0.006568
vt 0.689628 0.006568
vt 0.599042 0.006568
vt 0.618963 0.006568
vt 0.599042 0.492152
vt 0.599042 0.492152
vt 0.618963 0.006568
vt 0.618963 0.492152
vt 0.618963 0.006568
vt 0.618963 0.492152
vt 0.599042 0.006568
vt 0.599042 0.006568
vt 0.618963 0.492152
vt 0.599042 0.492152
vt 0.623307 0.006568
vt 0.623307 0.492152
vt 0.603385 0.006568
vt 0.603385 0.006568
vt 0.623307 0.492152
vt 0.603385 0.24936
vt 0.623307 0.492152
vt 0.603385 0.492152
vt 0.603385 0.24936
vt 1.12866 0.626934
vt 1.12866 0.503625
vt 0.752349 0.626935
vt 0.752349 0.626935
vt 1.12866 0.503625
vt 0.752349 0.503625
vt 1.13173 0.503625
vt 1.13173 0.627522
vt 0.697401 0.503625
vt 0.697401 0.503625
vt 1.13173 0.627522
vt 0.697401 0.627522
vt 0.604966 0.503625
vt 0.598644 0.630557
vt 0.995761 0.503625
vt 0.995761 0.503625
vt 0.598644 0.630557
vt 0.995761 0.630557
vt 0.632741 0.503625
vt 1.15542 0.503625
vt 0.632741 0.630557
vt 0.632741 0.630557
vt 1.15542 0.503625
vt 1.15542 0.630557
vt 0.618963 0.006568
vt 0.618963 0.492152
vt 0.599042 0.006568
vt 0.599042 0.006568
vt 0.618963 0.492152
vt 0.599042 0.492152
vt 0.623307 0.006568
vt 0.623307 0.492152
vt 0.603385 0.006568
vt 0.603385 0.006568
vt 0.623307 0.492152
vt 0.603385 0.24936
vt 0.603385 0.492152
vt 0.603385 0.24936
vt 0.623307 0.492152
vt 0.618963 0.492152
vt 0.599042 0.492152
vt 0.618963 0.006568
vt 0.618963 0.006568
vt 0.599042 0.492152
vt 0.599042 0.006568
vt 1.1319 0.503625
vt 0.697571 0.503625
vt 1.1319 0.627522
vt 1.1319 0.627522
vt 0.697571 0.503625
vt 0.697571 0.627522
vt 0.632741 0.503625
vt 0.632741 0.630557
vt 1.15542 0.503625
vt 1.15542 0.503625
vt 0.632741 0.630557
vt 1.15542 0.630557
vt 1.12929 0.626934
vt 0.752349 0.626935
vt 1.12929 0.503625
vt 1.12929 0.503625
vt 0.752349 0.626935
vt 0.752349 0.503625
vt 0.612843 0.2274
vt 0.606227 0.183969
vt 0.606227 0.199731
vt 0.612843 0.2274
vt 0.619028 0.249853
vt 0.619028 0.204947
vt 0.619028 0.183969
vt 0.612628 0.183969
vt 0.612843 0.2274
vt 0.612628 0.183969
vt 0.606227 0.183969
vt 0.612843 0.2274
vt 0.606227 0.2274
vt 0.612843 0.2274
vt 0.606227 0.199731
vt 0.612843 0.2274
vt 0.619028 0.204947
vt 0.619028 0.183969
vt 0.612843 0.2274
vt 0.606227 0.2274
vt 0.606227 0.255069
vt 0.619028 0.270831
vt 0.612843 0.2274
vt 0.612628 0.270831
vt 0.612628 0.270831
vt 0.612843 0.2274
vt 0.606227 0.270831
vt 0.612843 0.2274
vt 0.619028 0.270831
vt 0.619028 0.249853
vt 0.606227 0.270831
vt 0.612843 0.2274
vt 0.606227 0.255069
vt 0.604966 0.503625
vt 0.995761 0.503625
vt 0.598644 0.630557
vt 0.598644 0.630557
vt 0.995761 0.503625
vt 0.995761 0.630557
vt 0.071952 0.77607
vt 0.281762 0.75
vt 0.928048 0.77607
vt 0.928048 0.77607
vt 0.281762 0.75
vt 0.710948 0.75
vt 0.071952 0.77607
vt 0.281762 0.75
vt 0.928048 0.77607
vt 0.928048 0.77607
vt 0.281762 0.75
vt 0.710948 0.75
vt 0.071952 0.77607
vt 0.496355 0.75
vt 0.928048 0.77607
vt 0.928048 0.77607
vt 0.496355 0.75
vt 0.710948 0.75
vt 0.710948 0.75
vt 0.928048 0.77607
vt 0.281762 0.75
vt 0.281762 0.75
vt 0.928048 0.77607
vt 0.071952 0.77607
vt 0.281762 0.75
vt 0.710948 0.75
vt 0.071952 0.77607
vt 0.071952 0.77607
vt 0.710948 0.75
vt 0.928048 0.77607
vt 0.496355 0.75
vt 0.071952 0.77607
vt 0.281762 0.75
vt 0.432612 0.307258
vt 0.524517 0.307258
vt 0.432612 0.500393
vt 0.432612 0.500393
vt 0.524517 0.307258
vt 0.524517 0.500393
vt 0.432612 0.307258
vt 0.432612 0.500393
vt 0.524517 0.307258
vt 0.524517 0.307258
vt 0.432612 0.500393
vt 0.524517 0.500393
vt 0.02787 0.644472
vt 0.457056 0.644472
vt 0.02787 0.746708
vt 0.02787 0.746708
vt 0.457056 0.644472
vt 0.457056 0.746708
vt 0.02787 0.644472
vt 0.457056 0.746708
vt 0.02787 0.746708
vt 0.02787 0.746708
vt 0.457056 0.644472
vt 0.457056 0.746708
vt 0.02787 0.746708
vt 0.02787 0.644472
vt 0.457056 0.746708
vt 0.457056 0.746708
vt 0.02787 0.644472
vt 0.457056 0.644472
vt 0.457056 0.644472
vt 0.02787 0.746708
vt 0.02787 0.644472
vt 0.457056 0.746708
vt 0.02787 0.644472
vt 0.457056 0.644472
vt 3.07665 0.77607
vt 3.28702 0.75
vt 3.92335 0.77607
vt 3.92335 0.77607
vt 3.28702 0.75
vt 3.71298 0.75
vt 3.07665 0.77607
vt 3.28702 0.75
vt 3.92335 0.77607
vt 3.92335 0.77607
vt 3.28702 0.75
vt 3.71298 0.75
vt 3.07665 0.77607
vt 3.92335 0.77607
vt 3.28693 0.869511
vt 3.28693 0.869511
vt 3.92335 0.77607
vt 3.71307 0.869511
vt 3.28702 0.748676
vt 3.71298 0.66668
vt 3.71298 0.748676
vt 3.28702 0.66668
vt 3.71298 0.748676
vt 3.28702 0.748676
vt 3.28702 0.66668
vt 3.71298 0.66668
vt 3.28702 0.748676
vt 3.28702 0.748676
vt 3.71298 0.66668
vt 3.71298 0.748676
vt 3.07665 0.77607
vt 3.28702 0.75
vt 3.92335 0.77607
vt 3.92335 0.77607
vt 3.28702 0.75
vt 3.71298 0.75
vt 3.28702 0.75
vt 3.71298 0.75
vt 3.07665 0.77607
vt 3.07665 0.77607
vt 3.71298 0.75
vt 3.92335 0.77607
vt 3.5 0.75
vt 3.71298 0.75
vt 3.512 0.77607
vt 3.512 0.77607
vt 3.71298 0.75
vt 3.92335 0.77607
vt 3.92335 0.77607
vt 3.71307 0.869511
vt 3.07665 0.77607
vt 3.07665 0.77607
vt 3.71307 0.869511
vt 3.28693 0.869511
vt 3.28702 0.748676
vt 3.28702 0.66668
vt 3.71298 0.748676
vt 3.71298 0.748676
vt 3.28702 0.66668
vt 3.71298 0.66668
vt 0.432612 0.306321
vt 0.546063 0.306321
vt 0.432612 0.500393
vt 0.432612 0.500393
vt 0.546063 0.306321
vt 0.546063 0.500393
vt 3.5 0.869511
vt 3.28693 0.869511
vt 3.512 0.77607
vt 3.512 0.77607
vt 3.28693 0.869511
vt 3.07665 0.77607
vt 0.546063 0.306321
vt 0.432612 0.306321
vt 0.546063 0.500393
vt 0.546063 0.500393
vt 0.432612 0.306321
vt 0.432612 0.500393
vt 3.5 0.75
vt 3.512 0.77607
vt 3.28702 0.75
vt 3.28702 0.75
vt 3.512 0.77607
vt 3.07665 0.77607
vt 3.71298 0.66668
vt 3.28702 0.748676
vt 3.28702 0.66668
vt 3.71298 0.748676
vt 3.28702 0.66668
vt 3.71298 0.66668
vt 0.985426 0.001419
vt 0.985426 0.494416
vt 0.706035 0.001419
vt 0.706035 0.001419
vt 0.985426 0.494416
vt 0.703012 0.494416
vt 0.985426 0.001419
vt 0.706035 0.001419
vt 0.985426 0.494416
vt 0.985426 0.494416
vt 0.706035 0.001419
vt 0.703012 0.494416

# 1104 Vertex Normals
vn 0.020489 -0.093951 -0.995366
vn 0.020489 -0.093951 -0.995366
vn 0.020489 -0.093951 -0.995366
vn -0.054144 -0.333162 -0.941314
vn -0.054144 -0.333162 -0.941314
vn -0.054144 -0.333162 -0.941314
vn 0.0 -0.193695 -0.981062
vn 0.0 -0.193695 -0.981062
vn 0.0 -0.193695 -0.981062
vn -0.054542 -0.246992 -0.967481
vn -0.054542 -0.246992 -0.967481
vn -0.054542 -0.246992 -0.967481
vn -0.017233 -0.091547 -0.995652
vn -0.017233 -0.091547 -0.995652
vn -0.017233 -0.091547 -0.995652
vn 0.346221 0.014357 0.938043
vn 0.365925 -0.015978 0.930507
vn 0.346221 0.014357 0.938043
vn 0.346221 0.014357 0.938043
vn 0.326044 0.044672 0.944298
vn 0.346221 0.014357 0.938043
vn -0.421294 -0.040862 0.906003
vn -0.421294 -0.040862 0.906003
vn -0.422593 -0.043127 0.905293
vn -0.421294 -0.040862 0.906003
vn -0.421294 -0.040862 0.906003
vn -0.419992 -0.038597 0.906707
vn 0.112649 -0.598105 -0.793461
vn -0.006698 0.975088 -0.221719
vn 0.889825 -0.445877 -0.096984
vn 0.889825 -0.445877 -0.096984
vn -0.006698 0.975088 -0.221719
vn 0.466877 -0.258434 0.845717
vn -0.170348 0.621833 -0.764399
vn 0.532411 0.699788 -0.476272
vn 0.23354 -0.437569 -0.868327
vn 0.23354 -0.437569 -0.868327
vn 0.532411 0.699788 -0.476272
vn 0.969446 -0.243431 -0.030257
vn 0.466877 -0.258434 0.845717
vn -0.006698 0.975088 -0.221719
vn -0.458914 -0.250815 0.852344
vn -0.806745 -0.574483 -0.138321
vn -0.006698 0.975088 -0.221719
vn 0.112649 -0.598105 -0.793461
vn -0.458914 -0.250815 0.852344
vn -0.006698 0.975088 -0.221719
vn -0.806745 -0.574483 -0.138321
vn 0.915627 -0.238266 -0.323815
vn 0.508036 -0.352396 -0.785949
vn 0.731545 -0.005851 -0.681768
vn 0.731545 -0.005851 -0.681768
vn 0.508036 -0.352396 -0.785949
vn 0.334807 0.129688 -0.93332
vn 0.508036 -0.352396 -0.785949
vn -0.384702 -0.369043 -0.846056
vn 0.334807 0.129688 -0.93332
vn 0.334807 0.129688 -0.93332
vn -0.384702 -0.369043 -0.846056
vn -0.574401 0.078003 -0.814849
vn -0.9292 -0.229888 -0.289375
vn -0.690772 0.239824 -0.682142
vn -0.384702 -0.369043 -0.846056
vn -0.384702 -0.369043 -0.846056
vn -0.690772 0.239824 -0.682142
vn -0.574401 0.078003 -0.814849
vn -0.966566 -0.111952 0.230688
vn -0.933458 0.33864 0.11823
vn -0.9292 -0.229888 -0.289375
vn -0.9292 -0.229888 -0.289375
vn -0.933458 0.33864 0.11823
vn -0.690772 0.239824 -0.682142
vn 0.977259 -0.124344 0.171764
vn 0.915627 -0.238266 -0.323815
vn 0.945401 0.319235 0.065622
vn 0.945401 0.319235 0.065622
vn 0.915627 -0.238266 -0.323815
vn 0.731545 -0.005851 -0.681768
vn -0.574401 0.078003 -0.814849
vn -0.690772 0.239824 -0.682142
vn -0.016021 0.910195 0.41387
vn -0.016021 0.910195 0.41387
vn -0.690772 0.239824 -0.682142
vn 0.65711 0.753515 -0.020526
vn -0.553798 0.832226 -0.026617
vn 0.36752 0.553143 0.747637
vn 0.341505 0.290855 -0.893744
vn 0.731545 -0.005851 -0.681768
vn 0.334807 0.129688 -0.93332
vn -0.382119 0.919862 -0.088542
vn -0.382119 0.919862 -0.088542
vn 0.334807 0.129688 -0.93332
vn -0.016021 0.910195 0.41387
vn 0.0 0.765484 0.643454
vn 0.866613 0.497482 -0.038651
vn -0.786004 0.36233 -0.500913
vn -0.219886 0.585703 0.780129
vn 0.668803 0.743147 -0.020868
vn -0.327388 0.328294 -0.886025
vn 0.945401 0.319235 0.065622
vn 0.36752 0.553143 0.747637
vn -0.382119 0.919862 -0.088542
vn -0.382119 0.919862 -0.088542
vn 0.36752 0.553143 0.747637
vn -0.553798 0.832226 -0.026617
vn 0.731545 -0.005851 -0.681768
vn 0.341505 0.290855 -0.893744
vn 0.945401 0.319235 0.065622
vn 0.945401 0.319235 0.065622
vn 0.341505 0.290855 -0.893744
vn 0.36752 0.553143 0.747637
vn 0.731545 -0.005851 -0.681768
vn -0.382119 0.919862 -0.088542
vn 0.341505 0.290855 -0.893744
vn 0.341505 0.290855 -0.893744
vn -0.382119 0.919862 -0.088542
vn -0.553798 0.832226 -0.026617
vn -0.933458 0.33864 0.11823
vn 0.65711 0.753515 -0.020526
vn -0.219886 0.585703 0.780129
vn -0.219886 0.585703 0.780129
vn 0.65711 0.753515 -0.020526
vn 0.668803 0.743147 -0.020868
vn -0.690772 0.239824 -0.682142
vn -0.327388 0.328294 -0.886025
vn 0.65711 0.753515 -0.020526
vn 0.65711 0.753515 -0.020526
vn -0.327388 0.328294 -0.886025
vn 0.668803 0.743147 -0.020868
vn -0.690772 0.239824 -0.682142
vn -0.933458 0.33864 0.11823
vn -0.327388 0.328294 -0.886025
vn -0.327388 0.328294 -0.886025
vn -0.933458 0.33864 0.11823
vn -0.219886 0.585703 0.780129
vn 0.334807 0.129688 -0.93332
vn 0.866613 0.497482 -0.038651
vn -0.016021 0.910195 0.41387
vn -0.016021 0.910195 0.41387
vn 0.866613 0.497482 -0.038651
vn 0.0 0.765484 0.643454
vn 0.866613 0.497482 -0.038651
vn 0.334807 0.129688 -0.93332
vn -0.786004 0.36233 -0.500913
vn -0.786004 0.36233 -0.500913
vn 0.334807 0.129688 -0.93332
vn -0.574401 0.078003 -0.814849
vn -0.574401 0.078003 -0.814849
vn -0.016021 0.910195 0.41387
vn -0.786004 0.36233 -0.500913
vn -0.786004 0.36233 -0.500913
vn -0.016021 0.910195 0.41387
vn 0.0 0.765484 0.643454
vn 0.053975 -0.6045 -0.794774
vn 0.493835 -0.625249 -0.60431
vn 0.627527 -0.621755 0.468647
vn 0.627527 -0.621755 0.468647
vn 0.493835 -0.625249 -0.60431
vn 0.745083 -0.369995 0.554937
vn 0.493835 -0.625249 -0.60431
vn 0.053975 -0.6045 -0.794774
vn -0.886993 -0.18535 -0.422952
vn -0.886993 -0.18535 -0.422952
vn 0.053975 -0.6045 -0.794774
vn -0.599812 -0.790404 -0.124445
vn -0.599812 -0.790404 -0.124445
vn -0.69655 -0.27723 0.661787
vn -0.886993 -0.18535 -0.422952
vn -0.886993 -0.18535 -0.422952
vn -0.69655 -0.27723 0.661787
vn -0.311289 -0.302184 0.90099
vn -0.69655 -0.27723 0.661787
vn 0.627527 -0.621755 0.468647
vn -0.311289 -0.302184 0.90099
vn -0.311289 -0.302184 0.90099
vn 0.627527 -0.621755 0.468647
vn 0.745083 -0.369995 0.554937
vn 0.511602 -0.069501 -0.856407
vn 0.828213 -0.226828 0.512457
vn 0.493835 -0.625249 -0.60431
vn 0.493835 -0.625249 -0.60431
vn 0.828213 -0.226828 0.512457
vn 0.745083 -0.369995 0.554937
vn 0.511602 -0.069501 -0.856407
vn 0.493835 -0.625249 -0.60431
vn -0.880516 -0.230292 -0.414314
vn -0.880516 -0.230292 -0.414314
vn 0.493835 -0.625249 -0.60431
vn -0.886993 -0.18535 -0.422952
vn -0.886993 -0.18535 -0.422952
vn -0.311289 -0.302184 0.90099
vn -0.880516 -0.230292 -0.414314
vn -0.880516 -0.230292 -0.414314
vn -0.311289 -0.302184 0.90099
vn -0.469434 0.112898 0.87572
vn -0.469434 0.112898 0.87572
vn -0.311289 -0.302184 0.90099
vn 0.828213 -0.226828 0.512457
vn 0.828213 -0.226828 0.512457
vn -0.311289 -0.302184 0.90099
vn 0.745083 -0.369995 0.554937
vn 0.828213 -0.226828 0.512457
vn 0.511602 -0.069501 -0.856407
vn 0.080935 0.988207 -0.129987
vn 0.511602 -0.069501 -0.856407
vn -0.880516 -0.230292 -0.414314
vn 0.080935 0.988207 -0.129987
vn -0.880516 -0.230292 -0.414314
vn -0.469434 0.112898 0.87572
vn 0.080935 0.988207 -0.129987
vn -0.469434 0.112898 0.87572
vn 0.828213 -0.226828 0.512457
vn 0.080935 0.988207 -0.129987
vn 0.053975 -0.6045 -0.794774
vn 0.627527 -0.621755 0.468647
vn -0.599812 -0.790404 -0.124445
vn -0.599812 -0.790404 -0.124445
vn 0.627527 -0.621755 0.468647
vn -0.69655 -0.27723 0.661787
vn 0.586196 -0.804068 -0.099241
vn -0.033495 -0.615052 -0.787775
vn 0.910092 -0.188767 -0.368917
vn 0.910092 -0.188767 -0.368917
vn -0.033495 -0.615052 -0.787775
vn -0.370356 -0.52182 -0.768466
vn -0.033495 -0.615052 -0.787775
vn -0.660565 -0.6138 0.432324
vn -0.370356 -0.52182 -0.768466
vn -0.370356 -0.52182 -0.768466
vn -0.660565 -0.6138 0.432324
vn -0.816525 -0.478061 0.323642
vn -0.816525 -0.478061 0.323642
vn -0.660565 -0.6138 0.432324
vn 0.262011 -0.356549 0.896785
vn 0.262011 -0.356549 0.896785
vn -0.660565 -0.6138 0.432324
vn 0.646712 -0.281561 0.708863
vn 0.262011 -0.356549 0.896785
vn 0.646712 -0.281561 0.708863
vn 0.910092 -0.188767 -0.368917
vn 0.910092 -0.188767 -0.368917
vn 0.646712 -0.281561 0.708863
vn 0.586196 -0.804068 -0.099241
vn 0.910092 -0.188767 -0.368917
vn -0.370356 -0.52182 -0.768466
vn 0.898277 -0.1456 -0.414607
vn 0.898277 -0.1456 -0.414607
vn -0.370356 -0.52182 -0.768466
vn -0.621224 -0.213658 -0.753944
vn -0.370356 -0.52182 -0.768466
vn -0.816525 -0.478061 0.323642
vn -0.621224 -0.213658 -0.753944
vn -0.621224 -0.213658 -0.753944
vn -0.816525 -0.478061 0.323642
vn -0.792637 -0.181499 0.582052
vn -0.816525 -0.478061 0.323642
vn 0.262011 -0.356549 0.896785
vn -0.792637 -0.181499 0.582052
vn -0.792637 -0.181499 0.582052
vn 0.262011 -0.356549 0.896785
vn 0.406668 0.143841 0.902181
vn 0.406668 0.143841 0.902181
vn 0.262011 -0.356549 0.896785
vn 0.898277 -0.1456 -0.414607
vn 0.898277 -0.1456 -0.414607
vn 0.262011 -0.356549 0.896785
vn 0.910092 -0.188767 -0.368917
vn 0.898277 -0.1456 -0.414607
vn -0.621224 -0.213658 -0.753944
vn -0.110332 0.985229 -0.130964
vn -0.621224 -0.213658 -0.753944
vn -0.792637 -0.181499 0.582052
vn -0.110332 0.985229 -0.130964
vn -0.792637 -0.181499 0.582052
vn 0.406668 0.143841 0.902181
vn -0.110332 0.985229 -0.130964
vn 0.406668 0.143841 0.902181
vn 0.898277 -0.1456 -0.414607
vn -0.110332 0.985229 -0.130964
vn -0.033495 -0.615052 -0.787775
vn 0.586196 -0.804068 -0.099241
vn -0.660565 -0.6138 0.432324
vn -0.660565 -0.6138 0.432324
vn 0.586196 -0.804068 -0.099241
vn 0.646712 -0.281561 0.708863
vn 0.620179 -0.768015 -0.159785
vn 0.595656 -0.791487 -0.136905
vn -0.488351 -0.522525 -0.698915
vn -0.488351 -0.522525 -0.698915
vn 0.595656 -0.791487 -0.136905
vn -0.672265 -0.536868 -0.509738
vn -0.488351 -0.522525 -0.698915
vn -0.672265 -0.536868 -0.509738
vn -0.913877 0.115788 0.38913
vn -0.913877 0.115788 0.38913
vn -0.672265 -0.536868 -0.509738
vn -0.633461 -0.645777 0.426262
vn -0.633461 -0.645777 0.426262
vn 0.045275 -0.165473 0.985174
vn -0.913877 0.115788 0.38913
vn -0.913877 0.115788 0.38913
vn 0.045275 -0.165473 0.985174
vn 0.313815 -0.228052 0.92169
vn 0.045275 -0.165473 0.985174
vn 0.595656 -0.791487 -0.136905
vn 0.313815 -0.228052 0.92169
vn 0.313815 -0.228052 0.92169
vn 0.595656 -0.791487 -0.136905
vn 0.620179 -0.768015 -0.159785
vn 0.852282 -0.399384 -0.337798
vn 0.620179 -0.768015 -0.159785
vn -0.302112 -0.414868 -0.858262
vn -0.302112 -0.414868 -0.858262
vn 0.620179 -0.768015 -0.159785
vn -0.488351 -0.522525 -0.698915
vn -0.302112 -0.414868 -0.858262
vn -0.488351 -0.522525 -0.698915
vn -0.908767 0.144558 0.391466
vn -0.908767 0.144558 0.391466
vn -0.488351 -0.522525 -0.698915
vn -0.913877 0.115788 0.38913
vn -0.913877 0.115788 0.38913
vn 0.313815 -0.228052 0.92169
vn -0.908767 0.144558 0.391466
vn -0.908767 0.144558 0.391466
vn 0.313815 -0.228052 0.92169
vn 0.540322 -0.159289 0.826244
vn 0.313815 -0.228052 0.92169
vn 0.620179 -0.768015 -0.159785
vn 0.540322 -0.159289 0.826244
vn 0.540322 -0.159289 0.826244
vn 0.620179 -0.768015 -0.159785
vn 0.852282 -0.399384 -0.337798
vn 0.852282 -0.399384 -0.337798
vn -0.302112 -0.414868 -0.858262
vn 0.219734 0.926861 -0.304378
vn -0.302112 -0.414868 -0.858262
vn -0.908767 0.144558 0.391466
vn 0.219734 0.926861 -0.304378
vn -0.908767 0.144558 0.391466
vn 0.540322 -0.159289 0.826244
vn 0.219734 0.926861 -0.304378
vn 0.540322 -0.159289 0.826244
vn 0.852282 -0.399384 -0.337798
vn 0.219734 0.926861 -0.304378
vn 0.045275 -0.165473 0.985174
vn -0.633461 -0.645777 0.426262
vn 0.595656 -0.791487 -0.136905
vn 0.595656 -0.791487 -0.136905
vn -0.633461 -0.645777 0.426262
vn -0.672265 -0.536868 -0.509738
vn 0.645809 -0.385815 0.658845
vn 0.707561 -0.529268 -0.468223
vn 0.958472 0.044911 0.28163
vn 0.958472 0.044911 0.28163
vn 0.707561 -0.529268 -0.468223
vn 0.507703 -0.529651 -0.679491
vn 0.707561 -0.529268 -0.468223
vn -0.595274 -0.79221 -0.134357
vn 0.507703 -0.529651 -0.679491
vn 0.507703 -0.529651 -0.679491
vn -0.595274 -0.79221 -0.134357
vn -0.630258 -0.759015 -0.163312
vn -0.630258 -0.759015 -0.163312
vn -0.595274 -0.79221 -0.134357
vn -0.181149 -0.127712 0.975128
vn -0.181149 -0.127712 0.975128
vn -0.595274 -0.79221 -0.134357
vn -0.276568 -0.436941 0.855916
vn -0.276568 -0.436941 0.855916
vn 0.645809 -0.385815 0.658845
vn -0.181149 -0.127712 0.975128
vn -0.181149 -0.127712 0.975128
vn 0.645809 -0.385815 0.658845
vn 0.958472 0.044911 0.28163
vn 0.303853 -0.423587 -0.853374
vn 0.899646 0.141798 0.412953
vn 0.507703 -0.529651 -0.679491
vn 0.507703 -0.529651 -0.679491
vn 0.899646 0.141798 0.412953
vn 0.958472 0.044911 0.28163
vn 0.507703 -0.529651 -0.679491
vn -0.630258 -0.759015 -0.163312
vn 0.303853 -0.423587 -0.853374
vn 0.303853 -0.423587 -0.853374
vn -0.630258 -0.759015 -0.163312
vn -0.85052 -0.403765 -0.337031
vn -0.85052 -0.403765 -0.337031
vn -0.630258 -0.759015 -0.163312
vn -0.553859 -0.145665 0.81977
vn -0.553859 -0.145665 0.81977
vn -0.630258 -0.759015 -0.163312
vn -0.181149 -0.127712 0.975128
vn -0.553859 -0.145665 0.81977
vn -0.181149 -0.127712 0.975128
vn 0.899646 0.141798 0.412953
vn 0.899646 0.141798 0.412953
vn -0.181149 -0.127712 0.975128
vn 0.958472 0.044911 0.28163
vn 0.899646 0.141798 0.412953
vn 0.303853 -0.423587 -0.853374
vn -0.239332 0.925476 -0.293623
vn 0.303853 -0.423587 -0.853374
vn -0.85052 -0.403765 -0.337031
vn -0.239332 0.925476 -0.293623
vn -0.85052 -0.403765 -0.337031
vn -0.553859 -0.145665 0.81977
vn -0.239332 0.925476 -0.293623
vn -0.553859 -0.145665 0.81977
vn 0.899646 0.141798 0.412953
vn -0.239332 0.925476 -0.293623
vn 0.707561 -0.529268 -0.468223
vn 0.645809 -0.385815 0.658845
vn -0.595274 -0.79221 -0.134357
vn -0.595274 -0.79221 -0.134357
vn 0.645809 -0.385815 0.658845
vn -0.276568 -0.436941 0.855916
vn 0.37188 0.127691 -0.919456
vn 0.1363 0.849085 -0.510369
vn 0.634057 0.687154 -0.35467
vn 0.1363 0.849085 -0.510369
vn 0.248421 0.854234 -0.456697
vn 0.634057 0.687154 -0.35467
vn 0.634057 0.687154 -0.35467
vn 0.248421 0.854234 -0.456697
vn 0.298289 0.900222 -0.317211
vn 0.37188 0.127691 -0.919456
vn -0.314456 0.499159 -0.807439
vn 0.1363 0.849085 -0.510369
vn 0.1363 0.849085 -0.510369
vn -0.314456 0.499159 -0.807439
vn 0.007218 0.846434 -0.532445
vn 0.007218 0.846434 -0.532445
vn -0.314456 0.499159 -0.807439
vn -0.181129 0.853684 -0.488278
vn -0.314456 0.499159 -0.807439
vn -0.71641 0.570432 -0.401701
vn -0.181129 0.853684 -0.488278
vn -0.181129 0.853684 -0.488278
vn -0.71641 0.570432 -0.401701
vn -0.256179 0.848048 -0.463883
vn -0.256179 0.848048 -0.463883
vn -0.71641 0.570432 -0.401701
vn -0.371075 0.884605 -0.282449
vn -0.71641 0.570432 -0.401701
vn -0.649772 0.752133 0.109963
vn -0.371075 0.884605 -0.282449
vn -0.371075 0.884605 -0.282449
vn -0.649772 0.752133 0.109963
vn -0.40793 0.888152 -0.211612
vn -0.40793 0.888152 -0.211612
vn -0.649772 0.752133 0.109963
vn -0.318033 0.945433 -0.070796
vn -0.396316 0.701403 0.592425
vn -0.183772 0.978608 0.09249
vn -0.649772 0.752133 0.109963
vn -0.183772 0.978608 0.09249
vn -0.256943 0.961564 0.096828
vn -0.649772 0.752133 0.109963
vn -0.256943 0.961564 0.096828
vn -0.318033 0.945433 -0.070796
vn -0.649772 0.752133 0.109963
vn -0.001099 0.974445 -0.224624
vn -0.183772 0.978608 0.09249
vn -0.396316 0.701403 0.592425
vn -0.396316 0.701403 0.592425
vn -0.259058 0.574289 0.776583
vn -0.001099 0.974445 -0.224624
vn -0.001099 0.974445 -0.224624
vn -0.259058 0.574289 0.776583
vn -0.000646 0.795462 0.606003
vn 0.39605 0.704832 0.588521
vn -0.001099 0.974445 -0.224624
vn 0.261027 0.577451 0.773573
vn -0.001099 0.974445 -0.224624
vn -0.000646 0.795462 0.606003
vn 0.261027 0.577451 0.773573
vn -0.001099 0.974445 -0.224624
vn 0.39605 0.704832 0.588521
vn 0.178808 0.980114 0.086054
vn 0.39605 0.704832 0.588521
vn 0.707054 0.671155 0.222768
vn 0.178808 0.980114 0.086054
vn 0.178808 0.980114 0.086054
vn 0.707054 0.671155 0.222768
vn 0.249144 0.964484 0.087742
vn 0.249144 0.964484 0.087742
vn 0.707054 0.671155 0.222768
vn 0.341742 0.933349 -0.109869
vn 0.707054 0.671155 0.222768
vn 0.634057 0.687154 -0.35467
vn 0.341742 0.933349 -0.109869
vn 0.341742 0.933349 -0.109869
vn 0.634057 0.687154 -0.35467
vn 0.361272 0.911027 -0.198779
vn 0.361272 0.911027 -0.198779
vn 0.634057 0.687154 -0.35467
vn 0.298289 0.900222 -0.317211
vn 0.707054 0.671155 0.222768
vn 0.479488 -0.835782 0.267506
vn 0.634057 0.687154 -0.35467
vn 0.634057 0.687154 -0.35467
vn 0.479488 -0.835782 0.267506
vn 0.57313 -0.80125 -0.171814
vn 0.187531 -0.94105 -0.281525
vn 0.37188 0.127691 -0.919456
vn 0.57313 -0.80125 -0.171814
vn 0.57313 -0.80125 -0.171814
vn 0.37188 0.127691 -0.919456
vn 0.634057 0.687154 -0.35467
vn 0.187531 -0.94105 -0.281525
vn -0.191174 -0.798322 -0.571082
vn 0.37188 0.127691 -0.919456
vn 0.37188 0.127691 -0.919456
vn -0.191174 -0.798322 -0.571082
vn -0.314456 0.499159 -0.807439
vn 0.479488 -0.835782 0.267506
vn 0.707054 0.671155 0.222768
vn 0.296028 -0.534564 0.791587
vn 0.296028 -0.534564 0.791587
vn 0.707054 0.671155 0.222768
vn 0.39605 0.704832 0.588521
vn -0.000646 0.795462 0.606003
vn -0.000001 -0.540096 0.841603
vn 0.261027 0.577451 0.773573
vn 0.261027 0.577451 0.773573
vn -0.000001 -0.540096 0.841603
vn -0.366203 -0.472615 0.80158
vn 0.366205 -0.472614 0.80158
vn -0.000001 -0.540096 0.841603
vn -0.259058 0.574289 0.776583
vn -0.259058 0.574289 0.776583
vn -0.000001 -0.540096 0.841603
vn -0.000646 0.795462 0.606003
vn -0.366203 -0.472615 0.80158
vn -0.000001 -0.540096 0.841603
vn -0.375865 -0.566352 0.733465
vn -0.375865 -0.566352 0.733465
vn -0.000001 -0.540096 0.841603
vn -0.0 -0.480683 0.876894
vn 0.261027 0.577451 0.773573
vn -0.366203 -0.472615 0.80158
vn 0.39605 0.704832 0.588521
vn 0.39605 0.704832 0.588521
vn -0.366203 -0.472615 0.80158
vn 0.296028 -0.534564 0.791587
vn -0.296023 -0.534573 0.791582
vn 0.366205 -0.472614 0.80158
vn -0.396316 0.701403 0.592425
vn -0.396316 0.701403 0.592425
vn 0.366205 -0.472614 0.80158
vn -0.259058 0.574289 0.776583
vn 0.366205 -0.472614 0.80158
vn 0.375863 -0.566353 0.733465
vn -0.000001 -0.540096 0.841603
vn -0.000001 -0.540096 0.841603
vn 0.375863 -0.566353 0.733465
vn -0.0 -0.480683 0.876894
vn 0.197448 -0.938937 -0.281802
vn -0.141613 -0.928097 -0.344356
vn 0.187531 -0.94105 -0.281525
vn 0.187531 -0.94105 -0.281525
vn -0.141613 -0.928097 -0.344356
vn -0.191174 -0.798322 -0.571082
vn 0.375863 -0.566353 0.733465
vn 0.366205 -0.472614 0.80158
vn -0.104441 -0.609193 0.786115
vn -0.104441 -0.609193 0.786115
vn 0.366205 -0.472614 0.80158
vn -0.296023 -0.534573 0.791582
vn 0.296028 -0.534564 0.791587
vn -0.366203 -0.472615 0.80158
vn 0.10444 -0.609191 0.786117
vn 0.10444 -0.609191 0.786117
vn -0.366203 -0.472615 0.80158
vn -0.375865 -0.566352 0.733465
vn -0.000001 0.167699 0.985838
vn -0.375865 -0.566352 0.733465
vn -0.0 -0.480683 0.876894
vn -0.0 -0.480683 0.876894
vn 0.375863 -0.566353 0.733465
vn -0.000001 0.167699 0.985838
vn -0.000001 0.167699 0.985838
vn 0.10444 -0.609191 0.786117
vn -0.375865 -0.566352 0.733465
vn -0.104441 -0.609193 0.786115
vn -0.000001 0.167699 0.985838
vn 0.375863 -0.566353 0.733465
vn 0.197448 -0.938937 -0.281802
vn 0.306632 -0.735248 -0.604473
vn -0.141613 -0.928097 -0.344356
vn -0.141613 -0.928097 -0.344356
vn 0.306632 -0.735248 -0.604473
vn -0.372543 -0.789832 -0.487214
vn -0.104441 -0.609193 0.786115
vn -0.246711 -0.469935 0.847523
vn -0.000001 0.167699 0.985838
vn -0.000001 0.167699 0.985838
vn -0.246711 -0.469935 0.847523
vn -0.0 -0.561388 0.827553
vn -0.0 -0.561388 0.827553
vn 0.246708 -0.469937 0.847522
vn -0.000001 0.167699 0.985838
vn -0.000001 0.167699 0.985838
vn 0.246708 -0.469937 0.847522
vn 0.10444 -0.609191 0.786117
vn 0.657947 -0.226365 0.718237
vn -0.566501 -0.472792 0.67494
vn 0.438303 -0.880789 0.179169
vn 0.438303 -0.880789 0.179169
vn -0.566501 -0.472792 0.67494
vn -0.689816 -0.709455 0.144316
vn 0.438303 -0.880789 0.179169
vn 0.983513 0.177208 -0.036047
vn 0.657947 -0.226365 0.718237
vn 0.657947 -0.226365 0.718237
vn 0.983513 0.177208 -0.036047
vn 0.745294 0.442676 0.498573
vn -0.689816 -0.709455 0.144316
vn -0.566501 -0.472792 0.67494
vn -0.983513 0.177208 -0.036047
vn -0.983513 0.177208 -0.036047
vn -0.566501 -0.472792 0.67494
vn -0.745294 0.442676 0.498573
vn -0.465303 0.779935 0.418563
vn -0.687647 0.711475 -0.144725
vn -0.745294 0.442676 0.498573
vn -0.745294 0.442676 0.498573
vn -0.687647 0.711475 -0.144725
vn -0.983513 0.177208 -0.036047
vn -0.0 0.803328 0.595537
vn -0.000001 0.979931 -0.199335
vn -0.465303 0.779935 0.418563
vn -0.465303 0.779935 0.418563
vn -0.000001 0.979931 -0.199335
vn -0.687647 0.711475 -0.144725
vn -0.0 0.803328 0.595537
vn 0.465303 0.779935 0.418563
vn -0.000001 0.979931 -0.199335
vn -0.000001 0.979931 -0.199335
vn 0.465303 0.779935 0.418563
vn 0.687647 0.711475 -0.144725
vn 0.657947 -0.226365 0.718237
vn 0.745294 0.442676 0.498573
vn 0.0 0.193683 0.981064
vn 0.465303 0.779935 0.418563
vn 0.745294 0.442676 0.498573
vn 0.687647 0.711475 -0.144725
vn 0.687647 0.711475 -0.144725
vn 0.745294 0.442676 0.498573
vn 0.983513 0.177208 -0.036047
vn 0.0 0.193683 0.981064
vn -0.465303 0.779935 0.418563
vn -0.745294 0.442676 0.498573
vn 0.0 0.193683 0.981064
vn -0.745294 0.442676 0.498573
vn -0.566501 -0.472792 0.67494
vn 0.657947 -0.226365 0.718237
vn 0.0 0.193683 0.981064
vn -0.566501 -0.472792 0.67494
vn 0.745294 0.442676 0.498573
vn 0.465303 0.779935 0.418563
vn 0.0 0.193683 0.981064
vn 0.465303 0.779935 0.418563
vn -0.0 0.803328 0.595537
vn 0.0 0.193683 0.981064
vn -0.0 0.803328 0.595537
vn -0.465303 0.779935 0.418563
vn 0.0 0.193683 0.981064
vn -0.020491 0.093964 0.995365
vn -0.020491 0.093964 0.995365
vn -0.020491 0.093964 0.995365
vn 0.05415 0.333173 0.94131
vn 0.05415 0.333173 0.94131
vn 0.05415 0.333173 0.94131
vn -0.000006 0.19367 0.981067
vn -0.000006 0.19367 0.981067
vn -0.000006 0.19367 0.981067
vn 0.054559 0.246999 0.967479
vn 0.054559 0.246999 0.967479
vn 0.054559 0.246999 0.967479
vn 0.017228 0.091557 0.995651
vn 0.017228 0.091557 0.995651
vn 0.017228 0.091557 0.995651
vn -0.933458 0.33864 0.11823
vn -0.966566 -0.111952 0.230688
vn -0.90081 0.23884 0.362624
vn -0.90081 0.23884 0.362624
vn -0.966566 -0.111952 0.230688
vn -0.706941 -0.0178 0.707049
vn 0.762332 0.472596 -0.442157
vn -0.881519 0.466147 -0.075044
vn 0.30911 0.808752 0.500371
vn 0.720485 -0.022835 0.693094
vn 0.977259 -0.124344 0.171764
vn 0.914226 0.232803 0.331652
vn 0.914226 0.232803 0.331652
vn 0.977259 -0.124344 0.171764
vn 0.945401 0.319235 0.065622
vn 0.881869 0.465124 -0.077249
vn -0.760462 0.472378 -0.445597
vn -0.307365 0.810966 0.497856
vn 0.65711 0.753515 -0.020526
vn -0.933458 0.33864 0.11823
vn 0.278453 0.703489 -0.653886
vn 0.278453 0.703489 -0.653886
vn -0.933458 0.33864 0.11823
vn -0.90081 0.23884 0.362624
vn -0.90081 0.23884 0.362624
vn -0.881519 0.466147 -0.075044
vn 0.278453 0.703489 -0.653886
vn 0.278453 0.703489 -0.653886
vn -0.881519 0.466147 -0.075044
vn 0.762332 0.472596 -0.442157
vn 0.295017 0.044948 0.954434
vn -0.13257 0.450337 0.882962
vn -0.19564 0.053473 0.979217
vn -0.19564 0.053473 0.979217
vn -0.13257 0.450337 0.882962
vn 0.160992 0.332191 0.929371
vn 0.295017 0.044948 0.954434
vn 0.720485 -0.022835 0.693094
vn -0.13257 0.450337 0.882962
vn -0.13257 0.450337 0.882962
vn 0.720485 -0.022835 0.693094
vn 0.914226 0.232803 0.331652
vn -0.19564 0.053473 0.979217
vn 0.160992 0.332191 0.929371
vn -0.706941 -0.0178 0.707049
vn -0.706941 -0.0178 0.707049
vn 0.160992 0.332191 0.929371
vn -0.90081 0.23884 0.362624
vn 0.160992 0.332191 0.929371
vn -0.13257 0.450337 0.882962
vn 0.422413 0.868335 -0.259925
vn 0.422413 0.868335 -0.259925
vn -0.13257 0.450337 0.882962
vn -0.674311 0.714407 -0.18689
vn -0.382119 0.919862 -0.088542
vn -0.27589 0.694931 -0.664045
vn 0.945401 0.319235 0.065622
vn 0.945401 0.319235 0.065622
vn -0.27589 0.694931 -0.664045
vn 0.914226 0.232803 0.331652
vn 0.30911 0.808752 0.500371
vn -0.881519 0.466147 -0.075044
vn 0.160992 0.332191 0.929371
vn 0.160992 0.332191 0.929371
vn -0.881519 0.466147 -0.075044
vn -0.90081 0.23884 0.362624
vn 0.30911 0.808752 0.500371
vn 0.160992 0.332191 0.929371
vn 0.762332 0.472596 -0.442157
vn 0.762332 0.472596 -0.442157
vn 0.160992 0.332191 0.929371
vn 0.278453 0.703489 -0.653886
vn 0.914226 0.232803 0.331652
vn -0.27589 0.694931 -0.664045
vn 0.881869 0.465124 -0.077249
vn 0.881869 0.465124 -0.077249
vn -0.27589 0.694931 -0.664045
vn -0.760462 0.472378 -0.445597
vn -0.27589 0.694931 -0.664045
vn -0.13257 0.450337 0.882962
vn -0.760462 0.472378 -0.445597
vn -0.760462 0.472378 -0.445597
vn -0.13257 0.450337 0.882962
vn -0.307365 0.810966 0.497856
vn 0.914226 0.232803 0.331652
vn 0.881869 0.465124 -0.077249
vn -0.13257 0.450337 0.882962
vn -0.13257 0.450337 0.882962
vn 0.881869 0.465124 -0.077249
vn -0.307365 0.810966 0.497856
vn 0.160992 0.332191 0.929371
vn 0.422413 0.868335 -0.259925
vn 0.278453 0.703489 -0.653886
vn -0.674311 0.714407 -0.18689
vn -0.13257 0.450337 0.882962
vn -0.27589 0.694931 -0.664045
vn 0.532411 0.699788 -0.476272
vn 0.36119 0.883148 0.29932
vn 0.969446 -0.243431 -0.030257
vn 0.969446 -0.243431 -0.030257
vn 0.36119 0.883148 0.29932
vn 0.603988 -0.089083 0.791999
vn -0.000316 0.863167 0.504918
vn -0.000761 -0.001264 0.999999
vn 0.36119 0.883148 0.29932
vn 0.36119 0.883148 0.29932
vn -0.000761 -0.001264 0.999999
vn 0.603988 -0.089083 0.791999
vn -0.191174 -0.798322 -0.571082
vn -0.43781 -0.897141 -0.058835
vn -0.314456 0.499159 -0.807439
vn -0.314456 0.499159 -0.807439
vn -0.43781 -0.897141 -0.058835
vn -0.71641 0.570432 -0.401701
vn -0.43781 -0.897141 -0.058835
vn -0.62815 -0.725285 0.281762
vn -0.71641 0.570432 -0.401701
vn -0.71641 0.570432 -0.401701
vn -0.62815 -0.725285 0.281762
vn -0.649772 0.752133 0.109963
vn -0.62815 -0.725285 0.281762
vn -0.296023 -0.534573 0.791582
vn -0.649772 0.752133 0.109963
vn -0.649772 0.752133 0.109963
vn -0.296023 -0.534573 0.791582
vn -0.396316 0.701403 0.592425
vn -0.650782 -0.721648 -0.236022
vn -0.43781 -0.897141 -0.058835
vn -0.141613 -0.928097 -0.344356
vn -0.141613 -0.928097 -0.344356
vn -0.43781 -0.897141 -0.058835
vn -0.191174 -0.798322 -0.571082
vn -0.296023 -0.534573 0.791582
vn -0.62815 -0.725285 0.281762
vn -0.104441 -0.609193 0.786115
vn -0.104441 -0.609193 0.786115
vn -0.62815 -0.725285 0.281762
vn -0.496741 -0.8052 0.323884
vn -0.62815 -0.725285 0.281762
vn -0.43781 -0.897141 -0.058835
vn -0.496741 -0.8052 0.323884
vn -0.496741 -0.8052 0.323884
vn -0.43781 -0.897141 -0.058835
vn -0.834066 -0.540459 0.110623
vn -0.43781 -0.897141 -0.058835
vn -0.650782 -0.721648 -0.236022
vn -0.834066 -0.540459 0.110623
vn -0.496741 -0.8052 0.323884
vn -0.777006 -0.518362 0.357159
vn -0.104441 -0.609193 0.786115
vn -0.104441 -0.609193 0.786115
vn -0.777006 -0.518362 0.357159
vn -0.246711 -0.469935 0.847523
vn -0.711981 -0.700871 -0.043159
vn -0.650782 -0.721648 -0.236022
vn -0.372543 -0.789832 -0.487214
vn -0.372543 -0.789832 -0.487214
vn -0.650782 -0.721648 -0.236022
vn -0.141613 -0.928097 -0.344356
vn -0.639303 -0.752117 0.160034
vn -0.834066 -0.540459 0.110623
vn -0.711981 -0.700871 -0.043159
vn -0.711981 -0.700871 -0.043159
vn -0.834066 -0.540459 0.110623
vn -0.650782 -0.721648 -0.236022
vn -0.639303 -0.752117 0.160034
vn -0.777006 -0.518362 0.357159
vn -0.834066 -0.540459 0.110623
vn -0.834066 -0.540459 0.110623
vn -0.777006 -0.518362 0.357159
vn -0.496741 -0.8052 0.323884
vn 0.187531 -0.94105 -0.281525
vn 0.57313 -0.80125 -0.171814
vn 0.197448 -0.938937 -0.281802
vn 0.197448 -0.938937 -0.281802
vn 0.57313 -0.80125 -0.171814
vn 0.562164 -0.812819 -0.152633
vn 0.57313 -0.80125 -0.171814
vn 0.479488 -0.835782 0.267506
vn 0.562164 -0.812819 -0.152633
vn 0.562164 -0.812819 -0.152633
vn 0.479488 -0.835782 0.267506
vn 0.833823 -0.540819 0.1107
vn 0.603841 -0.715701 0.350924
vn 0.833823 -0.540819 0.1107
vn 0.479488 -0.835782 0.267506
vn 0.296028 -0.534564 0.791587
vn 0.10444 -0.609191 0.786117
vn 0.479488 -0.835782 0.267506
vn 0.479488 -0.835782 0.267506
vn 0.10444 -0.609191 0.786117
vn 0.603841 -0.715701 0.350924
vn 0.711981 -0.700871 -0.04316
vn 0.306632 -0.735248 -0.604473
vn 0.562164 -0.812819 -0.152633
vn 0.562164 -0.812819 -0.152633
vn 0.306632 -0.735248 -0.604473
vn 0.197448 -0.938937 -0.281802
vn 0.639303 -0.752117 0.160034
vn 0.833823 -0.540819 0.1107
vn 0.777005 -0.518363 0.357159
vn 0.777005 -0.518363 0.357159
vn 0.833823 -0.540819 0.1107
vn 0.603841 -0.715701 0.350924
vn 0.603841 -0.715701 0.350924
vn 0.10444 -0.609191 0.786117
vn 0.777005 -0.518363 0.357159
vn 0.777005 -0.518363 0.357159
vn 0.10444 -0.609191 0.786117
vn 0.246708 -0.469937 0.847522
vn -0.0 -0.979424 0.201811
vn 0.777005 -0.518363 0.357159
vn 0.246708 -0.469937 0.847522
vn -0.0 -0.979424 0.201811
vn -0.372543 -0.789832 -0.487214
vn 0.306632 -0.735248 -0.604473
vn 0.711981 -0.700871 -0.04316
vn 0.639303 -0.752117 0.160034
vn -0.0 -0.979424 0.201811
vn 0.639303 -0.752117 0.160034
vn 0.777005 -0.518363 0.357159
vn -0.0 -0.979424 0.201811
vn -0.0 -0.561388 0.827553
vn -0.0 -0.979424 0.201811
vn 0.246708 -0.469937 0.847522
vn -0.0 -0.979424 0.201811
vn 0.306632 -0.735248 -0.604473
vn 0.711981 -0.700871 -0.04316
vn -0.0 -0.979424 0.201811
vn -0.0 -0.561388 0.827553
vn -0.246711 -0.469935 0.847523
vn -0.711981 -0.700871 -0.043159
vn -0.0 -0.979424 0.201811
vn -0.639303 -0.752117 0.160034
vn -0.639303 -0.752117 0.160034
vn -0.0 -0.979424 0.201811
vn -0.777006 -0.518362 0.357159
vn -0.0 -0.979424 0.201811
vn -0.711981 -0.700871 -0.043159
vn -0.372543 -0.789832 -0.487214
vn -0.777006 -0.518362 0.357159
vn -0.0 -0.979424 0.201811
vn -0.246711 -0.469935 0.847523
vn 0.639303 -0.752117 0.160034
vn 0.711981 -0.700871 -0.04316
vn 0.833823 -0.540819 0.1107
vn 0.833823 -0.540819 0.1107
vn 0.711981 -0.700871 -0.04316
vn 0.562164 -0.812819 -0.152633
vn 0.889825 -0.445877 -0.096984
vn 0.791102 -0.574144 -0.210989
vn 0.112649 -0.598105 -0.793461
vn 0.112649 -0.598105 -0.793461
vn 0.791102 -0.574144 -0.210989
vn -0.094227 -0.791658 -0.603655
vn 0.466877 -0.258434 0.845717
vn 0.504527 -0.569042 0.649341
vn 0.889825 -0.445877 -0.096984
vn 0.889825 -0.445877 -0.096984
vn 0.504527 -0.569042 0.649341
vn 0.791102 -0.574144 -0.210989
vn -0.458914 -0.250815 0.852344
vn -0.001802 -0.284897 0.958557
vn 0.466877 -0.258434 0.845717
vn 0.466877 -0.258434 0.845717
vn -0.001802 -0.284897 0.958557
vn 0.504527 -0.569042 0.649341
vn -0.864934 -0.46954 -0.177263
vn -0.806745 -0.574483 -0.138321
vn -0.094227 -0.791658 -0.603655
vn -0.094227 -0.791658 -0.603655
vn -0.806745 -0.574483 -0.138321
vn 0.112649 -0.598105 -0.793461
vn -0.864934 -0.46954 -0.177263
vn -0.500449 -0.542694 0.674562
vn -0.806745 -0.574483 -0.138321
vn -0.806745 -0.574483 -0.138321
vn -0.500449 -0.542694 0.674562
vn -0.458914 -0.250815 0.852344
vn -0.001802 -0.284897 0.958557
vn -0.458914 -0.250815 0.852344
vn -0.500449 -0.542694 0.674562
vn -0.000532 0.097728 0.995213
vn 0.606327 0.032957 0.794532
vn -0.001802 -0.284897 0.958557
vn -0.001802 -0.284897 0.958557
vn 0.606327 0.032957 0.794532
vn 0.504527 -0.569042 0.649341
vn -0.000532 0.097728 0.995213
vn -0.001802 -0.284897 0.958557
vn -0.578961 0.045918 0.814062
vn -0.578961 0.045918 0.814062
vn -0.001802 -0.284897 0.958557
vn -0.500449 -0.542694 0.674562
vn -0.951554 -0.160938 -0.261999
vn -0.578961 0.045918 0.814062
vn -0.864934 -0.46954 -0.177263
vn -0.864934 -0.46954 -0.177263
vn -0.578961 0.045918 0.814062
vn -0.500449 -0.542694 0.674562
vn 0.011597 -0.302026 -0.953229
vn -0.864934 -0.46954 -0.177263
vn -0.094227 -0.791658 -0.603655
vn 0.791102 -0.574144 -0.210989
vn 0.011597 -0.302026 -0.953229
vn -0.094227 -0.791658 -0.603655
vn 0.504527 -0.569042 0.649341
vn 0.606327 0.032957 0.794532
vn 0.791102 -0.574144 -0.210989
vn 0.791102 -0.574144 -0.210989
vn 0.606327 0.032957 0.794532
vn 0.94326 -0.174435 -0.282546
vn 0.011597 -0.302026 -0.953229
vn 0.791102 -0.574144 -0.210989
vn 0.94326 -0.174435 -0.282546
vn -0.864934 -0.46954 -0.177263
vn 0.011597 -0.302026 -0.953229
vn -0.951554 -0.160938 -0.261999
vn 0.969446 -0.243431 -0.030257
vn 0.757047 -0.63243 -0.164051
vn 0.23354 -0.437569 -0.868327
vn 0.23354 -0.437569 -0.868327
vn 0.757047 -0.63243 -0.164051
vn -0.063843 -0.876143 -0.477805
vn 0.23354 -0.437569 -0.868327
vn -0.063843 -0.876143 -0.477805
vn -0.922387 -0.310127 -0.230266
vn -0.922387 -0.310127 -0.230266
vn -0.063843 -0.876143 -0.477805
vn -0.843458 -0.514617 -0.154103
vn 0.23354 -0.437569 -0.868327
vn -0.922387 -0.310127 -0.230266
vn -0.170348 0.621833 -0.764399
vn -0.170348 0.621833 -0.764399
vn -0.922387 -0.310127 -0.230266
vn -0.603404 0.714555 -0.353998
vn 0.757047 -0.63243 -0.164051
vn 0.007884 -0.267258 -0.963593
vn -0.063843 -0.876143 -0.477805
vn 0.007884 -0.267258 -0.963593
vn -0.843458 -0.514617 -0.154103
vn -0.063843 -0.876143 -0.477805
vn -0.955473 -0.127316 -0.2662
vn -0.753004 0.058715 0.655391
vn -0.843458 -0.514617 -0.154103
vn -0.843458 -0.514617 -0.154103
vn -0.753004 0.058715 0.655391
vn -0.302639 -0.604671 0.736738
vn 0.603988 -0.089083 0.791999
vn 0.349078 -0.713357 0.607673
vn 0.969446 -0.243431 -0.030257
vn 0.969446 -0.243431 -0.030257
vn 0.349078 -0.713357 0.607673
vn 0.757047 -0.63243 -0.164051
vn -0.843458 -0.514617 -0.154103
vn -0.302639 -0.604671 0.736738
vn -0.922387 -0.310127 -0.230266
vn -0.922387 -0.310127 -0.230266
vn -0.302639 -0.604671 0.736738
vn -0.577535 -0.090599 0.811323
vn -0.005566 -0.317768 0.948152
vn 0.349078 -0.713357 0.607673
vn -0.000761 -0.001264 0.999999
vn -0.000761 -0.001264 0.999999
vn 0.349078 -0.713357 0.607673
vn 0.603988 -0.089083 0.791999
vn -0.577535 -0.090599 0.811323
vn -0.360514 0.875382 0.322081
vn -0.922387 -0.310127 -0.230266
vn -0.922387 -0.310127 -0.230266
vn -0.360514 0.875382 0.322081
vn -0.603404 0.714555 -0.353998
vn 0.349078 -0.713357 0.607673
vn 0.602731 0.088286 0.793046
vn 0.757047 -0.63243 -0.164051
vn 0.757047 -0.63243 -0.164051
vn 0.602731 0.088286 0.793046
vn 0.946351 -0.138839 -0.291795
vn -0.013111 0.121653 0.992486
vn 0.602731 0.088286 0.793046
vn -0.005566 -0.317768 0.948152
vn -0.005566 -0.317768 0.948152
vn 0.602731 0.088286 0.793046
vn 0.349078 -0.713357 0.607673
vn -0.000316 0.863167 0.504918
vn -0.360514 0.875382 0.322081
vn -0.000761 -0.001264 0.999999
vn -0.000761 -0.001264 0.999999
vn -0.360514 0.875382 0.322081
vn -0.577535 -0.090599 0.811323
vn -0.753004 0.058715 0.655391
vn -0.013111 0.121653 0.992486
vn -0.302639 -0.604671 0.736738
vn -0.302639 -0.604671 0.736738
vn -0.013111 0.121653 0.992486
vn -0.005566 -0.317768 0.948152
vn -0.005566 -0.317768 0.948152
vn -0.000761 -0.001264 0.999999
vn -0.302639 -0.604671 0.736738
vn -0.302639 -0.604671 0.736738
vn -0.000761 -0.001264 0.999999
vn -0.577535 -0.090599 0.811323
vn 0.007884 -0.267258 -0.963593
vn 0.757047 -0.63243 -0.164051
vn 0.946351 -0.138839 -0.291795
vn -0.843458 -0.514617 -0.154103
vn 0.007884 -0.267258 -0.963593
vn -0.955473 -0.127316 -0.2662
vn -0.000028 0.171422 0.985198
vn -0.000014 0.1691 0.985599
vn -0.00357 0.169107 0.985591
vn -0.00357 0.169107 0.985591
vn -0.000014 0.1691 0.985599
vn -0.0 0.166776 0.985995
vn -0.000028 0.171422 0.985198
vn 0.003542 0.169089 0.985594
vn -0.000014 0.1691 0.985599
vn -0.000014 0.1691 0.985599
vn 0.003542 0.169089 0.985594
vn 0.0 0.166776 0.985995

# default, 368 grouped triangles

usemtl peachcastle
o default
g default

f 1/1/1 2/2/2 3/3/3
f 4/4/4 5/5/5 6/6/6
f 7/7/7 8/8/8 9/9/9
f 10/10/10 11/11/11 12/12/12
f 13/13/13 14/14/14 15/15/15
f 16/16/16 17/17/17 18/18/18
f 18/19/19 19/20/20 16/21/21
f 20/22/22 21/23/23 22/24/24
f 21/25/25 20/26/26 23/27/27
f 24/28/28 25/29/29 26/30/30
f 26/31/31 25/32/32 27/33/33
f 28/34/34 29/35/35 30/36/36
f 30/37/37 29/38/38 31/39/39
f 27/40/40 25/41/41 32/42/42
f 33/43/43 25/44/44 24/45/45
f 32/46/46 25/47/47 33/48/48
f 34/49/49 35/50/50 36/51/51
f 36/52/52 35/53/53 37/54/54
f 35/55/55 38/56/56 37/57/57
f 37/58/58 38/59/59 39/60/60
f 40/61/61 41/62/62 38/63/63
f 38/64/64 41/65/65 39/66/66
f 42/67/67 43/68/68 40/69/69
f 40/70/70 43/71/71 41/72/72
f 44/73/73 34/74/74 45/75/75
f 45/76/76 34/77/77 36/78/78
f 39/79/79 41/80/80 46/81/81
f 46/82/82 41/83/83 47/84/84
f 48/85/85 49/86/86 50/87/87
f 36/88/88 37/89/89 51/90/90
f 51/91/91 37/92/92 46/93/93
f 52/94/94 53/95/95 54/96/96
f 55/97/97 56/98/98 57/99/99
f 45/100/100 49/101/101 51/102/102
f 51/103/103 49/104/104 48/105/105
f 36/106/106 50/107/107 45/108/108
f 45/109/109 50/110/110 49/111/111
f 36/112/112 51/113/113 50/114/114
f 50/115/115 51/116/116 48/117/117
f 43/118/118 47/119/119 55/120/120
f 55/121/121 47/122/122 56/123/123
f 41/124/124 57/125/125 47/126/126
f 47/127/127 57/128/128 56/129/129
f 41/130/130 43/131/131 57/132/132
f 57/133/133 43/134/134 55/135/135
f 37/136/136 53/137/137 46/138/138
f 46/139/139 53/140/140 52/141/141
f 53/142/142 37/143/143 54/144/144
f 54/145/145 37/146/146 39/147/147
f 39/148/148 46/149/149 54/150/150
f 54/151/151 46/152/152 52/153/153
f 58/154/154 59/155/155 60/156/156
f 60/157/157 59/158/158 61/159/159
f 59/160/160 58/161/161 62/162/162
f 62/163/163 58/164/164 63/165/165
f 63/166/166 64/167/167 62/168/168
f 62/169/169 64/170/170 65/171/171
f 64/172/172 60/173/173 65/174/174
f 65/175/175 60/176/176 61/177/177
f 66/178/178 67/179/179 59/180/180
f 59/181/181 67/182/182 61/183/183
f 66/184/184 59/185/185 68/186/186
f 68/187/187 59/188/188 62/189/189
f 62/190/190 65/191/191 68/192/192
f 68/193/193 65/194/194 69/195/195
f 69/196/196 65/197/197 67/198/198
f 67/199/199 65/200/200 61/201/201
f 67/202/202 66/203/203 70/204/204
f 66/205/205 68/206/206 70/207/207
f 68/208/208 69/209/209 70/210/210
f 69/211/211 67/212/212 70/213/213
f 58/214/214 60/215/215 63/216/216
f 63/217/217 60/218/218 64/219/219
f 71/220/220 72/221/221 73/222/222
f 73/223/223 72/224/224 74/225/225
f 72/226/226 75/227/227 74/228/228
f 74/229/229 75/230/230 76/231/231
f 76/232/232 75/233/233 77/234/234
f 77/235/235 75/236/236 78/237/237
f 77/238/238 78/239/239 73/240/240
f 73/241/241 78/242/242 71/243/243
f 73/244/244 74/245/245 79/246/246
f 79/247/247 74/248/248 80/249/249
f 74/250/250 76/251/251 80/252/252
f 80/253/253 76/254/254 81/255/255
f 76/256/256 77/257/257 81/258/258
f 81/259/259 77/260/260 82/261/261
f 82/262/262 77/263/263 79/264/264
f 79/265/265 77/266/266 73/267/267
f 79/268/268 80/269/269 83/270/270
f 80/271/271 81/272/272 83/273/273
f 81/274/274 82/275/275 83/276/276
f 82/277/277 79/278/278 83/279/279
f 72/280/280 71/281/281 75/282/282
f 75/283/283 71/284/284 78/285/285
f 84/286/286 85/287/287 86/288/288
f 86/289/289 85/290/290 87/291/291
f 86/292/292 87/293/293 88/294/294
f 88/295/295 87/296/296 89/297/297
f 89/298/298 90/299/299 88/300/300
f 88/301/301 90/302/302 91/303/303
f 90/304/304 85/305/305 91/306/306
f 91/307/307 85/308/308 84/309/309
f 92/310/310 84/311/311 93/312/312
f 93/313/313 84/314/314 86/315/315
f 93/316/316 86/317/317 94/318/318
f 94/319/319 86/320/320 88/321/321
f 88/322/322 91/323/323 94/324/324
f 94/325/325 91/326/326 95/327/327
f 91/328/328 84/329/329 95/330/330
f 95/331/331 84/332/332 92/333/333
f 92/334/334 93/335/335 96/336/336
f 93/337/337 94/338/338 96/339/339
f 94/340/340 95/341/341 96/342/342
f 95/343/343 92/344/344 96/345/345
f 90/346/346 89/347/347 85/348/348
f 85/349/349 89/350/350 87/351/351
f 97/352/352 98/353/353 99/354/354
f 99/355/355 98/356/356 100/357/357
f 98/358/358 101/359/359 100/360/360
f 100/361/361 101/362/362 102/363/363
f 102/364/364 101/365/365 103/366/366
f 103/367/367 101/368/368 104/369/369
f 104/370/370 97/371/371 103/372/372
f 103/373/373 97/374/374 99/375/375
f 105/376/376 106/377/377 100/378/378
f 100/379/379 106/380/380 99/381/381
f 100/382/382 102/383/383 105/384/384
f 105/385/385 102/386/386 107/387/387
f 107/388/388 102/389/389 108/390/390
f 108/391/391 102/392/392 103/393/393
f 108/394/394 103/395/395 106/396/396
f 106/397/397 103/398/398 99/399/399
f 106/400/400 105/401/401 109/402/402
f 105/403/403 107/404/404 109/405/405
f 107/406/406 108/407/407 109/408/408
f 108/409/409 106/410/410 109/411/411
f 98/412/412 97/413/413 101/414/414
f 101/415/415 97/416/416 104/417/417
f 110/418/418 111/419/419 112/420/420
f 111/421/421 113/422/422 112/423/423
f 112/424/424 113/425/425 114/426/426
f 110/427/427 115/428/428 111/429/429
f 111/430/430 115/431/431 116/432/432
f 116/433/433 115/434/434 117/435/435
f 115/436/436 118/437/437 117/438/438
f 117/439/439 118/440/440 119/441/441
f 119/442/442 118/443/443 120/444/444
f 118/445/445 121/446/446 120/447/447
f 120/448/448 121/449/449 122/450/450
f 122/451/451 121/452/452 123/453/453
f 124/454/454 125/455/455 121/456/456
f 125/457/457 126/458/458 121/459/459
f 126/460/460 123/461/461 121/462/462
f 127/463/463 125/464/464 124/465/465
f 124/466/466 128/467/467 127/468/468
f 127/469/469 128/470/470 129/471/471
f 130/472/472 127/473/473 131/474/474
f 127/475/475 129/476/476 131/477/477
f 127/478/478 130/479/479 132/480/480
f 130/481/481 133/482/482 132/483/483
f 132/484/484 133/485/485 134/486/486
f 134/487/487 133/488/488 135/489/489
f 133/490/490 112/491/491 135/492/492
f 135/493/493 112/494/494 136/495/495
f 136/496/496 112/497/497 114/498/498
f 133/499/499 137/500/500 112/501/501
f 112/502/502 137/503/503 138/504/504
f 139/505/505 110/506/506 138/507/507
f 138/508/508 110/509/509 112/510/510
f 139/511/511 140/512/512 110/513/513
f 110/514/514 140/515/515 115/516/516
f 137/517/517 133/518/518 141/519/519
f 141/520/520 133/521/521 130/522/522
f 129/523/523 142/524/524 131/525/525
f 131/526/526 142/527/527 143/528/528
f 144/529/529 142/530/530 128/531/531
f 128/532/532 142/533/533 129/534/534
f 143/535/535 142/536/536 145/537/537
f 145/538/538 142/539/539 146/540/540
f 131/541/541 143/542/542 130/543/543
f 130/544/544 143/545/545 141/546/546
f 147/547/547 144/548/548 124/549/549
f 124/550/550 144/551/551 128/552/552
f 144/553/553 148/554/554 142/555/555
f 142/556/556 148/557/557 146/558/558
f 149/559/559 150/560/560 139/561/561
f 139/562/562 150/563/563 140/564/564
f 148/565/565 144/566/566 151/567/567
f 151/568/568 144/569/569 147/570/570
f 141/571/571 143/572/572 152/573/573
f 152/574/574 143/575/575 145/576/576
f 153/577/577 145/578/578 146/579/579
f 146/580/580 148/581/581 153/582/582
f 153/583/583 152/584/584 145/585/585
f 151/586/586 153/587/587 148/588/588
f 149/589/589 154/590/590 150/591/591
f 150/592/592 154/593/593 155/594/594
f 151/595/595 156/596/596 153/597/597
f 153/598/598 156/599/599 157/600/600
f 157/601/601 158/602/602 153/603/603
f 153/604/604 158/605/605 152/606/606
f 159/607/607 160/608/608 161/609/609
f 161/610/610 160/611/611 162/612/612
f 161/613/613 163/614/614 159/615/615
f 159/616/616 163/617/617 164/618/618
f 162/619/619 160/620/620 165/621/621
f 165/622/622 160/623/623 166/624/624
f 167/625/625 168/626/626 166/627/627
f 166/628/628 168/629/629 165/630/630
f 169/631/631 170/632/632 167/633/633
f 167/634/634 170/635/635 168/636/636
f 169/637/637 171/638/638 170/639/639
f 170/640/640 171/641/641 172/642/642
f 159/643/643 164/644/644 173/645/645
f 171/646/646 164/647/647 172/648/648
f 172/649/649 164/650/650 163/651/651
f 173/652/652 167/653/653 166/654/654
f 173/655/655 166/656/656 160/657/657
f 159/658/658 173/659/659 160/660/660
f 164/661/661 171/662/662 173/663/663
f 171/664/664 169/665/665 173/666/666
f 169/667/667 167/668/668 173/669/669
f 174/670/670 175/671/671 176/672/672
f 177/673/673 178/674/674 179/675/675
f 180/676/676 181/677/677 182/678/678
f 183/679/679 184/680/680 185/681/681
f 186/682/682 187/683/683 188/684/684
f 43/685/685 42/686/686 189/687/687
f 189/688/688 42/689/689 190/690/690
f 191/691/691 192/692/692 193/693/693
f 194/694/694 44/695/695 195/696/696
f 195/697/697 44/698/698 45/699/699
f 196/700/700 197/701/701 198/702/702
f 47/703/703 43/704/704 199/705/705
f 199/706/706 43/707/707 189/708/708
f 189/709/709 192/710/710 199/711/711
f 199/712/712 192/713/713 191/714/714
f 200/715/715 201/716/716 202/717/717
f 202/718/718 201/719/719 203/720/720
f 200/721/721 194/722/722 201/723/723
f 201/724/724 194/725/725 195/726/726
f 202/727/727 203/728/728 190/729/729
f 190/730/730 203/731/731 189/732/732
f 203/733/733 201/734/734 204/735/735
f 204/736/736 201/737/737 205/738/738
f 51/739/739 206/740/740 45/741/741
f 45/742/742 206/743/743 195/744/744
f 193/745/745 192/746/746 203/747/747
f 203/748/748 192/749/749 189/750/750
f 193/751/751 203/752/752 191/753/753
f 191/754/754 203/755/755 199/756/756
f 195/757/757 206/758/758 196/759/759
f 196/760/760 206/761/761 197/762/762
f 206/763/763 201/764/764 197/765/765
f 197/766/766 201/767/767 198/768/768
f 195/769/769 196/770/770 201/771/771
f 201/772/772 196/773/773 198/774/774
f 203/775/775 204/776/776 199/777/777
f 205/778/778 201/779/779 206/780/780
f 29/781/781 207/782/782 31/783/783
f 31/784/784 207/785/785 208/786/786
f 209/787/787 210/788/788 207/789/789
f 207/790/790 210/791/791 208/792/792
f 140/793/793 211/794/794 115/795/795
f 115/796/796 211/797/797 118/798/798
f 211/799/799 212/800/800 118/801/801
f 118/802/802 212/803/803 121/804/804
f 212/805/805 147/806/806 121/807/807
f 121/808/808 147/809/809 124/810/810
f 213/811/811 211/812/812 150/813/813
f 150/814/814 211/815/815 140/816/816
f 147/817/817 212/818/818 151/819/819
f 151/820/820 212/821/821 214/822/822
f 212/823/823 211/824/824 214/825/825
f 214/826/826 211/827/827 215/828/828
f 211/829/829 213/830/830 215/831/831
f 214/832/832 216/833/833 151/834/834
f 151/835/835 216/836/836 156/837/837
f 217/838/838 213/839/839 155/840/840
f 155/841/841 213/842/842 150/843/843
f 218/844/844 215/845/845 217/846/846
f 217/847/847 215/848/848 213/849/849
f 218/850/850 216/851/851 215/852/852
f 215/853/853 216/854/854 214/855/855
f 139/856/856 138/857/857 149/858/858
f 149/859/859 138/860/860 219/861/861
f 138/862/862 137/863/863 219/864/864
f 219/865/865 137/866/866 220/867/867
f 221/868/868 220/869/869 137/870/870
f 141/871/871 152/872/872 137/873/873
f 137/874/874 152/875/875 221/876/876
f 222/877/877 154/878/878 219/879/879
f 219/880/880 154/881/881 149/882/882
f 223/883/883 220/884/884 224/885/885
f 224/886/886 220/887/887 221/888/888
f 221/889/889 152/890/890 224/891/891
f 224/892/892 152/893/893 158/894/894
f 225/895/895 224/896/896 158/897/897
f 225/898/898 155/899/899 154/900/900
f 222/901/901 223/902/902 225/903/903
f 223/904/904 224/905/905 225/906/906
f 157/907/907 225/908/908 158/909/909
f 225/910/910 154/911/911 222/912/912
f 225/913/913 157/914/914 156/915/915
f 217/916/916 225/917/917 218/918/918
f 218/919/919 225/920/920 216/921/921
f 225/922/922 217/923/923 155/924/924
f 216/925/925 225/926/926 156/927/927
f 223/928/928 222/929/929 220/930/930
f 220/931/931 222/932/932 219/933/933
f 26/934/934 226/935/935 24/936/936
f 24/937/937 226/938/938 227/939/939
f 27/940/940 228/941/941 26/942/942
f 26/943/943 228/944/944 226/945/945
f 32/946/946 229/947/947 27/948/948
f 27/949/949 229/950/950 228/951/951
f 230/952/952 33/953/953 227/954/954
f 227/955/955 33/956/956 24/957/957
f 230/958/958 231/959/959 33/960/960
f 33/961/961 231/962/962 32/963/963
f 229/964/964 32/965/965 231/966/966
f 232/967/967 233/968/968 229/969/969
f 229/970/970 233/971/971 228/972/972
f 232/973/973 229/974/974 234/975/975
f 234/976/976 229/977/977 231/978/978
f 235/979/979 234/980/980 230/981/981
f 230/982/982 234/983/983 231/984/984
f 236/985/985 230/986/986 227/987/987
f 226/988/988 236/989/989 227/990/990
f 228/991/991 233/992/992 226/993/993
f 226/994/994 233/995/995 237/996/996
f 236/997/997 226/998/998 237/999/999
f 230/1000/1000 236/1001/1001 235/1002/1002
f 31/1003/1003 238/1004/1004 30/1005/1005
f 30/1006/1006 238/1007/1007 239/1008/1008
f 30/1009/1009 239/1010/1010 240/1011/1011
f 240/1012/1012 239/1013/1013 241/1014/1014
f 30/1015/1015 240/1016/1016 28/1017/1017
f 28/1018/1018 240/1019/1019 242/1020/1020
f 238/1021/1021 243/1022/1022 239/1023/1023
f 243/1024/1024 241/1025/1025 239/1026/1026
f 244/1027/1027 245/1028/1028 241/1029/1029
f 241/1030/1030 245/1031/1031 246/1032/1032
f 208/1033/1033 247/1034/1034 31/1035/1035
f 31/1036/1036 247/1037/1037 238/1038/1038
f 241/1039/1039 246/1040/1040 240/1041/1041
f 240/1042/1042 246/1043/1043 248/1044/1044
f 249/1045/1045 247/1046/1046 210/1047/1047
f 210/1048/1048 247/1049/1049 208/1050/1050
f 248/1051/1051 250/1052/1052 240/1053/1053
f 240/1054/1054 250/1055/1055 242/1056/1056
f 247/1057/1057 251/1058/1058 238/1059/1059
f 238/1060/1060 251/1061/1061 252/1062/1062
f 253/1063/1063 251/1064/1064 249/1065/1065
f 249/1066/1066 251/1067/1067 247/1068/1068
f 209/1069/1069 250/1070/1070 210/1071/1071
f 210/1072/1072 250/1073/1073 248/1074/1074
f 245/1075/1075 253/1076/1076 246/1077/1077
f 246/1078/1078 253/1079/1079 249/1080/1080
f 249/1081/1081 210/1082/1082 246/1083/1083
f 246/1084/1084 210/1085/1085 248/1086/1086
f 243/1087/1087 238/1088/1088 252/1089/1089
f 241/1090/1090 243/1091/1091 244/1092/1092
f 254/1093/1093 255/1094/1094 256/1095/1095
f 256/1096/1096 255/1097/1097 257/1098/1098
f 254/1099/1099 258/1100/1100 255/1101/1101
f 255/1102/1102 258/1103/1103 259/1104/1104
