<?xml version="1.0" encoding="utf-8"?>
<COLLADA xmlns="http://www.collada.org/2005/11/COLLADASchema" version="1.4.1" xmlns:xsi="http://www.w3.org/2001/XMLSchema-instance">
  <asset>
    <contributor>
      <author>Blender User</author>
      <authoring_tool>Blender 4.4.3 commit date:2025-04-29, commit time:14:09, hash:802179c51ccc</authoring_tool>
    </contributor>
    <created>2025-05-22T20:26:46</created>
    <modified>2025-05-22T20:26:46</modified>
    <unit name="meter" meter="1"/>
    <up_axis>Z_UP</up_axis>
  </asset>
  <library_effects>
    <effect id="plant_pot_001-effect">
      <profile_COMMON>
        <newparam sid="plant_pot_dirt_diffuse_png-surface">
          <surface type="2D">
            <init_from>plant_pot_dirt_diffuse_png</init_from>
          </surface>
        </newparam>
        <newparam sid="plant_pot_dirt_diffuse_png-sampler">
          <sampler2D>
            <source>plant_pot_dirt_diffuse_png-surface</source>
          </sampler2D>
        </newparam>
        <technique sid="common">
          <lambert>
            <emission>
              <color sid="emission">0 0 0 1</color>
            </emission>
            <diffuse>
              <texture texture="plant_pot_dirt_diffuse_png-sampler" texcoord="UVMap"/>
            </diffuse>
            <reflectivity>
              <float sid="specular">1</float>
            </reflectivity>
            <index_of_refraction>
              <float sid="ior">1.5</float>
            </index_of_refraction>
          </lambert>
        </technique>
      </profile_COMMON>
    </effect>
  </library_effects>
  <library_images>
    <image id="plant_pot_dirt_diffuse_png" name="plant_pot_dirt_diffuse_png">
      <init_from>plant_pot_dirt_diffuse.png</init_from>
    </image>
  </library_images>
  <library_materials>
    <material id="plant_pot_001-material" name="plant_pot.001">
      <instance_effect url="#plant_pot_001-effect"/>
    </material>
  </library_materials>
  <library_geometries>
    <geometry id="Mesh_0_037-mesh" name="Mesh_0.037">
      <mesh>
        <source id="Mesh_0_037-mesh-positions">
          <float_array id="Mesh_0_037-mesh-positions-array" count="624">134.2202 -339.5659 -33.87741 93.91745 -122.3375 -23.79633 98.32814 -339.5667 -61.29955 68.93866 -122.3375 -42.88047 45.44573 -339.5678 -78.24749 32.13561 -122.3375 -54.67512 -15.28337 -339.569 -81.79071 -10.12809 -122.3375 -57.14086 102.753 -122.3375 -0.722515 146.9159 -339.5656 -0.7225534 93.91745 -122.3375 22.35129 134.2201 -339.5659 32.43228 68.93869 -122.3375 41.43545 98.32816 -339.5667 59.85444 32.13561 -122.3375 53.23009 45.44573 -339.5678 76.80238 -10.12808 -122.3375 55.69585 -15.28334 -339.569 80.34562 -50.54464 -122.3375 48.40637 -73.35851 -339.5703 69.87142 -82.12569 -122.3375 32.62205 -118.7379 -339.5713 47.19078 -99.41062 -122.3375 11.07215 -143.575 -339.5717 16.22541 -99.41062 -122.3375 -12.51714 -143.575 -339.5717 -17.67047 -82.12572 -122.3375 -34.06704 -118.738 -339.5713 -48.63584 -50.54466 -122.3375 -49.85139 -73.35852 -339.5703 -71.3165 -10.12809 -122.3375 -57.14086 -15.28337 -339.569 -81.79071 -58.30496 -6.28717 -57.15287 -94.57952 -6.286804 -39.02265 -54.98426 -0.5725098 -53.9691 -89.21227 -0.5725098 -36.8618 -114.4332 -6.286621 -14.27003 -107.9459 -0.5725708 -13.5057 -114.4332 -6.286621 12.82508 -107.9459 -0.5725708 12.06074 -94.57949 -6.286804 37.57769 -89.21225 -0.5725708 35.41684 -58.30495 -6.287292 55.70788 -54.98424 -0.5725708 52.52412 -11.88169 -6.287781 64.08079 -11.18016 -0.5725708 60.42458 -15.9879 -246.7142 83.71463 -76.47636 -246.7142 72.80499 -123.7414 -246.7142 49.18178 -149.6104 -246.7142 16.92966 -149.6104 -246.7142 -18.37469 -123.7414 -246.7142 -50.62681 -76.47637 -246.7142 -74.25004 -15.98792 -246.7142 -85.15968 -11.8817 -6.287781 -65.52576 47.265 -246.7142 -81.46939 36.66326 -6.28833 -62.69361 102.3454 -246.7142 -63.81722 78.93608 -6.288757 -49.14606 139.7293 -246.7142 -35.25539 107.6273 -6.289124 -27.2256 152.9528 -246.7142 -0.7225384 117.776 -6.289307 -0.7224974 139.7293 -246.7142 33.81029 107.6273 -6.289124 25.78059 -11.18018 -0.5725098 -61.86955 34.62586 -0.5725098 -59.19714 74.51356 -0.5725098 -46.41393 101.586 -0.5725708 -25.73025 111.162 -0.5725708 -0.7224962 101.586 -0.5725708 24.28523 74.51356 -0.5725708 44.96892 78.93607 -6.288818 47.70104 34.62586 -0.5725708 57.75216 36.66327 -6.28833 61.24862 -11.18016 -0.5725708 60.42458 -11.88169 -6.287781 64.08079 -15.9879 -246.7142 83.71463 47.26502 -246.7142 80.02429 102.3454 -246.7142 62.37211 102.0325 -343.6485 -63.61943 139.3112 -343.6448 -35.15016 98.32814 -339.5667 -61.29955 134.2202 -339.5659 -33.87741 152.4991 -343.6436 -0.7225543 146.9159 -339.5656 -0.7225534 139.3112 -343.6448 33.70503 134.2201 -339.5659 32.43228 102.0325 -343.6485 62.17432 98.32816 -339.5667 59.85444 47.11896 -343.6539 79.76083 45.44573 -339.5678 76.80238 -15.92499 -343.6599 83.42683 -15.28334 -339.569 80.34562 -17.77361 -341.4378 92.25303 51.86622 -341.4463 88.17304 112.4871 -341.4539 68.72814 153.6201 -341.459 37.28482 168.1675 -341.4608 -0.7225543 153.6201 -341.459 -38.72996 112.4871 -341.4539 -70.17327 51.86621 -341.4463 -89.61815 47.11896 -343.6539 -81.20594 -17.77364 -341.4378 -93.69812 -15.92502 -343.6599 -84.87191 -84.39392 -341.4298 -81.69952 -76.19652 -343.6658 -73.9893 -136.4664 -341.4235 -55.6904 -123.2804 -343.6702 -50.44449 -164.9727 -341.4201 -20.16724 -149.0461 -343.6727 -18.30918 -164.9727 -341.4201 18.72218 -149.0461 -343.6727 16.86411 -18.61116 -331.7227 96.25773 54.03798 -331.7227 92.01924 117.3005 -331.7227 71.74482 160.2378 -331.7227 38.94013 175.4256 -331.7227 -0.7225531 160.2378 -331.7227 -40.38526 117.3005 -331.7227 -73.18994 54.03797 -331.7227 -93.46434 -18.61119 -331.7227 -97.70285 -88.0852 -331.7227 -85.17256 -142.3714 -331.7227 -58.0401 -172.0833 -331.7227 -20.99693 -172.0832 -331.7227 19.55188 -136.4664 -341.4235 54.24534 -142.3714 -331.7227 56.59506 -84.39392 -341.4298 80.25446 -88.08518 -331.7227 83.72749 -17.77361 -341.4378 92.25303 -18.61116 -331.7227 96.25773 -18.44617 -261.0399 95.46888 -87.35506 -261.0399 83.04054 -141.1997 -261.0399 56.12881 -170.6698 -261.0399 19.38697 -170.6699 -261.0399 -20.83199 -141.1997 -261.0399 -57.57384 -87.35507 -261.0399 -84.48559 -18.4462 -261.0399 -96.91393 53.61199 -261.0399 -92.70991 116.36 -261.0399 -72.60045 -149.6104 -246.7142 16.92966 -163.3294 -251.0698 18.53045 -123.7414 -246.7142 49.18178 -135.1045 -251.0659 53.70339 -76.47636 -246.7142 72.80499 -83.5456 -251.059 79.45632 -15.9879 -246.7142 83.71463 -17.58203 -251.0499 91.33699 -163.3294 -251.0698 -19.97547 -135.1045 -251.0659 -55.14842 -83.54561 -251.0589 -80.90134 -17.58205 -251.0499 -92.78202 51.37187 -251.0404 -88.74263 111.3961 -251.0321 -69.48953 -149.6104 -246.7142 -18.37469 -123.7414 -246.7142 -50.62681 -76.47637 -246.7142 -74.25004 -15.98792 -246.7142 -85.15968 47.265 -246.7142 -81.46939 102.3454 -246.7142 -63.81722 152.1246 -251.0264 -38.35587 139.7293 -246.7142 -35.25539 166.5289 -251.0244 -0.7225393 152.9528 -246.7142 -0.7225384 152.1246 -251.0264 36.91076 139.7293 -246.7142 33.81029 111.3961 -251.0321 68.04441 102.3454 -246.7142 62.37211 51.37187 -251.0405 87.29757 47.26502 -246.7142 80.02429 -17.58203 -251.0499 91.33699 -15.9879 -246.7142 83.71463 158.948 -261.0399 -40.06262 174.0122 -261.0399 -0.7225412 158.948 -261.0399 38.6175 116.3599 -261.04 71.15533 53.612 -261.04 91.26483 -18.44617 -261.0399 95.46888 74.51356 -0.5725708 44.96892 101.586 -0.5725708 24.28523 0.3978353 -0.5725708 -0.72249 111.162 -0.5725708 -0.7224962 101.586 -0.5725708 -25.73025 74.51356 -0.5725098 -46.41393 34.62586 -0.5725098 -59.19714 -11.18018 -0.5725098 -61.86955 -54.98426 -0.5725098 -53.9691 -89.21227 -0.5725098 -36.8618 -107.9459 -0.5725708 -13.5057 -107.9459 -0.5725708 12.06074 -89.21225 -0.5725708 35.41684 -54.98424 -0.5725708 52.52412 -11.18016 -0.5725708 60.42458 34.62586 -0.5725708 57.75216 -123.2804 -343.6702 48.99943 -76.19651 -343.6658 72.54421 -15.92499 -343.6599 83.42683 -15.28334 -339.569 80.34562 -73.35851 -339.5703 69.87142 -118.7379 -339.5713 47.19078 -143.575 -339.5717 16.22541 -143.575 -339.5717 -17.67047 -118.738 -339.5713 -48.63584 -73.35852 -339.5703 -71.3165 -15.28337 -339.569 -81.79071 45.44573 -339.5678 -78.24749</float_array>
          <technique_common>
            <accessor source="#Mesh_0_037-mesh-positions-array" count="208" stride="3">
              <param name="X" type="float"/>
              <param name="Y" type="float"/>
              <param name="Z" type="float"/>
            </accessor>
          </technique_common>
        </source>
        <source id="Mesh_0_037-mesh-normals">
          <float_array id="Mesh_0_037-mesh-normals-array" count="603">-0.5844157 -0.4310719 0.6874849 -0.3846523 -0.110289 0.9164491 -0.1980989 -0.2809674 0.9390497 -0.06242686 -0.04795885 0.9968966 -0.06772756 -0.2058145 0.9762446 0.02288746 -0.01994979 0.999539 0.0309059 -0.1845991 0.9823279 0.1084175 -0.01907181 0.9939225 -0.9430058 -0.1906489 0.2727513 -0.8291159 -0.5045146 -0.2408982 -0.6282984 -0.1424116 -0.764827 -0.377763 -0.3557757 -0.8548209 -0.191118 -0.05929541 -0.9797745 -0.0758903 -0.2462905 -0.9662203 -0.06224918 -0.02075201 -0.9978449 0.0153737 -0.1939328 -0.9808945 -0.03499615 -0.01120871 -0.9993247 0.04500544 -0.1878696 -0.9811624 0.003895163 -0.02847838 -0.9995868 0.1123556 -0.235091 -0.9654577 0.1791023 -0.0735774 -0.9810753 0.3515081 -0.3463831 -0.8697475 0.6791538 -0.1507503 -0.7183485 0.8102928 -0.5079714 -0.2922171 0.9193908 -0.1941868 0.3420704 0.6253569 -0.434352 0.6482803 0.3559061 -0.09608739 0.9295687 0.1897193 -0.2936293 0.9369037 0.1043007 -0.03646427 0.9938771 0.01542896 -0.2143759 0.9766294 -0.01859712 -0.02038395 0.9996193 -0.09086877 -0.187497 0.9780531 -0.02553701 0.1555813 -0.987493 -0.2026012 0.2370823 -0.9501288 -0.1165614 0.2675182 -0.9564766 -0.3135848 0.4731935 -0.8232573 -0.6031026 0.4383248 -0.6664374 -0.6316348 0.7324875 -0.2539678 -0.8251487 0.4670107 0.317853 -0.475809 0.6577089 0.5839734 -0.3662919 0.2748954 0.8889673 -0.1677459 0.389046 0.9058171 -0.1177878 0.1679389 0.9787353 -0.02709323 0.2298248 0.9728549 0.002532303 0.1118263 0.9937245 0.03975015 0.1705495 0.984547 0.09462833 0.01148945 0.9954465 -0.0223242 0.02075791 0.9995353 -0.1942905 0.05518472 0.9793906 -0.6699523 0.1207292 0.732522 -0.9286929 0.1421695 -0.3425165 -0.3665674 0.06774324 -0.9279221 -0.1169974 0.02653115 -0.9927778 -0.0447722 0.01233917 -0.998921 0.0231145 0.1061757 -0.9940788 -0.009412527 0.01013064 -0.9999044 0.07904154 0.1266929 -0.9887878 0.08237016 0.03125464 -0.9961116 0.2167322 0.2051873 -0.9544241 0.3868638 0.08278828 -0.9184131 0.5910742 0.3739149 -0.714716 0.9445127 0.154435 -0.2899063 0.8424426 0.4755848 0.253199 0.633293 0.1102356 0.766021 0.3828537 0.2966701 0.8748771 -0.0443046 0.1852539 -0.9816915 -0.003848969 0.1931859 -0.9811547 0.08028972 0.2924103 -0.9529165 0.3029143 0.5153834 -0.8016377 0.6249262 0.7523482 -0.2084214 0.4798725 0.6181452 0.6225905 0.19233 0.351258 0.9163116 0.08807575 0.1965805 0.9765239 0.07188928 0.2137532 0.974239 -0.0099895 0.1264635 0.991921 -0.01986843 0.1746371 0.9844324 -0.09689593 0.105874 0.9896475 -0.03220236 0.01213514 0.9994077 0.07036954 0.01711261 0.9973742 0.2050496 0.03972065 0.9779453 -0.05376428 -0.8622129 0.5036848 -0.1448289 -0.928131 0.3429251 -0.179876 -0.1655062 0.9696661 -0.5711923 -0.3945826 0.7197528 -0.2234632 -0.9710898 0.08395761 -0.820957 -0.5258421 -0.2225303 -0.2222199 -0.9444519 -0.2421343 -0.3631021 -0.3091557 -0.8789651 -0.1056174 -0.8785093 -0.4659041 -0.05188328 -0.1302155 -0.9901273 -0.02424377 -0.8250038 -0.564607 0.02892142 -0.03581202 -0.99894 0.02071964 -0.8289253 -0.5589755 0.1025888 -0.03309732 -0.9941731 -0.07947021 -0.4977104 0.863695 0.01549673 -0.5224892 0.8525051 0.08340793 -0.5947474 0.7995741 0.2529447 -0.7367302 0.6270947 0.4788205 -0.8665501 0.1407911 0.3796837 -0.7928848 -0.4766277 0.1533952 -0.646564 -0.7472784 0.04728764 -0.5467874 -0.8359351 -0.1037362 -0.8099932 0.5771915 0.002791345 -0.5139123 -0.8578382 0.06549274 -0.8102823 0.5823687 -0.04204183 -0.5501585 -0.8340013 0.1925669 -0.8370904 0.5120524 -0.1506659 -0.6590894 -0.7368181 0.2452951 -0.9020926 0.3550485 -0.3786603 -0.8186119 -0.4318462 0.2456314 -0.9661888 0.07838714 -0.4792073 -0.8551483 0.1976914 0.2338483 -0.9492337 -0.2104049 -0.0294004 -0.05081951 0.9982751 0.07774084 -0.06274694 0.9949972 0.2140259 -0.1152489 0.9700055 0.6194529 -0.2369036 0.7484349 0.9151005 -0.291872 -0.2782117 0.3887821 -0.1847563 -0.9026149 0.09090411 -0.1090239 -0.989874 -0.006434738 -0.06255227 -0.998021 -0.04925668 -0.05329626 -0.9973632 -0.1258398 -0.08369791 -0.9885136 -0.3685679 -0.1687745 -0.9141514 -0.8935717 -0.3005218 -0.3334913 -0.6591542 -0.2384037 0.7132177 -0.2454496 -0.7225786 0.6462466 -0.2018137 -0.1453307 0.9685816 -0.08792275 -0.5903061 0.8023766 -0.02881175 -0.08373939 0.9960712 -0.02506989 -0.5355306 0.8441437 0.0802055 -0.0523917 0.9954006 0.009801447 0.05407059 0.9984891 -0.1230317 0.08864104 0.9884362 -0.3677946 0.1788186 0.912552 -0.8873636 0.3187442 0.3331487 -0.6528425 0.2618963 -0.7107791 -0.2030161 0.1441587 -0.9685055 -0.03190684 0.07667237 -0.9965457 0.02545809 0.05353248 -0.9982416 0.07419276 0.06616926 -0.9950463 0.2119483 0.1240034 -0.9693818 -0.2931897 0.9479681 0.1240823 -0.4219773 0.763545 0.4888092 -0.1916386 0.8483987 0.4934514 -0.2893282 0.4719617 0.8327913 -0.09095817 0.7133244 0.6949065 -0.1516593 0.3696225 0.9167218 -0.06272846 0.6367684 0.7684994 0.03598463 0.3656753 0.9300466 -0.5495318 0.8063275 -0.2187483 -0.2754146 0.6318211 -0.7245336 -0.09736961 0.4587115 -0.8832343 -0.02700036 0.3703715 -0.9284912 0.01517021 0.3731532 -0.9276457 0.09510964 0.4667201 -0.8792762 -0.2402415 0.9230603 -0.3004062 -0.1199141 0.7954067 -0.5940951 -0.03212332 0.676302 -0.7359238 0.01568526 0.6288155 -0.7773963 0.05888462 0.6616936 -0.7474585 0.1374144 0.771893 -0.6207244 0.2852635 0.6508096 -0.7036132 0.2540611 0.9073145 -0.3350123 0.5494378 0.8191043 -0.164883 0.2902279 0.952041 0.09688013 0.4329777 0.7212033 0.5407367 0.1819617 0.8608029 0.4752982 0.1715264 0.5291689 0.8309989 0.06959968 0.7246538 0.6855894 0.05131071 0.4011149 0.9145897 0.004518091 0.6403124 0.7681015 -0.01763612 0.3461714 0.9380055 -0.07273244 0.6370911 0.7673494 0.6165645 0.2509915 -0.7462249 0.9101904 0.30827 0.2766284 0.3865281 0.1959667 0.9012176 0.08992403 0.1143847 0.9893583 -0.007523417 0.06681185 0.9977373 -0.09988296 0.05265909 0.9936048 0 1 0 5.51037e-7 1 2.22825e-6 -2.81674e-7 1 8.80009e-7 0 1 1.00981e-6 1.74084e-7 1 9.65393e-7 3.76953e-7 1 7.54687e-7 -2.81674e-7 1 2.38525e-6 0 1 0 0 1 0 0.2206924 -0.8748175 -0.4312648 0.1612719 -0.8211232 -0.5474928 0.009542167 -0.7784354 -0.6276524 0.006511509 -0.03895837 -0.9992197 0.09708577 -0.09374594 -0.9908512 0.3343832 -0.2661097 -0.9040872 0.7949162 -0.5167694 -0.317896 0.6226993 -0.4269588 0.6557071 0.1662405 -0.2102074 0.9634194 -0.004222631 -0.07302838 0.997321 -0.0365836 -0.02026546 0.9991252 -0.05767816 -0.04799956 0.9971807</float_array>
          <technique_common>
            <accessor source="#Mesh_0_037-mesh-normals-array" count="201" stride="3">
              <param name="X" type="float"/>
              <param name="Y" type="float"/>
              <param name="Z" type="float"/>
            </accessor>
          </technique_common>
        </source>
        <source id="Mesh_0_037-mesh-map">
          <float_array id="Mesh_0_037-mesh-map-array" count="1710">0.5132837 0.7886283 0.7889567 0.7886283 0.5132837 0.8529188 0.7889567 0.7886283 0.7889567 0.8529188 0.5132837 0.8529188 0.5132837 0.8529188 0.7889567 0.8529188 0.5132837 0.9172093 0.7889567 0.8529188 0.7889567 0.9172093 0.5132837 0.9172093 0.5132837 0.9172093 0.7889567 0.9172093 0.5132837 0.9814999 0.7889567 0.9172093 0.7889567 0.9814999 0.5132837 0.9814999 0.7889567 0.7886283 0.5132837 0.7886283 0.7889567 0.7243378 0.5132837 0.7886283 0.5132837 0.7243378 0.7889567 0.7243378 0.7889567 0.7243378 0.5132837 0.7243378 0.7889567 0.6600473 0.5132837 0.7243378 0.5132837 0.6600473 0.7889567 0.6600473 0.7889567 0.6600473 0.5132837 0.6600473 0.7889567 0.5957567 0.5132837 0.6600473 0.5132837 0.5957567 0.7889567 0.5957567 0.7889567 0.5957567 0.5132837 0.5957567 0.7889567 0.5314664 0.5132837 0.5957567 0.5132837 0.5314664 0.7889567 0.5314664 0.7889567 0.5314664 0.5132837 0.5314664 0.7889567 0.4671758 0.5132837 0.5314664 0.5132837 0.4671758 0.7889567 0.4671758 0.7889567 0.4671758 0.5132837 0.4671758 0.7889567 0.4028853 0.5132837 0.4671758 0.5132837 0.4028853 0.7889567 0.4028853 0.7889567 0.4028853 0.5132837 0.4028853 0.7889567 0.3385947 0.5132837 0.4028853 0.5132837 0.3385947 0.7889567 0.3385947 0.7889567 0.3385947 0.5132837 0.3385947 0.7889567 0.2743043 0.5132837 0.3385947 0.5132837 0.2743043 0.7889567 0.2743043 0.7889567 0.2743043 0.5132837 0.2743043 0.7889567 0.2100136 0.5132837 0.2743043 0.5132837 0.2100136 0.7889567 0.2100136 0.7889567 0.2100136 0.5132837 0.2100136 0.7889567 0.1457232 0.5132837 0.2100136 0.5132837 0.1457232 0.7889567 0.1457232 0.7889567 0.1457232 0.5132837 0.1457232 0.7889567 0.0814327 0.5132837 0.1457232 0.5132837 0.0814327 0.7889567 0.0814327 0.7889567 0.0814327 0.5132837 0.0814327 0.7889567 0.01714217 0.5132837 0.0814327 0.5132837 0.01714217 0.7889567 0.01714217 0.04985594 0.5838995 0.04986399 0.638325 0.03941071 0.5838956 0.03941071 0.5838956 0.04986399 0.638325 0.03941071 0.6383224 0.04986399 0.638325 0.04986 0.6927489 0.03941071 0.6383224 0.03941071 0.6383224 0.04986 0.6927489 0.03941071 0.6927482 0.04986 0.6927489 0.04986101 0.7471754 0.03941071 0.6927482 0.03941071 0.6927482 0.04986101 0.7471754 0.03941071 0.7471767 0.04986101 0.7471754 0.0498507 0.8016008 0.03941071 0.7471767 0.03941071 0.7471767 0.0498507 0.8016008 0.03941071 0.8016048 0.0498507 0.8016008 0.04983949 0.8560201 0.03941071 0.8016048 0.03941071 0.8016048 0.04983949 0.8560201 0.03941071 0.8560265 0.04983949 0.8560201 0.04980134 0.9104248 0.03941071 0.8560265 0.03941071 0.8560265 0.04980134 0.9104248 0.03941071 0.9104248 0.2972267 0.9104248 0.04980134 0.9104248 0.2973052 0.856031 0.04980134 0.9104248 0.04983949 0.8560201 0.2973052 0.856031 0.2973052 0.856031 0.04983949 0.8560201 0.2973472 0.8016114 0.04983949 0.8560201 0.0498507 0.8016008 0.2973472 0.8016114 0.2973472 0.8016114 0.0498507 0.8016008 0.2973937 0.7471805 0.0498507 0.8016008 0.04986101 0.7471754 0.2973937 0.7471805 0.2973937 0.7471805 0.04986101 0.7471754 0.2974394 0.6927456 0.04986101 0.7471754 0.04986 0.6927489 0.2974394 0.6927456 0.2974394 0.6927456 0.04986 0.6927489 0.2974718 0.6383085 0.04986 0.6927489 0.04986399 0.638325 0.2974718 0.6383085 0.2974718 0.6383085 0.04986399 0.638325 0.2974976 0.5838786 0.04986399 0.638325 0.04985594 0.5838995 0.2974976 0.5838786 0.2974976 0.5838786 0.04985594 0.5838995 0.2975231 0.5294553 0.04985594 0.5838995 0.04985266 0.5294775 0.2975231 0.5294553 0.2975231 0.5294553 0.04985266 0.5294775 0.2975548 0.4750401 0.04985266 0.5294775 0.04984605 0.4750594 0.2975548 0.4750401 0.2975548 0.4750401 0.04984605 0.4750594 0.2975835 0.4206334 0.04984605 0.4750594 0.0498383 0.420645 0.2975835 0.4206334 0.2975835 0.4206334 0.0498383 0.420645 0.2976148 0.3662291 0.0498383 0.420645 0.04983842 0.3662394 0.2976148 0.3662291 0.2976148 0.3662291 0.04983842 0.3662394 0.2976292 0.3118305 0.04983842 0.3662394 0.0498321 0.3118333 0.2976292 0.3118305 0.2976292 0.3118305 0.0498321 0.3118333 0.2976338 0.2574319 0.0498321 0.3118333 0.04983782 0.2574258 0.2976338 0.2574319 0.03941071 0.5838956 0.03941071 0.5294732 0.04985594 0.5838995 0.04985594 0.5838995 0.03941071 0.5294732 0.04985266 0.5294775 0.03941071 0.5294732 0.03941071 0.4750557 0.04985266 0.5294775 0.04985266 0.5294775 0.03941071 0.4750557 0.04984605 0.4750594 0.03941071 0.4750557 0.03941071 0.4206424 0.04984605 0.4750594 0.04984605 0.4750594 0.03941071 0.4206424 0.0498383 0.420645 0.03941071 0.4206424 0.03941071 0.3662376 0.0498383 0.420645 0.0498383 0.420645 0.03941071 0.3662376 0.04983842 0.3662394 0.03941071 0.3662376 0.03941071 0.3118329 0.04983842 0.3662394 0.04983842 0.3662394 0.03941071 0.3118329 0.0498321 0.3118333 0.03941071 0.3118329 0.03941071 0.2574273 0.0498321 0.3118333 0.0498321 0.3118333 0.03941071 0.2574273 0.04983782 0.2574258 0.03941071 0.2574273 0.03941071 0.2030184 0.04983782 0.2574258 0.04983782 0.2574258 0.03941071 0.2030184 0.04984134 0.2030147 0.03941071 0.2030184 0.03941071 0.1486021 0.04984134 0.2030147 0.04984134 0.2030147 0.03941071 0.1486021 0.04986 0.1485958 0.03941071 0.1486021 0.03941071 0.09416168 0.04986 0.1485958 0.03941071 0.09416168 0.04989606 0.09416168 0.04986 0.1485958 0.04989606 0.09416168 0.2978447 0.09416168 0.04986 0.1485958 0.2978447 0.09416168 0.2977188 0.148607 0.04986 0.1485958 0.04986 0.1485958 0.2977188 0.148607 0.04984134 0.2030147 0.2977188 0.148607 0.2976521 0.2030261 0.04984134 0.2030147 0.04984134 0.2030147 0.2976521 0.2030261 0.04983782 0.2574258 0.2976521 0.2030261 0.2976338 0.2574319 0.04983782 0.2574258 0.4387843 0.4063758 0.4387865 0.3424866 0.4461674 0.4063346 0.4461674 0.4063346 0.4387865 0.3424866 0.4461674 0.3424637 0.4387865 0.3424866 0.4387865 0.2786054 0.4461674 0.3424637 0.4461674 0.3424637 0.4387865 0.2786054 0.4461674 0.2786052 0.4387865 0.2786054 0.4387816 0.2147227 0.4461674 0.2786052 0.4461674 0.2786052 0.4387816 0.2147227 0.4461674 0.2147458 0.4387816 0.2147227 0.4387865 0.1508341 0.4461674 0.2147458 0.4461674 0.2147458 0.4387865 0.1508341 0.4461674 0.150875 0.4387865 0.1508341 0.4387882 0.08693599 0.4461674 0.150875 0.4461674 0.150875 0.4387882 0.08693599 0.4461674 0.08698487 0.4387882 0.08693599 0.438787 0.02296119 0.4461674 0.08698487 0.4461674 0.08698487 0.438787 0.02296119 0.4461674 0.02296119 0.4229008 0.02296119 0.438787 0.02296119 0.4229598 0.08678102 0.438787 0.02296119 0.4387882 0.08693599 0.4229598 0.08678102 0.4229598 0.08678102 0.4387882 0.08693599 0.4230422 0.1507053 0.4387882 0.08693599 0.4387865 0.1508341 0.4230422 0.1507053 0.4230422 0.1507053 0.4387865 0.1508341 0.4230963 0.2146506 0.4387865 0.1508341 0.4387816 0.2147227 0.4230963 0.2146506 0.4230963 0.2146506 0.4387816 0.2147227 0.4231384 0.278605 0.4387816 0.2147227 0.4387865 0.2786054 0.4231384 0.278605 0.4231384 0.278605 0.4387865 0.2786054 0.4231141 0.3425591 0.4387865 0.2786054 0.4387865 0.3424866 0.4231141 0.3425591 0.4231141 0.3425591 0.4387865 0.3424866 0.423031 0.4065051 0.4387865 0.3424866 0.4387843 0.4063758 0.423031 0.4065051 0.423031 0.4065051 0.4387843 0.4063758 0.4229411 0.4704374 0.4387843 0.4063758 0.4387806 0.4702734 0.4229411 0.4704374 0.4229411 0.4704374 0.4387806 0.4702734 0.4228333 0.5343524 0.4387806 0.4702734 0.438785 0.5341821 0.4228333 0.5343524 0.4228333 0.5343524 0.438785 0.5341821 0.4227371 0.5982495 0.438785 0.5341821 0.4387847 0.5981024 0.4227371 0.5982495 0.4227371 0.5982495 0.4387847 0.5981024 0.4226683 0.662131 0.4387847 0.5981024 0.4387953 0.6620326 0.4226683 0.662131 0.4226683 0.662131 0.4387953 0.6620326 0.4226242 0.7260023 0.4387953 0.6620326 0.4387916 0.7259691 0.4226242 0.7260023 0.4226242 0.7260023 0.4387916 0.7259691 0.422592 0.7898716 0.4387916 0.7259691 0.4387798 0.7899047 0.422592 0.7898716 0.4229008 0.02296119 0.4229598 0.08678102 0.4116348 0.02296119 0.4116348 0.02296119 0.4229598 0.08678102 0.4116382 0.08673131 0.4229598 0.08678102 0.4230422 0.1507053 0.4116382 0.08673131 0.4116382 0.08673131 0.4230422 0.1507053 0.4116875 0.1506605 0.4230422 0.1507053 0.4230963 0.2146506 0.4116875 0.1506605 0.4116875 0.1506605 0.4230963 0.2146506 0.4117234 0.2146254 0.4230963 0.2146506 0.4231384 0.278605 0.4117234 0.2146254 0.4117234 0.2146254 0.4231384 0.278605 0.4117595 0.2786046 0.4231384 0.278605 0.4231141 0.3425591 0.4117595 0.2786046 0.4117595 0.2786046 0.4231141 0.3425591 0.4117396 0.3425846 0.4231141 0.3425591 0.423031 0.4065051 0.4117396 0.3425846 0.4117396 0.3425846 0.423031 0.4065051 0.4116743 0.4065505 0.423031 0.4065051 0.4229411 0.4704374 0.4116743 0.4065505 0.4116743 0.4065505 0.4229411 0.4704374 0.4115955 0.4704946 0.4229411 0.4704374 0.4228333 0.5343524 0.4115955 0.4704946 0.4115955 0.4704946 0.4228333 0.5343524 0.4115162 0.5344117 0.4228333 0.5343524 0.4227371 0.5982495 0.4115162 0.5344117 0.4115162 0.5344117 0.4227371 0.5982495 0.4114399 0.5983005 0.4227371 0.5982495 0.4226683 0.662131 0.4114399 0.5983005 0.4114399 0.5983005 0.4226683 0.662131 0.4113963 0.6621652 0.4226683 0.662131 0.4226242 0.7260023 0.4113963 0.6621652 0.4113963 0.6621652 0.4226242 0.7260023 0.4113536 0.7260139 0.4226242 0.7260023 0.422592 0.7898716 0.4113536 0.7260139 0.422592 0.7898716 0.4113127 0.7898601 0.4113536 0.7260139 0.422592 0.7898716 0.4226193 0.8537433 0.4113127 0.7898601 0.4113127 0.7898601 0.4226193 0.8537433 0.4113252 0.8537097 0.4226193 0.8537433 0.4226771 0.9176329 0.4113252 0.8537097 0.4113252 0.8537097 0.4226771 0.9176329 0.4113627 0.9175894 0.4226771 0.9176329 0.4228461 0.981625 0.4113627 0.9175894 0.4228461 0.981625 0.4114869 0.981625 0.4113627 0.9175894 0.4114869 0.981625 0.3459013 0.981625 0.4113627 0.9175894 0.3459013 0.981625 0.3459635 0.9176023 0.4113627 0.9175894 0.4113627 0.9175894 0.3459635 0.9176023 0.4113252 0.8537097 0.3459635 0.9176023 0.3460276 0.8537235 0.4113252 0.8537097 0.4113252 0.8537097 0.3460276 0.8537235 0.4113127 0.7898601 0.3460276 0.8537235 0.3460973 0.7898657 0.4113127 0.7898601 0.4113127 0.7898601 0.3460973 0.7898657 0.4113536 0.7260139 0.3460973 0.7898657 0.3461531 0.7260088 0.4113536 0.7260139 0.4113536 0.7260139 0.3461531 0.7260088 0.4113963 0.6621652 0.3461531 0.7260088 0.3461686 0.662149 0.4113963 0.6621652 0.4113963 0.6621652 0.3461686 0.662149 0.4114399 0.5983005 0.3461686 0.662149 0.3461583 0.598277 0.4114399 0.5983005 0.4114399 0.5983005 0.3461583 0.598277 0.4115162 0.5344117 0.3461583 0.598277 0.3461416 0.5343849 0.4115162 0.5344117 0.4115162 0.5344117 0.3461416 0.5343849 0.4115955 0.4704946 0.3461416 0.5343849 0.3461276 0.4704692 0.4115955 0.4704946 0.4115955 0.4704946 0.3461276 0.4704692 0.4116743 0.4065505 0.3461276 0.4704692 0.346116 0.4065312 0.4116743 0.4065505 0.2973937 0.7471805 0.3343853 0.7898783 0.2973472 0.8016114 0.3343853 0.7898783 0.3342976 0.8537582 0.2973472 0.8016114 0.2973472 0.8016114 0.3342976 0.8537582 0.2973052 0.856031 0.3342976 0.8537582 0.3342078 0.9176451 0.2973052 0.856031 0.2973052 0.856031 0.3342078 0.9176451 0.2972267 0.9104248 0.2972267 0.9104248 0.3342078 0.9176451 0.3340914 0.981625 0.3340914 0.981625 0.3342078 0.9176451 0.3459013 0.981625 0.3459013 0.981625 0.3342078 0.9176451 0.3459635 0.9176023 0.3342078 0.9176451 0.3342976 0.8537582 0.3459635 0.9176023 0.3459635 0.9176023 0.3342976 0.8537582 0.3460276 0.8537235 0.3342976 0.8537582 0.3343853 0.7898783 0.3460276 0.8537235 0.3460276 0.8537235 0.3343853 0.7898783 0.3460973 0.7898657 0.3343853 0.7898783 0.3344437 0.725996 0.3460973 0.7898657 0.3460973 0.7898657 0.3344437 0.725996 0.3461531 0.7260088 0.3344437 0.725996 0.3344541 0.6621119 0.3461531 0.7260088 0.3461531 0.7260088 0.3344541 0.6621119 0.3461686 0.662149 0.3344541 0.6621119 0.3344204 0.5982224 0.3461686 0.662149 0.3461686 0.662149 0.3344204 0.5982224 0.3461583 0.598277 0.3344204 0.5982224 0.3343852 0.5343218 0.3461583 0.598277 0.3461583 0.598277 0.3343852 0.5343218 0.3461416 0.5343849 0.3343852 0.5343218 0.334344 0.4704086 0.3461416 0.5343849 0.3461416 0.5343849 0.334344 0.4704086 0.3461276 0.4704692 0.334344 0.4704086 0.3343189 0.4064837 0.3461276 0.4704692 0.3461276 0.4704692 0.3343189 0.4064837 0.346116 0.4065312 0.3343853 0.7898783 0.2973937 0.7471805 0.3344437 0.725996 0.2973937 0.7471805 0.2974394 0.6927456 0.3344437 0.725996 0.3344437 0.725996 0.2974394 0.6927456 0.3344541 0.6621119 0.2974394 0.6927456 0.2974718 0.6383085 0.3344541 0.6621119 0.3344541 0.6621119 0.2974718 0.6383085 0.3344204 0.5982224 0.2974718 0.6383085 0.2974976 0.5838786 0.3344204 0.5982224 0.3344204 0.5982224 0.2974976 0.5838786 0.3343852 0.5343218 0.2974976 0.5838786 0.2975231 0.5294553 0.3343852 0.5343218 0.3343852 0.5343218 0.2975231 0.5294553 0.334344 0.4704086 0.2975231 0.5294553 0.2975548 0.4750401 0.334344 0.4704086 0.334344 0.4704086 0.2975548 0.4750401 0.3343189 0.4064837 0.2975548 0.4750401 0.2975835 0.4206334 0.3343189 0.4064837 0.3343189 0.4064837 0.2975835 0.4206334 0.3343119 0.3425465 0.2975835 0.4206334 0.2976148 0.3662291 0.3343119 0.3425465 0.3343119 0.3425465 0.2976148 0.3662291 0.334313 0.2786038 0.2976148 0.3662291 0.2976292 0.3118305 0.334313 0.2786038 0.334313 0.2786038 0.2976292 0.3118305 0.3343225 0.2146621 0.2976292 0.3118305 0.2976338 0.2574319 0.3343225 0.2146621 0.3343225 0.2146621 0.2976338 0.2574319 0.3343766 0.1507241 0.2976338 0.2574319 0.2976521 0.2030261 0.3343766 0.1507241 0.3343766 0.1507241 0.2976521 0.2030261 0.334515 0.08679533 0.2976521 0.2030261 0.2977188 0.148607 0.334515 0.08679533 0.334515 0.08679533 0.2977188 0.148607 0.3347443 0.02296119 0.2977188 0.148607 0.2978447 0.09416168 0.3347443 0.02296119 0.3343189 0.4064837 0.3343119 0.3425465 0.346116 0.4065312 0.346116 0.4065312 0.3343119 0.3425465 0.3461243 0.3425731 0.3343119 0.3425465 0.334313 0.2786038 0.3461243 0.3425731 0.3461243 0.3425731 0.334313 0.2786038 0.3461287 0.2786046 0.334313 0.2786038 0.3343225 0.2146621 0.3461287 0.2786046 0.3461287 0.2786046 0.3343225 0.2146621 0.3461326 0.2146357 0.3343225 0.2146621 0.3343766 0.1507241 0.3461326 0.2146357 0.3461326 0.2146357 0.3343766 0.1507241 0.346172 0.1506783 0.3343766 0.1507241 0.334515 0.08679533 0.346172 0.1506783 0.346172 0.1506783 0.334515 0.08679533 0.3462811 0.08674633 0.334515 0.08679533 0.3347443 0.02296119 0.3462811 0.08674633 0.3347443 0.02296119 0.3464571 0.02296119 0.3462811 0.08674633 0.3464571 0.02296119 0.4116348 0.02296119 0.3462811 0.08674633 0.4116348 0.02296119 0.4116382 0.08673131 0.3462811 0.08674633 0.3462811 0.08674633 0.4116382 0.08673131 0.346172 0.1506783 0.4116382 0.08673131 0.4116875 0.1506605 0.346172 0.1506783 0.346172 0.1506783 0.4116875 0.1506605 0.3461326 0.2146357 0.4116875 0.1506605 0.4117234 0.2146254 0.3461326 0.2146357 0.3461326 0.2146357 0.4117234 0.2146254 0.3461287 0.2786046 0.4117234 0.2146254 0.4117595 0.2786046 0.3461287 0.2786046 0.3461287 0.2786046 0.4117595 0.2786046 0.3461243 0.3425731 0.4117595 0.2786046 0.4117396 0.3425846 0.3461243 0.3425731 0.3461243 0.3425731 0.4117396 0.3425846 0.346116 0.4065312 0.4117396 0.3425846 0.4116743 0.4065505 0.346116 0.4065312 0.918514 0.02339315 0.9430543 0.03188115 0.9108176 0.08536374 0.9430543 0.03188115 0.9620208 0.04961675 0.9108176 0.08536374 0.9620208 0.04961675 0.9721335 0.07353329 0.9108176 0.08536374 0.9721335 0.07353329 0.9716445 0.09949558 0.9108176 0.08536374 0.9716445 0.09949558 0.9606376 0.1230142 0.9108176 0.08536374 0.9606376 0.1230142 0.9410167 0.1400228 0.9108176 0.08536374 0.9410167 0.1400228 0.9161741 0.1475803 0.9108176 0.08536374 0.9161741 0.1475803 0.8904051 0.14438 0.9108176 0.08536374 0.8904051 0.14438 0.8681657 0.1309754 0.9108176 0.08536374 0.8681657 0.1309754 0.8533014 0.1096839 0.9108176 0.08536374 0.8533014 0.1096839 0.8483821 0.08418726 0.9108176 0.08536374 0.8483821 0.08418726 0.8542584 0.05889409 0.9108176 0.08536374 0.8542584 0.05889409 0.8699144 0.0381779 0.9108176 0.08536374 0.8699144 0.0381779 0.892643 0.02562046 0.9108176 0.08536374 0.9108176 0.08536374 0.892643 0.02562046 0.918514 0.02339315 0.422592 0.7898716 0.4387798 0.7899047 0.4226193 0.8537433 0.4387798 0.7899047 0.438777 0.8538413 0.4226193 0.8537433 0.4226193 0.8537433 0.438777 0.8538413 0.4226771 0.9176329 0.438777 0.8538413 0.4387682 0.9177713 0.4226771 0.9176329 0.4226771 0.9176329 0.4387682 0.9177713 0.4228461 0.981625 0.4228461 0.981625 0.4387682 0.9177713 0.4388106 0.981625 0.4388106 0.981625 0.4387682 0.9177713 0.4461674 0.981625 0.4461674 0.981625 0.4387682 0.9177713 0.4461674 0.9178144 0.4387682 0.9177713 0.438777 0.8538413 0.4461674 0.9178144 0.4461674 0.9178144 0.438777 0.8538413 0.4461674 0.8538725 0.438777 0.8538413 0.4387798 0.7899047 0.4461674 0.8538725 0.4461674 0.8538725 0.4387798 0.7899047 0.4461674 0.789915 0.4387798 0.7899047 0.4387916 0.7259691 0.4461674 0.789915 0.4461674 0.789915 0.4387916 0.7259691 0.4461674 0.7259588 0.4387916 0.7259691 0.4387953 0.6620326 0.4461674 0.7259588 0.4461674 0.7259588 0.4387953 0.6620326 0.4461674 0.6620014 0.4387953 0.6620326 0.4387847 0.5981024 0.4461674 0.6620014 0.4461674 0.6620014 0.4387847 0.5981024 0.4461674 0.5980557 0.4387847 0.5981024 0.438785 0.5341821 0.4461674 0.5980557 0.4461674 0.5980557 0.438785 0.5341821 0.4461674 0.5341281 0.438785 0.5341821 0.4387806 0.4702734 0.4461674 0.5341281 0.4461674 0.5341281 0.4387806 0.4702734 0.4461674 0.4702214 0.4387806 0.4702734 0.4387843 0.4063758 0.4461674 0.4702214 0.4461674 0.4702214 0.4387843 0.4063758 0.4461674 0.4063346</float_array>
          <technique_common>
            <accessor source="#Mesh_0_037-mesh-map-array" count="855" stride="2">
              <param name="S" type="float"/>
              <param name="T" type="float"/>
            </accessor>
          </technique_common>
        </source>
        <source id="Mesh_0_037-mesh-colors-Color" name="Color">
          <float_array id="Mesh_0_037-mesh-colors-Color-array" count="3420">1 1 1 1 1 1 1 1 1 1 1 1 1 1 1 1 1 1 1 1 1 1 1 1 1 1 1 1 1 1 1 1 1 1 1 1 1 1 1 1 1 1 1 1 1 1 1 1 1 1 1 1 1 1 1 1 1 1 1 1 1 1 1 1 1 1 1 1 1 1 1 1 1 1 1 1 1 1 1 1 1 1 1 1 1 1 1 1 1 1 1 1 1 1 1 1 1 1 1 1 1 1 1 1 1 1 1 1 1 1 1 1 1 1 1 1 1 1 1 1 1 1 1 1 1 1 1 1 1 1 1 1 1 1 1 1 1 1 1 1 1 1 1 1 1 1 1 1 1 1 1 1 1 1 1 1 1 1 1 1 1 1 1 1 1 1 1 1 1 1 1 1 1 1 1 1 1 1 1 1 1 1 1 1 1 1 1 1 1 1 1 1 1 1 1 1 1 1 1 1 1 1 1 1 1 1 1 1 1 1 1 1 1 1 1 1 1 1 1 1 1 1 1 1 1 1 1 1 1 1 1 1 1 1 1 1 1 1 1 1 1 1 1 1 1 1 1 1 1 1 1 1 1 1 1 1 1 1 1 1 1 1 1 1 1 1 1 1 1 1 1 1 1 1 1 1 1 1 1 1 1 1 1 1 1 1 1 1 1 1 1 1 1 1 1 1 1 1 1 1 1 1 1 1 1 1 1 1 1 1 1 1 1 1 1 1 1 1 1 1 1 1 1 1 1 1 1 1 1 1 1 1 1 1 1 1 1 1 1 1 1 1 1 1 1 1 1 1 1 1 1 1 1 1 1 1 1 1 1 1 1 1 1 1 1 1 1 1 1 1 1 1 1 1 1 1 1 1 1 1 1 1 1 1 1 1 1 1 1 1 1 1 1 1 1 1 1 1 1 1 1 1 1 1 1 1 1 1 1 1 1 1 1 1 1 1 1 1 1 1 1 1 1 1 1 1 1 1 1 1 1 1 1 1 1 1 1 1 1 1 1 1 1 1 1 1 1 1 1 1 1 1 1 1 1 1 1 1 1 1 1 1 1 1 1 1 1 1 1 1 1 1 1 1 1 1 1 1 1 1 1 1 1 1 1 1 1 1 1 1 1 1 1 1 1 1 1 1 1 1 1 1 1 1 1 1 1 1 1 1 1 1 1 1 1 1 1 1 1 1 1 1 1 1 1 1 1 1 1 1 1 1 1 1 1 1 1 1 1 1 1 1 1 1 1 1 1 1 1 1 1 1 1 1 1 1 1 1 1 1 1 1 1 1 1 1 1 1 1 1 1 1 1 1 1 1 1 1 1 1 1 1 1 1 1 1 1 1 1 1 1 1 1 1 1 1 1 1 1 1 1 1 1 1 1 1 1 1 1 1 1 1 1 1 1 1 1 1 1 1 1 1 1 1 1 1 1 1 1 1 1 1 1 1 1 1 1 1 1 1 1 1 1 1 1 1 1 1 1 1 1 1 1 1 1 1 1 1 1 1 1 1 1 1 1 1 1 1 1 1 1 1 1 1 1 1 1 1 1 1 1 1 1 1 1 1 1 1 1 1 1 1 1 1 1 1 1 1 1 1 1 1 1 1 1 1 1 1 1 1 1 1 1 1 1 1 1 1 1 1 1 1 1 1 1 1 1 1 1 1 1 1 1 1 1 1 1 1 1 1 1 1 1 1 1 1 1 1 1 1 1 1 1 1 1 1 1 1 1 1 1 1 1 1 1 1 1 1 1 1 1 1 1 1 1 1 1 1 1 1 1 1 1 1 1 1 1 1 1 1 1 1 1 1 1 1 1 1 1 1 1 1 1 1 1 1 1 1 1 1 1 1 1 1 1 1 1 1 1 1 1 1 1 1 1 1 1 1 1 1 1 1 1 1 1 1 1 1 1 1 1 1 1 1 1 1 1 1 1 1 1 1 1 1 1 1 1 1 1 1 1 1 1 1 1 1 1 1 1 1 1 1 1 1 1 1 1 1 1 1 1 1 1 1 1 1 1 1 1 1 1 1 1 1 1 1 1 1 1 1 1 1 1 1 1 1 1 1 1 1 1 1 1 1 1 1 1 1 1 1 1 1 1 1 1 1 1 1 1 1 1 1 1 1 1 1 1 1 1 1 1 1 1 1 1 1 1 1 1 1 1 1 1 1 1 1 1 1 1 1 1 1 1 1 1 1 1 1 1 1 1 1 1 1 1 1 1 1 1 1 1 1 1 1 1 1 1 1 1 1 1 1 1 1 1 1 1 1 1 1 1 1 1 1 1 1 1 1 1 1 1 1 1 1 1 1 1 1 1 1 1 1 1 1 1 1 1 1 1 1 1 1 1 1 1 1 1 1 1 1 1 1 1 1 1 1 1 1 1 1 1 1 1 1 1 1 1 1 1 1 1 1 1 1 1 1 1 1 1 1 1 1 1 1 1 1 1 1 1 1 1 1 1 1 1 1 1 1 1 1 1 1 1 1 1 1 1 1 1 1 1 1 1 1 1 1 1 1 1 1 1 1 1 1 1 1 1 1 1 1 1 1 1 1 1 1 1 1 1 1 1 1 1 1 1 1 1 1 1 1 1 1 1 1 1 1 1 1 1 1 1 1 1 1 1 1 1 1 1 1 1 1 1 1 1 1 1 1 1 1 1 1 1 1 1 1 1 1 1 1 1 1 1 1 1 1 1 1 1 1 1 1 1 1 1 1 1 1 1 1 1 1 1 1 1 1 1 1 1 1 1 1 1 1 1 1 1 1 1 1 1 1 1 1 1 1 1 1 1 1 1 1 1 1 1 1 1 1 1 1 1 1 1 1 1 1 1 1 1 1 1 1 1 1 1 1 1 1 1 1 1 1 1 1 1 1 1 1 1 1 1 1 1 1 1 1 1 1 1 1 1 1 1 1 1 1 1 1 1 1 1 1 1 1 1 1 1 1 1 1 1 1 1 1 1 1 1 1 1 1 1 1 1 1 1 1 1 1 1 1 1 1 1 1 1 1 1 1 1 1 1 1 1 1 1 1 1 1 1 1 1 1 1 1 1 1 1 1 1 1 1 1 1 1 1 1 1 1 1 1 1 1 1 1 1 1 1 1 1 1 1 1 1 1 1 1 1 1 1 1 1 1 1 1 1 1 1 1 1 1 1 1 1 1 1 1 1 1 1 1 1 1 1 1 1 1 1 1 1 1 1 1 1 1 1 1 1 1 1 1 1 1 1 1 1 1 1 1 1 1 1 1 1 1 1 1 1 1 1 1 1 1 1 1 1 1 1 1 1 1 1 1 1 1 1 1 1 1 1 1 1 1 1 1 1 1 1 1 1 1 1 1 1 1 1 1 1 1 1 1 1 1 1 1 1 1 1 1 1 1 1 1 1 1 1 1 1 1 1 1 1 1 1 1 1 1 1 1 1 1 1 1 1 1 1 1 1 1 1 1 1 1 1 1 1 1 1 1 1 1 1 1 1 1 1 1 1 1 1 1 1 1 1 1 1 1 1 1 1 1 1 1 1 1 1 1 1 1 1 1 1 1 1 1 1 1 1 1 1 1 1 1 1 1 1 1 1 1 1 1 1 1 1 1 1 1 1 1 1 1 1 1 1 1 1 1 1 1 1 1 1 1 1 1 1 1 1 1 1 1 1 1 1 1 1 1 1 1 1 1 1 1 1 1 1 1 1 1 1 1 1 1 1 1 1 1 1 1 1 1 1 1 1 1 1 1 1 1 1 1 1 1 1 1 1 1 1 1 1 1 1 1 1 1 1 1 1 1 1 1 1 1 1 1 1 1 1 1 1 1 1 1 1 1 1 1 1 1 1 1 1 1 1 1 1 1 1 1 1 1 1 1 1 1 1 1 1 1 1 1 1 1 1 1 1 1 1 1 1 1 1 1 1 1 1 1 1 1 1 1 1 1 1 1 1 1 1 1 1 1 1 1 1 1 1 1 1 1 1 1 1 1 1 1 1 1 1 1 1 1 1 1 1 1 1 1 1 1 1 1 1 1 1 1 1 1 1 1 1 1 1 1 1 1 1 1 1 1 1 1 1 1 1 1 1 1 1 1 1 1 1 1 1 1 1 1 1 1 1 1 1 1 1 1 1 1 1 1 1 1 1 1 1 1 1 1 1 1 1 1 1 1 1 1 1 1 1 1 1 1 1 1 1 1 1 1 1 1 1 1 1 1 1 1 1 1 1 1 1 1 1 1 1 1 1 1 1 1 1 1 1 1 1 1 1 1 1 1 1 1 1 1 1 1 1 1 1 1 1 1 1 1 1 1 1 1 1 1 1 1 1 1 1 1 1 1 1 1 1 1 1 1 1 1 1 1 1 1 1 1 1 1 1 1 1 1 1 1 1 1 1 1 1 1 1 1 1 1 1 1 1 1 1 1 1 1 1 1 1 1 1 1 1 1 1 1 1 1 1 1 1 1 1 1 1 1 1 1 1 1 1 1 1 1 1 1 1 1 1 1 1 1 1 1 1 1 1 1 1 1 1 1 1 1 1 1 1 1 1 1 1 1 1 1 1 1 1 1 1 1 1 1 1 1 1 1 1 1 1 1 1 1 1 1 1 1 1 1 1 1 1 1 1 1 1 1 1 1 1 1 1 1 1 1 1 1 1 1 1 1 1 1 1 1 1 1 1 1 1 1 1 1 1 1 1 1 1 1 1 1 1 1 1 1 1 1 1 1 1 1 1 1 1 1 1 1 1 1 1 1 1 1 1 1 1 1 1 1 1 1 1 1 1 1 1 1 1 1 1 1 1 1 1 1 1 1 1 1 1 1 1 1 1 1 1 1 1 1 1 1 1 1 1 1 1 1 1 1 1 1 1 1 1 1 1 1 1 1 1 1 1 1 1 1 1 1 1 1 1 1 1 1 1 1 1 1 1 1 1 1 1 1 1 1 1 1 1 1 1 1 1 1 1 1 1 1 1 1 1 1 1 1 1 1 1 1 1 1 1 1 1 1 1 1 1 1 1 1 1 1 1 1 1 1 1 1 1 1 1 1 1 1 1 1 1 1 1 1 1 1 1 1 1 1 1 1 1 1 1 1 1 1 1 1 1 1 1 1 1 1 1 1 1 1 1 1 1 1 1 1 1 1 1 1 1 1 1 1 1 1 1 1 1 1 1 1 1 1 1 1 1 1 1 1 1 1 1 1 1 1 1 1 1 1 1 1 1 1 1 1 1 1 1 1 1 1 1 1 1 1 1 1 1 1 1 1 1 1 1 1 1 1 1 1 1 1 1 1 1 1 1 1 1 1 1 1 1 1 1 1 1 1 1 1 1 1 1 1 1 1 1 1 1 1 1 1 1 1 1 1 1 1 1 1 1 1 1 1 1 1 1 1 1 1 1 1 1 1 1 1 1 1 1 1 1 1 1 1 1 1 1 1 1 1 1 1 1 1 1 1 1 1 1 1 1 1 1 1 1 1 1 1 1 1 1 1 1 1 1 1 1 1 1 1 1 1 1 1 1 1 1 1 1 1 1 1 1 1 1 1 1 1 1 1 1 1 1 1 1 1 1 1 1 1 1 1 1 1 1 1 1 1 1 1 1 1 1 1 1 1 1 1 1 1 1 1 1 1 1 1 1 1 1 1 1 1 1 1 1 1 1 1 1 1 1 1 1 1 1 1 1 1 1 1 1 1 1 1 1 1 1 1 1 1 1 1 1 1 1 1 1 1 1 1 1 1 1 1 1 1 1 1 1 1 1 1 1 1 1 1 1 1 1 1 1 1 1 1 1 1 1 1 1 1 1 1 1 1 1 1 1 1 1 1 1 1 1 1 1 1 1 1 1 1 1 1 1 1 1 1 1 1 1 1 1 1 1 1 1 1 1 1 1 1 1 1 1 1 1 1 1 1 1 1 1 1 1 1 1 1 1 1 1 1 1 1 1 1 1 1 1 1 1 1 1 1 1 1 1 1 1 1 1 1 1 1 1 1 1 1 1 1 1 1 1 1 1 1 1 1 1 1 1 1 1 1 1 1 1 1 1 1 1 1 1 1 1 1 1 1 1 1 1 1 1 1 1 1 1 1 1 1 1 1 1 1 1 1 1 1 1 1 1 1 1 1 1 1 1 1 1 1 1 1 1 1 1 1 1 1 1 1 1 1 1 1 1 1 1 1 1 1 1 1 1 1 1 1 1 1 1 1 1 1 1 1 1 1 1 1 1 1 1 1 1 1 1 1 1 1 1 1 1 1 1 1 1 1 1 1 1 1 1 1 1 1 1 1 1 1 1 1 1 1 1 1 1 1 1 1 1 1 1 1 1 1 1 1 1 1 1 1 1 1 1 1 1 1 1 1 1 1 1 1 1 1 1 1 1 1 1 1 1 1 1 1 1 1 1 1 1 1 1 1 1 1 1 1 1 1 1 1 1 1 1 1 1 1 1 1 1 1 1 1 1 1 1 1 1 1 1 1 1 1 1 1 1 1 1 1 1 1 1 1 1 1 1 1 1 1 1 1 1 1 1 1 1 1 1 1 1 1 1 1 1 1 1 1 1 1 1 1 1 1 1 1 1 1 1 1 1 1 1 1 1 1 1 1 1 1 1 1 1 1 1 1 1 1 1 1 1 1 1 1 1 1 1 1 1 1 1 1 1 1 1 1 1 1 1 1 1 1 1 1 1 1 1 1 1 1 1 1 1 1 1 1 1 1 1 1 1 1 1 1 1 1 1 1 1 1 1 1 1 1 1 1 1 1 1 1 1 1 1 1 1 1 1 1 1 1 1 1 1 1 1 1 1 1 1 1 1 1 1 1 1 1 1 1 1 1 1 1 1 1 1 1 1 1 1 1 1 1 1 1 1 1 1 1 1 1 1 1 1 1 1 1 1 1 1 1 1 1 1 1 1 1 1 1 1 1 1 1 1 1 1 1 1 1 1 1 1 1 1 1 1 1 1 1 1 1 1 1 1 1 1 1 1 1 1 1 1 1 1 1 1 1 1 1 1 1 1 1 1 1 1 1 1 1 1 1 1 1 1 1 1 1 1 1 1 1 1 1 1 1 1 1 1 1 1 1 1 1 1 1 1 1 1 1 1 1 1 1 1 1 1 1 1 1 1 1 1 1 1 1 1 1 1 1 1 1 1 1 1 1 1 1 1 1 1 1 1 1 1 1 1 1 1 1 1 1 1 1 1 1 1 1 1 1 1 1 1 1 1 1 1 1 1 1 1 1 1 1 1 1 1 1 1 1 1 1 1 1 1 1 1 1 1 1 1 1 1 1 1 1 1 1 1 1 1 1 1 1 1 1 1 1 1 1 1 1 1 1 1 1 1 1 1 1 1 1 1 1 1 1 1 1 1 1 1 1 1 1 1 1 1 1 1 1 1 1 1 1 1 1 1 1 1 1 1 1 1 1 1 1 1 1 1 1 1 1 1 1 1 1 1 1 1 1 1 1 1 1 1 1 1 1 1 1 1 1 1 1 1 1 1 1 1 1 1 1 1 1 1 1 1 1 1 1 1 1 1 1 1 1 1 1 1 1 1 1 1 1 1 1 1 1 1 1 1 1 1 1 1 1 1 1 1 1 1 1 1 1 1 1 1 1 1 1 1 1 1 1 1 1 1 1 1 1 1 1 1 1 1 1 1 1 1 1 1 1 1 1 1 1 1 1 1 1 1 1 1 1 1 1 1 1 1 1 1 1 1 1 1 1 1 1 1 1 1 1 1 1 1 1 1 1 1 1 1 1</float_array>
          <technique_common>
            <accessor source="#Mesh_0_037-mesh-colors-Color-array" count="855" stride="4">
              <param name="R" type="float"/>
              <param name="G" type="float"/>
              <param name="B" type="float"/>
              <param name="A" type="float"/>
            </accessor>
          </technique_common>
        </source>
        <vertices id="Mesh_0_037-mesh-vertices">
          <input semantic="POSITION" source="#Mesh_0_037-mesh-positions"/>
        </vertices>
        <triangles material="plant_pot_001-material" count="285">
          <input semantic="VERTEX" source="#Mesh_0_037-mesh-vertices" offset="0"/>
          <input semantic="NORMAL" source="#Mesh_0_037-mesh-normals" offset="1"/>
          <input semantic="TEXCOORD" source="#Mesh_0_037-mesh-map" offset="2" set="0"/>
          <input semantic="COLOR" source="#Mesh_0_037-mesh-colors-Color" offset="3" set="0"/>
          <p>0 0 0 0 1 1 1 1 2 2 2 2 1 1 3 3 3 3 4 4 2 2 5 5 2 2 6 6 3 3 7 7 4 4 8 8 3 3 9 9 5 5 10 10 4 4 11 11 4 4 12 12 5 5 13 13 6 6 14 14 5 5 15 15 7 7 16 16 6 6 17 17 1 1 18 18 0 0 19 19 8 8 20 20 0 0 21 21 9 9 22 22 8 8 23 23 8 8 24 24 9 9 25 25 10 10 26 26 9 9 27 27 11 11 28 28 10 10 29 29 10 10 30 30 11 11 31 31 12 12 32 32 11 11 33 33 13 13 34 34 12 12 35 35 12 12 36 36 13 13 37 37 14 14 38 38 13 13 39 39 15 15 40 40 14 14 41 41 14 14 42 42 15 15 43 43 16 16 44 44 15 15 45 45 17 17 46 46 16 16 47 47 16 16 48 48 17 17 49 49 18 18 50 50 17 17 51 51 19 19 52 52 18 18 53 53 18 18 54 54 19 19 55 55 20 20 56 56 19 19 57 57 21 21 58 58 20 20 59 59 20 20 60 60 21 21 61 61 22 22 62 62 21 21 63 63 23 23 64 64 22 22 65 65 22 22 66 66 23 23 67 67 24 24 68 68 23 23 69 69 25 25 70 70 24 24 71 71 24 24 72 72 25 25 73 73 26 26 74 74 25 25 75 75 27 27 76 76 26 26 77 77 26 26 78 78 27 27 79 79 28 28 80 80 27 27 81 81 29 29 82 82 28 28 83 83 28 28 84 84 29 29 85 85 30 30 86 86 29 29 87 87 31 31 88 88 30 30 89 89 32 32 90 90 33 33 91 91 34 34 92 92 34 34 93 93 33 33 94 94 35 35 95 95 33 33 96 96 36 36 97 97 35 35 98 98 35 35 99 99 36 36 100 100 37 37 101 101 36 36 102 102 38 38 103 103 37 37 104 104 37 37 105 105 38 38 106 106 39 39 107 107 38 38 108 108 40 40 109 109 39 39 110 110 39 39 111 111 40 40 112 112 41 41 113 113 40 40 114 114 42 42 115 115 41 41 116 116 41 41 117 117 42 42 118 118 43 43 119 119 42 42 120 120 44 44 121 121 43 43 122 122 43 43 123 123 44 44 124 124 45 45 125 125 46 46 126 126 44 44 127 127 47 47 128 128 44 44 129 129 42 42 130 130 47 47 131 131 47 47 132 132 42 42 133 133 48 48 134 134 42 42 135 135 40 40 136 136 48 48 137 137 48 48 138 138 40 40 139 139 49 49 140 140 40 40 141 141 38 38 142 142 49 49 143 143 49 49 144 144 38 38 145 145 50 50 146 146 38 38 147 147 36 36 148 148 50 50 149 149 50 50 150 150 36 36 151 151 51 51 152 152 36 36 153 153 33 33 154 154 51 51 155 155 51 51 156 156 33 33 157 157 52 52 158 158 33 33 159 159 32 32 160 160 52 52 161 161 52 52 162 162 32 32 163 163 53 53 164 164 32 32 165 165 54 54 166 166 53 53 167 167 53 53 168 168 54 54 169 169 55 55 170 170 54 54 171 171 56 56 172 172 55 55 173 173 55 55 174 174 56 56 175 175 57 57 176 176 56 56 177 177 58 58 178 178 57 57 179 179 57 57 180 180 58 58 181 181 59 59 182 182 58 58 183 183 60 60 184 184 59 59 185 185 59 59 186 186 60 60 187 187 61 61 188 188 60 60 189 189 62 62 190 190 61 61 191 191 61 61 192 192 62 62 193 193 63 63 194 194 62 62 195 195 64 64 196 196 63 63 197 197 34 34 198 198 65 65 199 199 32 32 200 200 32 32 201 201 65 65 202 202 54 54 203 203 65 65 204 204 66 66 205 205 54 54 206 206 54 54 207 207 66 66 208 208 56 56 209 209 66 66 210 210 67 67 211 211 56 56 212 212 56 56 213 213 67 67 214 214 58 58 215 215 67 67 216 216 68 68 217 217 58 58 218 218 58 58 219 219 68 68 220 220 60 60 221 221 68 68 222 222 69 69 223 223 60 60 224 224 60 60 225 225 69 69 226 226 62 62 227 227 69 69 228 228 70 70 229 229 62 62 230 230 62 62 231 231 70 70 232 232 64 64 233 233 70 70 234 234 71 71 235 235 64 64 236 236 64 64 237 237 71 71 238 238 72 72 239 239 71 71 240 240 73 73 241 241 72 72 242 242 72 72 243 243 73 73 244 244 74 74 245 245 73 73 246 246 75 75 247 247 74 74 248 248 75 75 249 249 76 76 250 250 74 74 251 251 76 76 252 252 77 77 253 253 74 74 254 254 77 77 255 255 78 78 256 256 74 74 257 257 74 74 258 258 78 78 259 259 72 72 260 260 78 78 261 261 79 79 262 262 72 72 263 263 72 72 264 264 79 79 265 265 64 64 266 266 79 79 267 267 63 63 268 268 64 64 269 269 80 80 270 270 81 81 271 271 82 82 272 272 82 82 273 273 81 81 274 274 83 83 275 275 81 81 276 276 84 84 277 277 83 83 278 278 83 83 279 279 84 84 280 280 85 85 281 281 84 84 282 282 86 86 283 283 85 85 284 284 85 85 285 285 86 86 286 286 87 87 287 287 86 86 288 288 88 88 289 289 87 87 290 290 87 87 291 291 88 88 292 292 89 89 293 293 88 88 294 294 90 90 295 295 89 89 296 296 89 89 297 297 90 90 298 298 91 91 299 299 90 90 300 300 92 92 301 301 91 91 302 302 91 91 303 303 92 92 304 304 93 93 305 305 94 94 306 306 92 92 307 307 95 95 308 308 92 92 309 309 90 90 310 310 95 95 311 311 95 95 312 312 90 90 313 313 96 96 314 314 90 90 315 315 88 88 316 316 96 96 317 317 96 96 318 318 88 88 319 319 97 97 320 320 88 88 321 321 86 86 322 322 97 97 323 323 97 97 324 324 86 86 325 325 98 98 326 326 86 86 327 327 84 84 328 328 98 98 329 329 98 98 330 330 84 84 331 331 99 99 332 332 84 84 333 333 81 81 334 334 99 99 335 335 99 99 336 336 81 81 337 337 100 100 338 338 81 81 339 339 80 80 340 340 100 100 341 341 100 100 342 342 80 80 343 343 101 101 344 344 80 80 345 345 102 102 346 346 101 101 347 347 101 101 348 348 102 102 349 349 103 103 350 350 102 102 351 351 104 104 352 352 103 103 353 353 103 103 354 354 104 104 355 355 105 105 356 356 104 104 357 357 106 106 358 358 105 105 359 359 105 105 360 360 106 106 361 361 107 107 362 362 106 106 363 363 108 108 364 364 107 107 365 365 107 107 366 366 108 108 367 367 109 109 368 368 108 108 369 369 110 110 370 370 109 109 371 371 109 109 372 372 110 110 373 373 111 111 374 374 110 110 375 375 112 112 376 376 111 111 377 377 94 94 378 378 95 95 379 379 113 113 380 380 113 113 381 381 95 95 382 382 114 114 383 383 95 95 384 384 96 96 385 385 114 114 386 386 114 114 387 387 96 96 388 388 115 115 389 389 96 96 390 390 97 97 391 391 115 115 392 392 115 115 393 393 97 97 394 394 116 116 395 395 97 97 396 396 98 98 397 397 116 116 398 398 116 116 399 399 98 98 400 400 117 117 401 401 98 98 402 402 99 99 403 403 117 117 404 404 117 117 405 405 99 99 406 406 118 118 407 407 99 99 408 408 100 100 409 409 118 118 410 410 118 118 411 411 100 100 412 412 119 119 413 413 100 100 414 414 101 101 415 415 119 119 416 416 119 119 417 417 101 101 418 418 120 120 419 419 101 101 420 420 103 103 421 421 120 120 422 422 120 120 423 423 103 103 424 424 121 121 425 425 103 103 426 426 105 105 427 427 121 121 428 428 121 121 429 429 105 105 430 430 122 122 431 431 105 105 432 432 107 107 433 433 122 122 434 434 122 122 435 435 107 107 436 436 123 123 437 437 107 107 438 438 109 109 439 439 123 123 440 440 123 123 441 441 109 109 442 442 124 124 443 443 109 109 444 444 111 111 445 445 124 124 446 446 111 111 447 447 125 125 448 448 124 124 449 449 111 111 450 450 126 126 451 451 125 125 452 452 125 125 453 453 126 126 454 454 127 127 455 455 126 126 456 456 128 128 457 457 127 127 458 458 127 127 459 459 128 128 460 460 129 129 461 461 128 128 462 462 130 130 463 463 129 129 464 464 130 130 465 465 131 131 466 466 129 129 467 467 131 131 468 468 132 132 469 469 129 129 470 470 132 132 471 471 133 133 472 472 129 129 473 473 129 129 474 474 133 133 475 475 127 127 476 476 133 133 477 477 134 134 478 478 127 127 479 479 127 127 480 480 134 134 481 481 125 125 482 482 134 134 483 483 135 135 484 484 125 125 485 485 125 125 486 486 135 135 487 487 124 124 488 488 135 135 489 489 136 136 490 490 124 124 491 491 124 124 492 492 136 136 493 493 123 123 494 494 136 136 495 495 137 137 496 496 123 123 497 497 123 123 498 498 137 137 499 499 122 122 500 500 137 137 501 501 138 138 502 502 122 122 503 503 122 122 504 504 138 138 505 505 121 121 506 506 138 138 507 507 139 139 508 508 121 121 509 509 121 121 510 510 139 139 511 511 120 120 512 512 139 139 513 513 140 140 514 514 120 120 515 515 120 120 516 516 140 140 517 517 119 119 518 518 140 140 519 519 141 141 520 520 119 119 521 521 142 142 522 522 143 143 523 523 144 144 524 524 143 143 525 525 145 145 526 526 144 144 527 527 144 144 528 528 145 145 529 529 146 146 530 530 145 145 531 531 147 147 532 532 146 146 533 533 146 146 534 534 147 147 535 535 148 148 536 536 148 148 537 537 147 147 538 538 149 149 539 539 149 149 540 540 147 147 541 541 132 132 542 542 132 132 543 543 147 147 544 544 133 133 545 545 147 147 546 546 145 145 547 547 133 133 548 548 133 133 549 549 145 145 550 550 134 134 551 551 145 145 552 552 143 143 553 553 134 134 554 554 134 134 555 555 143 143 556 556 135 135 557 557 143 143 558 558 150 150 559 559 135 135 560 560 135 135 561 561 150 150 562 562 136 136 563 563 150 150 564 564 151 151 565 565 136 136 566 566 136 136 567 567 151 151 568 568 137 137 569 569 151 151 570 570 152 152 571 571 137 137 572 572 137 137 573 573 152 152 574 574 138 138 575 575 152 152 576 576 153 153 577 577 138 138 578 578 138 138 579 579 153 153 580 580 139 139 581 581 153 153 582 582 154 154 583 583 139 139 584 584 139 139 585 585 154 154 586 586 140 140 587 587 154 154 588 588 155 155 589 589 140 140 590 590 140 140 591 591 155 155 592 592 141 141 593 593 143 143 594 594 142 142 595 595 150 150 596 596 142 142 597 597 156 156 598 598 150 150 599 599 150 150 600 600 156 156 601 601 151 151 602 602 156 156 603 603 157 157 604 604 151 151 605 605 151 151 606 606 157 157 607 607 152 152 608 608 157 157 609 609 158 158 610 610 152 152 611 611 152 152 612 612 158 158 613 613 153 153 614 614 158 158 615 615 159 159 616 616 153 153 617 617 153 153 618 618 159 159 619 619 154 154 620 620 159 159 621 621 160 160 622 622 154 154 623 623 154 154 624 624 160 160 625 625 155 155 626 626 160 160 627 627 161 161 628 628 155 155 629 629 155 155 630 630 161 161 631 631 162 162 632 632 161 161 633 633 163 163 634 634 162 162 635 635 162 162 636 636 163 163 637 637 164 164 638 638 163 163 639 639 165 165 640 640 164 164 641 641 164 164 642 642 165 165 643 643 166 166 644 644 165 165 645 645 167 167 646 646 166 166 647 647 166 166 648 648 167 167 649 649 168 168 650 650 167 167 651 651 169 169 652 652 168 168 653 653 168 168 654 654 169 169 655 655 170 170 656 656 169 169 657 657 171 171 658 658 170 170 659 659 170 170 660 660 171 171 661 661 172 172 662 662 171 171 663 663 173 173 664 664 172 172 665 665 155 155 666 666 162 162 667 667 141 141 668 668 141 141 669 669 162 162 670 670 174 174 671 671 162 162 672 672 164 164 673 673 174 174 674 674 174 174 675 675 164 164 676 676 175 175 677 677 164 164 678 678 166 166 679 679 175 175 680 680 175 175 681 681 166 166 682 682 176 176 683 683 166 166 684 684 168 168 685 685 176 176 686 686 176 176 687 687 168 168 688 688 177 177 689 689 168 168 690 690 170 170 691 691 177 177 692 692 177 177 693 693 170 170 694 694 178 178 695 695 170 170 696 696 172 172 697 697 178 178 698 698 172 172 699 699 179 179 700 700 178 178 701 701 179 179 702 702 113 113 703 703 178 178 704 704 113 113 705 705 114 114 706 706 178 178 707 707 178 178 708 708 114 114 709 709 177 177 710 710 114 114 711 711 115 115 712 712 177 177 713 713 177 177 714 714 115 115 715 715 176 176 716 716 115 115 717 717 116 116 718 718 176 176 719 719 176 176 720 720 116 116 721 721 175 175 722 722 116 116 723 723 117 117 724 724 175 175 725 725 175 175 726 726 117 117 727 727 174 174 728 728 117 117 729 729 118 118 730 730 174 174 731 731 174 174 732 732 118 118 733 733 141 141 734 734 118 118 735 735 119 119 736 736 141 141 737 737 180 180 738 738 181 180 739 739 182 180 740 740 181 180 741 741 183 180 742 742 182 180 743 743 183 180 744 744 184 180 745 745 182 180 746 746 184 181 747 747 185 181 748 748 182 181 749 749 185 182 750 750 186 182 751 751 182 182 752 752 186 183 753 753 187 183 754 754 182 183 755 755 187 184 756 756 188 184 757 757 182 184 758 758 188 185 759 759 189 185 760 760 182 185 761 761 189 186 762 762 190 186 763 763 182 186 764 764 190 180 765 765 191 180 766 766 182 180 767 767 191 180 768 768 192 180 769 769 182 180 770 770 192 180 771 771 193 180 772 772 182 180 773 773 193 187 774 774 194 187 775 775 182 187 776 776 194 180 777 777 195 180 778 778 182 180 779 779 182 188 780 780 195 188 781 781 180 188 782 782 111 111 783 783 112 112 784 784 126 126 785 785 112 112 786 786 196 189 787 787 126 126 788 788 126 126 789 789 196 189 790 790 128 128 791 791 196 189 792 792 197 190 793 793 128 128 794 794 128 128 795 795 197 190 796 796 130 130 797 797 130 130 798 798 197 190 799 799 198 191 800 800 198 191 801 801 197 190 802 802 199 192 803 803 199 192 804 804 197 190 805 805 200 193 806 806 197 190 807 807 196 189 808 808 200 193 809 809 200 193 810 810 196 189 811 811 201 194 812 812 196 189 813 813 112 112 814 814 201 194 815 815 201 194 816 816 112 112 817 817 202 195 818 818 112 112 819 819 110 110 820 820 202 195 821 821 202 195 822 822 110 110 823 823 203 196 824 824 110 110 825 825 108 108 826 826 203 196 827 827 203 196 828 828 108 108 829 829 204 197 830 830 108 108 831 831 106 106 832 832 204 197 833 833 204 197 834 834 106 106 835 835 205 198 836 836 106 106 837 837 104 104 838 838 205 198 839 839 205 198 840 840 104 104 841 841 206 199 842 842 104 104 843 843 102 102 844 844 206 199 845 845 206 199 846 846 102 102 847 847 207 200 848 848 102 102 849 849 80 80 850 850 207 200 851 851 207 200 852 852 80 80 853 853 82 82 854 854</p>
        </triangles>
      </mesh>
    </geometry>
  </library_geometries>
  <library_visual_scenes>
    <visual_scene id="Scene" name="Scene">
      <node id="Mesh_0_037" name="Mesh_0.037" type="NODE">
        <matrix sid="transform">0.01211501 0 0 0 0 -1.62776e-9 0.01211501 0 0 -0.01211501 -1.62776e-9 0 0 0 0 1</matrix>
        <instance_geometry url="#Mesh_0_037-mesh" name="Mesh_0.037">
          <bind_material>
            <technique_common>
              <instance_material symbol="plant_pot_001-material" target="#plant_pot_001-material"/>
            </technique_common>
          </bind_material>
        </instance_geometry>
      </node>
    </visual_scene>
  </library_visual_scenes>
  <scene>
    <instance_visual_scene url="#Scene"/>
  </scene>
</COLLADA>