# Blender v2.77 (sub 0) OBJ File: ''
# www.blender.org
mtllib Milk Churn.mtl
o Mesh_0000
v -0.357220 0.483630 0.357220
v 0.000000 0.450950 0.425370
v 0.000000 0.450950 0.498180
v 0.357220 0.418270 0.357220
v -0.296640 0.478090 0.296640
v -0.505180 0.497160 0.000000
v -0.418960 0.489280 0.000000
v -0.296640 0.478090 -0.296640
v -0.357220 0.483630 -0.357220
v 0.000000 0.450950 -0.420860
v 0.000000 0.450950 -0.505180
v 0.298540 0.423640 -0.298540
v 0.357220 0.418270 -0.357220
v 0.422770 0.412270 0.000000
v 0.505180 0.404730 0.000000
v 0.298540 0.423640 0.298540
v 0.505180 0.222900 0.000000
v 0.440490 0.000000 0.000000
v 0.357220 0.222900 -0.357220
v 0.311470 0.000000 -0.311470
v 0.000000 0.222900 -0.505180
v 0.000000 0.000000 -0.440490
v 0.357220 0.222900 0.357220
v 0.000000 0.222900 0.505180
v -0.357220 0.222900 0.357220
v -0.505180 0.222900 0.000000
v -0.357220 0.222900 -0.357220
v 0.311470 -0.000000 0.311470
v 0.000000 -0.000000 0.440490
v -0.311470 -0.000000 0.311470
v -0.440490 0.000000 0.000000
v -0.311470 0.000000 -0.311470
v -0.267400 0.066050 -0.267400
v -0.378160 0.066050 0.000000
v 0.000000 0.066050 0.000000
v -0.267400 0.066050 0.267400
v 0.000000 0.066050 0.378160
v 0.267400 0.066050 0.267400
v 0.378160 0.066050 0.000000
v 0.267400 0.066050 -0.267400
v 0.000000 0.066050 -0.378160
v 0.000000 0.222900 -0.432120
v 0.305560 0.222900 -0.305560
v 0.432120 0.222900 0.000000
v 0.305560 0.222900 0.305560
v 0.000000 0.222900 0.432120
v -0.305560 0.222900 0.305560
v -0.432120 0.222900 0.000000
v -0.305560 0.222900 -0.305560
v 0.000000 0.999730 -0.393740
v -0.286110 0.779580 -0.286110
v 0.000000 0.828140 -0.402210
v 0.000000 1.173530 -0.314720
v -0.209310 1.214690 -0.209310
v -0.278410 0.999730 -0.278410
v -0.405620 0.759290 0.000000
v -0.288890 1.230340 0.000000
v -0.393730 0.999730 0.000000
v -0.286110 0.779580 0.286110
v -0.209310 1.214690 0.209310
v -0.278410 0.999730 0.278410
v 0.000000 0.828140 0.406460
v 0.000000 1.173530 0.314720
v 0.000000 0.999730 0.393740
v 0.237560 1.126810 0.237560
v 0.278410 0.999730 0.278410
v 0.282730 0.876140 0.282730
v 0.398870 0.895850 0.000000
v 0.345620 1.105560 0.000000
v 0.393740 0.999730 0.000000
v 0.282730 0.876140 -0.282730
v 0.237560 1.126810 -0.237560
v 0.278410 0.999730 -0.278410
v 0.000000 1.308430 -0.253390
v 0.000000 1.642141 -0.386720
v -0.273450 1.642140 -0.273450
v 0.000000 1.585991 -0.386970
v -0.273630 1.585990 -0.273630
v -0.179170 1.308430 -0.179180
v -0.386720 1.642140 0.000000
v -0.386970 1.585990 0.000000
v -0.253390 1.308430 0.000000
v -0.273450 1.642140 0.273450
v -0.273630 1.585990 0.273630
v -0.179180 1.308430 0.179180
v 0.000000 1.642140 0.386720
v 0.000000 1.585990 0.386970
v 0.000000 1.308430 0.253390
v 0.273450 1.642140 0.273450
v 0.273630 1.585990 0.273630
v 0.179180 1.308430 0.179180
v 0.386720 1.642140 0.000000
v 0.386970 1.585990 0.000000
v 0.253390 1.308430 0.000000
v 0.273450 1.642140 -0.273450
v 0.273630 1.585990 -0.273630
v 0.179180 1.308430 -0.179180
v 0.000000 0.828140 0.477790
v -0.347390 0.769180 0.347390
v 0.337520 0.885430 0.337520
v -0.494270 0.744250 0.000000
v 0.474530 0.908690 0.000000
v 0.337520 0.885430 -0.337520
v 0.000000 0.828140 -0.484200
v -0.347390 0.769180 -0.347390
v 0.000000 1.173530 0.379510
v -0.251440 1.222970 0.251440
v 0.287710 1.116950 0.287710
v -0.346540 1.241680 0.000000
v 0.419410 1.091050 0.000000
v 0.287710 1.116950 -0.287710
v 0.000000 1.173530 -0.379510
v -0.251440 1.222970 -0.251440
v 0.273450 1.678050 -0.273450
v 0.327810 1.678050 -0.327810
v 0.000000 1.678051 -0.386720
v 0.000000 1.678051 -0.463600
v 0.463600 1.678050 0.000000
v 0.386720 1.678050 0.000000
v 0.327810 1.678050 0.327810
v 0.273450 1.678050 0.273450
v 0.000000 1.678050 0.463600
v 0.000000 1.678050 0.386720
v -0.327810 1.678050 0.327810
v -0.273450 1.678050 0.273450
v -0.463590 1.678050 0.000000
v -0.386720 1.678050 0.000000
v -0.327810 1.678050 -0.327810
v -0.273450 1.678050 -0.273450
v 0.327810 0.999730 -0.327810
v 0.000000 0.999730 -0.463600
v 0.463600 0.999730 0.000000
v 0.327810 0.999730 0.327810
v 0.000000 0.999730 0.463600
v -0.327810 0.999730 0.327810
v -0.463590 0.999730 0.000000
v -0.327810 0.999730 -0.327810
v -0.222200 1.308430 -0.222200
v 0.000000 1.308430 -0.314240
v -0.314240 1.308430 0.000000
v -0.222200 1.308430 0.222200
v 0.000000 1.308430 0.314240
v 0.222200 1.308430 0.222200
v 0.314240 1.308430 0.000000
v 0.222200 1.308430 -0.222200
v 0.327810 1.586540 -0.327810
v 0.463600 1.586540 0.000000
v 0.327810 1.586540 0.327810
v 0.000000 1.586540 0.463600
v -0.327810 1.586540 0.327810
v -0.463590 1.586540 0.000000
v -0.327810 1.586540 -0.327810
v 0.000000 1.586541 -0.463600
v 0.422770 0.412270 0.000000
v 0.298540 0.423640 -0.298540
v 0.357220 0.418270 -0.357220
v 0.000000 0.450950 -0.505180
v 0.000000 0.450950 -0.420860
v -0.357220 0.483630 -0.357220
v -0.296640 0.478090 -0.296640
v -0.505180 0.497160 0.000000
v 0.000000 0.450950 0.425370
v 0.298540 0.423640 0.298540
v 0.357220 0.418270 0.357220
v 0.505180 0.404730 0.000000
v 0.000000 0.450950 0.498180
v -0.357220 0.483630 0.357220
v -0.296640 0.478090 0.296640
v -0.418960 0.489280 0.000000
v 0.000000 1.642140 0.000000
v 0.357220 0.653400 -0.357220
v 0.000000 0.653400 -0.505180
v 0.505180 0.653400 0.000000
v 0.357220 0.653400 0.357220
v 0.000000 0.659050 0.491780
v -0.357220 0.653400 0.357220
v -0.505180 0.653400 0.000000
v -0.357220 0.653400 -0.357220
v 0.000000 0.654220 0.419350
vt 0.4289 -0.6118
vt 0.4845 -0.5930
vt 0.4830 -0.5778
vt 0.5503 -0.5950
vt 0.4395 -0.6211
vt 0.4132 -0.6724
vt 0.4262 -0.6716
vt 0.4491 -0.7196
vt 0.4405 -0.7302
vt 0.4990 -0.7413
vt 0.5005 -0.7565
vt 0.5511 -0.7195
vt 0.5636 -0.7305
vt 0.5701 -0.6619
vt 0.5868 -0.6608
vt 0.5401 -0.6076
vt 0.7500 -0.8852
vt 0.7500 -1.0000
vt 0.8750 -0.8852
vt 0.8750 -1.0000
vt 1.0000 -0.8852
vt 1.0000 -1.0000
vt 1.0000 -0.7707
vt 0.8750 -0.7871
vt 0.7500 -0.7939
vt 0.6223 -0.8851
vt 0.6223 -0.7870
vt 0.5000 -0.8851
vt 0.5000 -0.7706
vt 0.3777 -0.8851
vt 0.3777 -0.7542
vt 0.2500 -0.8852
vt 0.2500 -0.7475
vt 0.1250 -0.8852
vt 0.1250 -0.7543
vt 0.6250 -1.0000
vt 0.5000 -1.0000
vt 0.3750 -1.0000
vt 0.2500 -1.0000
vt 0.1250 -1.0000
vt -0.0000 -1.0000
vt -0.0000 -0.8852
vt -0.0000 -0.7707
vt 0.4468 -0.5984
vt 0.4248 -0.6516
vt 0.5000 -0.6516
vt 0.4468 -0.7048
vt 0.5000 -0.7268
vt 0.5532 -0.7048
vt 0.5752 -0.6516
vt 0.5532 -0.5984
vt 0.5000 -0.5763
vt 1.0000 -0.7707
vt 1.0000 -0.8852
vt 0.8750 -0.7844
vt 0.8750 -0.8852
vt 0.7500 -0.7901
vt 0.7500 -0.8852
vt 0.6211 -0.7843
vt 0.6223 -0.8851
vt 0.5000 -0.7708
vt 0.5000 -0.8851
vt 1.0000 -1.0000
vt 0.8750 -1.0000
vt 0.7500 -1.0000
vt 0.6250 -1.0000
vt 0.5000 -1.0000
vt 0.3750 -1.0000
vt 0.3777 -0.8851
vt 0.2500 -1.0000
vt 0.2500 -0.8852
vt 0.1250 -1.0000
vt 0.1250 -0.8852
vt 0.3793 -0.7570
vt 0.2500 -0.7514
vt 0.1250 -0.7570
vt -0.0000 -0.7707
vt -0.0000 -0.8852
vt -0.0000 -1.0000
vt -0.0000 -0.4951
vt 0.1250 -0.6057
vt -0.0000 -0.5813
vt -0.0000 -0.4079
vt 0.1250 -0.3872
vt 0.1250 -0.4951
vt 0.2500 -0.6159
vt 0.2500 -0.3793
vt 0.2500 -0.4951
vt 0.3812 -0.6057
vt 0.3773 -0.3872
vt 0.3826 -0.4952
vt 0.5000 -0.5815
vt 0.5000 -0.4079
vt 0.5000 -0.4952
vt 0.6205 -0.4314
vt 0.6174 -0.4952
vt 0.6182 -0.5572
vt 0.7500 -0.5473
vt 0.7500 -0.4420
vt 0.7500 -0.4951
vt 0.8750 -0.5572
vt 0.8750 -0.4313
vt 0.8750 -0.4951
vt 1.0000 -0.5813
vt 1.0000 -0.4951
vt 1.0000 -0.4079
vt -0.0000 -0.3401
vt -0.0000 -0.1546
vt 0.1250 -0.1546
vt -0.0000 -0.2005
vt 0.1250 -0.2005
vt 0.1250 -0.3401
vt 0.2500 -0.1546
vt 0.2500 -0.2005
vt 0.2500 -0.3401
vt 0.3750 -0.1546
vt 0.3750 -0.2005
vt 0.3750 -0.3401
vt 0.5000 -0.1546
vt 0.5000 -0.2005
vt 0.5000 -0.3401
vt 0.6250 -0.1546
vt 0.6250 -0.2005
vt 0.6250 -0.3401
vt 0.7500 -0.1546
vt 0.7500 -0.2005
vt 0.7500 -0.3401
vt 0.8750 -0.1546
vt 0.8750 -0.2005
vt 0.8750 -0.3401
vt 1.0000 -0.1546
vt 1.0000 -0.2005
vt 1.0000 -0.3401
vt 0.4830 -0.5778
vt 0.4845 -0.5930
vt 0.4289 -0.6118
vt 0.5503 -0.5950
vt 0.5401 -0.6076
vt 0.4395 -0.6211
vt 0.5701 -0.6619
vt 0.5868 -0.6608
vt 0.5636 -0.7305
vt 0.5511 -0.7195
vt 0.4990 -0.7413
vt 0.5005 -0.7565
vt 0.4405 -0.7302
vt 0.4491 -0.7196
vt 0.4132 -0.6724
vt 0.4262 -0.6716
vt 0.4830 -0.5778
vt 0.4845 -0.5930
vt 0.4289 -0.6118
vt 0.5503 -0.5950
vt 0.5401 -0.6076
vt 0.4132 -0.6724
vt 0.4395 -0.6211
vt 0.5701 -0.6619
vt 0.5868 -0.6608
vt 0.5636 -0.7305
vt 0.5511 -0.7195
vt 0.4990 -0.7413
vt 0.5005 -0.7565
vt 0.4405 -0.7302
vt 0.4491 -0.7196
vt 0.4262 -0.6716
vt 0.8750 -0.1000
vt 0.8750 -0.1546
vt 1.0000 -0.1000
vt 1.0000 -0.1546
vt 0.7500 -0.1546
vt 0.7500 -0.1000
vt 0.6250 -0.1546
vt 0.6250 -0.1000
vt 0.5000 -0.1546
vt 0.5000 -0.1000
vt 0.3750 -0.1546
vt 0.3750 -0.1000
vt 0.2500 -0.1546
vt 0.2500 -0.1000
vt 0.1250 -0.1546
vt 0.1250 -0.1000
vt -0.0000 -0.1546
vt -0.0000 -0.1000
vt 0.8750 -0.0500
vt 1.0000 -0.0500
vt 0.7500 -0.0500
vt 0.6250 -0.0500
vt 0.5000 -0.0500
vt 0.3750 -0.0500
vt 0.2500 -0.0500
vt 0.1250 -0.0500
vt -0.0000 -0.0500
vt 0.8750 -0.4363
vt 0.8750 -0.4951
vt 1.0000 -0.4079
vt 1.0000 -0.4951
vt 1.0000 -0.5813
vt 0.8750 -0.5525
vt 0.7500 -0.5408
vt 0.6190 -0.5525
vt 0.7500 -0.4951
vt 0.7500 -0.4493
vt 0.6174 -0.4952
vt 0.6203 -0.4363
vt 0.5000 -0.4952
vt 0.5000 -0.4079
vt 0.3826 -0.4952
vt 0.3771 -0.3831
vt 0.2500 -0.4951
vt 0.2500 -0.3737
vt 0.1250 -0.4951
vt 0.1250 -0.3830
vt -0.0000 -0.4951
vt -0.0000 -0.4079
vt -0.0000 -0.5813
vt 0.1250 -0.6109
vt 0.2500 -0.6234
vt 0.3793 -0.6109
vt 0.5000 -0.5813
vt 0.1250 -0.3401
vt -0.0000 -0.3401
vt 0.2500 -0.3401
vt 0.3750 -0.3401
vt 0.5000 -0.3401
vt 0.6250 -0.3401
vt 0.7500 -0.3401
vt 0.8750 -0.3401
vt 1.0000 -0.3401
vt 0.8750 -0.2005
vt 0.7500 -0.2005
vt 0.6250 -0.2005
vt 0.5000 -0.2005
vt 0.3750 -0.2005
vt 0.2500 -0.2005
vt 0.1250 -0.2005
vt -0.0000 -0.2005
vt 1.0000 -0.2005
vt 0.5701 -0.6619
vt 0.5511 -0.7195
vt 0.5636 -0.7305
vt 0.5005 -0.7565
vt 0.4990 -0.7413
vt 0.4405 -0.7302
vt 0.4491 -0.7196
vt 0.4132 -0.6724
vt 0.4845 -0.5930
vt 0.5401 -0.6076
vt 0.5503 -0.5950
vt 0.5868 -0.6608
vt 0.4830 -0.5778
vt 0.4289 -0.6118
vt 0.4395 -0.6211
vt 0.4262 -0.6716
vt 0.5624 -1.6886
vt 0.5878 -1.6294
vt 0.5010 -1.6294
vt 0.5624 -1.5701
vt 0.5010 -1.5456
vt 0.4397 -1.5701
vt 0.4142 -1.6294
vt 0.4397 -1.6886
vt 0.5010 -1.7132
vt 0.8750 -0.6690
vt 1.0000 -0.6690
vt 1.0000 -0.7707
vt 0.8750 -0.7871
vt 0.7500 -0.7939
vt 0.7500 -0.6690
vt 0.6223 -0.7870
vt 0.6223 -0.6690
vt 0.5000 -0.6661
vt 0.3777 -0.6690
vt 0.2500 -0.6690
vt 0.1250 -0.6690
vt -0.0000 -0.6690
vt -0.0000 -0.7707
vt 0.1250 -0.7543
vt 0.2500 -0.7475
vt 0.3777 -0.7542
vt 0.5000 -0.7706
vt 0.5000 -0.7708
vt 0.3793 -0.7570
vt 0.5000 -0.6690
vt -0.0000 -0.7707
vt 0.1250 -0.7570
vt 0.2500 -0.7514
vt 1.0000 -0.7707
vt 0.8750 -0.7844
vt 0.7500 -0.7901
vt 0.6211 -0.7843
vn -0.0911 -0.9958 0.0000
vn -0.0910 -0.9958 -0.0000
vn 0.9907 -0.1362 0.0000
vn 0.9604 -0.2787 0.0000
vn 0.7005 -0.1362 -0.7005
vn 0.6791 -0.2787 -0.6791
vn 0.3796 -0.1260 -0.9165
vn 0.3696 -0.2590 -0.8924
vn 0.3827 0.0000 -0.9239
vn 0.6961 -0.0000 -0.7180
vn 1.0000 -0.0000 -0.0000
vn 0.7005 -0.1362 0.7005
vn 0.6942 0.0054 0.7198
vn -0.0026 -0.1232 0.9924
vn -0.0257 0.0247 0.9994
vn -0.6987 -0.1337 0.7028
vn -0.6363 -0.0000 0.7715
vn -0.9907 -0.1362 -0.0000
vn -0.9239 0.0000 0.3827
vn -1.0000 0.0000 0.0000
vn -0.7005 -0.1362 -0.7005
vn -0.7183 -0.0000 -0.6957
vn 0.6791 -0.2787 0.6791
vn -0.0000 -0.2787 0.9604
vn -0.6791 -0.2787 0.6791
vn -0.9604 -0.2787 -0.0000
vn -0.6791 -0.2787 -0.6791
vn -0.3696 -0.2590 -0.8923
vn -0.3696 -0.2590 -0.8924
vn -0.3796 -0.1260 -0.9165
vn -0.3827 0.0000 -0.9239
vn 0.0000 1.0000 0.0000
vn -0.3823 -0.0456 0.9229
vn -0.3797 0.1244 0.9167
vn -0.6953 -0.0494 0.7170
vn -0.7007 0.1345 0.7007
vn -0.9988 -0.0494 0.0000
vn -0.9909 0.1345 -0.0000
vn -0.7002 -0.0494 -0.7122
vn -0.7019 0.1363 -0.6991
vn -0.3942 -0.0459 -0.9179
vn -0.3825 -0.0273 -0.9235
vn 0.0022 0.1422 -0.9898
vn -0.3647 0.3029 0.8805
vn -0.6686 0.3254 0.6686
vn -0.9456 0.3254 0.0000
vn -0.6686 0.3254 -0.6686
vn -0.0000 0.3254 -0.9456
vn 0.6686 0.3254 -0.6686
vn 0.7007 0.1345 -0.7007
vn 0.9456 0.3254 -0.0000
vn 0.9909 0.1345 -0.0000
vn 0.6686 0.3254 0.6686
vn 0.7007 0.1345 0.7007
vn 0.3959 -0.0272 -0.9179
vn 0.7192 -0.0456 -0.6933
vn 0.9988 -0.0494 0.0000
vn 0.7173 -0.0494 0.6950
vn 0.3823 -0.0456 0.9229
vn 0.3797 0.1244 0.9167
vn 0.3647 0.3029 0.8805
vn 0.3703 -0.2523 0.8940
vn 0.7274 -0.0493 0.6844
vn 0.3822 -0.0456 0.9229
vn 0.3528 -0.3873 0.8518
vn 0.6645 -0.4137 0.6224
vn 0.6472 -0.2474 0.7210
vn 0.3823 -0.0457 0.9229
vn 0.9103 -0.4139 -0.0000
vn 0.9741 -0.2259 0.0000
vn 0.9229 -0.0456 0.3823
vn 0.7312 -0.0493 -0.6803
vn 0.6645 -0.4137 -0.6224
vn 0.7148 -0.2418 -0.6562
vn 0.3939 -0.0459 -0.9180
vn 0.0426 -0.4135 -0.9095
vn -0.0000 -0.2380 -0.9713
vn 0.3818 -0.0683 -0.9217
vn -0.6219 -0.4137 -0.6650
vn -0.6219 -0.4136 -0.6650
vn -0.6902 -0.2278 -0.6869
vn -0.3849 -0.0626 -0.9208
vn -0.6908 -0.0493 -0.7213
vn -0.9103 -0.4139 0.0000
vn -0.6901 -0.2278 -0.6869
vn -0.9741 -0.2259 -0.0000
vn -0.6858 -0.0493 0.7261
vn -0.8518 -0.3873 0.3528
vn -0.9742 -0.2259 -0.0000
vn -0.8518 -0.3872 0.3529
vn -0.7345 -0.1950 0.6500
vn -0.3742 -0.2095 0.9034
vn -0.3528 -0.3873 0.8518
vn -0.3528 -0.3872 0.8518
vn 0.3827 0.0113 0.9238
vn 0.6193 -0.4136 0.6673
vn 0.3827 -0.0041 0.9239
vn 0.7071 -0.0044 0.7071
vn 0.3754 0.1940 0.9063
vn 0.6915 0.2093 0.6914
vn 0.6914 0.2093 0.6914
vn 0.6914 0.2093 0.6915
vn 0.7071 0.0122 0.7071
vn 0.7070 0.0122 0.7071
vn 0.6194 -0.4136 0.6673
vn 0.7071 -0.0039 0.7071
vn 1.0000 -0.0044 -0.0000
vn 0.9779 0.2093 -0.0000
vn 0.7071 0.0122 0.7070
vn 0.9778 0.2093 0.0000
vn 0.9999 0.0122 -0.0000
vn 0.6193 -0.4136 -0.6674
vn 0.7071 -0.0044 -0.7071
vn 0.6914 0.2093 -0.6915
vn 0.6914 0.2093 -0.6914
vn 0.6915 0.2093 -0.6914
vn 0.7071 0.0122 -0.7070
vn 0.7070 0.0122 -0.7071
vn 0.6193 -0.4136 -0.6673
vn -0.0517 -0.4133 -0.9091
vn 0.7071 -0.0039 -0.7071
vn -0.0000 -0.0044 -1.0000
vn -0.0000 0.2093 -0.9779
vn 0.0000 0.0122 -0.9999
vn -0.6716 -0.4135 -0.6148
vn -0.3827 -0.0041 -0.9239
vn -0.3827 -0.0042 -0.9239
vn -0.6915 0.2093 -0.6914
vn -0.6914 0.2093 -0.6914
vn -0.6914 0.2093 -0.6915
vn -0.7070 0.0122 -0.7071
vn -0.7071 0.0122 -0.7070
vn -0.9239 -0.0042 -0.3827
vn -1.0000 -0.0044 0.0000
vn -0.9779 0.2093 0.0000
vn -0.9999 0.0122 -0.0000
vn -0.6716 -0.4135 0.6148
vn -0.7071 -0.0044 0.7071
vn -0.6914 0.2093 0.6915
vn -0.6914 0.2093 0.6914
vn -0.6915 0.2093 0.6914
vn -0.7071 0.0122 0.7070
vn -0.7070 0.0122 0.7071
vn -0.7071 -0.0039 0.7071
vn -0.3827 -0.0042 0.9239
vn -0.3827 -0.0041 0.9239
vn -0.3754 0.1940 0.9063
vn -0.3827 0.0113 0.9238
vn -0.1673 0.9859 0.0000
vn -0.1673 0.9859 0.0002
vn -0.1672 0.9859 0.0000
vn 0.1929 0.9812 0.0000
vn 0.1930 0.9812 -0.0000
vn 0.1933 0.9811 -0.0002
vn 0.1929 0.9812 0.0001
vn 0.1929 0.9812 -0.0001
vn 0.1933 0.9811 0.0002
vn -0.7071 0.0000 0.7071
vn -0.3827 0.0000 0.9239
vn -0.7071 0.0000 -0.7071
vn 0.0000 0.0000 -1.0000
vn 0.7071 -0.0000 -0.7071
vn 0.7071 0.0000 0.7071
vn 0.3827 0.0000 0.9239
vn 0.6147 0.4353 -0.6577
vn 0.6807 0.2709 -0.6807
vn 0.3494 0.4081 -0.8435
vn 0.3494 0.4081 -0.8434
vn 0.3704 0.2517 -0.8941
vn 0.3803 0.1102 -0.9183
vn 0.6815 0.1192 -0.7221
vn 0.9929 0.1192 -0.0000
vn 0.6806 0.1139 0.7237
vn 0.9626 0.2709 -0.0000
vn 0.6148 0.4353 -0.6577
vn 0.9002 0.4355 -0.0000
vn 0.6807 0.2709 0.6807
vn 0.6147 0.4353 0.6578
vn 0.6147 0.4353 0.6577
vn 0.0014 0.2575 0.9663
vn -0.0423 0.4351 0.8994
vn -0.6807 0.2709 0.6807
vn -0.6571 0.4353 0.6154
vn -0.9626 0.2709 0.0000
vn -0.9002 0.4355 0.0000
vn -0.6807 0.2709 -0.6807
vn -0.6571 0.4353 -0.6154
vn -0.3704 0.2517 -0.8941
vn -0.3494 0.4081 -0.8434
vn -0.3804 0.1102 -0.9182
vn -0.3803 0.1103 -0.9182
vn -0.7237 0.1192 -0.6797
vn -0.9929 0.1192 0.0000
vn -0.7223 0.1144 0.6821
vn -0.0350 0.0824 0.9960
vn -0.6121 0.4353 -0.6602
vn -0.7069 -0.0239 -0.7069
vn -0.3826 -0.0221 -0.9237
vn -0.9997 -0.0239 0.0000
vn -0.7069 -0.0239 0.7069
vn -0.6121 0.4353 0.6602
vn 0.0000 -0.0239 0.9997
vn 0.0519 0.4349 0.8990
vn 0.7069 -0.0239 0.7069
vn 0.6646 0.4352 0.6074
vn 0.9997 -0.0239 -0.0000
vn 0.7069 -0.0239 -0.7069
vn 0.6646 0.4352 -0.6074
vn 0.3826 -0.0221 -0.9237
vn 0.6880 -0.2309 -0.6880
vn 0.9730 -0.2309 0.0000
vn 0.6880 -0.2309 0.6880
vn -0.0000 -0.2309 0.9730
vn -0.6880 -0.2309 0.6880
vn -0.9730 -0.2309 0.0000
vn -0.6880 -0.2309 -0.6880
vn -0.3826 -0.0221 -0.9236
vn -0.3738 -0.2142 -0.9024
vn 0.0000 -0.0000 1.0000
vn -1.0000 -0.0001 0.0000
vn 0.3738 -0.2142 -0.9024
vn 0.1673 -0.9859 0.0001
vn 0.1674 -0.9859 0.0000
vn 0.1673 -0.9859 -0.0000
vn -0.1929 -0.9812 -0.0000
vn -0.1930 -0.9812 0.0000
vn 0.7221 0.1192 -0.6815
vn 0.7059 0.0589 -0.7059
vn 0.3803 0.1103 -0.9183
vn 0.3821 0.0544 -0.9225
vn 0.7183 0.0000 -0.6957
vn 0.9983 0.0589 -0.0000
vn 0.7128 0.0000 0.7014
vn 0.6967 0.0610 0.7148
vn 0.7142 0.1147 0.6904
vn 0.7143 0.1147 0.6904
vn 0.0032 0.0596 0.9982
vn 0.0472 0.0854 0.9952
vn -0.6985 0.0587 0.7132
vn -0.6757 0.1191 0.7275
vn -0.9983 0.0589 0.0000
vn -0.7059 0.0589 -0.7059
vn -0.6822 0.1192 -0.7214
vn -0.3821 0.0544 -0.9225
vn -0.3803 0.1102 -0.9183
vn -0.6961 0.0000 -0.7180
vn -0.6897 -0.0000 0.7241
vn 0.0214 0.0212 0.9995
vn 0.7030 -0.0456 -0.7097
vn 0.3988 -0.0477 -0.9158
vn 0.6948 -0.0532 -0.7172
vn 0.3966 -0.0679 -0.9155
vn 0.6951 -0.0494 0.7172
vn 0.6862 -0.0493 0.7258
vn -0.7268 -0.0493 0.6851
vn -0.7267 -0.0493 0.6851
vn -0.7176 -0.0494 0.6947
vn -0.7307 -0.0493 -0.6809
vn -0.7217 -0.0494 -0.6904
vn -0.4055 -0.0457 -0.9130
vn -0.4046 -0.0458 -0.9133
vn -0.4055 -0.0458 -0.9130
vn -0.4046 -0.0459 -0.9133
usemtl Tex_0000_0_png
s 1
f 1/1/1 2/2/1 3/3/1
f 3/3/1 2/2/1 4/4/1
f 2/2/1 1/1/1 5/5/1
f 5/5/1 1/1/1 6/6/1
f 5/5/2 6/6/2 7/7/2
f 7/7/2 6/6/2 8/8/2
f 8/8/1 6/6/1 9/9/1
f 8/8/1 9/9/1 10/10/1
f 10/10/1 9/9/1 11/11/1
f 10/10/1 11/11/1 12/12/1
f 12/12/1 11/11/1 13/13/1
f 12/12/1 13/13/1 14/14/1
f 14/14/1 13/13/1 15/15/1
f 14/14/1 15/15/1 4/4/1
f 14/14/1 4/4/1 16/16/1
f 16/16/1 4/4/1 2/2/1
f 17/17/3 18/18/4 19/19/5
f 19/19/5 18/18/4 20/20/6
f 19/19/5 20/20/6 21/21/7
f 21/21/7 20/20/6 22/22/8
f 21/21/7 11/23/9 19/19/5
f 19/19/5 11/23/9 13/24/10
f 19/19/5 13/24/10 17/17/3
f 17/17/3 13/24/10 15/25/11
f 17/17/3 15/25/11 23/26/12
f 23/26/12 15/25/11 4/27/13
f 23/26/12 4/27/13 24/28/14
f 24/28/14 4/27/13 3/29/15
f 24/28/14 3/29/15 25/30/16
f 25/30/16 3/29/15 1/31/17
f 25/30/16 1/31/17 26/32/18
f 26/32/18 1/31/19 6/33/20
f 26/32/18 6/33/20 27/34/21
f 27/34/21 6/33/20 9/35/22
f 18/18/4 17/17/3 28/36/23
f 28/36/23 17/17/3 23/26/12
f 28/36/23 23/26/12 29/37/24
f 29/37/24 23/26/12 24/28/14
f 29/37/24 24/28/14 30/38/25
f 30/38/25 24/28/14 25/30/16
f 30/38/25 25/30/16 31/39/26
f 31/39/26 25/30/16 26/32/18
f 31/39/26 26/32/18 32/40/27
f 32/40/27 26/32/18 27/34/21
f 32/40/27 27/34/21 22/41/28
f 22/41/29 27/34/21 21/42/30
f 21/42/30 27/34/21 9/35/22
f 21/42/30 9/35/22 11/43/31
f 33/44/32 34/45/32 35/46/32
f 35/46/32 34/45/32 36/47/32
f 35/46/32 36/47/32 37/48/32
f 35/46/32 37/48/32 38/49/32
f 35/46/32 38/49/32 39/50/32
f 35/46/32 39/50/32 40/51/32
f 35/46/32 40/51/32 41/52/32
f 35/46/32 41/52/32 33/44/32
f 10/53/33 42/54/34 12/55/35
f 12/55/35 42/54/34 43/56/36
f 12/55/35 43/56/36 14/57/37
f 14/57/37 43/56/36 44/58/38
f 14/57/37 44/58/38 16/59/39
f 16/59/39 44/58/38 45/60/40
f 16/59/39 45/60/40 2/61/41
f 2/61/42 45/60/40 46/62/43
f 41/63/44 40/64/45 42/54/34
f 42/54/34 40/64/45 43/56/36
f 43/56/36 40/64/45 39/65/46
f 43/56/36 39/65/46 44/58/38
f 44/58/38 39/65/46 38/66/47
f 44/58/38 38/66/47 45/60/40
f 45/60/40 38/66/47 37/67/48
f 45/60/40 37/67/48 46/62/43
f 46/62/43 37/67/48 36/68/49
f 46/62/43 36/68/49 47/69/50
f 47/69/50 36/68/49 34/70/51
f 47/69/50 34/70/51 48/71/52
f 48/71/52 34/70/51 33/72/53
f 48/71/52 33/72/53 49/73/54
f 2/61/55 46/62/43 5/74/56
f 5/74/56 46/62/43 47/69/50
f 5/74/56 47/69/50 7/75/57
f 7/75/57 47/69/50 48/71/52
f 7/75/57 48/71/52 8/76/58
f 8/76/58 48/71/52 49/73/54
f 8/76/58 49/73/54 10/77/59
f 10/77/59 49/73/54 42/78/60
f 42/78/60 49/73/54 41/79/61
f 41/79/61 49/73/54 33/72/53
f 50/80/62 51/81/63 52/82/64
f 53/83/65 54/84/66 50/80/62
f 50/80/62 54/84/66 55/85/67
f 50/80/68 55/85/67 51/81/63
f 51/81/63 55/85/67 56/86/57
f 54/84/66 57/87/69 55/85/67
f 55/85/67 57/87/69 58/88/70
f 55/85/71 58/88/70 56/86/57
f 56/86/57 58/88/70 59/89/72
f 57/87/69 60/90/73 58/88/70
f 58/88/70 60/90/73 61/91/74
f 58/88/70 61/91/74 59/89/72
f 59/89/72 61/91/74 62/92/75
f 60/90/73 63/93/76 61/91/74
f 61/91/74 63/93/76 64/94/77
f 61/91/78 64/94/77 62/92/78
f 63/93/76 65/95/79 64/94/77
f 64/94/77 65/95/80 66/96/81
f 64/94/77 66/96/81 62/92/82
f 62/92/82 66/96/81 67/97/83
f 66/96/81 68/98/37 67/97/83
f 65/95/79 69/99/84 66/96/85
f 66/96/81 69/99/84 70/100/86
f 66/96/81 70/100/86 68/98/37
f 68/98/37 70/100/86 71/101/87
f 69/99/84 72/102/88 70/100/89
f 70/100/86 72/102/90 73/103/91
f 70/100/89 73/103/91 71/101/87
f 52/104/33 71/101/87 50/105/92
f 50/105/92 71/101/87 73/103/91
f 50/105/92 73/103/91 53/106/93
f 53/106/94 73/103/94 72/102/94
f 74/107/95 54/84/96 53/83/65
f 75/108/97 76/109/98 77/110/99
f 77/110/99 76/109/98 78/111/100
f 77/110/99 78/111/101 74/107/95
f 74/107/95 78/111/102 79/112/103
f 74/107/95 79/112/104 54/84/96
f 54/84/105 79/112/103 57/87/69
f 76/109/106 80/113/107 78/111/100
f 78/111/102 80/113/107 81/114/108
f 78/111/100 81/114/108 79/112/109
f 79/112/103 81/114/110 82/115/111
f 79/112/103 82/115/111 57/87/69
f 57/87/69 82/115/111 60/90/112
f 80/113/107 83/116/113 81/114/108
f 81/114/108 83/116/113 84/117/114
f 81/114/108 84/117/115 82/115/111
f 82/115/111 84/117/116 85/118/117
f 82/115/111 85/118/118 60/90/119
f 60/90/119 85/118/117 63/93/120
f 83/116/121 86/119/122 84/117/114
f 84/117/116 86/119/122 87/120/123
f 84/117/115 87/120/123 85/118/117
f 85/118/118 87/120/123 88/121/124
f 85/118/117 88/121/124 63/93/120
f 63/93/120 88/121/124 65/95/125
f 86/119/122 89/122/126 87/120/123
f 87/120/123 89/122/127 90/123/128
f 87/120/123 90/123/129 88/121/124
f 88/121/124 90/123/130 91/124/131
f 88/121/124 91/124/132 65/95/125
f 65/95/125 91/124/132 69/99/84
f 89/122/133 92/125/134 90/123/128
f 90/123/130 92/125/134 93/126/135
f 90/123/129 93/126/135 91/124/131
f 91/124/132 93/126/135 94/127/136
f 91/124/131 94/127/136 69/99/84
f 69/99/84 94/127/136 72/102/137
f 92/125/134 95/128/138 93/126/135
f 93/126/135 95/128/138 96/129/139
f 93/126/135 96/129/140 94/127/136
f 94/127/136 96/129/141 97/130/142
f 94/127/136 97/130/143 72/102/137
f 72/102/137 97/130/142 53/106/94
f 95/128/144 75/131/145 96/129/139
f 96/129/141 75/131/146 77/132/147
f 96/129/140 77/132/147 97/130/142
f 97/130/143 77/132/147 74/133/148
f 97/130/142 74/133/148 53/106/93
f 98/134/149 62/135/149 99/136/149
f 98/134/149 100/137/149 62/135/149
f 62/135/150 100/137/150 67/138/150
f 59/139/149 99/136/149 62/135/149
f 67/138/151 100/137/151 68/140/151
f 68/140/149 100/137/149 102/141/149
f 68/140/149 102/141/149 103/142/149
f 68/140/151 103/142/151 71/143/151
f 52/144/149 104/145/149 105/146/149
f 51/147/149 101/148/149 56/149/149
f 106/150/152 63/151/152 107/152/152
f 63/151/153 108/153/153 65/154/153
f 109/155/154 107/152/154 60/156/154
f 60/156/155 107/152/155 63/151/155
f 69/157/152 110/158/152 111/159/152
f 69/157/152 111/159/152 72/160/152
f 53/161/152 112/162/152 113/163/152
f 53/161/156 113/163/156 54/164/156
f 54/164/157 113/163/157 109/155/157
f 54/164/153 109/155/153 57/165/153
f 114/166/32 115/167/32 116/168/32
f 116/168/32 115/167/32 117/169/32
f 115/167/32 114/166/32 118/170/32
f 118/170/32 114/166/32 119/171/32
f 118/170/32 119/171/32 120/172/32
f 120/172/32 119/171/32 121/173/32
f 120/172/32 121/173/32 122/174/32
f 122/174/32 121/173/32 123/175/32
f 122/174/32 123/175/32 124/176/32
f 124/176/32 123/175/32 125/177/32
f 124/176/32 125/177/32 126/178/32
f 126/178/32 125/177/32 127/179/32
f 126/178/32 127/179/32 128/180/32
f 128/180/32 127/179/32 129/181/32
f 128/180/32 129/181/32 117/182/32
f 117/182/32 129/181/32 116/183/32
f 95/184/158 114/166/158 75/185/159
f 75/185/159 114/166/158 116/168/159
f 114/166/158 95/184/158 119/171/20
f 119/171/20 95/184/158 92/186/20
f 119/171/20 92/186/20 121/173/160
f 121/173/160 92/186/20 89/187/160
f 121/173/160 89/187/160 123/175/161
f 123/175/161 89/187/160 86/188/161
f 123/175/161 86/188/161 125/177/162
f 125/177/162 86/188/161 83/189/162
f 125/177/162 83/189/162 127/179/11
f 127/179/11 83/189/162 80/190/11
f 127/179/11 80/190/11 129/181/163
f 129/181/163 80/190/11 76/191/163
f 129/181/163 76/191/163 116/183/164
f 116/183/164 76/191/163 75/192/164
f 111/193/165 130/194/166 112/195/167
f 112/195/168 130/194/166 131/196/169
f 104/197/170 131/196/169 103/198/171
f 103/198/171 131/196/169 130/194/166
f 103/198/171 130/194/166 102/199/172
f 100/200/173 102/199/172 132/201/174
f 132/201/174 102/199/172 130/194/166
f 130/194/166 111/193/165 132/201/174
f 132/201/174 111/193/175 110/202/176
f 132/201/174 110/202/176 133/203/177
f 133/203/177 110/202/176 108/204/178
f 133/203/177 108/204/179 134/205/180
f 134/205/180 108/204/179 106/206/181
f 134/205/180 106/206/181 135/207/182
f 135/207/182 106/206/181 107/208/183
f 135/207/182 107/208/183 136/209/184
f 136/209/184 107/208/183 109/210/185
f 136/209/184 109/210/185 137/211/186
f 137/211/186 109/210/185 113/212/187
f 137/211/186 113/212/187 131/213/188
f 131/213/188 113/212/187 112/214/189
f 131/213/188 104/215/190 137/211/186
f 137/211/186 104/215/191 105/216/192
f 137/211/186 105/216/192 136/209/184
f 136/209/184 105/216/192 101/217/193
f 136/209/184 101/217/193 135/207/182
f 135/207/182 101/217/193 99/218/194
f 135/207/182 99/218/194 134/205/180
f 134/205/180 99/218/194 98/219/195
f 134/205/180 98/219/195 100/200/173
f 134/205/180 100/200/173 133/203/177
f 133/203/177 100/200/173 132/201/174
f 113/212/196 138/220/197 112/214/189
f 112/214/189 138/220/197 139/221/198
f 138/220/197 113/212/196 140/222/199
f 140/222/199 113/212/196 109/210/185
f 140/222/199 109/210/185 141/223/200
f 141/223/200 109/210/185 107/208/201
f 141/223/200 107/208/201 142/224/202
f 142/224/202 107/208/201 106/206/203
f 142/224/202 106/206/203 143/225/204
f 143/225/204 106/206/203 108/204/205
f 143/225/204 108/204/205 144/226/206
f 144/226/206 108/204/205 110/202/176
f 144/226/206 110/202/176 145/227/207
f 145/227/207 110/202/176 111/193/208
f 145/227/207 111/193/208 139/228/209
f 139/228/209 111/193/208 112/195/168
f 145/227/207 146/229/210 144/226/206
f 144/226/206 146/229/210 147/230/211
f 144/226/206 147/230/211 143/225/204
f 143/225/204 147/230/211 148/231/212
f 143/225/204 148/231/212 142/224/202
f 142/224/202 148/231/212 149/232/213
f 142/224/202 149/232/213 141/223/200
f 141/223/200 149/232/213 150/233/214
f 141/223/200 150/233/214 140/222/199
f 140/222/199 150/233/214 151/234/215
f 140/222/199 151/234/215 138/220/197
f 138/220/197 151/234/215 152/235/216
f 138/220/197 152/235/216 139/221/217
f 139/221/198 152/235/216 153/236/218
f 146/229/210 115/167/162 147/230/211
f 147/230/211 115/167/162 118/170/11
f 147/230/211 118/170/11 148/231/212
f 148/231/212 118/170/11 120/172/163
f 148/231/212 120/172/163 149/232/213
f 149/232/213 120/172/163 122/174/219
f 149/232/213 122/174/219 150/233/214
f 150/233/214 122/174/219 124/176/158
f 150/233/214 124/176/158 151/234/215
f 151/234/215 124/176/158 126/178/20
f 151/234/215 126/178/20 152/235/216
f 152/235/216 126/178/220 128/180/160
f 152/235/216 128/180/160 153/236/218
f 153/236/218 128/180/160 117/182/31
f 115/167/162 146/229/210 117/169/9
f 117/169/9 146/229/210 153/237/221
f 146/229/210 145/227/207 153/237/221
f 153/237/221 145/227/207 139/228/209
f 154/238/1 155/239/1 156/240/1
f 156/240/1 155/239/1 157/241/1
f 155/239/1 158/242/1 157/241/1
f 157/241/1 158/242/1 159/243/1
f 158/242/1 160/244/1 159/243/1
f 159/243/1 160/244/1 161/245/1
f 162/246/1 163/247/1 164/248/1
f 164/248/1 163/247/1 154/238/1
f 164/248/1 154/238/1 165/249/1
f 165/249/1 154/238/1 156/240/1
f 164/248/1 166/250/1 162/246/1
f 162/246/1 166/250/1 167/251/1
f 162/246/1 167/251/1 168/252/1
f 168/252/1 167/251/1 161/245/1
f 168/252/2 161/245/2 169/253/2
f 169/253/2 161/245/2 160/244/2
f 103/142/222 71/143/222 104/145/222
f 71/143/223 52/144/223 104/145/223
f 52/144/224 51/147/224 105/146/224
f 105/146/224 51/147/224 101/148/224
f 59/139/224 99/136/224 101/148/224
f 59/139/222 101/148/222 56/149/222
f 111/159/225 72/160/225 112/162/225
f 72/160/226 53/161/226 112/162/226
f 108/153/225 65/154/225 69/157/225
f 108/153/225 69/157/225 110/158/225
f 108/153/226 106/150/226 63/151/226
f 60/156/226 109/155/226 57/165/226
f 89/254/32 92/255/32 170/256/32
f 170/256/32 92/255/32 95/257/32
f 95/257/32 75/258/32 170/256/32
f 170/256/32 75/258/32 76/259/32
f 170/256/32 76/259/32 80/260/32
f 80/260/32 83/261/32 170/256/32
f 170/256/32 83/261/32 86/262/32
f 170/256/32 86/262/32 89/254/32
f 103/198/227 171/263/228 104/197/229
f 104/197/170 171/263/228 172/264/230
f 157/265/9 172/264/230 156/266/231
f 156/266/231 172/264/230 171/263/228
f 156/266/231 171/263/228 165/267/11
f 165/267/11 171/263/228 173/268/232
f 165/267/11 173/268/232 164/269/233
f 171/263/228 103/198/227 173/268/232
f 173/268/232 103/198/227 102/199/172
f 173/268/232 102/199/172 174/270/234
f 174/270/234 102/199/172 100/200/235
f 174/270/234 100/200/236 175/271/237
f 175/271/237 100/200/235 98/219/238
f 175/271/237 98/219/238 176/272/239
f 176/272/239 98/219/238 99/218/240
f 176/272/239 99/218/240 177/273/241
f 177/273/241 99/218/240 101/217/193
f 177/273/241 101/217/193 178/274/242
f 178/274/242 101/217/193 105/216/243
f 178/274/242 105/216/243 172/275/244
f 172/275/244 105/216/243 104/215/245
f 172/275/244 157/276/31 178/274/242
f 178/274/242 157/276/31 159/277/246
f 178/274/242 159/277/246 177/273/241
f 177/273/241 159/277/246 161/278/20
f 177/273/241 161/278/20 176/272/239
f 176/272/239 161/278/20 167/279/247
f 176/272/239 167/279/247 166/280/248
f 176/272/239 166/280/248 175/271/237
f 175/271/237 166/280/248 174/270/234
f 166/280/248 164/269/233 174/270/234
f 174/270/234 164/269/233 173/268/232
f 162/281/55 168/282/249 179/283/250
f 179/283/250 168/282/249 59/89/251
f 179/283/250 59/89/251 62/92/252
f 158/284/59 52/82/59 160/285/253
f 160/285/253 52/82/59 51/81/254
f 160/285/253 51/81/254 169/286/57
f 169/286/57 51/81/254 56/86/57
f 169/286/57 56/86/57 168/282/249
f 168/282/249 56/86/57 59/89/251
f 52/104/33 158/287/33 71/101/255
f 71/101/256 158/287/33 155/288/257
f 71/101/256 155/288/257 68/98/37
f 68/98/37 155/288/257 154/289/37
f 68/98/37 154/289/37 67/97/258
f 67/97/258 154/289/37 163/290/259
f 67/97/258 163/290/259 62/92/260
f 62/92/260 163/290/259 162/281/261
f 62/92/262 162/281/263 179/283/20
