<?xml version="1.0" encoding="utf-8"?>
<COLLADA xmlns="http://www.collada.org/2005/11/COLLADASchema" version="1.4.1" xmlns:xsi="http://www.w3.org/2001/XMLSchema-instance">
  <asset>
    <contributor>
      <author>Blender User</author>
      <authoring_tool>Blender 4.3.2 commit date:2024-12-16, commit time:21:10, hash:32f5fdce0a0a</authoring_tool>
    </contributor>
    <created>2025-03-05T17:27:03</created>
    <modified>2025-03-05T17:27:03</modified>
    <unit name="meter" meter="1"/>
    <up_axis>Z_UP</up_axis>
  </asset>
  <library_effects>
    <effect id="bu_terracota_pot_002-effect">
      <profile_COMMON>
        <newparam sid="bu_terracotta_plantpot_png_001-surface">
          <surface type="2D">
            <init_from>bu_terracotta_plantpot_png_001</init_from>
          </surface>
        </newparam>
        <newparam sid="bu_terracotta_plantpot_png_001-sampler">
          <sampler2D>
            <source>bu_terracotta_plantpot_png_001-surface</source>
          </sampler2D>
        </newparam>
        <technique sid="common">
          <lambert>
            <emission>
              <color sid="emission">0 0 0 1</color>
            </emission>
            <diffuse>
              <texture texture="bu_terracotta_plantpot_png_001-sampler" texcoord="UVMap"/>
            </diffuse>
            <reflectivity>
              <float sid="specular">1</float>
            </reflectivity>
            <index_of_refraction>
              <float sid="ior">1.5</float>
            </index_of_refraction>
          </lambert>
        </technique>
      </profile_COMMON>
    </effect>
  </library_effects>
  <library_images>
    <image id="bu_terracotta_plantpot_png_001" name="bu_terracotta_plantpot_png_001">
      <init_from>bu_terracotta_plantpot.png</init_from>
    </image>
  </library_images>
  <library_materials>
    <material id="bu_terracota_pot_002-material" name="bu_terracota_pot.002">
      <instance_effect url="#bu_terracota_pot_002-effect"/>
    </material>
  </library_materials>
  <library_geometries>
    <geometry id="Plants_Pot_001-mesh" name="Plants Pot.001">
      <mesh>
        <source id="Plants_Pot_001-mesh-positions">
          <float_array id="Plants_Pot_001-mesh-positions-array" count="1368">-0.765033 5.018536 -1.461571 -0.003248989 4.6347 -1.532062 -0.03169 5.018536 -1.582122 -1.443288 0.495524 0.476117 -1.561937 0.495524 0.001571953 -1.993886 5.018536 0.001571953 -1.842358 5.018536 -0.604482 -1.443288 0.495524 -0.472974 -1.410843 5.018536 -1.11827 -1.105407 0.495524 -0.875274 -0.599733 0.495524 -1.144082 -0.003249943 0.495524 -1.238474 -1.84236 5.018536 0.607626 -1.105408 0.495524 0.878417 -1.410844 5.018536 1.121414 -0.599734 0.495524 1.147226 -0.765034 5.018536 1.464716 -0.003250956 0.495524 1.24162 -0.003250956 5.018536 1.585266 0.593233 0.495524 1.147226 0.758533 5.018536 1.464716 1.098906 0.495524 0.878418 1.404342 5.018536 1.121415 1.436787 0.495524 0.476118 1.835859 5.018536 0.607626 1.555436 0.495524 0.001571953 1.987386 5.018536 0.001571953 1.436787 0.495524 -0.472973 1.835859 5.018536 -0.604481 1.098908 0.495524 -0.875273 1.404343 5.018536 -1.118269 0.593234 0.495524 -1.144082 0.758535 5.018536 -1.461571 0.216407 5.018536 -1.547362 -0.851871 0.349122 1.28932 -1.280489 0.07380497 1.017707 -0.911297 0.07380396 1.213963 0.88076 3.64806 -1.696327 0.8003 2.127436 -1.541789 -0.003248989 3.64806 -1.836221 -0.003248989 2.127436 -1.668951 0.81682 1.997913 -1.57352 -0.003248989 1.997913 -1.703294 0.78691 1.895608 -1.516071 -0.003248989 1.895608 -1.641113 -0.003249943 0.07380497 -1.43546 -0.694486 0.07380497 -1.326072 -0.003249943 0.006850957 -1.379744 -0.667686 0.006850957 -1.274599 -1.280488 0.07380598 -1.014563 -1.230968 0.006850957 -0.975166 -1.672042 0.07380598 -0.548357 -1.607341 0.006850957 -0.527035 -1.809537 0.07380497 0.001571953 -1.739506 0.006850957 0.001571953 -1.672042 0.07380497 0.5515 -1.607341 0.006850957 0.530179 -1.230969 0.006850957 0.978311 -0.876091 0.006850957 1.166958 -1.463274 1.895608 1.163126 -1.910863 1.895607 0.6302 -2.068035 1.895607 0.001571953 -1.910863 1.895607 -0.627057 -1.463273 1.895607 -1.159983 -0.793408 1.895608 -1.516072 -0.823319 1.997913 -1.57352 -0.806799 2.127436 -1.54179 -0.887258 3.64806 -1.696327 -0.946234 3.821089 -1.8096 -0.003248989 3.821089 -1.958825 -0.911983 3.995972 -1.743816 -0.003248989 3.995972 -1.887623 -0.949812 4.146464 -1.816473 -0.003248989 4.146464 -1.966265 -0.003250956 1.895608 1.644257 -0.003250956 1.997913 1.706439 -0.79341 1.895608 1.519215 -0.82332 1.997913 1.576664 -1.518542 1.997913 1.207096 -1.983074 1.997913 0.653996 -2.146195 1.997913 0.001570999 -1.983073 1.997913 -0.650853 -1.518541 1.997913 -1.203952 -1.488015 2.127436 -1.179666 -1.636685 3.64806 -1.297944 -1.745658 3.821089 -1.38464 -1.682371 3.995972 -1.334291 -1.75227 4.146464 -1.3899 -0.003250956 2.127436 1.672095 -0.8068 2.127436 1.544933 -1.488016 2.127436 1.182809 -1.94319 2.127436 0.640853 -2.103026 2.127436 0.001571953 -1.943189 2.127436 -0.63771 -2.137437 3.64806 -0.701721 -2.279817 3.821088 -0.748641 -2.197129 3.995972 -0.721392 -2.288455 4.146463 -0.751487 -2.3521 4.378794 -0.772461 -1.800981 4.378794 -1.428654 -2.349679 4.638391 -0.771663 -1.799129 4.638391 -1.42718 -0.003250956 3.64806 1.839366 -0.88726 3.64806 1.699472 -1.636687 3.64806 1.301088 -2.137437 3.64806 0.704864 -2.122324 2.248221 0.001571953 -2.313277 3.64806 0.001570999 -2.467388 3.821088 0.001570999 -2.377887 3.995972 0.001570999 -2.476738 4.146463 0.001570999 -2.545627 4.378794 0.001570999 -2.543009 4.638391 0.001570999 -2.463134 4.886425 0.001570999 -2.275886 4.886425 -0.747345 -2.263279 5.038795 0.001571953 -2.091246 5.038795 -0.686499 -2.279817 3.821088 0.751784 -2.197129 3.995972 0.724535 -2.288455 4.146464 0.75463 -2.3521 4.378794 0.775604 -2.34968 4.638391 0.774806 -1.841864 3.734574 1.167197 -1.95419 3.821088 1.139494 -1.751567 3.995972 1.277629 -1.752271 4.132019 1.393043 -1.800983 4.378794 1.431797 -1.799131 4.638391 1.430323 -1.742651 4.886425 1.385391 -2.275887 4.886425 0.750488 -1.669793 3.719107 1.371423 -0.946235 3.821088 1.812745 -1.689386 3.810637 1.417442 -0.911985 3.995972 1.746961 -1.675545 3.876335 1.399442 -1.682372 3.995972 1.337435 -0.949813 4.146464 1.819617 -0.976176 4.378794 1.870252 -0.975174 4.638391 1.868326 -0.944607 4.886425 1.809619 -2.091246 5.038795 0.689643 -1.601334 5.038795 1.272962 -0.868126 5.038795 1.662724 -0.003250956 5.038795 1.799588 -0.003250956 4.886425 1.958587 -0.003250956 4.638391 2.022133 -0.003250956 4.378794 2.024216 -0.003250956 4.146464 1.96941 -0.003250956 3.995972 1.890767 -0.003250956 3.821088 1.961971 0.905483 3.995972 1.746961 0.943312 4.146464 1.819617 0.969675 4.378794 1.870253 0.968672 4.638391 1.868326 0.935515 4.886425 1.806388 0.861625 5.038795 1.662724 0.797739 5.077489 1.54002 -0.003250956 5.077489 1.666773 -0.804241 5.077489 1.54002 -1.483287 5.077489 1.179048 -1.937012 5.077489 0.638817 -2.096337 5.077489 0.001571953 -1.937012 5.077489 -0.635673 -1.601331 5.038795 -1.269818 -1.483286 5.077489 -1.175905 -0.03169 5.018536 -1.582122 -0.003248989 5.077489 -1.663629 -0.765033 5.018536 -1.461571 -0.80424 5.077489 -1.536874 -1.410843 5.018536 -1.11827 -1.842358 5.018536 -0.604482 -1.993886 5.018536 0.001571953 -1.84236 5.018536 0.607626 -1.410844 5.018536 1.121414 -0.765034 5.018536 1.464716 -0.003250956 5.018536 1.585266 0.758533 5.018536 1.464716 1.404342 5.018536 1.121415 1.476786 5.077489 1.17905 1.835859 5.018536 0.607626 1.930511 5.077489 0.638817 1.987386 5.018536 0.001571953 2.089837 5.077489 0.001571953 -0.868125 5.038795 -1.659579 -0.059183 5.038795 -1.796443 -0.003248989 4.886425 -1.955441 -0.944606 4.886425 -1.806475 -0.003248989 4.638391 -2.018987 -0.975172 4.638391 -1.865181 -0.003248989 4.378794 -2.021071 -0.976174 4.378794 -1.867107 -1.74265 4.886425 -1.382247 1.835859 5.018536 -0.604481 1.930511 5.077489 -0.635672 1.404343 5.018536 -1.118269 1.476788 5.077489 -1.175902 0.758535 5.018536 -1.461571 0.797741 5.077489 -1.536874 0.216407 5.018536 -1.547362 0.287866 5.077489 -1.61756 0.861627 5.038795 -1.659578 0.326932 5.038795 -1.744193 0.938108 4.886425 -1.806473 0.251887 4.886425 -1.915067 0.968674 4.638391 -1.865181 0.969677 4.378794 -1.867106 0.943314 4.146464 -1.816473 0.905485 3.995972 -1.743815 0.939736 3.821089 -1.809599 1.794482 4.378794 -1.428653 1.792629 4.638391 -1.427179 1.736151 4.886425 -1.382246 1.594833 5.038795 -1.269817 2.084746 5.038795 -0.686498 2.256777 5.038795 0.001571953 2.084746 5.038795 0.689643 1.592216 5.077756 1.270478 2.269386 4.886425 0.750489 1.73332 4.886425 1.380794 2.343179 4.638391 0.774807 1.798276 4.639714 1.433955 2.345599 4.378794 0.775605 1.79448 4.378794 1.431797 2.3456 4.378794 -0.772459 2.34318 4.638391 -0.771661 2.539125 4.378794 0.001571953 2.536507 4.638391 0.001571953 2.456633 4.886425 0.001571953 2.269387 4.886425 -0.747344 1.745769 4.146464 1.393043 2.281955 4.146464 0.754631 2.470236 4.146463 0.001571953 2.281955 4.146463 -0.751486 1.74577 4.146464 -1.389899 1.675873 3.995972 -1.334289 1.739159 3.821089 -1.384638 1.630187 3.64806 -1.297942 1.481516 2.127436 -1.179665 1.512042 1.997913 -1.203951 1.456775 1.895607 -1.159982 1.67587 3.995972 1.337435 2.190628 3.995972 0.724536 2.371386 3.995972 0.001571953 2.190629 3.995972 -0.72139 2.273315 3.821088 -0.748639 2.130937 3.64806 -0.701719 1.936689 2.127436 -0.637709 1.976573 1.997913 -0.650852 1.904363 1.895607 -0.627056 0.939734 3.821088 1.812745 1.739158 3.821088 1.387784 2.273315 3.821088 0.751785 2.460886 3.821088 0.001571953 2.306776 3.64806 0.001571953 2.096525 2.127436 0.001571953 2.139694 1.997913 0.001571953 2.061535 1.895607 0.001571953 0.880758 3.64806 1.699472 1.630185 3.64806 1.301088 2.130937 3.64806 0.704865 1.936689 2.127436 0.640854 1.976573 1.997913 0.653997 1.904362 1.895607 0.630201 1.456774 1.895608 1.163126 1.51204 1.997913 1.207096 0.786908 1.895608 1.519215 0.816819 1.997913 1.576664 1.481514 2.127436 1.182811 0.800298 2.127436 1.544934 0.687985 0.07380396 1.329216 1.273988 0.07380497 1.017707 1.665541 0.07380497 0.551501 1.803037 0.07380497 0.001571953 1.665541 0.07380598 -0.548355 1.273989 0.07380598 -1.014562 0.687986 0.07380497 -1.326072 -0.717363 0.495102 1.373154 -0.489138 0.227182 1.402366 -0.003250956 0.07380396 1.438604 -0.431066 0.07380396 1.367116 -0.414479 0.006850957 1.314173 -0.003250956 0.006850957 1.38289 0.661185 0.006850957 1.277743 1.224468 0.006850957 0.978311 1.600841 0.006850957 0.530179 1.733004 0.006850957 0.001571953 1.600841 0.006850957 -0.527034 1.224468 0.006850957 -0.975165 0.661186 0.006850957 -1.274597 1.600841 0.006850957 0.530179 1.224468 0.006850957 0.978311 -0.003249943 0.006853997 0.001571953 0.661185 0.006850957 1.277743 -0.003250956 0.006850957 1.38289 -0.414479 0.006850957 1.314173 -0.566124 0.006850957 1.07974 -0.566124 0.006850957 1.07974 -0.876091 0.006850957 1.166958 -0.003249943 0.006853997 0.001571953 -1.230969 0.006850957 0.978311 -1.607341 0.006850957 0.530179 -1.739506 0.006850957 0.001571953 -1.607341 0.006850957 -0.527035 -1.230968 0.006850957 -0.975166 -0.667686 0.006850957 -1.274599 -0.003249943 0.006850957 -1.379744 0.661186 0.006850957 -1.274597 1.224468 0.006850957 -0.975165 1.600841 0.006850957 -0.527034 1.733004 0.006850957 0.001571953 0.935515 4.886425 1.806388 1.73332 4.886425 1.380794 1.798276 4.639714 1.433955 1.79448 4.378794 1.431797 -0.003249943 0.495524 -1.238474 -0.599733 0.495524 -1.144082 0.593234 0.495524 -1.144082 -1.105407 0.495524 -0.875274 1.098908 0.495524 -0.875273 -1.443288 0.495524 -0.472974 1.436787 0.495524 -0.472973 1.555436 0.495524 0.001571953 -1.561937 0.495524 0.001571953 -1.443288 0.495524 0.476117 1.436787 0.495524 0.476118 -1.105408 0.495524 0.878417 1.098906 0.495524 0.878418 0.593233 0.495524 1.147226 -0.599734 0.495524 1.147226 -0.003250956 0.495524 1.24162 0.997778 0.008170962 0.449822 1.065637 0.495055 0.395836 0.803751 0.008170962 0.385883 0.803751 0.495055 0.309534 0.609724 0.008170962 0.449822 0.541865 0.495055 0.395836 0.529355 0.008170962 0.604185 0.433388 0.495055 0.604185 0.609724 0.008170962 0.758547 0.541865 0.495055 0.812533 0.803751 0.008170962 0.822486 0.803751 0.495055 0.898834 0.997778 0.008170962 0.758547 1.065637 0.495055 0.812533 1.078147 0.008170962 0.604185 1.174112 0.495055 0.604185 0.997778 0.008170962 0.449822 1.065637 0.495055 0.395836 -0.594074 0.008170962 0.433508 -0.486832 0.495055 0.401854 -0.79585 0.008170962 0.367016 -0.741152 0.495055 0.318047 -0.997626 0.008170962 0.433508 -0.995472 0.495055 0.401854 -1.081204 0.008170962 0.594036 -1.100815 0.495055 0.604185 -0.997626 0.008170962 0.754563 -0.995472 0.495055 0.806515 -0.79585 0.008170962 0.821056 -0.741152 0.495055 0.890323 -0.594074 0.008170962 0.754563 -0.486832 0.495055 0.806515 -0.510496 0.008170962 0.594036 -0.381489 0.495055 0.604185 -0.594074 0.008170962 0.433508 -0.486832 0.495055 0.401854 1.000385 0.008170962 -0.755058 1.072288 0.495055 -0.81456 0.80664 0.008170962 -0.818904 0.803751 0.495055 -0.903052 0.612895 0.008170962 -0.755058 0.535214 0.495055 -0.81456 0.532643 0.008170962 -0.600919 0.423982 0.495055 -0.60092 0.612895 0.008170962 -0.446782 0.535214 0.495055 -0.387279 0.80664 0.008170962 -0.382935 0.803751 0.495055 -0.298787 1.000385 0.008170962 -0.446781 1.072288 0.495055 -0.387279 1.080637 0.008170962 -0.600919 1.183519 0.495055 -0.60092 1.000385 0.008170962 -0.755058 1.072288 0.495055 -0.81456 -0.590419 0.008170962 -0.743438 -0.466836 0.495055 -0.828949 -0.786752 0.008170962 -0.808137 -0.753459 0.495055 -0.923401 -0.983084 0.008170962 -0.743438 -1.040081 0.495055 -0.828948 -1.064408 0.008170962 -0.587241 -1.158804 0.495055 -0.60092 -0.983084 0.008170962 -0.431044 -1.040081 0.495055 -0.372891 -0.786752 0.008170962 -0.366346 -0.753459 0.495055 -0.278438 -0.590419 0.008170962 -0.431044 -0.466836 0.495055 -0.372891 -0.509095 0.008170962 -0.587241 -0.348113 0.495055 -0.60092 -0.590419 0.008170962 -0.743438 -0.466836 0.495055 -0.828949 -1.752271 4.132019 1.393043 -1.751567 3.995972 1.277629 -1.586931 3.821088 1.219599 -1.95419 3.821088 1.139494 -1.586931 3.821088 1.219599 -1.841864 3.734574 1.167197 -1.636687 3.64806 1.301088 -0.03169 5.018536 -1.582122 -0.003248989 4.6347 -1.532062 0.07461798 4.916858 -1.629824 -0.03169 5.018536 -1.582122 -0.003248989 5.077489 -1.663629 0.12421 4.973392 -1.671458 -0.059183 5.038795 -1.796443 0.104548 4.929002 -1.787321 -0.003248989 4.886425 -1.955441 0.07922101 4.784748 -1.905252 -0.003248989 4.638391 -2.018987 -0.717363 0.495102 1.373154 -0.617213 0.255313 1.180799 -0.489138 0.227182 1.402366 -0.588828 0.07380396 1.123228 -0.431066 0.07380396 1.367116 -0.566124 0.006850957 1.07974 -0.414479 0.006850957 1.314173 -1.636687 3.64806 1.301088 -1.669793 3.719107 1.371423 -1.586931 3.821088 1.219599 -1.689386 3.810637 1.417442 -1.675545 3.876335 1.399442 -1.682372 3.995972 1.337435 -1.752271 4.132019 1.393043 -2.122324 2.248221 0.001571953 -1.943189 2.127436 -0.63771 -1.99799 2.151534 0.001571953 -2.103026 2.127436 0.001571953 -1.94319 2.127436 0.640853 -0.717363 0.495102 1.373154 -0.851871 0.349122 1.28932 -0.617213 0.255313 1.180799 -0.911297 0.07380396 1.213963 -0.588828 0.07380396 1.123228 -0.876091 0.006850957 1.166958 -0.566124 0.006850957 1.07974 -0.003248989 4.638391 -2.018987 0.07922101 4.784748 -1.905252 0.251887 4.886425 -1.915067 0.104548 4.929002 -1.787321 0.326932 5.038795 -1.744193 0.12421 4.973392 -1.671458 0.287866 5.077489 -1.61756 0.07461798 4.916858 -1.629824 0.216407 5.018536 -1.547362 -0.003248989 4.6347 -1.532062</float_array>
          <technique_common>
            <accessor source="#Plants_Pot_001-mesh-positions-array" count="456" stride="3">
              <param name="X" type="float"/>
              <param name="Y" type="float"/>
              <param name="Z" type="float"/>
            </accessor>
          </technique_common>
        </source>
        <source id="Plants_Pot_001-mesh-normals">
          <float_array id="Plants_Pot_001-mesh-normals-array" count="1377">0.2668296 0.410317 0.8720333 -0.0336737 0.1352753 0.9902357 0.1436246 0.4567224 0.8779389 0.5294376 0.8380189 -0.1319859 0.8148554 0.5706698 0.1017193 0.8471332 0.5302809 -0.03417342 0.7747712 0.5205746 0.358792 0.4200734 0.8639995 0.277567 0.5638117 0.5018709 0.6559284 0.3584678 0.7605552 0.5413472 0.1073784 0.6346634 0.7652923 -0.06384646 0.131355 0.9892773 0.7435427 0.5255281 -0.4134786 0.3584535 0.8598243 -0.3636115 0.5237213 0.5074011 -0.6842955 0.3331998 0.5409984 -0.7722038 0.2579927 0.4913756 -0.8318594 0.07804816 0.1310628 -0.9882971 -0.01708209 0.4821355 -0.8759302 -0.1548074 0.7550445 -0.6371362 -0.2954781 0.4864189 -0.8222466 -0.4596819 0.5503796 -0.6969754 -0.5632756 0.501189 -0.6569096 -0.5338568 0.7675616 -0.3547482 -0.7743003 0.5205753 -0.3598062 -0.3983818 0.9117867 -0.09968441 -0.8466106 0.5311768 0.03319376 -0.7733362 0.5661166 0.2854179 -0.7430739 0.5269721 0.4124822 -0.4545457 0.7625872 0.4602708 -0.5232042 0.5092697 0.6833021 -0.03407037 0.9750951 0.2191548 -0.2340301 0.4157555 0.87885 -0.1068559 0.7260607 0.6792774 -0.4567988 -0.1381765 0.8787731 -0.6032745 -0.380525 0.7009 -0.2273711 -0.561361 0.7957238 0.3038775 -0.3585138 -0.8826814 0.3155765 0.08297657 -0.9452653 0.006805658 -0.3532852 -0.935491 8.20025e-7 0.07614046 -0.9970972 0.3039053 -0.1587801 -0.9393777 -0.003393113 -0.1526731 -0.988271 0.2236928 -0.3249936 -0.9188801 -0.07469445 -0.3205001 -0.9442989 0.07127338 -0.3971825 -0.914968 -0.2145233 -0.4034134 -0.8895152 -0.04250222 -0.8437904 -0.5349874 -0.2096301 -0.8522693 -0.4792623 -0.496827 -0.4233826 -0.7575685 -0.3513499 -0.8682968 -0.3501627 -0.7421593 -0.4513782 -0.4954364 -0.4404953 -0.8836646 -0.1584327 -0.8769181 -0.468483 -0.1074173 -0.4551703 -0.8884653 0.05873274 -0.877786 -0.2821736 0.3871305 -0.3973555 -0.8788585 0.264039 -0.2800599 -0.8620309 0.4224562 0.04788732 -0.8315922 0.5533183 -0.5203248 -0.3432126 0.7819638 -0.7636502 -0.3298373 0.5550188 -0.9169663 -0.3819929 0.1151273 -0.8689687 -0.3759108 -0.3218457 -0.6569402 -0.3556014 -0.6648137 -0.3736045 -0.3320183 -0.8661314 -0.3141248 -0.1500904 -0.9374426 -0.31799 0.08478963 -0.9442951 -0.2877076 -0.3645052 -0.8856412 -0.3141344 -0.1232764 -0.9413409 -0.003398895 -0.1246941 -0.9921895 -0.3161094 -0.06880396 -0.9462246 0.001001238 -0.06251645 -0.9980435 -0.2974933 -0.361407 -0.8836757 -0.002401471 -0.3533956 -0.935471 -0.00540328 -0.2519118 0.9677352 0.003894865 -0.158869 0.9872921 -0.279901 -0.2968026 0.9129971 -0.3034178 -0.1652852 0.9384128 -0.6082258 -0.1794826 0.7732059 -0.869108 -0.1833655 0.4593783 -0.9833904 -0.1812897 0.008797645 -0.8788734 -0.1701153 -0.4456933 -0.6209065 -0.1554105 -0.7683246 -0.6287289 0.09140551 -0.7722339 -0.5729962 -0.3852159 -0.7233839 -0.6218937 -0.1241043 -0.7732053 -0.6287058 -0.07299637 -0.7742097 -0.5818239 -0.3847926 -0.7165303 9.97031e-4 0.08827131 0.996096 -0.3150929 0.09508711 0.9442854 -0.6258116 0.1096911 0.7722225 -0.886664 0.1119055 0.4486694 -0.9404274 0.3181082 -0.1200147 -0.7988343 0.2245516 -0.5580684 -0.8075284 -0.407735 -0.4262042 -0.8827313 -0.1361907 -0.4497082 -0.8876225 -0.08517605 -0.4526272 -0.8124142 -0.4139831 -0.4106109 -0.8817701 -0.1423752 -0.4496786 -0.6228842 -0.1310623 -0.7712575 -0.8759203 0.169774 -0.4515979 -0.6179788 0.1524847 -0.7712656 -0.006294369 -0.3559085 0.9344997 -0.3101837 -0.4456537 0.8397493 -0.6422524 -0.3709884 0.6707305 -0.781164 -0.430079 0.4525648 -0.9804818 -0.1467882 0.1308004 -0.9100936 -0.4141094 -0.0155909 -0.9892666 -0.1458577 0.008790552 -0.9970676 -0.0764718 -0.002895534 -0.9032939 -0.4289821 0.005894482 -0.9882768 -0.1526693 9.96897e-4 -0.9853599 0.1704759 -0.001997172 -0.805621 0.592077 -0.02048867 -0.715698 0.5793841 -0.3899878 -0.4099287 0.911815 -0.023494 -0.368916 0.9044684 -0.2140979 -0.8720283 -0.1661656 0.4603865 -0.8954316 -0.06829476 0.4399297 -0.8074964 -0.4158034 0.4183985 -0.8788649 -0.1508876 0.4525809 -0.8788749 0.1674782 0.4466879 -0.5983943 -0.6272274 0.4985079 -0.6551193 -0.5196861 0.5484024 -0.7440174 0.2748954 0.6089916 -0.582817 -0.390522 0.7126128 -0.6208818 -0.1401098 0.7712815 -0.620912 0.1554167 0.768319 -0.535907 0.545691 0.6442244 -0.7352162 0.5763195 0.3568096 -0.3620042 -0.6067036 0.7077173 -0.3043324 -0.1095986 0.9462399 -0.4587119 0.1805306 0.8700531 -0.3501616 0.07622122 0.933583 -0.4314108 0.3649991 0.8250215 -0.7028694 -0.3194572 0.6355484 -0.2858186 -0.3752989 0.8817361 -0.3112152 -0.1304921 0.9413378 -0.3131139 0.1459752 0.9384301 -0.279896 0.5207982 0.8064909 -0.3855035 0.9065147 0.1720994 -0.2984907 0.8924888 0.3381822 -0.1675971 0.8783212 0.447731 -0.01508724 0.8722566 0.4888159 -0.008292734 0.5115095 0.8592377 7.56874e-7 0.1463231 0.9892369 9.9906e-4 -0.1247709 0.9921851 0.002904653 -0.3560099 0.9344778 -4.98822e-4 -0.07646793 0.9970719 0.003898441 -0.1322839 0.9912042 0.3165759 -0.0791735 0.9452574 0.2980067 -0.3632966 0.8827273 0.2599086 -0.1610977 0.9521003 0.3418884 0.1306062 0.9306204 0.2616342 0.5006895 0.8251411 0.1260175 0.8324468 0.5395851 -0.07469964 0.9895666 -0.1231992 -0.03758972 0.9809521 -0.1905785 0.02050149 0.9801149 -0.197369 0.08208078 0.9804707 -0.1787176 0.1386525 0.9819257 -0.1288315 0.1728301 0.9837878 -0.04786795 0.1709673 0.9845002 0.0391094 -0.270187 0.8899127 -0.3674978 0.1386785 0.983939 0.1123937 0.1435729 0.4570057 0.8777999 0.06448662 0.9148476 0.3986171 0.2666551 0.4105649 0.8719699 0.09179788 0.9818103 0.1661977 0.5637775 0.5020017 0.6558577 0.7747574 0.5206035 0.3587802 0.8471006 0.5303305 -0.03420686 0.7434884 0.5255936 -0.4134932 0.5237216 0.5075274 -0.6842015 0.2580235 0.4914349 -0.8318147 -0.01709514 0.4823369 -0.8758191 -0.2956039 0.4866034 -0.8220922 -0.5633074 0.5011921 -0.65688 -0.1558051 0.969986 -0.1866866 -0.7743204 0.5206173 -0.3597021 -0.2924274 0.9498978 -0.1103644 -0.8465868 0.5312138 0.03320556 -0.1723766 0.9839143 0.04689586 -0.1382002 0.8727401 -0.4682152 -0.06111639 0.9255812 -0.3735829 -0.1246098 0.6167419 -0.7772399 -0.2565109 0.5222731 -0.8132855 0.009798467 0.1391077 -0.9902288 -0.3112043 0.1373737 -0.9403618 -5.00525e-4 -0.1166936 -0.9931679 -0.3140991 -0.1231626 -0.9413675 -0.5105158 0.5489877 -0.6618053 -0.7430114 0.5270467 0.4124996 -0.1381514 0.9821283 0.127821 -0.5232123 0.5092921 0.6832793 -0.08159774 0.9806843 0.1777644 -0.2340027 0.4159051 0.8787865 -0.02001166 0.9803071 0.1964632 -0.1069995 0.7260501 0.6792662 0.02149093 0.9905145 -0.1357172 0.1680979 0.8777081 -0.4487447 0.09379994 0.795927 -0.5980819 0.280422 0.5190423 -0.8074395 0.1417006 0.4199832 -0.8964013 0.3136011 0.1384978 -0.9394003 0.3127276 -0.1193691 -0.9423123 0.2902113 -0.3625913 -0.88561 0.3204845 -0.06149804 -0.9452554 0.30491 -0.1312866 -0.9432888 0.6204218 -0.1311951 -0.7732171 0.62142 0.148373 -0.7693002 0.5363848 0.5440965 -0.6451748 0.2990084 0.8919224 -0.3392176 0.3859043 0.9061695 -0.1730168 0.4104044 0.9116259 0.0225088 0.253288 0.9626214 0.09594482 0.2842913 0.8842582 0.3704943 0.6567635 0.6739311 0.338347 0.5716586 0.4069482 0.7124602 0.8641511 0.2424781 0.4409617 0.6723769 0.1223247 0.7300315 0.8627591 -0.1258995 0.4896898 0.5443534 -0.1413294 0.8268648 0.8793181 -0.145017 -0.4536188 0.8793209 0.162321 -0.4477128 0.9887637 -0.1494743 -0.001995921 0.9858359 0.16771 0.00100106 0.8060947 0.5914655 0.01948791 0.7356997 0.5750784 -0.3578138 0.5823174 -0.3859281 0.715518 0.812883 -0.4140639 0.4096002 0.903755 -0.4279962 -0.006806075 0.8060656 -0.4156741 -0.4212758 0.5745211 -0.3866735 -0.7213938 0.6330822 -0.0656951 -0.7712919 0.6106734 -0.1418913 -0.7790667 0.5911009 -0.3778966 -0.7125966 0.6262961 0.09959727 -0.7731971 0.6087164 -0.1734796 -0.7741894 0.5179533 -0.3424203 -0.783883 0.6292039 -0.07887661 0.7732277 0.8881241 -0.08528077 0.4516226 0.9975585 -0.06977683 0.002893209 0.8920336 -0.06859272 -0.4467338 0.8734991 -0.146393 -0.4642935 0.8226718 -0.4003027 -0.4036943 0.8861717 0.09928363 -0.4525955 0.8695943 -0.1784834 -0.4603796 0.7748613 -0.3652247 -0.5159467 0.3145997 -0.1292816 0.9403794 0.6224077 -0.127699 0.7722058 0.8832181 -0.1363136 0.4487141 0.9897308 -0.1426072 -0.009800791 0.909617 -0.4152222 0.01369178 0.9946285 0.10349 -0.00199759 0.983871 -0.1786104 -0.009804546 0.9174464 -0.3805353 -0.1161253 0.3283045 -0.3177128 0.8895363 0.6310819 -0.4475956 0.6335566 0.8080164 -0.407809 0.4252076 0.8881253 0.1037829 0.4477304 0.8793184 -0.170116 0.4448143 0.8697574 -0.3748223 0.3209835 0.6243146 -0.3111308 0.7165396 0.6214464 -0.1581783 0.7673228 0.3370736 -0.4038727 0.8504518 0.3145976 -0.1550743 0.9364722 0.5989392 0.07100844 0.7976401 0.2628017 0.1501954 0.9530881 0.2697132 -0.3518161 0.8963707 0.4955472 -0.5183146 0.6969813 0.7426081 -0.4515959 0.4945649 0.8774169 -0.4677957 0.1063341 0.8294817 -0.4612926 -0.3149115 0.6272103 -0.4362072 -0.6452367 0.357582 -0.4107042 -0.8387237 -0.220476 -0.1221882 0.9677088 -0.1655978 -0.1741865 0.9706887 -0.02577739 -0.2955303 0.9549856 -0.1422003 -0.493063 0.8582937 -0.07481861 -0.8889893 0.4517745 0.04200512 -0.8450877 0.5329751 0.210112 -0.8527597 0.4781777 0.3518497 -0.8684614 0.3492515 0.4408972 -0.8836405 0.157446 0.4554945 -0.888234 -0.05971091 0.3978585 -0.8783327 -0.2650291 0.2805611 -0.86133 -0.4235519 0.1261339 -0.8476431 -0.5153559 0.4406758 -0.8837838 0.1572617 0.3518038 -0.8685877 0.3489837 -3.23176e-7 -1 -1.83583e-6 0.2101145 -0.8528779 0.4779657 0.04201889 -0.8452301 0.5327482 -0.07482087 -0.8890867 0.4515825 2.38059e-6 -1 -1.53983e-6 -9.17828e-7 -1 -3.26334e-6 0.04788452 -0.8315941 0.5533158 1.36328e-7 -1 6.73466e-7 -0.2798845 -0.8621498 0.4223298 -0.3971062 -0.878983 0.2639992 -0.4547746 -0.8886693 0.05871319 -0.4400926 -0.8838736 -0.1583863 -0.3512964 -0.8684214 -0.3499077 -0.2096148 -0.852402 -0.4790328 -0.04250818 -0.8439725 -0.5346996 0.125977 -0.8478076 -0.5151234 0.2804096 -0.8614932 -0.4233201 0.3976808 -0.8784567 -0.2648846 0.4552901 -0.8883393 -0.05970329 0.4405955 -0.8838062 0.1573605 0.2620744 0.5008381 0.8249111 0.5713354 0.4069248 0.7127328 0.6720119 0.1223021 0.7303713 0.5440494 -0.1410139 0.8271188 -0.06396913 0.1313064 0.9892758 0.107219 0.6343356 0.7655864 -0.03368914 0.9752045 0.2187266 0.3586379 0.760255 0.5416561 -0.4550584 0.7621203 0.4605374 0.4200361 0.8639647 0.2777311 -0.7734197 0.5661026 0.285219 -0.3978095 0.9120352 -0.09969615 0.8147997 0.5707172 0.1018989 0.5296282 0.8379014 -0.1319677 -0.5340201 0.7672483 -0.3551798 0.3585864 0.8597834 -0.363577 -0.4595775 0.5503926 -0.6970341 -0.1548948 0.754747 -0.6374674 0.3331967 0.5409929 -0.7722089 0.07813715 0.1310208 -0.9882956 -0.7772396 0.1856858 0.6011819 -0.4751268 0.1703833 0.8632637 -0.1615434 0.1610834 0.9736303 0.1571476 0.1653016 0.9736427 0.4751636 0.1718082 0.862961 0.7678433 0.1859883 0.6130458 0.9477726 0.1941935 0.2530137 0.951677 0.1911938 -0.2403244 0.7774726 0.1804135 -0.6024844 0.4759512 0.1640037 -0.8640448 0.1620377 0.1545009 -0.9746144 -0.1565222 0.1600034 -0.974628 -0.4744741 0.1682115 -0.8640481 -0.7673413 0.1847867 -0.6140369 -0.9472981 0.1953136 -0.2539268 -0.9512006 0.194792 0.2393192 -0.7773551 0.185687 0.601032 -0.4752802 0.170409 0.8631741 -0.7772979 0.2200902 0.5893797 -0.4653131 0.1674692 0.8691594 -0.1713179 0.1301848 0.9765767 0.1708179 0.09739446 0.9804773 0.4760584 0.08036684 0.8757338 0.7873825 0.0734921 0.6120685 0.9663535 0.0643962 0.2490265 0.9673201 0.05678653 -0.2471176 0.7805432 0.07271027 -0.6208589 0.4896791 0.1014876 -0.8659762 0.1531999 0.1233114 -0.9804714 -0.1458171 0.1581854 -0.9765833 -0.4755721 0.2020096 -0.8561678 -0.7526668 0.2374911 -0.6140772 -0.9317066 0.2598087 -0.2538154 -0.9384976 0.2508095 0.2373119 -0.7774214 0.2200909 0.5892165 -0.4655689 0.1674826 0.8690198 -0.7753099 0.1996975 0.599179 -0.474138 0.1870856 0.8603442 -0.1615375 0.1778951 0.9707003 0.1560146 0.1773939 0.9716948 0.4740858 0.188418 0.8600822 0.7639374 0.2043934 0.6120646 0.9429171 0.2178023 0.2519317 0.94679 0.2163119 -0.2383229 0.7756676 0.2007018 -0.59838 0.4730749 0.1864205 -0.8610735 0.1628195 0.1711065 -0.971706 -0.1565111 0.1714949 -0.9726736 -0.4735838 0.1805163 -0.8620513 -0.7653565 0.1959112 -0.6130647 -0.9453416 0.205809 -0.252927 -0.9482773 0.2097007 0.2383187 -0.7754314 0.199678 0.5990282 -0.4743223 0.1871592 0.8602266 -0.758706 0.3011003 0.5776711 -0.4605169 0.2728882 0.8446635 -0.1654312 0.2458808 0.9550787 0.1620175 0.2244197 0.9609298 0.466363 0.2109929 0.8590621 0.7687672 0.206499 0.6052727 0.9468061 0.1963879 0.2549315 0.9517199 0.1849217 -0.2450165 0.7775707 0.1704117 -0.6052634 0.4779514 0.1634001 -0.8630543 0.1571341 0.1654102 -0.9736264 -0.1488307 0.1885975 -0.9707114 -0.4736709 0.2259077 -0.8512353 -0.7447749 0.2656064 -0.6121794 -0.9199211 0.3036066 -0.2481297 -0.9218919 0.3163979 0.2236239 -0.7588264 0.3010849 0.5775209 -0.4606567 0.272912 0.8445795 -0.3864151 -0.5994928 0.7009222 -0.2556715 -0.5167465 0.8170712 -0.3015431 -0.5469963 0.7809398 -0.2553414 -0.5165491 0.8172991 -0.2066028 -0.2254253 0.9521023 -0.2682153 0.2338392 0.9345479 -0.3023615 0.3643273 0.8808197 -0.3288038 0.4817064 0.8123098 0.6027637 0.2882354 0.7440406 0.5187982 0.1605022 0.839695 0.5451787 0.366938 0.7537485 0.1434496 0.4567563 0.8779498 0.545157 0.3670971 0.7536868 0.6106739 0.5684761 0.5512825 0.6086997 0.7880823 -0.09171199 0.528603 0.7278054 -0.4368961 0.6291705 0.5864012 -0.5101746 0.6604889 0.4252843 -0.6187792 0.7190777 0.2700779 -0.6403009 0.6663141 0.1886276 -0.7214189 -0.730315 -0.5884099 0.3470072 -0.7938556 -0.4573504 0.4007793 -0.7938188 -0.4220047 0.4379084 -0.7879267 -0.3917098 0.4751159 -0.7225329 -0.5103831 0.4663211 -0.7069076 -0.5402546 0.4565157 -0.7069099 -0.5402492 0.4565187 -0.88666 0.06740999 -0.4574823 -0.8866616 0.06739735 -0.457481 -0.9188951 -0.1271494 -0.3734498 -0.8866744 0.07367354 -0.4564876 -0.9032636 -0.1110019 -0.4144797 -0.7029692 -0.3192138 0.6355603 -0.5827828 -0.390295 0.712765 -0.612267 -0.7906512 -2.18046e-7 -0.9658489 0.2426477 -0.09087491 -0.9726442 0.2323005 -5.61014e-7 -0.2225663 0.9749177 0 -0.9658429 0.2430287 0.08991473 0.1358079 -0.5862902 0.7986364 0.2198137 -0.4527116 0.8641378 0.2285973 -0.406287 0.8846887 -0.2271817 -0.5614889 0.7956876 0.2462083 -0.4129815 0.8768284 0.04788726 -0.8316125 0.5532878 0.2384032 -0.4742242 0.8475112 -0.4393851 0.6934773 -0.5709905 -0.413784 0.6432777 -0.6441869 -0.3814694 0.6979688 -0.6060699 -0.3602911 0.7770301 -0.5161539 -0.355124 0.8417421 -0.4066414 -0.4412346 0.8660128 -0.2352319 -0.5680679 0.8208333 0.05942893 -0.6209009 0.7383558 0.2632733 -0.6765776 0.5543269 0.4847314 -0.6570866 0.4071689 0.6343901</float_array>
          <technique_common>
            <accessor source="#Plants_Pot_001-mesh-normals-array" count="459" stride="3">
              <param name="X" type="float"/>
              <param name="Y" type="float"/>
              <param name="Z" type="float"/>
            </accessor>
          </technique_common>
        </source>
        <source id="Plants_Pot_001-mesh-map">
          <float_array id="Plants_Pot_001-mesh-map-array" count="3744">0.994219 0.370499 0.89913 0.340998 0.902822 0.370499 0.972828 0.004734992 0.898704 0.004734992 0.90068 0.370499 0.90068 0.370499 0.898704 0.004734992 0.994847 0.370499 0.898704 0.004734992 0.972827 0.004734992 0.994847 0.370499 0.994847 0.370499 0.972827 0.004734992 0.899757 0.370499 0.972827 0.004734992 0.900454 0.004734992 0.899757 0.370499 0.899757 0.370499 0.900454 0.004734992 0.994219 0.370499 0.900454 0.004734992 0.973708 0.004734992 0.994219 0.370499 0.994219 0.370499 0.973708 0.004734992 0.89913 0.340998 0.973708 0.004734992 0.89913 0.004734992 0.89913 0.340998 0.90068 0.370499 0.994847 0.370499 0.972828 0.004734992 0.972828 0.004734992 0.994847 0.370499 0.900454 0.004734992 0.994847 0.370499 0.899758 0.370499 0.900454 0.004734992 0.900454 0.004734992 0.899758 0.370499 0.973708 0.004734992 0.899758 0.370499 0.99422 0.370499 0.973708 0.004734992 0.973708 0.004734992 0.99422 0.370499 0.899131 0.004734992 0.99422 0.370499 0.89913 0.370499 0.899131 0.004734992 0.899131 0.004734992 0.89913 0.370499 0.972273 0.004734992 0.89913 0.370499 0.992784 0.370499 0.972273 0.004734992 0.972273 0.004734992 0.992784 0.370499 0.899019 0.004734992 0.992784 0.370499 0.898321 0.370499 0.899019 0.004734992 0.899019 0.004734992 0.898321 0.370499 0.971392 0.004734992 0.898321 0.370499 0.993411 0.370499 0.971392 0.004734992 0.971392 0.004734992 0.993411 0.370499 0.897268 0.004734992 0.993411 0.370499 0.899243 0.370499 0.897268 0.004734992 0.897268 0.004734992 0.899243 0.370499 0.971392 0.004734992 0.899243 0.370499 0.993411 0.370499 0.971392 0.004734992 0.971392 0.004734992 0.993411 0.370499 0.899019 0.004734992 0.993411 0.370499 0.898322 0.370499 0.899019 0.004734992 0.899019 0.004734992 0.898322 0.370499 0.972273 0.004734992 0.898322 0.370499 0.992785 0.370499 0.972273 0.004734992 0.972273 0.004734992 0.992785 0.370499 0.89913 0.004734992 0.89913 0.004734992 0.992785 0.370499 0.89913 0.340998 0.992785 0.370499 0.932706 0.370499 0.89913 0.340998 0.384711 0.303443 0.331277 0.273227 0.378252 0.273227 0.603761 0.671105 0.594437 0.505956 0.501314 0.671105 0.501314 0.671105 0.594437 0.505956 0.501314 0.505956 0.594437 0.505956 0.596351 0.478893 0.501314 0.505956 0.501314 0.505956 0.596351 0.478893 0.501314 0.478893 0.596351 0.478893 0.592885 0.457814 0.501314 0.478893 0.501314 0.478893 0.592885 0.457814 0.501314 0.457814 0.592885 0.457814 0.501314 0.273227 0.501314 0.457814 0.501314 0.457814 0.501314 0.273227 0.421206 0.273227 0.501314 0.273227 0.501314 0.252554 0.421206 0.273227 0.501314 0.252554 0.424312 0.252554 0.421206 0.273227 0.421206 0.273227 0.424312 0.252554 0.331277 0.273227 0.424312 0.252554 0.337578 0.252554 0.331277 0.273227 0.331277 0.273227 0.337578 0.252554 0.240297 0.273227 0.337578 0.252554 0.250125 0.252554 0.240297 0.273227 0.240297 0.273227 0.250125 0.252554 0.146989 0.273227 0.250125 0.252554 0.160435 0.252554 0.146989 0.273227 0.146989 0.273227 0.160435 0.252554 0.240297 0.273227 0.160435 0.252554 0.250125 0.252554 0.240297 0.273227 0.240297 0.273227 0.250125 0.252554 0.331277 0.273227 0.250125 0.252554 0.337578 0.252554 0.331277 0.273227 0.331277 0.273227 0.337578 0.252554 0.378252 0.273227 0.337578 0.252554 0.382732 0.252554 0.378252 0.273227 0.384711 0.303443 0.30802 0.457814 0.331277 0.273227 0.30802 0.457814 0.204019 0.457814 0.331277 0.273227 0.331277 0.273227 0.204019 0.457814 0.240297 0.273227 0.204019 0.457814 0.09735798 0.457813 0.240297 0.273227 0.240297 0.273227 0.09735798 0.457813 0.146989 0.273227 0.09735798 0.457813 0.204019 0.457814 0.146989 0.273227 0.146989 0.273227 0.204019 0.457814 0.240297 0.273227 0.204019 0.457814 0.30802 0.457814 0.240297 0.273227 0.240297 0.273227 0.30802 0.457814 0.331277 0.273227 0.30802 0.457814 0.409742 0.457814 0.331277 0.273227 0.331277 0.273227 0.409742 0.457814 0.421206 0.273227 0.421206 0.273227 0.409742 0.457814 0.501314 0.457814 0.409742 0.457814 0.406276 0.478893 0.501314 0.457814 0.501314 0.457814 0.406276 0.478893 0.501314 0.478893 0.406276 0.478893 0.40819 0.505956 0.501314 0.478893 0.501314 0.478893 0.40819 0.505956 0.501314 0.505956 0.40819 0.505956 0.398866 0.671105 0.501314 0.505956 0.501314 0.505956 0.398866 0.671105 0.501314 0.671105 0.398866 0.671105 0.392031 0.716257 0.501314 0.671105 0.501314 0.671105 0.392031 0.716257 0.501314 0.716257 0.392031 0.716257 0.396 0.756543 0.501314 0.716257 0.501314 0.716257 0.396 0.756543 0.501314 0.756543 0.396 0.756543 0.391616 0.786763 0.501314 0.756543 0.501314 0.756543 0.391616 0.786763 0.501314 0.786763 0.501313 0.457813 0.501313 0.478893 0.409742 0.457814 0.501313 0.478893 0.406276 0.478893 0.409742 0.457814 0.409742 0.457814 0.406276 0.478893 0.30802 0.457814 0.406276 0.478893 0.300988 0.478893 0.30802 0.457814 0.30802 0.457814 0.300988 0.478893 0.204019 0.457814 0.300988 0.478893 0.19305 0.478893 0.204019 0.457814 0.204019 0.457814 0.19305 0.478893 0.09735798 0.457813 0.19305 0.478893 0.08235198 0.478893 0.09735798 0.457813 0.09735798 0.457813 0.08235198 0.478893 0.204019 0.457814 0.08235198 0.478893 0.193051 0.478893 0.204019 0.457814 0.204019 0.457814 0.193051 0.478893 0.30802 0.457814 0.193051 0.478893 0.300988 0.478893 0.30802 0.457814 0.30802 0.457814 0.300988 0.478893 0.409742 0.457814 0.409742 0.457814 0.300988 0.478893 0.406276 0.478893 0.300988 0.478893 0.304872 0.505956 0.406276 0.478893 0.406276 0.478893 0.304872 0.505956 0.40819 0.505956 0.304872 0.505956 0.285956 0.671105 0.40819 0.505956 0.40819 0.505956 0.285956 0.671105 0.398866 0.671105 0.285956 0.671105 0.272091 0.716257 0.398866 0.671105 0.398866 0.671105 0.272091 0.716257 0.392031 0.716257 0.272091 0.716257 0.280143 0.756543 0.392031 0.716257 0.392031 0.716257 0.280143 0.756543 0.396 0.756543 0.280143 0.756543 0.271249 0.786763 0.396 0.756543 0.396 0.756543 0.271249 0.786763 0.391616 0.786763 0.501313 0.478893 0.501313 0.505956 0.406276 0.478893 0.501313 0.505956 0.40819 0.505956 0.406276 0.478893 0.406276 0.478893 0.40819 0.505956 0.300988 0.478893 0.40819 0.505956 0.304872 0.505956 0.300988 0.478893 0.300988 0.478893 0.304872 0.505956 0.19305 0.478893 0.304872 0.505956 0.199109 0.505956 0.19305 0.478893 0.19305 0.478893 0.199109 0.505956 0.08235198 0.478893 0.199109 0.505956 0.09064 0.505956 0.08235198 0.478893 0.08235198 0.478893 0.09064 0.505956 0.193051 0.478893 0.09064 0.505956 0.199109 0.505956 0.193051 0.478893 0.193051 0.478893 0.199109 0.505956 0.300988 0.478893 0.300988 0.478893 0.199109 0.505956 0.304872 0.505956 0.199109 0.505956 0.169602 0.671105 0.304872 0.505956 0.304872 0.505956 0.169602 0.671105 0.285956 0.671105 0.169602 0.671105 0.147975 0.716257 0.285956 0.671105 0.285956 0.671105 0.147975 0.716257 0.272091 0.716257 0.147975 0.716257 0.160535 0.756543 0.272091 0.716257 0.272091 0.716257 0.160535 0.756543 0.280143 0.756543 0.160535 0.756543 0.146663 0.786763 0.280143 0.756543 0.280143 0.756543 0.146663 0.786763 0.271249 0.786763 0.146663 0.786763 0.136995 0.82165 0.271249 0.786763 0.271249 0.786763 0.136995 0.82165 0.265051 0.82165 0.136995 0.82165 0.137362 0.862526 0.265051 0.82165 0.265051 0.82165 0.137362 0.862526 0.265287 0.862526 0.501313 0.505956 0.501313 0.671105 0.40819 0.505956 0.501313 0.671105 0.398865 0.671105 0.40819 0.505956 0.40819 0.505956 0.398865 0.671105 0.304872 0.505956 0.398865 0.671105 0.285956 0.671105 0.304872 0.505956 0.304872 0.505956 0.285956 0.671105 0.199109 0.505956 0.285956 0.671105 0.169602 0.671105 0.199109 0.505956 0.199109 0.505956 0.169602 0.671105 0.08693498 0.517753 0.169602 0.671105 0.050273 0.671105 0.08693498 0.517753 0.08693498 0.517753 0.050273 0.671105 0.199109 0.505956 0.199109 0.505956 0.050273 0.671105 0.169602 0.671105 0.050273 0.671105 0.020684 0.716257 0.169602 0.671105 0.169602 0.671105 0.020684 0.716257 0.147975 0.716257 0.020684 0.716257 0.03786796 0.756543 0.147975 0.716257 0.147975 0.716257 0.03786796 0.756543 0.160535 0.756543 0.03786796 0.756543 0.01888895 0.786763 0.160535 0.756543 0.160535 0.756543 0.01888895 0.786763 0.146663 0.786763 0.01888895 0.786763 0.005661964 0.82165 0.146663 0.786763 0.146663 0.786763 0.005661964 0.82165 0.136995 0.82165 0.005661964 0.82165 0.006164968 0.862526 0.136995 0.82165 0.136995 0.82165 0.006164968 0.862526 0.137362 0.862526 0.006164968 0.862526 0.021501 0.900056 0.137362 0.862526 0.137362 0.862526 0.021501 0.900056 0.148572 0.900056 0.021501 0.900056 0.05987197 0.943763 0.148572 0.900056 0.148572 0.900056 0.05987197 0.943763 0.1766189 0.943763 0.169602 0.671105 0.147975 0.716257 0.050273 0.671105 0.050273 0.671105 0.147975 0.716257 0.020684 0.716257 0.147975 0.716257 0.160535 0.756543 0.020684 0.716257 0.020684 0.716257 0.160535 0.756543 0.03786796 0.756543 0.160535 0.756543 0.1466619 0.786763 0.03786796 0.756543 0.03786796 0.756543 0.1466619 0.786763 0.01888895 0.786763 0.1466619 0.786763 0.136994 0.82165 0.01888895 0.786763 0.01888895 0.786763 0.136994 0.82165 0.005661964 0.82165 0.136994 0.82165 0.137362 0.862526 0.005661964 0.82165 0.005661964 0.82165 0.137362 0.862526 0.006164968 0.862526 0.285956 0.671105 0.231752 0.691177 0.169602 0.671105 0.231752 0.691177 0.215744 0.716257 0.169602 0.671105 0.169602 0.671105 0.215744 0.716257 0.147975 0.716257 0.215744 0.716257 0.244621 0.756543 0.147975 0.716257 0.147975 0.716257 0.244621 0.756543 0.160535 0.756543 0.244621 0.756543 0.271249 0.786763 0.160535 0.756543 0.160535 0.756543 0.271249 0.786763 0.1466619 0.786763 0.271249 0.786763 0.265051 0.82165 0.1466619 0.786763 0.1466619 0.786763 0.265051 0.82165 0.136994 0.82165 0.265051 0.82165 0.265287 0.862526 0.136994 0.82165 0.136994 0.82165 0.265287 0.862526 0.137362 0.862526 0.265287 0.862526 0.272473 0.900056 0.137362 0.862526 0.272473 0.900056 0.148572 0.900056 0.137362 0.862526 0.137362 0.862526 0.148572 0.900056 0.006164968 0.862526 0.148572 0.900056 0.021501 0.900056 0.006164968 0.862526 0.285956 0.671105 0.398865 0.671105 0.281865 0.698399 0.398865 0.671105 0.392031 0.716257 0.281865 0.698399 0.281865 0.698399 0.392031 0.716257 0.279189 0.716257 0.392031 0.716257 0.396 0.756543 0.279189 0.716257 0.279189 0.716257 0.396 0.756543 0.279404 0.72532 0.279404 0.72532 0.396 0.756543 0.280143 0.756543 0.396 0.756543 0.391616 0.786763 0.280143 0.756543 0.280143 0.756543 0.391616 0.786763 0.271249 0.786763 0.391616 0.786763 0.388561 0.82165 0.271249 0.786763 0.271249 0.786763 0.388561 0.82165 0.265051 0.82165 0.388561 0.82165 0.388677 0.862526 0.265051 0.82165 0.265051 0.82165 0.388677 0.862526 0.265287 0.862526 0.388677 0.862526 0.39222 0.900056 0.265287 0.862526 0.265287 0.862526 0.39222 0.900056 0.272473 0.900056 0.05987197 0.943763 0.021501 0.900056 0.1766189 0.943763 0.021501 0.900056 0.148572 0.900056 0.1766189 0.943763 0.1766189 0.943763 0.148572 0.900056 0.290454 0.943763 0.148572 0.900056 0.272473 0.900056 0.290454 0.943763 0.290454 0.943763 0.272473 0.900056 0.401083 0.943763 0.272473 0.900056 0.39222 0.900056 0.401083 0.943763 0.401083 0.943763 0.39222 0.900056 0.501313 0.943763 0.501313 0.943763 0.39222 0.900056 0.501313 0.900056 0.39222 0.900056 0.388677 0.862526 0.501313 0.900056 0.501313 0.900056 0.388677 0.862526 0.501313 0.862526 0.388677 0.862526 0.388561 0.82165 0.501313 0.862526 0.501313 0.862526 0.388561 0.82165 0.501313 0.82165 0.388561 0.82165 0.391616 0.786763 0.501313 0.82165 0.501313 0.82165 0.391616 0.786763 0.501313 0.786763 0.391616 0.786763 0.396 0.756543 0.501313 0.786763 0.501313 0.786763 0.396 0.756543 0.501313 0.756543 0.396 0.756543 0.392031 0.716257 0.501313 0.756543 0.501313 0.756543 0.392031 0.716257 0.501313 0.716257 0.392031 0.716257 0.398865 0.671105 0.501313 0.716257 0.501313 0.716257 0.398865 0.671105 0.501313 0.671105 0.606627 0.756543 0.611011 0.786763 0.501313 0.756543 0.501313 0.756543 0.611011 0.786763 0.501313 0.786763 0.611011 0.786763 0.614066 0.82165 0.501313 0.786763 0.501313 0.786763 0.614066 0.82165 0.501313 0.82165 0.614066 0.82165 0.613949 0.862526 0.501313 0.82165 0.501313 0.82165 0.613949 0.862526 0.501313 0.862526 0.613949 0.862526 0.610612 0.900056 0.501313 0.862526 0.501313 0.862526 0.610612 0.900056 0.501313 0.900056 0.610612 0.900056 0.601544 0.943763 0.501313 0.900056 0.501313 0.900056 0.601544 0.943763 0.501313 0.943763 0.601544 0.943763 0.59414 0.972702 0.501313 0.943763 0.59414 0.972702 0.501313 0.972702 0.501313 0.943763 0.501313 0.943763 0.501313 0.972702 0.401083 0.943763 0.501313 0.972702 0.408487 0.972702 0.401083 0.943763 0.401083 0.943763 0.408487 0.972702 0.290454 0.943763 0.408487 0.972702 0.305474 0.972702 0.290454 0.943763 0.290454 0.943763 0.305474 0.972702 0.1766189 0.943763 0.305474 0.972702 0.200047 0.972702 0.1766189 0.943763 0.1766189 0.943763 0.200047 0.972702 0.05987197 0.943763 0.200047 0.972702 0.09192395 0.972702 0.05987197 0.943763 0.05987197 0.943763 0.09192395 0.972702 0.1766189 0.943763 0.09192395 0.972702 0.200047 0.972702 0.1766189 0.943763 0.1766189 0.943763 0.200047 0.972702 0.290454 0.943763 0.200047 0.972702 0.305474 0.972702 0.290454 0.943763 0.498145 0.990889 0.501314 0.972702 0.41303 0.990889 0.501314 0.972702 0.408487 0.972702 0.41303 0.990889 0.41303 0.990889 0.408487 0.972702 0.314691 0.990889 0.408487 0.972702 0.305474 0.972702 0.314691 0.990889 0.314691 0.990889 0.305474 0.972702 0.214425 0.990889 0.305474 0.972702 0.200047 0.972702 0.214425 0.990889 0.214425 0.990889 0.200047 0.972702 0.111594 0.990889 0.200047 0.972702 0.09192395 0.972702 0.111594 0.990889 0.111594 0.990889 0.09192395 0.972702 0.214425 0.990889 0.09192395 0.972702 0.200047 0.972702 0.214425 0.990889 0.214425 0.990889 0.200047 0.972702 0.314691 0.990889 0.200047 0.972702 0.305474 0.972702 0.314691 0.990889 0.314691 0.990889 0.305474 0.972702 0.41303 0.990889 0.305474 0.972702 0.408487 0.972702 0.41303 0.990889 0.41303 0.990889 0.408487 0.972702 0.501313 0.990889 0.408487 0.972702 0.501313 0.972702 0.501313 0.990889 0.501313 0.990889 0.501313 0.972702 0.589597 0.990889 0.501313 0.972702 0.59414 0.972702 0.589597 0.990889 0.589597 0.990889 0.59414 0.972702 0.687935 0.990889 0.59414 0.972702 0.697153 0.972702 0.687935 0.990889 0.687935 0.990889 0.697153 0.972702 0.788202 0.990889 0.697153 0.972702 0.80258 0.972702 0.788202 0.990889 0.788202 0.990889 0.80258 0.972702 0.891032 0.990889 0.80258 0.972702 0.910703 0.972702 0.891032 0.990889 0.290454 0.943763 0.305474 0.972702 0.401083 0.943763 0.305474 0.972702 0.408487 0.972702 0.401083 0.943763 0.501314 0.972702 0.495083 0.943763 0.408487 0.972702 0.408487 0.972702 0.495083 0.943763 0.401083 0.943763 0.495083 0.943763 0.501314 0.900056 0.401083 0.943763 0.401083 0.943763 0.501314 0.900056 0.39222 0.900056 0.501314 0.900056 0.501314 0.862526 0.39222 0.900056 0.39222 0.900056 0.501314 0.862526 0.388677 0.862526 0.501314 0.862526 0.501314 0.82165 0.388677 0.862526 0.388677 0.862526 0.501314 0.82165 0.388561 0.82165 0.501314 0.82165 0.501314 0.786763 0.388561 0.82165 0.501314 0.786763 0.391616 0.786763 0.388561 0.82165 0.271249 0.786763 0.265051 0.82165 0.391616 0.786763 0.391616 0.786763 0.265051 0.82165 0.388561 0.82165 0.265051 0.82165 0.265287 0.862526 0.388561 0.82165 0.388561 0.82165 0.265287 0.862526 0.388677 0.862526 0.265287 0.862526 0.272473 0.900056 0.388677 0.862526 0.388677 0.862526 0.272473 0.900056 0.39222 0.900056 0.272473 0.900056 0.290454 0.943763 0.39222 0.900056 0.39222 0.900056 0.290454 0.943763 0.401083 0.943763 0.891032 0.990889 0.910703 0.972702 0.788202 0.990889 0.910703 0.972702 0.80258 0.972702 0.788202 0.990889 0.788202 0.990889 0.80258 0.972702 0.687935 0.990889 0.80258 0.972702 0.697153 0.972702 0.687935 0.990889 0.687935 0.990889 0.697153 0.972702 0.589597 0.990889 0.697153 0.972702 0.59414 0.972702 0.589597 0.990889 0.589597 0.990889 0.59414 0.972702 0.52677 0.990889 0.52677 0.990889 0.59414 0.972702 0.535051 0.972702 0.59414 0.972702 0.601544 0.943763 0.535051 0.972702 0.535051 0.972702 0.601544 0.943763 0.539578 0.943763 0.601544 0.943763 0.610612 0.900056 0.539578 0.943763 0.539578 0.943763 0.610612 0.900056 0.530881 0.900056 0.610612 0.900056 0.613949 0.862526 0.530881 0.900056 0.530881 0.900056 0.613949 0.862526 0.501314 0.862526 0.613949 0.862526 0.614066 0.82165 0.501314 0.862526 0.501314 0.862526 0.614066 0.82165 0.501314 0.82165 0.614066 0.82165 0.611011 0.786763 0.501314 0.82165 0.501314 0.82165 0.611011 0.786763 0.501314 0.786763 0.611011 0.786763 0.606627 0.756543 0.501314 0.786763 0.501314 0.786763 0.606627 0.756543 0.501314 0.756543 0.606627 0.756543 0.610596 0.716257 0.501314 0.756543 0.501314 0.756543 0.610596 0.716257 0.501314 0.716257 0.610596 0.716257 0.603761 0.671105 0.501314 0.716257 0.501314 0.716257 0.603761 0.671105 0.501314 0.671105 0.614066 0.82165 0.613949 0.862526 0.737576 0.82165 0.737576 0.82165 0.613949 0.862526 0.737764 0.862484 0.613949 0.862526 0.610612 0.900056 0.737764 0.862484 0.737764 0.862484 0.610612 0.900056 0.730238 0.900056 0.610612 0.900056 0.601544 0.943763 0.730238 0.900056 0.730238 0.900056 0.601544 0.943763 0.7133 0.943763 0.601544 0.943763 0.59414 0.972702 0.7133 0.943763 0.59414 0.972702 0.697153 0.972702 0.7133 0.943763 0.7133 0.943763 0.697153 0.972702 0.826008 0.943763 0.697153 0.972702 0.80258 0.972702 0.826008 0.943763 0.826008 0.943763 0.80258 0.972702 0.942755 0.943763 0.80258 0.972702 0.910703 0.972702 0.942755 0.943763 0.942755 0.943763 0.910703 0.972702 0.826008 0.943763 0.910703 0.972702 0.80258 0.972702 0.826008 0.943763 0.80258 0.972702 0.697153 0.972702 0.826008 0.943763 0.697153 0.972702 0.7133 0.943763 0.826008 0.943763 0.826008 0.943763 0.7133 0.943763 0.854055 0.900056 0.7133 0.943763 0.730238 0.900056 0.854055 0.900056 0.854055 0.900056 0.730238 0.900056 0.865265 0.862526 0.730238 0.900056 0.737764 0.862484 0.865265 0.862526 0.865265 0.862526 0.737764 0.862484 0.865632 0.82165 0.737764 0.862484 0.737576 0.82165 0.865632 0.82165 0.737576 0.82165 0.737764 0.862484 0.865632 0.82165 0.737764 0.862484 0.865265 0.862526 0.865632 0.82165 0.865632 0.82165 0.865265 0.862526 0.996965 0.82165 0.865265 0.862526 0.996461 0.862526 0.996965 0.82165 0.996965 0.82165 0.996461 0.862526 0.865632 0.82165 0.865632 0.82165 0.996461 0.862526 0.865265 0.862526 0.996461 0.862526 0.981126 0.900056 0.865265 0.862526 0.865265 0.862526 0.981126 0.900056 0.854055 0.900056 0.981126 0.900056 0.942755 0.943763 0.854055 0.900056 0.854055 0.900056 0.942755 0.943763 0.826008 0.943763 0.737764 0.862484 0.730238 0.900056 0.865265 0.862526 0.730238 0.900056 0.854055 0.900056 0.865265 0.862526 0.865265 0.862526 0.854055 0.900056 0.996461 0.862526 0.996461 0.862526 0.854055 0.900056 0.981126 0.900056 0.854055 0.900056 0.826008 0.943763 0.981126 0.900056 0.981126 0.900056 0.826008 0.943763 0.942755 0.943763 0.826008 0.943763 0.854055 0.900056 0.7133 0.943763 0.854055 0.900056 0.730238 0.900056 0.7133 0.943763 0.614066 0.82165 0.611011 0.786763 0.737576 0.82165 0.611011 0.786763 0.731377 0.786763 0.737576 0.82165 0.737576 0.82165 0.731377 0.786763 0.865632 0.82165 0.731377 0.786763 0.855964 0.786763 0.865632 0.82165 0.865632 0.82165 0.855964 0.786763 0.996965 0.82165 0.855964 0.786763 0.983738 0.786763 0.996965 0.82165 0.996965 0.82165 0.983738 0.786763 0.865632 0.82165 0.983738 0.786763 0.855964 0.786763 0.865632 0.82165 0.865632 0.82165 0.855964 0.786763 0.737576 0.82165 0.855964 0.786763 0.731377 0.786763 0.737576 0.82165 0.737576 0.82165 0.731377 0.786763 0.614066 0.82165 0.614066 0.82165 0.731377 0.786763 0.611011 0.786763 0.731377 0.786763 0.722484 0.756543 0.611011 0.786763 0.611011 0.786763 0.722484 0.756543 0.606627 0.756543 0.722484 0.756543 0.730536 0.716257 0.606627 0.756543 0.606627 0.756543 0.730536 0.716257 0.610596 0.716257 0.730536 0.716257 0.716671 0.671105 0.610596 0.716257 0.610596 0.716257 0.716671 0.671105 0.603761 0.671105 0.716671 0.671105 0.697755 0.505956 0.603761 0.671105 0.603761 0.671105 0.697755 0.505956 0.594437 0.505956 0.697755 0.505956 0.701639 0.478893 0.594437 0.505956 0.594437 0.505956 0.701639 0.478893 0.596351 0.478893 0.701639 0.478893 0.694607 0.457814 0.596351 0.478893 0.596351 0.478893 0.694607 0.457814 0.592885 0.457814 0.611011 0.786763 0.606627 0.756543 0.731377 0.786763 0.606627 0.756543 0.722484 0.756543 0.731377 0.786763 0.731377 0.786763 0.722484 0.756543 0.855964 0.786763 0.722484 0.756543 0.842092 0.756543 0.855964 0.786763 0.855964 0.786763 0.842092 0.756543 0.983738 0.786763 0.842092 0.756543 0.964759 0.756543 0.983738 0.786763 0.983738 0.786763 0.964759 0.756543 0.855964 0.786763 0.964759 0.756543 0.842092 0.756543 0.855964 0.786763 0.855964 0.786763 0.842092 0.756543 0.731377 0.786763 0.731377 0.786763 0.842092 0.756543 0.722484 0.756543 0.842092 0.756543 0.854652 0.716257 0.722484 0.756543 0.722484 0.756543 0.854652 0.716257 0.730536 0.716257 0.854652 0.716257 0.833024 0.671105 0.730536 0.716257 0.730536 0.716257 0.833024 0.671105 0.716671 0.671105 0.833024 0.671105 0.803518 0.505956 0.716671 0.671105 0.716671 0.671105 0.803518 0.505956 0.697755 0.505956 0.803518 0.505956 0.809576 0.478893 0.697755 0.505956 0.697755 0.505956 0.809576 0.478893 0.701639 0.478893 0.809576 0.478893 0.798607 0.457814 0.701639 0.478893 0.701639 0.478893 0.798607 0.457814 0.694607 0.457814 0.606627 0.756543 0.610596 0.716257 0.722484 0.756543 0.610596 0.716257 0.730536 0.716257 0.722484 0.756543 0.722484 0.756543 0.730536 0.716257 0.842092 0.756543 0.730536 0.716257 0.854652 0.716257 0.842092 0.756543 0.842092 0.756543 0.854652 0.716257 0.964759 0.756543 0.854652 0.716257 0.981943 0.716257 0.964759 0.756543 0.964759 0.756543 0.981943 0.716257 0.842092 0.756543 0.842092 0.756543 0.981943 0.716257 0.854652 0.716257 0.981943 0.716257 0.952354 0.671105 0.854652 0.716257 0.854652 0.716257 0.952354 0.671105 0.833024 0.671105 0.952354 0.671105 0.911987 0.505956 0.833024 0.671105 0.833024 0.671105 0.911987 0.505956 0.803518 0.505956 0.911987 0.505956 0.920275 0.478893 0.803518 0.505956 0.803518 0.505956 0.920275 0.478893 0.809576 0.478893 0.920275 0.478893 0.905269 0.457813 0.809576 0.478893 0.809576 0.478893 0.905269 0.457813 0.798607 0.457814 0.610596 0.716257 0.603761 0.671105 0.730536 0.716257 0.603761 0.671105 0.716671 0.671105 0.730536 0.716257 0.730536 0.716257 0.716671 0.671105 0.854652 0.716257 0.716671 0.671105 0.833024 0.671105 0.854652 0.716257 0.854652 0.716257 0.833024 0.671105 0.981943 0.716257 0.981943 0.716257 0.833024 0.671105 0.952354 0.671105 0.833024 0.671105 0.803518 0.505956 0.952354 0.671105 0.952354 0.671105 0.803518 0.505956 0.911987 0.505956 0.803518 0.505956 0.809576 0.478893 0.911987 0.505956 0.911987 0.505956 0.809576 0.478893 0.920275 0.478893 0.809576 0.478893 0.798607 0.457814 0.920275 0.478893 0.920275 0.478893 0.798607 0.457814 0.905269 0.457813 0.798607 0.457814 0.809576 0.478893 0.694607 0.457814 0.809576 0.478893 0.701639 0.478893 0.694607 0.457814 0.694607 0.457814 0.701639 0.478893 0.592885 0.457814 0.592885 0.457814 0.701639 0.478893 0.596351 0.478893 0.701639 0.478893 0.697755 0.505956 0.596351 0.478893 0.596351 0.478893 0.697755 0.505956 0.594437 0.505956 0.594437 0.505956 0.697755 0.505956 0.603761 0.671105 0.603761 0.671105 0.697755 0.505956 0.716671 0.671105 0.716671 0.671105 0.697755 0.505956 0.833024 0.671105 0.833024 0.671105 0.697755 0.505956 0.803518 0.505956 0.697755 0.505956 0.701639 0.478893 0.803518 0.505956 0.803518 0.505956 0.701639 0.478893 0.809576 0.478893 0.501313 0.756543 0.501313 0.716257 0.606627 0.756543 0.606627 0.756543 0.501313 0.716257 0.610596 0.716257 0.501313 0.716257 0.501313 0.671105 0.610596 0.716257 0.610596 0.716257 0.501313 0.671105 0.603761 0.671105 0.501313 0.671105 0.501313 0.505956 0.603761 0.671105 0.603761 0.671105 0.501313 0.505956 0.594437 0.505956 0.501313 0.505956 0.501313 0.478893 0.594437 0.505956 0.594437 0.505956 0.501313 0.478893 0.596351 0.478893 0.501313 0.478893 0.501313 0.457813 0.596351 0.478893 0.596351 0.478893 0.501313 0.457813 0.592885 0.457814 0.501313 0.457813 0.581421 0.273227 0.592885 0.457814 0.592885 0.457814 0.581421 0.273227 0.694607 0.457814 0.581421 0.273227 0.671349 0.273227 0.694607 0.457814 0.671349 0.273227 0.76233 0.273227 0.694607 0.457814 0.694607 0.457814 0.76233 0.273227 0.798607 0.457814 0.76233 0.273227 0.855638 0.273227 0.798607 0.457814 0.798607 0.457814 0.855638 0.273227 0.905269 0.457813 0.855638 0.273227 0.76233 0.273227 0.905269 0.457813 0.905269 0.457813 0.76233 0.273227 0.798607 0.457814 0.76233 0.273227 0.671349 0.273227 0.798607 0.457814 0.798607 0.457814 0.671349 0.273227 0.694607 0.457814 0.671349 0.273227 0.581421 0.273227 0.694607 0.457814 0.694607 0.457814 0.581421 0.273227 0.592885 0.457814 0.581421 0.273227 0.501314 0.273227 0.592885 0.457814 0.30802 0.457814 0.384711 0.303443 0.409742 0.457814 0.384711 0.303443 0.418555 0.317701 0.409742 0.457814 0.409742 0.457814 0.418555 0.317701 0.501313 0.457813 0.418555 0.317701 0.445004 0.291533 0.501313 0.457813 0.501313 0.457813 0.445004 0.291533 0.501313 0.273227 0.445004 0.291533 0.451734 0.273227 0.501313 0.273227 0.451734 0.273227 0.453656 0.252554 0.501313 0.273227 0.453656 0.252554 0.501313 0.252554 0.501313 0.273227 0.501313 0.273227 0.501313 0.252554 0.581421 0.273227 0.501313 0.252554 0.578315 0.252554 0.581421 0.273227 0.581421 0.273227 0.578315 0.252554 0.671349 0.273227 0.578315 0.252554 0.665049 0.252554 0.671349 0.273227 0.671349 0.273227 0.665049 0.252554 0.76233 0.273227 0.665049 0.252554 0.752502 0.252554 0.76233 0.273227 0.76233 0.273227 0.752502 0.252554 0.855638 0.273227 0.752502 0.252554 0.842192 0.252554 0.855638 0.273227 0.855638 0.273227 0.842192 0.252554 0.76233 0.273227 0.842192 0.252554 0.752502 0.252554 0.76233 0.273227 0.76233 0.273227 0.752502 0.252554 0.671349 0.273227 0.752502 0.252554 0.665049 0.252554 0.671349 0.273227 0.671349 0.273227 0.665049 0.252554 0.581421 0.273227 0.665049 0.252554 0.578315 0.252554 0.581421 0.273227 0.581421 0.273227 0.578315 0.252554 0.501314 0.273227 0.578315 0.252554 0.501314 0.252554 0.501314 0.273227 0.581421 0.273227 0.501313 0.457813 0.501313 0.273227 0.468428 0.09742498 0.41669 0.1748549 0.247925 0.005557 0.41669 0.1748549 0.33926 0.226592 0.247925 0.005557 0.33926 0.226592 0.247925 0.24476 0.247925 0.005557 0.247925 0.24476 0.1913959 0.232354 0.247925 0.005557 0.247925 0.005557 0.1913959 0.232354 0.170551 0.191848 0.170551 0.191848 0.127942 0.206918 0.247925 0.005557 0.127942 0.206918 0.07915896 0.1748549 0.247925 0.005557 0.07915896 0.1748549 0.02742195 0.09742498 0.247925 0.005557 0.02742195 0.09742498 0.009254992 0.005557 0.247925 0.005557 0.009254992 0.005557 0.02742195 0.09742498 0.247925 0.005557 0.02742195 0.09742498 0.07915896 0.1748549 0.247925 0.005557 0.07915896 0.1748549 0.15659 0.226592 0.247925 0.005557 0.15659 0.226592 0.247925 0.24476 0.247925 0.005557 0.247925 0.24476 0.33926 0.226592 0.247925 0.005557 0.33926 0.226592 0.41669 0.1748549 0.247925 0.005557 0.41669 0.1748549 0.468428 0.09742498 0.247925 0.005557 0.468428 0.09742498 0.486595 0.005557 0.247925 0.005557 0.247925 0.005557 0.486595 0.005557 0.468428 0.09742498 0.137362 0.862526 0.148572 0.900056 0.265287 0.862526 0.265287 0.862526 0.148572 0.900056 0.272473 0.900056 0.148572 0.900056 0.1766189 0.943763 0.272473 0.900056 0.272473 0.900056 0.1766189 0.943763 0.290454 0.943763 0.697153 0.972702 0.59414 0.972702 0.7133 0.943763 0.59414 0.972702 0.601544 0.943763 0.7133 0.943763 0.601544 0.943763 0.610816 0.900056 0.7133 0.943763 0.7133 0.943763 0.610816 0.900056 0.730323 0.900056 0.610816 0.900056 0.613949 0.862526 0.730323 0.900056 0.730323 0.900056 0.613949 0.862526 0.738187 0.862441 0.738187 0.862441 0.613949 0.862526 0.737575 0.82165 0.613949 0.862526 0.614066 0.82165 0.737575 0.82165 0.133368 0.283491 0.123877 0.331201 0.123877 0.235782 0.123877 0.331201 0.096852 0.371646 0.123877 0.235782 0.123877 0.235782 0.096852 0.371646 0.096852 0.195336 0.096852 0.371646 0.05640596 0.398672 0.096852 0.195336 0.096852 0.195336 0.05640596 0.398672 0.05640596 0.1683109 0.05640596 0.1683109 0.05640596 0.398672 0.007145941 0.15882 0.05640596 0.398672 0.007145941 0.408162 0.007145941 0.15882 0.007145941 0.408162 0.05640596 0.398672 0.007145941 0.15882 0.007145941 0.15882 0.05640596 0.398672 0.05640596 0.1683109 0.05640596 0.398672 0.096852 0.371647 0.05640596 0.1683109 0.05640596 0.1683109 0.096852 0.371647 0.096852 0.195336 0.096852 0.195336 0.096852 0.371647 0.123877 0.235782 0.096852 0.371647 0.123878 0.331201 0.123877 0.235782 0.123877 0.235782 0.123878 0.331201 0.133368 0.283491 0.10865 0.30603 0.10865 0.264216 0.09701699 0.30603 0.10865 0.264216 0.09701699 0.264216 0.09701699 0.30603 0.09701699 0.30603 0.09701699 0.264216 0.08538395 0.30603 0.09701699 0.264216 0.08538395 0.264216 0.08538395 0.30603 0.08538395 0.30603 0.08538395 0.264216 0.07375097 0.30603 0.08538395 0.264216 0.07375097 0.264216 0.07375097 0.30603 0.07375097 0.30603 0.07375097 0.264216 0.06211799 0.30603 0.07375097 0.264216 0.06211799 0.264216 0.06211799 0.30603 0.06211799 0.30603 0.06211799 0.264216 0.05048495 0.30603 0.06211799 0.264216 0.05048495 0.264216 0.05048495 0.30603 0.05048495 0.30603 0.05048495 0.264216 0.03885197 0.30603 0.05048495 0.264216 0.03885197 0.264216 0.03885197 0.30603 0.03885197 0.30603 0.03885197 0.264216 0.02721899 0.30603 0.03885197 0.264216 0.02721899 0.264216 0.02721899 0.30603 0.02721899 0.30603 0.02721899 0.264216 0.01558595 0.30603 0.02721899 0.264216 0.01558595 0.264216 0.01558595 0.30603 0.01888799 0.297326 0.01888799 0.255512 0.03052097 0.297326 0.01888799 0.255512 0.03052097 0.255512 0.03052097 0.297326 0.03052097 0.297326 0.03052097 0.255512 0.04215395 0.297326 0.03052097 0.255512 0.04215395 0.255512 0.04215395 0.297326 0.04215395 0.297326 0.04215395 0.255512 0.05378699 0.297326 0.04215395 0.255512 0.05378699 0.255512 0.05378699 0.297326 0.05378699 0.297326 0.05378699 0.255512 0.06541997 0.297326 0.05378699 0.255512 0.06541997 0.255512 0.06541997 0.297326 0.06541997 0.297326 0.06541997 0.255512 0.07705301 0.297326 0.06541997 0.255512 0.07705301 0.255512 0.07705301 0.297326 0.07705301 0.297326 0.07705301 0.255512 0.08868598 0.297326 0.07705301 0.255512 0.08868598 0.255512 0.08868598 0.297326 0.08868598 0.297326 0.08868598 0.255512 0.100319 0.297326 0.08868598 0.255512 0.100319 0.255512 0.100319 0.297326 0.100319 0.297326 0.100319 0.255512 0.111952 0.297326 0.100319 0.255512 0.111952 0.255512 0.111952 0.297326 0.127858 0.30663 0.127858 0.264816 0.116225 0.30663 0.127858 0.264816 0.116225 0.264816 0.116225 0.30663 0.116225 0.30663 0.116225 0.264816 0.104592 0.30663 0.116225 0.264816 0.104592 0.264816 0.104592 0.30663 0.104592 0.30663 0.104592 0.264816 0.09295898 0.30663 0.104592 0.264816 0.09295898 0.264816 0.09295898 0.30663 0.09295898 0.30663 0.09295898 0.264816 0.081326 0.30663 0.09295898 0.264816 0.081326 0.264816 0.081326 0.30663 0.081326 0.30663 0.081326 0.264816 0.06969296 0.30663 0.081326 0.264816 0.06969296 0.264816 0.06969296 0.30663 0.06969296 0.30663 0.06969296 0.264816 0.05805999 0.30663 0.06969296 0.264816 0.05805999 0.264816 0.05805999 0.30663 0.05805999 0.30663 0.05805999 0.264816 0.04642695 0.30663 0.05805999 0.264816 0.04642695 0.264816 0.04642695 0.30663 0.04642695 0.30663 0.04642695 0.264816 0.03479397 0.30663 0.04642695 0.264816 0.03479397 0.264816 0.03479397 0.30663 0.018588 0.311132 0.018588 0.269318 0.03022098 0.311132 0.018588 0.269318 0.03022098 0.269318 0.03022098 0.311132 0.03022098 0.311132 0.03022098 0.269318 0.04185396 0.311132 0.03022098 0.269318 0.04185396 0.269318 0.04185396 0.311132 0.04185396 0.311132 0.04185396 0.269318 0.053487 0.311132 0.04185396 0.269318 0.053487 0.269318 0.053487 0.311132 0.053487 0.311132 0.053487 0.269318 0.06511998 0.311132 0.053487 0.269318 0.06511998 0.269318 0.06511998 0.311132 0.06511998 0.311132 0.06511998 0.269318 0.076752 0.311132 0.06511998 0.269318 0.076752 0.269318 0.076752 0.311132 0.076752 0.311132 0.076752 0.269318 0.08838599 0.311132 0.076752 0.269318 0.08838599 0.269318 0.08838599 0.311132 0.08838599 0.311132 0.08838599 0.269318 0.100019 0.311132 0.08838599 0.269318 0.100019 0.269318 0.100019 0.311132 0.100019 0.311132 0.100019 0.269318 0.111651 0.311132 0.100019 0.269318 0.111651 0.269318 0.111651 0.311132 0.002891957 0.51359 0.003836989 0.487177 0.04731094 0.481424 0.003836989 0.487177 0.004917979 0.442365 0.04731094 0.481424 0.004917979 0.442365 0.03652399 0.436976 0.04731094 0.481424 0.04731094 0.481424 0.03652399 0.436976 0.079405 0.460298 0.006865978 0.551142 0.01068097 0.53122 0.02255898 0.560943 0.006865978 0.551142 0.02255898 0.560943 0.01149797 0.579229 0.02255898 0.560943 0.03013598 0.580564 0.01149797 0.579229 0.01149797 0.579229 0.03013598 0.580564 0.003936946 0.614927 0.03013598 0.580564 0.02780997 0.612595 0.003936946 0.614927 0.003936946 0.614927 0.02780997 0.612595 0.01269799 0.649707 0.02780997 0.612595 0.02455896 0.638912 0.01269799 0.649707 0.01269799 0.649707 0.02455896 0.638912 0.01333498 0.68709 0.702924 0.245323 0.767986 0.215432 0.80857 0.246903 0.767986 0.215432 0.798961 0.194064 0.80857 0.246903 0.80857 0.246903 0.798961 0.194064 0.841045 0.234972 0.798961 0.194064 0.821496 0.179278 0.841045 0.234972 0.841045 0.234972 0.821496 0.179278 0.86245 0.219087 0.079405 0.460298 0.08169096 0.493049 0.04731094 0.481424 0.08169096 0.493049 0.08318597 0.514477 0.04731094 0.481424 0.08318597 0.514477 0.07836496 0.520144 0.04731094 0.481424 0.07836496 0.520144 0.06175595 0.539667 0.04731094 0.481424 0.04731094 0.481424 0.06175595 0.539667 0.002891957 0.51359 0.995649 0.500661 0.921691 0.389911 0.950081 0.508003 0.921691 0.389911 0.923828 0.513571 0.950081 0.508003 0.923828 0.513571 0.995339 0.663653 0.950081 0.508003 0.950081 0.508003 0.995339 0.663653 0.995649 0.500661 0.702924 0.245323 0.703589 0.179439 0.767986 0.215432 0.703589 0.179439 0.73323 0.130171 0.767986 0.215432 0.767986 0.215432 0.73323 0.130171 0.798961 0.194064 0.73323 0.130171 0.758076 0.117631 0.798961 0.194064 0.798961 0.194064 0.758076 0.117631 0.821496 0.179278 0.01333498 0.68709 0.02455896 0.638912 0.04980397 0.640554 0.02455896 0.638912 0.02780997 0.612595 0.04980397 0.640554 0.04980397 0.640554 0.02780997 0.612595 0.06012296 0.602942 0.02780997 0.612595 0.03013598 0.580564 0.06012296 0.602942 0.06012296 0.602942 0.03013598 0.580564 0.05383598 0.568784 0.03013598 0.580564 0.02255898 0.560943 0.05383598 0.568784 0.05383598 0.568784 0.02255898 0.560943 0.04296398 0.54319 0.02255898 0.560943 0.01068097 0.53122 0.04296398 0.54319</float_array>
          <technique_common>
            <accessor source="#Plants_Pot_001-mesh-map-array" count="1872" stride="2">
              <param name="S" type="float"/>
              <param name="T" type="float"/>
            </accessor>
          </technique_common>
        </source>
        <vertices id="Plants_Pot_001-mesh-vertices">
          <input semantic="POSITION" source="#Plants_Pot_001-mesh-positions"/>
        </vertices>
        <triangles material="bu_terracota_pot_002-material" count="624">
          <input semantic="VERTEX" source="#Plants_Pot_001-mesh-vertices" offset="0"/>
          <input semantic="NORMAL" source="#Plants_Pot_001-mesh-normals" offset="1"/>
          <input semantic="TEXCOORD" source="#Plants_Pot_001-mesh-map" offset="2" set="0"/>
          <p>0 0 0 1 1 1 2 2 2 3 3 3 4 4 4 5 5 5 5 5 6 4 4 7 6 6 8 4 4 9 7 7 10 6 6 11 6 6 12 7 7 13 8 8 14 7 7 15 9 9 16 8 8 17 8 8 18 9 9 19 0 0 20 9 9 21 10 10 22 0 0 23 0 0 24 10 10 25 1 1 26 10 10 27 11 11 28 1 1 29 5 5 30 12 12 31 3 3 32 3 3 33 12 12 34 13 13 35 12 12 36 14 14 37 13 13 38 13 13 39 14 14 40 15 15 41 14 14 42 16 16 43 15 15 44 15 15 45 16 16 46 17 17 47 16 16 48 18 18 49 17 17 50 17 17 51 18 18 52 19 19 53 18 18 54 20 20 55 19 19 56 19 19 57 20 20 58 21 21 59 20 20 60 22 22 61 21 21 62 21 21 63 22 22 64 23 23 65 22 22 66 24 24 67 23 23 68 23 23 69 24 24 70 25 25 71 24 24 72 26 26 73 25 25 74 25 25 75 26 26 76 27 27 77 26 26 78 28 28 79 27 27 80 27 27 81 28 28 82 29 29 83 28 28 84 30 30 85 29 29 86 29 29 87 30 30 88 31 31 89 30 30 90 32 32 91 31 31 92 31 31 93 32 32 94 11 11 95 11 11 96 32 32 97 1 1 98 32 32 99 33 33 100 1 1 101 34 34 102 35 35 103 36 36 104 37 37 105 38 38 106 39 39 107 39 39 108 38 38 109 40 40 110 38 38 111 41 41 112 40 40 113 40 40 114 41 41 115 42 42 116 41 41 117 43 43 118 42 42 119 42 42 120 43 43 121 44 44 122 43 43 123 45 45 124 44 44 125 44 44 126 45 45 127 46 46 128 45 45 129 47 47 130 46 46 131 47 47 132 48 48 133 46 46 134 46 46 135 48 48 136 49 49 137 48 48 138 50 50 139 49 49 140 49 49 141 50 50 142 51 51 143 50 50 144 52 52 145 51 51 146 51 51 147 52 52 148 53 53 149 52 52 150 54 54 151 53 53 152 53 53 153 54 54 154 55 55 155 54 54 156 56 56 157 55 55 158 55 55 159 56 56 160 35 35 161 56 56 162 57 57 163 35 35 164 35 35 165 57 57 166 36 36 167 57 57 168 58 58 169 36 36 170 34 34 171 59 59 172 35 35 173 59 59 174 60 60 175 35 35 176 35 35 177 60 60 178 55 55 179 60 60 180 61 61 181 55 55 182 55 55 183 61 61 184 53 53 185 61 61 186 62 62 187 53 53 188 53 53 189 62 62 190 51 51 191 62 62 192 63 63 193 51 51 194 51 51 195 63 63 196 49 49 197 63 63 198 64 64 199 49 49 200 49 49 201 64 64 202 46 46 203 46 46 204 64 64 205 44 44 206 64 64 207 65 65 208 44 44 209 44 44 210 65 65 211 42 42 212 65 65 213 66 66 214 42 42 215 42 42 216 66 66 217 40 40 218 66 66 219 67 67 220 40 40 221 40 40 222 67 67 223 39 39 224 67 67 225 68 68 226 39 39 227 39 39 228 68 68 229 69 69 230 68 68 231 70 70 232 69 69 233 69 69 234 70 70 235 71 71 236 70 70 237 72 72 238 71 71 239 71 71 240 72 72 241 73 73 242 74 74 243 75 75 244 76 76 245 75 75 246 77 77 247 76 76 248 76 76 249 77 77 250 59 59 251 77 77 252 78 78 253 59 59 254 59 59 255 78 78 256 60 60 257 78 78 258 79 79 259 60 60 260 60 60 261 79 79 262 61 61 263 79 79 264 80 80 265 61 61 266 61 61 267 80 80 268 62 62 269 80 80 270 81 81 271 62 62 272 62 62 273 81 81 274 63 63 275 81 81 276 82 82 277 63 63 278 63 63 279 82 82 280 64 64 281 64 64 282 82 82 283 65 65 284 82 82 285 83 83 286 65 65 287 65 65 288 83 83 289 66 66 290 83 83 291 84 84 292 66 66 293 66 66 294 84 84 295 67 67 296 84 84 297 85 85 298 67 67 299 67 67 300 85 85 301 68 68 302 85 85 303 86 86 304 68 68 305 68 68 306 86 86 307 70 70 308 86 86 309 87 87 310 70 70 311 70 70 312 87 87 313 72 72 314 75 75 315 88 88 316 77 77 317 88 88 318 89 89 319 77 77 320 77 77 321 89 89 322 78 78 323 89 89 324 90 90 325 78 78 326 78 78 327 90 90 328 79 79 329 90 90 330 91 91 331 79 79 332 79 79 333 91 91 334 80 80 335 91 91 336 92 92 337 80 80 338 80 80 339 92 92 340 81 81 341 92 92 342 93 93 343 81 81 344 81 81 345 93 93 346 82 82 347 82 82 348 93 93 349 83 83 350 93 93 351 94 94 352 83 83 353 83 83 354 94 94 355 84 84 356 94 94 357 95 95 358 84 84 359 84 84 360 95 95 361 85 85 362 95 95 363 96 96 364 85 85 365 85 85 366 96 96 367 86 86 368 96 96 369 97 97 370 86 86 371 86 86 372 97 97 373 87 87 374 97 97 375 98 98 376 87 87 377 87 87 378 98 98 379 99 99 380 98 98 381 100 100 382 99 99 383 99 99 384 100 100 385 101 101 386 88 88 387 102 102 388 89 89 389 102 102 390 103 103 391 89 89 392 89 89 393 103 103 394 90 90 395 103 103 396 104 104 397 90 90 398 90 90 399 104 104 400 91 91 401 104 104 402 105 105 403 91 91 404 91 91 405 105 105 406 106 106 407 105 105 408 107 107 409 106 106 410 106 106 411 107 107 412 93 93 413 93 93 414 107 107 415 94 94 416 107 107 417 108 108 418 94 94 419 94 94 420 108 108 421 95 95 422 108 108 423 109 109 424 95 95 425 95 95 426 109 109 427 96 96 428 109 109 429 110 110 430 96 96 431 96 96 432 110 110 433 97 97 434 110 110 435 111 111 436 97 97 437 97 97 438 111 111 439 98 98 440 111 111 441 112 112 442 98 98 443 98 98 444 112 112 445 100 100 446 112 112 447 113 113 448 100 100 449 100 100 450 113 113 451 114 114 452 113 113 453 115 115 454 114 114 455 114 114 456 115 115 457 116 116 458 105 105 459 117 117 460 107 107 461 107 107 462 117 117 463 108 108 464 117 117 465 118 118 466 108 108 467 108 108 468 118 118 469 109 109 470 118 118 471 119 119 472 109 109 473 109 109 474 119 119 475 110 110 476 119 119 477 120 120 478 110 110 479 110 110 480 120 120 481 111 111 482 120 120 483 121 121 484 111 111 485 111 111 486 121 121 487 112 112 488 104 104 489 122 122 490 105 105 491 122 122 492 123 123 493 105 105 494 105 105 495 123 123 496 117 117 497 123 123 498 124 124 499 117 117 500 117 117 501 124 124 502 118 118 503 124 124 504 125 125 505 118 118 506 118 118 507 125 125 508 119 119 509 125 125 510 126 126 511 119 119 512 119 119 513 126 126 514 120 120 515 126 126 516 127 127 517 120 120 518 120 120 519 127 127 520 121 121 521 127 127 522 128 128 523 121 121 524 128 128 525 129 129 526 121 121 527 121 121 528 129 129 529 112 112 530 129 129 531 113 113 532 112 112 533 104 104 534 103 103 535 130 130 536 103 103 537 131 131 538 130 130 539 130 130 540 131 131 541 132 132 542 131 131 543 133 133 544 132 132 545 132 132 546 133 133 547 134 134 548 134 134 549 133 133 550 135 135 551 133 133 552 136 136 553 135 135 554 135 135 555 136 136 556 125 125 557 136 136 558 137 137 559 125 125 560 125 125 561 137 137 562 126 126 563 137 137 564 138 138 565 126 126 566 126 126 567 138 138 568 127 127 569 138 138 570 139 139 571 127 127 572 127 127 573 139 139 574 128 128 575 115 115 576 113 113 577 140 140 578 113 113 579 129 129 580 140 140 581 140 140 582 129 129 583 141 141 584 129 129 585 128 128 586 141 141 587 141 141 588 128 128 589 142 142 590 128 128 591 139 139 592 142 142 593 142 142 594 139 139 595 143 143 596 143 143 597 139 139 598 144 144 599 139 139 600 138 138 601 144 144 602 144 144 603 138 138 604 145 145 605 138 138 606 137 137 607 145 145 608 145 145 609 137 137 610 146 146 611 137 137 612 136 136 613 146 146 614 146 146 615 136 136 616 147 147 617 136 136 618 133 133 619 147 147 620 147 147 621 133 133 622 148 148 623 133 133 624 131 131 625 148 148 626 148 148 627 131 131 628 149 149 629 131 131 630 103 103 631 149 149 632 149 149 633 103 103 634 102 102 635 150 150 636 151 151 637 148 148 638 148 148 639 151 151 640 147 147 641 151 151 642 152 152 643 147 147 644 147 147 645 152 152 646 146 146 647 152 152 648 153 153 649 146 146 650 146 146 651 153 153 652 145 145 653 153 153 654 154 154 655 145 145 656 145 145 657 154 154 658 144 144 659 154 154 660 155 155 661 144 144 662 144 144 663 155 155 664 143 143 665 155 155 666 156 156 667 143 143 668 156 156 669 157 157 670 143 143 671 143 143 672 157 157 673 142 142 674 157 157 675 158 158 676 142 142 677 142 142 678 158 158 679 141 141 680 158 158 681 159 159 682 141 141 683 141 141 684 159 159 685 140 140 686 159 159 687 160 160 688 140 140 689 140 140 690 160 160 691 115 115 692 160 160 693 161 161 694 115 115 695 115 115 696 161 161 697 116 116 698 161 161 699 162 162 700 116 116 701 116 116 702 162 162 703 163 163 704 162 162 705 164 164 706 163 163 707 165 165 708 166 166 709 167 167 710 166 166 711 168 168 712 167 167 713 167 167 714 168 168 715 169 169 716 168 168 717 164 164 718 169 169 719 169 169 720 164 164 721 170 170 722 164 164 723 162 162 724 170 170 725 170 170 726 162 162 727 171 171 728 162 162 729 161 161 730 171 171 731 171 171 732 161 161 733 172 172 734 161 161 735 160 160 736 172 172 737 172 172 738 160 160 739 173 173 740 160 160 741 159 159 742 173 173 743 173 173 744 159 159 745 174 174 746 159 159 747 158 158 748 174 174 749 174 174 750 158 158 751 175 175 752 158 158 753 157 157 754 175 175 755 175 175 756 157 157 757 176 176 758 157 157 759 156 156 760 176 176 761 176 176 762 156 156 763 177 177 764 156 156 765 178 178 766 177 177 767 177 177 768 178 178 769 179 179 770 178 178 771 180 180 772 179 179 773 179 179 774 180 180 775 181 181 776 180 180 777 182 182 778 181 181 779 163 163 780 164 164 781 183 183 782 164 164 783 168 168 784 183 183 785 166 166 786 184 184 787 168 168 788 168 168 789 184 184 790 183 183 791 184 184 792 185 185 793 183 183 794 183 183 795 185 185 796 186 186 797 185 185 798 187 187 799 186 186 800 186 186 801 187 187 802 188 188 803 187 187 804 189 189 805 188 188 806 188 188 807 189 189 808 190 190 809 189 189 810 73 73 811 190 190 812 73 73 813 72 72 814 190 190 815 87 87 816 99 99 817 72 72 818 72 72 819 99 99 820 190 190 821 99 99 822 101 101 823 190 190 824 190 190 825 101 101 826 188 188 827 101 101 828 191 191 829 188 188 830 188 188 831 191 191 832 186 186 833 191 191 834 163 163 835 186 186 836 186 186 837 163 163 838 183 183 839 181 181 840 182 182 841 192 192 842 182 182 843 193 193 844 192 192 845 192 192 846 193 193 847 194 194 848 193 193 849 195 195 850 194 194 851 194 194 852 195 195 853 196 196 854 195 195 855 197 197 856 196 196 857 196 196 858 197 197 859 198 198 860 198 198 861 197 197 862 199 199 863 197 197 864 200 200 865 199 199 866 199 199 867 200 200 868 201 201 869 200 200 870 202 202 871 201 201 872 201 201 873 202 202 874 203 203 875 202 202 876 204 204 877 203 203 878 203 203 879 204 204 880 187 187 881 204 204 882 205 205 883 187 187 884 187 187 885 205 205 886 189 189 887 205 205 888 206 206 889 189 189 890 189 189 891 206 206 892 73 73 893 206 206 894 207 207 895 73 73 896 73 73 897 207 207 898 71 71 899 207 207 900 208 208 901 71 71 902 71 71 903 208 208 904 69 69 905 208 208 906 37 37 907 69 69 908 69 69 909 37 37 910 39 39 911 205 205 912 204 204 913 209 209 914 209 209 915 204 204 916 210 210 917 204 204 918 202 202 919 210 210 920 210 210 921 202 202 922 211 211 923 202 202 924 200 200 925 211 211 926 211 211 927 200 200 928 212 212 929 200 200 930 197 197 931 212 212 932 197 197 933 195 195 934 212 212 935 212 212 936 195 195 937 213 213 938 195 195 939 193 193 940 213 213 941 213 213 942 193 193 943 214 214 944 193 193 945 182 182 946 214 214 947 214 214 948 182 182 949 215 215 950 182 182 951 180 180 952 215 215 953 180 180 954 178 178 955 215 215 956 178 178 957 216 216 958 215 215 959 215 215 960 216 216 961 217 217 962 216 216 963 218 218 964 217 217 965 217 217 966 218 218 967 219 219 968 218 218 969 220 220 970 219 219 971 219 219 972 220 220 973 221 221 974 220 220 975 222 222 976 221 221 977 209 209 978 210 210 979 223 223 980 210 210 981 224 224 982 223 223 983 223 223 984 224 224 985 225 225 986 224 224 987 226 226 988 225 225 989 225 225 990 226 226 991 221 221 992 221 221 993 226 226 994 219 219 995 226 226 996 227 227 997 219 219 998 219 219 999 227 227 1000 217 217 1001 227 227 1002 214 214 1003 217 217 1004 217 217 1005 214 214 1006 215 215 1007 210 210 1008 211 211 1009 224 224 1010 211 211 1011 228 228 1012 224 224 1013 224 224 1014 228 228 1015 226 226 1016 226 226 1017 228 228 1018 227 227 1019 228 228 1020 213 213 1021 227 227 1022 227 227 1023 213 213 1024 214 214 1025 213 213 1026 228 228 1027 212 212 1028 228 228 1029 211 211 1030 212 212 1031 152 152 1032 151 151 1033 222 222 1034 151 151 1035 229 229 1036 222 222 1037 222 222 1038 229 229 1039 221 221 1040 229 229 1041 230 230 1042 221 221 1043 221 221 1044 230 230 1045 225 225 1046 230 230 1047 231 231 1048 225 225 1049 225 225 1050 231 231 1051 223 223 1052 231 231 1053 232 232 1054 223 223 1055 223 223 1056 232 232 1057 209 209 1058 232 232 1059 233 233 1060 209 209 1061 209 209 1062 233 233 1063 205 205 1064 205 205 1065 233 233 1066 206 206 1067 233 233 1068 234 234 1069 206 206 1070 206 206 1071 234 234 1072 207 207 1073 234 234 1074 235 235 1075 207 207 1076 207 207 1077 235 235 1078 208 208 1079 235 235 1080 236 236 1081 208 208 1082 208 208 1083 236 236 1084 37 37 1085 236 236 1086 237 237 1087 37 37 1088 37 37 1089 237 237 1090 38 38 1091 237 237 1092 238 238 1093 38 38 1094 38 38 1095 238 238 1096 41 41 1097 238 238 1098 239 239 1099 41 41 1100 41 41 1101 239 239 1102 43 43 1103 151 151 1104 150 150 1105 229 229 1106 150 150 1107 240 240 1108 229 229 1109 229 229 1110 240 240 1111 230 230 1112 240 240 1113 241 241 1114 230 230 1115 230 230 1116 241 241 1117 231 231 1118 241 241 1119 242 242 1120 231 231 1121 231 231 1122 242 242 1123 232 232 1124 242 242 1125 243 243 1126 232 232 1127 232 232 1128 243 243 1129 233 233 1130 233 233 1131 243 243 1132 234 234 1133 243 243 1134 244 244 1135 234 234 1136 234 234 1137 244 244 1138 235 235 1139 244 244 1140 245 245 1141 235 235 1142 235 235 1143 245 245 1144 236 236 1145 245 245 1146 246 246 1147 236 236 1148 236 236 1149 246 246 1150 237 237 1151 246 246 1152 247 247 1153 237 237 1154 237 237 1155 247 247 1156 238 238 1157 247 247 1158 248 248 1159 238 238 1160 238 238 1161 248 248 1162 239 239 1163 150 150 1164 249 249 1165 240 240 1166 249 249 1167 250 250 1168 240 240 1169 240 240 1170 250 250 1171 241 241 1172 250 250 1173 251 251 1174 241 241 1175 241 241 1176 251 251 1177 242 242 1178 251 251 1179 252 252 1180 242 242 1181 242 242 1182 252 252 1183 243 243 1184 243 243 1185 252 252 1186 244 244 1187 252 252 1188 253 253 1189 244 244 1190 244 244 1191 253 253 1192 245 245 1193 253 253 1194 254 254 1195 245 245 1196 245 245 1197 254 254 1198 246 246 1199 254 254 1200 255 255 1201 246 246 1202 246 246 1203 255 255 1204 247 247 1205 255 255 1206 256 256 1207 247 247 1208 247 247 1209 256 256 1210 248 248 1211 249 249 1212 257 257 1213 250 250 1214 257 257 1215 258 258 1216 250 250 1217 250 250 1218 258 258 1219 251 251 1220 258 258 1221 259 259 1222 251 251 1223 251 251 1224 259 259 1225 252 252 1226 252 252 1227 259 259 1228 253 253 1229 259 259 1230 260 260 1231 253 253 1232 253 253 1233 260 260 1234 254 254 1235 260 260 1236 261 261 1237 254 254 1238 254 254 1239 261 261 1240 255 255 1241 261 261 1242 262 262 1243 255 255 1244 255 255 1245 262 262 1246 256 256 1247 262 262 1248 261 261 1249 263 263 1250 261 261 1251 264 264 1252 263 263 1253 263 263 1254 264 264 1255 265 265 1256 265 265 1257 264 264 1258 266 266 1259 264 264 1260 267 267 1261 266 266 1262 266 266 1263 267 267 1264 268 268 1265 268 268 1266 267 267 1267 257 257 1268 257 257 1269 267 267 1270 258 258 1271 258 258 1272 267 267 1273 259 259 1274 259 259 1275 267 267 1276 260 260 1277 267 267 1278 264 264 1279 260 260 1280 260 260 1281 264 264 1282 261 261 1283 148 148 1284 149 149 1285 150 150 1286 150 150 1287 149 149 1288 249 249 1289 149 149 1290 102 102 1291 249 249 1292 249 249 1293 102 102 1294 257 257 1295 102 102 1296 88 88 1297 257 257 1298 257 257 1299 88 88 1300 268 268 1301 88 88 1302 75 75 1303 268 268 1304 268 268 1305 75 75 1306 266 266 1307 75 75 1308 74 74 1309 266 266 1310 266 266 1311 74 74 1312 265 265 1313 74 74 1314 269 269 1315 265 265 1316 265 265 1317 269 269 1318 263 263 1319 269 269 1320 270 270 1321 263 263 1322 270 270 1323 271 271 1324 263 263 1325 263 263 1326 271 271 1327 262 262 1328 271 271 1329 272 272 1330 262 262 1331 262 262 1332 272 272 1333 256 256 1334 272 272 1335 273 273 1336 256 256 1337 256 256 1338 273 273 1339 248 248 1340 273 273 1341 274 274 1342 248 248 1343 248 248 1344 274 274 1345 239 239 1346 274 274 1347 275 275 1348 239 239 1349 239 239 1350 275 275 1351 43 43 1352 275 275 1353 45 45 1354 43 43 1355 59 59 1356 34 34 1357 76 76 1358 34 34 1359 276 276 1360 76 76 1361 76 76 1362 276 276 1363 74 74 1364 276 276 1365 277 277 1366 74 74 1367 74 74 1368 277 277 1369 278 278 1370 277 277 1371 279 279 1372 278 278 1373 279 279 1374 280 280 1375 278 278 1376 280 280 1377 281 281 1378 278 278 1379 278 278 1380 281 281 1381 269 269 1382 281 281 1383 282 282 1384 269 269 1385 269 269 1386 282 282 1387 270 270 1388 282 282 1389 283 283 1390 270 270 1391 270 270 1392 283 283 1393 271 271 1394 283 283 1395 284 284 1396 271 271 1397 271 271 1398 284 284 1399 272 272 1400 284 284 1401 285 285 1402 272 272 1403 272 272 1404 285 285 1405 273 273 1406 285 285 1407 286 286 1408 273 273 1409 273 273 1410 286 286 1411 274 274 1412 286 286 1413 287 287 1414 274 274 1415 274 274 1416 287 287 1417 275 275 1418 287 287 1419 288 288 1420 275 275 1421 275 275 1422 288 288 1423 45 45 1424 288 288 1425 47 47 1426 45 45 1427 269 269 1428 74 74 1429 278 278 1430 289 289 1431 290 290 1432 291 291 1433 290 290 1434 292 292 1435 291 291 1436 292 292 1437 293 293 1438 291 291 1439 293 293 1440 294 294 1441 291 291 1442 291 291 1443 294 294 1444 295 295 1445 296 296 1446 297 297 1447 298 298 1448 297 297 1449 299 299 1450 298 298 1451 299 299 1452 300 300 1453 298 298 1454 300 300 1455 301 301 1456 298 298 1457 301 301 1458 302 302 1459 298 298 1460 302 302 1461 303 303 1462 298 298 1463 303 303 1464 304 304 1465 298 298 1466 304 304 1467 305 305 1468 298 298 1469 305 305 1470 306 306 1471 298 298 1472 306 306 1473 307 307 1474 298 298 1475 307 307 1476 308 308 1477 298 298 1478 308 308 1479 309 309 1480 298 298 1481 298 298 1482 309 309 1483 289 310 1484 100 100 1485 114 114 1486 101 101 1487 101 101 1488 114 114 1489 191 191 1490 114 114 1491 116 116 1492 191 191 1493 191 191 1494 116 116 1495 163 163 1496 178 178 1497 156 156 1498 216 216 1499 156 156 1500 155 155 1501 216 216 1502 155 155 1503 310 311 1504 216 216 1505 216 216 1506 310 311 1507 311 312 1508 310 311 1509 153 153 1510 311 312 1511 311 312 1512 153 153 1513 312 313 1514 312 313 1515 153 153 1516 313 314 1517 153 153 1518 152 152 1519 313 314 1520 314 315 1521 315 316 1522 316 317 1523 315 316 1524 317 318 1525 316 317 1526 316 317 1527 317 318 1528 318 319 1529 317 318 1530 319 320 1531 318 319 1532 318 319 1533 319 320 1534 320 321 1535 320 321 1536 319 320 1537 321 322 1538 319 320 1539 322 323 1540 321 322 1541 322 323 1542 323 324 1543 321 322 1544 321 322 1545 323 324 1546 324 325 1547 323 324 1548 325 326 1549 324 325 1550 324 325 1551 325 326 1552 326 327 1553 326 327 1554 325 326 1555 327 328 1556 325 326 1557 328 329 1558 327 328 1559 327 328 1560 328 329 1561 329 330 1562 330 331 1563 331 332 1564 332 333 1565 331 332 1566 333 334 1567 332 333 1568 332 333 1569 333 334 1570 334 335 1571 333 334 1572 335 336 1573 334 335 1574 334 335 1575 335 336 1576 336 337 1577 335 336 1578 337 338 1579 336 337 1580 336 337 1581 337 338 1582 338 339 1583 337 338 1584 339 340 1585 338 339 1586 338 339 1587 339 340 1588 340 341 1589 339 340 1590 341 342 1591 340 341 1592 340 341 1593 341 342 1594 342 343 1595 341 342 1596 343 344 1597 342 343 1598 342 343 1599 343 344 1600 344 345 1601 343 344 1602 345 346 1603 344 345 1604 344 345 1605 345 346 1606 346 347 1607 345 346 1608 347 348 1609 346 347 1610 348 349 1611 349 350 1612 350 351 1613 349 350 1614 351 352 1615 350 351 1616 350 351 1617 351 352 1618 352 353 1619 351 352 1620 353 354 1621 352 353 1622 352 353 1623 353 354 1624 354 355 1625 353 354 1626 355 356 1627 354 355 1628 354 355 1629 355 356 1630 356 357 1631 355 356 1632 357 358 1633 356 357 1634 356 357 1635 357 358 1636 358 359 1637 357 358 1638 359 360 1639 358 359 1640 358 359 1641 359 360 1642 360 361 1643 359 360 1644 361 362 1645 360 361 1646 360 361 1647 361 362 1648 362 363 1649 361 362 1650 363 364 1651 362 363 1652 362 363 1653 363 364 1654 364 365 1655 363 364 1656 365 366 1657 364 365 1658 366 367 1659 367 368 1660 368 369 1661 367 368 1662 369 370 1663 368 369 1664 368 369 1665 369 370 1666 370 371 1667 369 370 1668 371 372 1669 370 371 1670 370 371 1671 371 372 1672 372 373 1673 371 372 1674 373 374 1675 372 373 1676 372 373 1677 373 374 1678 374 375 1679 373 374 1680 375 376 1681 374 375 1682 374 375 1683 375 376 1684 376 377 1685 375 376 1686 377 378 1687 376 377 1688 376 377 1689 377 378 1690 378 379 1691 377 378 1692 379 380 1693 378 379 1694 378 379 1695 379 380 1696 380 381 1697 379 380 1698 381 382 1699 380 381 1700 380 381 1701 381 382 1702 382 383 1703 381 382 1704 383 384 1705 382 383 1706 384 385 1707 385 386 1708 386 387 1709 385 386 1710 387 388 1711 386 387 1712 386 387 1713 387 388 1714 388 389 1715 387 388 1716 389 390 1717 388 389 1718 388 389 1719 389 390 1720 390 391 1721 389 390 1722 391 392 1723 390 391 1724 390 391 1725 391 392 1726 392 393 1727 391 392 1728 393 394 1729 392 393 1730 392 393 1731 393 394 1732 394 395 1733 393 394 1734 395 396 1735 394 395 1736 394 395 1737 395 396 1738 396 397 1739 395 396 1740 397 398 1741 396 397 1742 396 397 1743 397 398 1744 398 399 1745 397 398 1746 399 400 1747 398 399 1748 398 399 1749 399 400 1750 400 401 1751 399 400 1752 401 402 1753 400 401 1754 402 403 1755 403 404 1756 404 405 1757 403 406 1758 405 407 1759 406 408 1760 405 407 1761 407 409 1762 406 408 1763 406 408 1764 407 409 1765 408 410 1766 409 411 1767 410 412 1768 411 413 1769 412 414 1770 411 415 1771 413 416 1772 411 415 1773 414 417 1774 413 416 1775 413 416 1776 414 417 1777 415 418 1778 414 417 1779 416 419 1780 415 418 1781 415 418 1782 416 419 1783 417 420 1784 416 419 1785 418 421 1786 417 420 1787 417 420 1788 418 421 1789 419 422 1790 420 423 1791 421 424 1792 422 425 1793 421 424 1794 423 426 1795 422 425 1796 422 425 1797 423 426 1798 424 427 1799 423 426 1800 425 428 1801 424 427 1802 424 427 1803 425 428 1804 426 429 1805 427 430 1806 428 431 1807 429 432 1808 428 431 1809 430 433 1810 429 432 1811 430 433 1812 431 434 1813 429 432 1814 431 434 1815 432 435 1816 429 432 1817 429 432 1818 432 435 1819 433 436 1820 434 437 1821 435 438 1822 436 439 1823 435 438 1824 437 440 1825 436 439 1826 437 440 1827 438 441 1828 436 439 1829 436 439 1830 438 441 1831 434 437 1832 439 442 1833 440 443 1834 441 444 1835 440 443 1836 442 445 1837 441 444 1838 441 444 1839 442 445 1840 443 446 1841 442 445 1842 444 447 1843 443 446 1844 443 446 1845 444 447 1846 445 448 1847 446 449 1848 447 450 1849 448 451 1850 447 450 1851 449 452 1852 448 451 1853 448 451 1854 449 452 1855 450 453 1856 449 452 1857 451 454 1858 450 453 1859 450 453 1860 451 454 1861 452 455 1862 451 454 1863 453 456 1864 452 455 1865 452 455 1866 453 456 1867 454 457 1868 453 456 1869 455 458 1870 454 457 1871</p>
        </triangles>
      </mesh>
    </geometry>
  </library_geometries>
  <library_visual_scenes>
    <visual_scene id="Scene" name="Scene">
      <node id="Plants_Pot" name="Plants Pot" type="NODE">
        <matrix sid="transform">1 0 0 0 0 7.54979e-8 -1 0 0 1 7.54979e-8 0 0 0 0 1</matrix>
        <instance_geometry url="#Plants_Pot_001-mesh" name="Plants Pot">
          <bind_material>
            <technique_common>
              <instance_material symbol="bu_terracota_pot_002-material" target="#bu_terracota_pot_002-material"/>
            </technique_common>
          </bind_material>
        </instance_geometry>
      </node>
    </visual_scene>
  </library_visual_scenes>
  <scene>
    <instance_visual_scene url="#Scene"/>
  </scene>
</COLLADA>