<?xml version="1.0" encoding="utf-8"?>
<COLLADA xmlns="http://www.collada.org/2005/11/COLLADASchema" version="1.4.1" xmlns:xsi="http://www.w3.org/2001/XMLSchema-instance">
  <asset>
    <contributor>
      <author>Blender User</author>
      <authoring_tool>Blender 4.3.2 commit date:2024-12-16, commit time:21:10, hash:32f5fdce0a0a</authoring_tool>
    </contributor>
    <created>2025-03-06T17:36:39</created>
    <modified>2025-03-06T17:36:39</modified>
    <unit name="meter" meter="1"/>
    <up_axis>Z_UP</up_axis>
  </asset>
  <library_effects>
    <effect id="np_hookduck_001-effect">
      <profile_COMMON>
        <newparam sid="np_rubberduck_diff_png_001-surface">
          <surface type="2D">
            <init_from>np_rubberduck_diff_png_001</init_from>
          </surface>
        </newparam>
        <newparam sid="np_rubberduck_diff_png_001-sampler">
          <sampler2D>
            <source>np_rubberduck_diff_png_001-surface</source>
          </sampler2D>
        </newparam>
        <technique sid="common">
          <lambert>
            <emission>
              <color sid="emission">0 0 0 1</color>
            </emission>
            <diffuse>
              <texture texture="np_rubberduck_diff_png_001-sampler" texcoord="UVMap"/>
            </diffuse>
            <index_of_refraction>
              <float sid="ior">1.5</float>
            </index_of_refraction>
          </lambert>
        </technique>
      </profile_COMMON>
    </effect>
  </library_effects>
  <library_images>
    <image id="np_rubberduck_diff_png_001" name="np_rubberduck_diff_png_001">
      <init_from>np_rubberduck_diff.png</init_from>
    </image>
  </library_images>
  <library_materials>
    <material id="np_hookduck_001-material" name="np_hookduck.001">
      <instance_effect url="#np_hookduck_001-effect"/>
    </material>
  </library_materials>
  <library_geometries>
    <geometry id="Rubber_Hook_Duck-mesh" name="Rubber Hook Duck">
      <mesh>
        <source id="Rubber_Hook_Duck-mesh-positions">
          <float_array id="Rubber_Hook_Duck-mesh-positions-array" count="1080">0.410736 1.029236 1.251433 -0.180299 0.34522 1.040812 0.502948 0.446296 0.990159 1.918158 1.780823 0.117363 1.584876 1.275981 0.625293 1.803101 1.164247 0.15302 1.120801 0.755573 0.785916 1.381974 1.528723 0.718528 0.972103 1.180543 0.976203 0.897593 1.681781 0.897913 1.243356 0.575671 0.392576 1.2934 0.504432 6e-6 0.578131 0.224967 0.464364 0.620278 0.141198 6e-6 -0.1375139 0.01520097 6e-6 -0.160842 0.09859699 0.502614 -0.990521 0.09958398 6e-6 -0.954643 0.161777 0.475313 -0.90988 0.411158 0.978565 -0.183585 1.008672 1.299763 -0.183591 1.671614 1.239839 0.38738 1.656332 1.181263 -1.800814 1.218571 -0.487733 -1.788174 0.91288 -0.413921 -1.92706 1.22838 5e-6 -1.867592 0.871659 5e-6 -1.591638 0.428294 5e-6 -1.528249 0.452508 -0.382087 -1.528249 0.452508 0.382098 -1.438577 0.62031 0.813597 -0.881913 1.02763 1.221781 -0.893959 1.644025 1.165527 -0.200619 2.090068 0.984471 -0.933073 2.04448 0.940346 -1.396284 1.552825 0.977684 -1.447204 1.849018 0.793714 -1.705353 1.491789 0.574197 -1.571893 2.043148 5e-6 -1.835051 1.628762 5e-6 -1.800814 1.218571 0.487743 -1.788175 0.91288 0.413932 -1.385037 1.088862 1.050941 -1.705352 1.491789 -0.574187 -1.447204 1.849018 -0.793704 -1.396284 1.552825 -0.977673 -1.385036 1.088861 -1.05093 -1.438577 0.62031 -0.813586 -0.954643 0.161777 -0.475302 -0.160842 0.09859699 -0.502602 0.578131 0.224967 -0.464352 1.243356 0.575671 -0.392564 1.761407 1.177267 -0.306022 1.803101 1.164247 0.15302 1.890283 1.78035 -0.234708 1.918158 1.780823 0.117363 1.814627 2.371472 0.06867897 1.801419 2.369566 -0.137342 -0.881913 1.027629 -1.22177 -0.909879 0.411157 -0.978553 -0.180299 0.34522 -1.0408 0.502948 0.446295 -0.990147 1.120801 0.755573 -0.785904 1.584876 1.275981 -0.625282 1.733143 1.809792 -0.465195 1.712002 2.370263 -0.2163259 1.630624 2.650434 -0.04336994 1.564622 2.673429 -0.05053699 1.576212 2.403179 -0.249169 1.467756 2.450034 -0.217504 1.501198 2.65806 -0.04761195 1.403307 2.479737 -0.144097 1.373193 2.514063 5e-6 1.202559 2.25451 6e-6 1.403307 2.479737 0.1441079 1.22368 2.137181 0.343241 1.641332 2.674274 5e-6 1.563417 2.707441 5e-6 1.489849 2.694348 5e-6 1.501198 2.65806 0.04762297 1.467756 2.450034 0.217515 1.564622 2.673429 0.05054795 1.576212 2.403179 0.249181 1.712002 2.370263 0.216337 1.733143 1.809792 0.465207 1.814627 2.371472 0.06867897 1.542957 1.903088 0.513778 1.351314 2.074403 0.464072 1.630624 2.650434 0.04338097 0.894671 1.927897 0.679171 1.244296 1.870642 0.62012 0.905019 2.092335 0.459685 0.92612 2.188786 6e-6 1.229232 2.179702 -0.29745 1.351314 2.074402 -0.464061 1.212575 2.052139 -0.434789 0.894671 1.927897 -0.67916 0.905019 2.092334 -0.459674 0.409933 2.044104 -0.916593 0.630728 2.270063 -0.513296 0.682279 2.338121 5e-6 0.630728 2.270063 0.513307 0.409933 2.044104 0.916604 -0.200619 2.090068 -0.98446 -0.02270698 2.398866 -0.624788 0.311563 2.457963 -0.318479 0.389145 2.485113 5e-6 0.311563 2.457963 0.31849 -0.02270698 2.398866 0.624798 -0.451459 2.400297 0.725045 -0.961133 2.35261 0.638738 -1.286294 2.330798 5e-6 -0.961133 2.352609 -0.638728 -0.933073 2.044479 -0.940336 -0.893959 1.644024 -1.165517 -0.122306 2.511497 -0.421392 0.07571196 2.536306 -0.215393 0.11412 2.561779 5e-6 0.07571095 2.536306 0.215403 -0.122306 2.511497 0.421402 -0.456185 2.509209 0.549675 -0.791332 2.495611 0.512877 -0.975516 2.47994 0.400346 -1.153318 2.467367 5e-6 -0.975516 2.47994 -0.400335 -0.791332 2.49561 -0.512866 0.47607 3.551058 0.26753 0.261994 3.727619 0.480681 0.291978 3.563124 0.501583 0.215009 3.070713 0.589022 0.490399 3.354322 0.268273 0.306397 3.37408 0.550849 -0.126011 3.416668 0.833034 -0.113239 3.733409 0.69019 -0.572183 3.469218 0.738457 -0.112509 3.52581 0.723361 0.131226 4.009496 0.335576 -0.13196 4.081369 0.48766 0.234349 4.072409 0.169046 -0.06857496 4.266569 0.136541 -0.327783 4.318919 0.216175 -0.07280397 4.309699 5e-6 0.24685 4.116367 5e-6 0.234349 4.072409 -0.169036 0.435844 3.755626 -0.224264 0.131226 4.009496 -0.335567 0.261994 3.727619 -0.480671 0.47607 3.551058 -0.26752 0.291978 3.563124 -0.501574 0.306397 3.374079 -0.550839 0.490399 3.354322 -0.268263 0.215009 3.070713 -0.589011 0.376236 3.02218 -0.264141 0.116079 2.813627 -0.394672 -0.576101 3.694883 0.705418 -0.610303 4.038836 0.50152 -0.605183 4.296588 0.214112 -0.348525 4.360099 5e-6 -0.327783 4.318919 -0.216166 -0.06857496 4.266569 -0.1365309 -0.04051494 4.0614 -0.456463 -0.01111799 3.72747 -0.647445 -0.004969954 3.533209 -0.678572 0.01441395 3.404713 -0.805779 -0.003937959 3.097758 -0.815915 -0.08033698 2.786942 -0.657006 0.03146797 2.707747 -0.246621 -0.135709 2.680413 -0.445082 -0.478906 4.070624 -0.512866 -0.223404 4.10134 -0.518838 -0.21536 3.739348 -0.732915 -0.220048 3.518407 -0.768128 -0.266434 3.428621 -0.86027 -0.268288 3.115844 -0.910743 -0.298277 2.770761 -0.777221 -0.334044 2.665462 -0.555004 -0.362833 2.511015 -0.537839 -0.122306 2.511497 -0.421392 0.07571196 2.536306 -0.215393 0.08357501 2.67427 5e-6 0.11412 2.561779 5e-6 0.07571095 2.536306 0.215403 0.03146797 2.707747 0.246632 -0.122306 2.511497 0.421402 0.410143 2.973157 5e-6 0.190957 2.741644 5e-6 0.116079 2.813627 0.394683 0.376236 3.02218 0.264152 0.537434 3.323537 5e-6 0.523718 3.525303 5e-6 0.471419 3.785808 5e-6 0.435844 3.755626 0.224274 -0.136113 3.1068 0.863339 -0.189307 2.778852 0.717124 -0.234876 2.672938 0.500053 -0.669835 2.772427 0.768534 -0.677482 2.663452 0.549927 -1.072281 2.830384 0.606219 -1.096549 2.735856 0.347414 -1.441375 2.960383 0.412751 -1.465311 2.907333 0.255594 -1.187137 2.696031 5e-6 -1.474966 2.886642 5e-6 -1.465311 2.907333 -0.255584 -1.096549 2.735856 -0.347404 -1.441375 2.960383 -0.412741 -1.072281 2.830383 -0.606209 -1.074846 3.047966 -0.736176 -1.397268 3.053262 -0.488687 -1.35557 3.117438 -0.592998 -1.003658 3.251089 -0.710131 -1.059659 3.03627 0.736796 -1.397268 3.053262 0.488696 -1.688384 3.212225 0.266081 -1.767653 3.161013 0.23256 -1.798132 3.083758 0.12364 -1.83291 3.068791 5e-6 -1.798132 3.083758 -0.12363 -1.767653 3.161013 -0.23255 -1.688384 3.212225 -0.266071 -1.592045 3.268092 -0.248148 -1.865259 3.193988 -0.127615 -1.910717 3.194008 5e-6 -1.813575 3.255722 -0.130459 -1.859228 3.255787 5e-6 -1.619082 3.342306 -0.126275 -1.708677 3.399038 -0.300329 -1.806008 3.572122 -0.17026 -1.633535 3.363837 5e-6 -1.619082 3.342306 0.126285 -1.813575 3.255722 0.130468 -1.592045 3.268092 0.248158 -1.408572 3.149756 0.547086 -1.708677 3.399038 0.300339 -1.806008 3.572122 0.170269 -1.824195 3.626961 0.08187896 -1.831882 3.639109 5e-6 -1.824195 3.626961 -0.081869 -1.732348 3.652431 -0.182569 -1.602535 3.446346 -0.312116 -1.772088 3.743118 5e-6 -1.764306 3.724268 -0.08581596 -1.590844 3.658959 5e-6 -1.259195 3.081203 0.670049 -1.354261 3.237741 0.51772 -1.602535 3.446346 0.312126 -1.291305 3.448515 0.29375 -1.732348 3.652431 0.182579 -1.355778 3.562716 0.112054 -1.764306 3.724268 0.08582597 -1.299033 3.223663 -0.577266 -1.291304 3.453794 -0.29374 -1.334188 3.562716 -0.112045 -1.34115 3.638869 5e-6 -1.173021 3.766749 0.126682 -1.077289 3.590516 0.358545 -1.244643 3.346031 0.442935 -1.243806 3.209589 0.636832 -1.003658 3.25109 0.710141 -0.600148 3.3891 0.835905 -0.621806 3.100115 0.88482 -1.009 3.369396 -0.578813 -1.079767 3.592401 -0.359178 -1.173919 3.765586 -0.127165 -1.205366 3.820584 5e-6 -1.05373 4.017992 0.1594589 -0.914898 3.865176 0.446714 -0.889598 3.565588 0.636469 -0.999155 3.31839 0.629129 -1.019772 3.417264 0.525179 -1.204705 3.289356 0.556063 -0.889598 3.565588 -0.636459 -0.914897 3.865175 -0.446705 -1.05373 4.017992 -0.1594499 -1.107113 4.028091 5e-6 -0.860912 4.18267 0.193679 -0.666769 4.323857 5e-6 -0.605183 4.296588 -0.214103 -0.7417 4.007043 -0.490154 -0.860912 4.18267 -0.19367 -0.958165 4.19588 5e-6 -0.701017 3.67114 -0.688478 -0.451185 3.718627 -0.722338 -0.695044 3.440288 -0.719296 -0.449322 3.498147 -0.757597 -0.72997 3.352856 -0.815966 -0.470326 3.425341 -0.855823 -0.741879 3.090399 -0.860765 -0.501732 3.109828 -0.908854 -0.551614 2.765388 -0.789395 -0.788056 2.779464 -0.747653 -0.79307 2.668375 -0.52299 -0.561895 2.658528 -0.576844 -0.791332 2.49561 -0.512866 -0.549536 2.507403 -0.561489 -0.975516 2.47994 -0.400335 -1.153318 2.467367 5e-6 -0.975516 2.47994 0.400346 -0.791332 2.495611 0.512877 -0.456185 2.509209 0.549675 -0.3382 4.347564 0.02431195 -0.308361 4.508946 0.02431195 -0.37297 4.353991 0.002060949 -0.343131 4.515374 0.002060949 -0.337774 4.347482 -0.01948595 -0.307934 4.508867 -0.01948595 -0.3382 4.347564 0.02431195 -0.308361 4.508946 0.02431195 -1.865259 3.193988 0.127625 -0.140901 4.741752 0.02358597 -0.195608 4.806107 0.02392399 -0.174609 4.725728 -0.042988 -0.216883 4.775456 -0.04272699 -0.275162 4.834488 0.025931 -0.278356 4.797387 -0.04117596 -0.358246 4.819289 0.029069 -0.342557 4.78564 -0.03875195 -0.422597 4.764584 0.03249698 -0.392282 4.743371 -0.03610295 -0.450973 4.685031 0.03529596 -0.41421 4.681895 -0.03393995 -0.435771 4.601944 0.03671699 -0.402462 4.617692 -0.03284198 -0.381064 4.537589 0.03637897 -0.360189 4.567964 -0.03310298 -0.30151 4.50921 0.03437197 -0.298716 4.546035 -0.03465396 -0.218427 4.524405 0.03123497 -0.234515 4.557777 -0.03707796 -0.154075 4.579112 0.02780699 -0.184789 4.600051 -0.03972697 -0.125699 4.658665 0.02500694 -0.162862 4.661525 -0.04189097 -0.140901 4.741752 0.02358597 -0.174609 4.725728 -0.042988 -0.140901 4.741752 0.02358597 -0.101626 4.760353 -0.02193099 -0.195608 4.806107 0.02392399 -0.170944 4.841895 -0.02175098 -0.275162 4.834488 0.025931 -0.271744 4.877854 -0.02068197 -0.358246 4.819289 0.029069 -0.377016 4.858597 -0.01900994 -0.422597 4.764584 0.03249698 -0.458553 4.78928 -0.01718395 -0.450973 4.685031 0.03529596 -0.494508 4.688482 -0.01569294 -0.435771 4.601944 0.03671699 -0.475245 4.583205 -0.01493597 -0.381064 4.537589 0.03637897 -0.405928 4.501666 -0.01511597 -0.30151 4.50921 0.03437197 -0.305128 4.465703 -0.01618498 -0.218427 4.524405 0.03123497 -0.199856 4.484962 -0.017856 -0.154075 4.579112 0.02780699 -0.118319 4.554276 -0.019683 -0.125699 4.658665 0.02500694 -0.08236396 4.655076 -0.02117395 -0.140901 4.741752 0.02358597 -0.101626 4.760353 -0.02193099</float_array>
          <technique_common>
            <accessor source="#Rubber_Hook_Duck-mesh-positions-array" count="360" stride="3">
              <param name="X" type="float"/>
              <param name="Y" type="float"/>
              <param name="Z" type="float"/>
            </accessor>
          </technique_common>
        </source>
        <source id="Rubber_Hook_Duck-mesh-normals">
          <float_array id="Rubber_Hook_Duck-mesh-normals-array" count="1080">0.2881896 -0.1109104 0.9511287 0.08006507 -0.6868167 0.7224074 0.3946216 -0.6737588 0.6247584 0.9555017 -0.05137962 0.2904767 0.7492182 -0.1309494 0.649249 0.8792919 -0.43148 0.2016705 0.5803879 -0.3380632 0.7408531 0.433815 0.1900177 0.8807372 0.4690203 0.06596827 0.8807204 0.3908083 0.3615276 0.8465027 0.5823441 -0.7231351 0.3714178 0.6136276 -0.7893996 -0.0175898 0.2941067 -0.9127574 0.2835052 0.3204679 -0.9472594 -6.05268e-7 0.1006017 -0.9949269 0 -0.02589178 -0.9559791 0.2922904 -0.2877743 -0.9576984 1.37208e-7 -0.3443903 -0.8757985 0.33819 -0.2077166 -0.6574272 0.7243227 -0.06199336 -0.1527966 0.9863114 0.05077373 0.3308067 0.9423317 0.3379645 0.4381213 0.8329645 -0.8993849 0.05258685 -0.4339833 -0.8944817 -0.3526843 -0.2748023 -0.9980521 -0.06238651 4.80894e-6 -0.9355067 -0.3533092 -1.22341e-6 -0.7761515 -0.6305466 -4.69683e-7 -0.6170088 -0.7483683 -0.243403 -0.6170312 -0.7486709 0.2424138 -0.6218898 -0.4761959 0.6216837 -0.3013959 -0.1390057 0.9433122 -0.178341 0.2958959 0.9384244 -0.020976 0.6079142 0.7937257 -0.2993985 0.5235 0.7976893 -0.4998168 0.2544091 0.8279246 -0.6629125 0.5729624 0.4819349 -0.8456323 0.2845134 0.4516174 -0.8016272 0.5944451 -0.06347405 -0.9491864 0.3147146 -5.38118e-6 -0.8993915 0.06009173 0.4329943 -0.8944957 -0.3534535 0.2737666 -0.6950164 -0.06892454 0.7156826 -0.8456031 0.2830116 -0.4526144 -0.6522181 0.5283997 -0.5435122 -0.4998194 0.2511883 -0.8289059 -0.6949229 -0.05790203 -0.7167493 -0.6218898 -0.4748739 -0.6226941 -0.3443855 -0.8754082 -0.3392037 -0.0257951 -0.9556744 -0.2932938 0.2941086 -0.9124765 -0.284406 0.5774222 -0.7240313 -0.3773095 0.814046 -0.4729056 -0.3371787 0.8794242 -0.4315113 0.2010252 0.9604181 -0.04607576 -0.2747256 0.9556335 -0.05138045 0.2900424 0.8960549 0.3481781 0.2754225 0.7826991 0.4199723 -0.4593533 -0.3581277 -0.1290336 -0.9247134 -0.2525931 -0.7937756 -0.5532786 0.09767687 -0.9058518 -0.4121794 0.4209651 -0.7927677 -0.4408037 0.6691588 -0.5466519 -0.5033867 0.8187053 -0.1733927 -0.547409 0.7407182 0.2240293 -0.6333621 0.4125874 0.5326423 -0.7389614 0.4366874 0.6812895 -0.5874937 0.05280929 0.6894891 -0.7223683 0.14762 0.5901104 -0.7937117 -0.3218913 0.6188286 -0.7165454 -0.5211834 0.6326329 -0.5728382 -0.6970964 0.5925081 -0.4037213 -0.8250803 0.5650156 8.82894e-7 -0.7096496 0.704456 0.01179987 -0.6932002 0.5917073 0.4115288 -0.2516223 0.7927336 0.5552114 0.7180252 0.6953581 -0.03028261 0.2587305 0.9659496 -4.45773e-6 -0.4355297 0.9001744 -4.38862e-6 -0.521175 0.6334854 0.5719029 -0.2652975 0.6157994 0.7418951 0.05281245 0.6905302 0.7213729 0.2187808 0.4937499 0.841633 0.4583705 0.5122476 0.7262912 0.6020599 0.2721336 0.7506447 0.8958423 0.3482952 0.2759659 0.2804279 0.4218828 0.862192 -0.05232143 0.5726041 0.8181608 0.4933972 0.6727892 0.551284 0.3498172 0.6650285 0.659822 0.1584623 0.5898653 0.791801 0.3682654 0.8771945 0.3080753 1.72824e-4 0.9999061 0.01370996 -0.2487424 0.8017145 -0.5434898 -0.3443716 0.6590565 -0.6686202 -0.08631843 0.7358849 -0.6715822 0.3234386 0.7175987 -0.6167979 0.3438816 0.8883853 -0.3041661 0.281409 0.7208154 -0.6334304 0.4231103 0.8215188 -0.3822103 0.5207009 0.8537393 -6.37025e-7 0.4230982 0.8219938 0.3812008 0.245228 0.6354007 0.7322084 0.1290191 0.7204554 -0.6813943 0.2140094 0.8529435 -0.4761171 0.2579131 0.9362615 -0.2385274 0.3887938 0.9213248 1.234e-6 0.2579872 0.9364787 0.2375931 0.195401 0.8428035 0.5014986 0.06045258 0.8138998 0.5778519 -0.3366225 0.7231842 0.6030671 -0.7118086 0.6852373 0.1542028 -0.6169037 0.6796213 -0.3969192 -0.3991118 0.4787174 -0.7820099 -0.3778398 0.2569937 -0.8894894 0.6547626 0.1545812 -0.7398585 0.6780802 0.6301624 -0.3782891 0.4785099 0.8780823 1.81459e-5 0.678132 0.6307187 0.377268 0.4591975 0.4854971 0.743929 0.04005253 0.387898 0.9208317 -0.3650229 0.2408317 0.89931 -0.7351588 0.4551566 0.5023687 -0.9912206 0.101208 -0.08508074 -0.733291 0.2861411 -0.6167719 -0.3893106 0.09711223 -0.9159731 0.8852179 0.2014118 0.419312 0.6633591 0.3705953 0.6500876 0.5394803 0.3195719 0.778996 0.7141372 -0.2715566 0.6451861 0.9271984 -0.1108109 0.3578048 0.7356898 0.0950886 0.6706107 0.278377 0.3670069 0.8875878 0.3028674 0.3208994 0.8973823 -0.1782968 0.548075 0.8172051 0.1875946 0.4387953 0.8787873 0.5597912 0.5376978 0.6304879 0.2559981 0.6758993 0.6911042 0.5522461 0.7294366 0.4036665 0.3820091 0.8360144 0.3938897 0.1113893 0.8968321 0.4281176 0.3820074 0.9241594 6.71949e-7 0.7667388 0.6419592 -1.23946e-5 0.5726217 0.7129762 -0.4046846 0.779768 0.4889627 -0.3909955 0.5813039 0.5295026 -0.6178292 0.6711814 0.3667148 -0.6442328 0.8852085 0.1993947 -0.420295 0.5737586 0.3231523 -0.7525781 0.7679215 0.08077824 -0.6354302 0.927245 -0.1075741 -0.3586707 0.7492523 -0.2839798 -0.5983114 0.8451014 -0.4424279 -0.3001022 0.6448103 -0.6685371 -0.3705102 -0.1539016 0.312301 0.937434 -0.3111501 0.6163685 0.723378 -0.2086217 0.9090332 0.3607434 -0.02296906 0.9997363 2.03028e-7 0.09088158 0.9081868 -0.4085797 0.3723032 0.8279994 -0.4192941 0.4640888 0.6007082 -0.6509771 0.4689965 0.304906 -0.8288996 0.3263071 0.5118113 -0.7947157 0.4913605 0.2382909 -0.8377246 0.5383841 -0.3921016 -0.7459215 0.4514113 -0.7901303 -0.4146351 0.7376911 -0.5187683 -0.432078 0.5403327 -0.3916501 -0.7447488 -0.1617081 0.6584175 -0.7350761 0.2461917 0.7670806 -0.5924331 0.3781085 0.4040547 -0.8329309 0.3672593 0.2298756 -0.9012646 0.2285934 0.5593186 -0.7968111 0.2803971 -0.06059861 -0.9579694 0.3557026 -0.5871462 -0.7271417 0.3498535 -0.7738533 -0.5279714 0.4592297 -0.1425151 -0.876811 0.6546157 0.1543341 -0.7400402 0.6781016 0.6301611 -0.3782529 0.9985203 -0.05438005 -9.67085e-6 0.4785464 0.8780623 -4.66928e-5 0.6780129 0.6308162 0.3773186 0.7181841 -0.5093731 0.4740788 0.459184 0.4856019 0.743869 0.7845618 -0.6200506 -5.74812e-6 0.5989411 -0.8007931 -6.16419e-7 0.6262779 -0.6686916 0.4007839 0.8451008 -0.4431074 0.2990996 0.9721905 -0.2341917 1.91107e-6 0.9936498 0.1125174 0 0.9516069 0.3073182 0 0.7797644 0.4897761 0.3899832 0.3469144 -0.3549228 0.8681476 0.3839741 -0.7719758 0.5065743 0.3147598 -0.4960437 0.8092386 -0.09630846 -0.6467825 0.7565693 -0.2046993 -0.4981215 0.8425992 -0.4060118 -0.7438969 0.5308219 -0.6492197 -0.5178672 0.5570705 -0.5740332 -0.4837741 0.6606427 -0.5330089 -0.793314 0.2942015 -0.6767785 -0.7361868 1.11246e-5 -0.4900338 -0.8717035 0 -0.5329763 -0.7929789 -0.295162 -0.657992 -0.5264315 -0.5384389 -0.5760422 -0.4827692 -0.6596282 -0.4489252 -0.7287205 -0.517139 -0.4782145 -0.2265001 -0.8485333 -0.6921802 -0.313493 -0.6500837 -0.5310081 0.07949453 -0.8436297 -0.427496 0.5261781 -0.735108 -0.4263765 -0.2793311 0.8603355 -0.6307027 -0.3026987 0.7145541 -0.5494273 0.3480412 0.7596033 -0.6541667 -0.3993191 0.6423475 -0.6209143 -0.7047934 0.3431205 -0.7605888 -0.6492339 -6.79812e-5 -0.6209233 -0.7042941 -0.344128 -0.6540957 -0.397825 -0.6433461 -0.5494459 0.3459715 -0.7605347 -0.6893138 0.4570927 -0.5620613 -0.8262016 -0.05211585 -0.5609591 -0.9200014 0.3919153 -1.30553e-5 -0.5458527 0.7208863 -0.4270455 -0.4989492 0.8666313 -2.06754e-6 -0.960006 0.260451 -0.102732 -0.7725756 -0.1154322 -0.6243416 -0.928708 -0.3405291 -0.1467702 -0.9100806 -0.4144315 -7.689e-5 -0.9599835 0.2609321 0.1017159 -0.5457891 0.7214947 0.4260982 -0.807609 0.1876177 0.5590772 -0.7478545 -0.216004 0.6277388 -0.7256378 -0.06467151 0.685031 -0.9287496 -0.3408384 0.1457853 -0.935612 0.243033 0.256057 -0.9931797 -0.1165949 0 -0.9356269 0.2420094 -0.2569705 -0.1558985 0.7076967 -0.6891016 -0.121718 0.5971778 -0.79282 -0.6472858 0.7622473 -1.26013e-6 -0.2008338 0.8718428 -0.4467169 0.3478007 0.9375686 -8.34465e-7 -0.5250536 0.1258813 0.8417081 -0.3511863 0.5736832 0.7399702 -0.1109027 0.5670031 0.8162157 -0.2515893 0.6978778 0.670574 -0.1499959 0.7089347 0.6891393 -0.1422356 0.8756525 0.4615213 -0.200792 0.8723776 0.4456902 -0.3395167 0.6114182 -0.7147701 -0.2653178 0.7030386 -0.6598055 -0.1442761 0.8706772 -0.4702189 -0.629469 0.7769756 -0.008816599 -0.7069255 0.5177085 0.481907 -0.6590288 0.4427106 0.6080201 -0.4371692 0.6892982 0.5777121 -0.4295188 0.6386511 0.6384658 -0.3571133 0.5723478 0.7381654 -0.2651777 0.4137994 0.8708909 -0.08941608 -0.06090104 0.9941307 -0.5134073 0.3262774 -0.7936978 -0.642419 0.4740934 -0.6021074 -0.7205914 0.4994867 -0.4808962 -0.8837286 0.4679997 -3.55206e-6 -0.7342068 0.459846 0.4994818 -0.7067726 0.374378 0.6002614 -0.5671046 0.3918253 0.7244759 -0.4245086 0.4117701 0.8063733 -0.6179744 0.5007699 0.6060835 -0.3473346 0.7213316 0.5991991 -0.524179 0.364904 -0.7694684 -0.7244057 0.3590164 -0.5885097 -0.7537902 0.4489011 -0.4798835 -0.7645603 0.6445522 -1.79745e-6 -0.5329596 0.7513434 0.3891494 -0.3267941 0.9450957 -3.66755e-6 -0.2164104 0.8797764 -0.423273 -0.4499261 0.5680338 -0.6891329 -0.5417736 0.7544689 -0.3704837 -0.5476332 0.8367186 -3.27081e-6 -0.26432 0.2307252 -0.9364299 -0.1822085 0.2300716 -0.955964 -0.3404944 0.4491945 -0.8260073 -0.2759903 0.6738697 -0.6853678 -0.3639208 0.5265324 -0.7683263 -0.2341209 0.3289604 -0.914862 -0.2330142 -0.07339358 -0.9696999 -0.1871116 -0.09716099 -0.977522 -0.1656108 -0.6541285 -0.7380304 -0.3268076 -0.569011 -0.7546014 -0.3054316 -0.7407388 -0.5983458 -0.2125087 -0.2921686 -0.9324579 -0.3892834 0.09712135 -0.9159837 -0.1891148 -0.1201166 -0.9745808 -0.7332906 0.2861073 -0.6167881 -0.9912473 0.1010258 -0.08498609 -0.7351678 0.4551797 0.5023344 -0.3648816 0.2407063 0.8994008 0.04010391 0.3877211 0.9209039 0.9252559 -0.1810002 0.3333773 -0.2234869 0.07781404 0.9715959 -0.7683231 0.1515722 0.6218566 -0.7555364 0.1504582 -0.6375948 -0.204997 0.05064022 -0.9774518 0.9331387 -0.1725267 -0.3154151 0.9253267 -0.1811099 0.3331212 -0.223256 0.07771438 0.9716569 -0.8261486 -0.06180191 0.5600527 -0.8318942 -0.2716777 0.4838836 -0.5807312 -0.6546628 0.4839091 -0.7292619 -0.4837553 0.4838988 -0.3836767 -0.7871491 0.4828962 -0.169349 -0.8597038 0.4819028 0.06822758 -0.875171 0.4789789 0.2864689 -0.8309018 0.4770091 0.5001412 -0.7252702 0.4731194 0.6654241 -0.5789507 0.4711974 0.7962364 -0.3831632 0.4681811 0.8656852 -0.1821253 0.4662827 0.8813219 0.08772456 0.4643018 0.8392072 0.2830854 0.4643211 0.7387597 0.4894647 0.4633125 0.5939221 0.6570326 0.4642894 0.4056625 0.7873009 0.4643223 0.1932097 0.863278 0.4662842 -0.03254389 0.8830177 0.4682102 -0.2566765 0.8438578 0.4711912 -0.464448 0.7486408 0.4731014 -0.6405278 0.6025454 0.4760918 -0.7732509 0.4166526 0.4779995 -0.852532 0.2047321 0.4809098 -0.8730031 -0.06840944 0.4828932 -0.832006 -0.2713374 0.4838823 -0.7295676 -0.4834184 0.4837746 0.694576 0.2279704 0.6823443 0.611589 0.395542 0.6852048 0.497158 0.5334341 0.6843113 0.3430135 0.6456 0.6823068 0.1757425 0.7105508 0.6813459 -0.0189616 0.7389167 0.67353 -0.1980843 0.7130792 0.6725183 -0.3883547 0.6412751 0.6617757 -0.5350542 0.526352 0.6608106 -0.6648046 0.3645452 0.6520289 -0.7352568 0.1885385 0.6510382 -0.7616042 -0.07040393 0.6442069 -0.7292798 -0.2332783 0.6432203 -0.6434195 -0.4166092 0.6422213 -0.5133135 -0.5703234 0.6412804 -0.3425053 -0.6829558 0.6451833 -0.1518386 -0.7487855 0.6451863 0.0467934 -0.7559043 0.6530078 0.2443658 -0.7168518 0.6529999 0.4142714 -0.6217239 0.6647095 0.5619379 -0.4935438 0.6638074 0.6584749 -0.3318333 0.675498 0.7210958 -0.1583376 0.6744999 0.7269044 0.06842631 0.6833212 0.6947405 0.2276152 0.6822954 0.6117556 0.395244 0.6852279</float_array>
          <technique_common>
            <accessor source="#Rubber_Hook_Duck-mesh-normals-array" count="360" stride="3">
              <param name="X" type="float"/>
              <param name="Y" type="float"/>
              <param name="Z" type="float"/>
            </accessor>
          </technique_common>
        </source>
        <source id="Rubber_Hook_Duck-mesh-map">
          <float_array id="Rubber_Hook_Duck-mesh-map-array" count="3522">0.418508 0.303193 0.342883 0.2142249 0.432789 0.220699 0.712745 0.414746 0.605388 0.329197 0.691225 0.294538 0.691225 0.294538 0.605388 0.329197 0.527632 0.253856 0.605388 0.329197 0.57168 0.369834 0.527632 0.253856 0.527632 0.253856 0.57168 0.369834 0.500578 0.319852 0.57168 0.369834 0.495076 0.392288 0.500578 0.319852 0.495076 0.392288 0.418508 0.303193 0.500578 0.319852 0.500578 0.319852 0.418508 0.303193 0.527632 0.253856 0.418508 0.303193 0.432789 0.220699 0.527632 0.253856 0.432789 0.220699 0.575025 0.199113 0.527632 0.253856 0.527632 0.253856 0.575025 0.199113 0.691225 0.294538 0.691225 0.294538 0.575025 0.199113 0.621065 0.147472 0.575025 0.199113 0.463227 0.138881 0.621065 0.147472 0.621065 0.147472 0.463227 0.138881 0.494883 0.06342899 0.494883 0.06342899 0.463227 0.138881 0.339551 0.03997099 0.463227 0.138881 0.341023 0.127819 0.339551 0.03997099 0.339551 0.03997099 0.341023 0.127819 0.177612 0.086169 0.177612 0.086169 0.341023 0.127819 0.218963 0.156417 0.218963 0.156417 0.341023 0.127819 0.251238 0.228604 0.341023 0.127819 0.342883 0.2142249 0.251238 0.228604 0.251238 0.228604 0.342883 0.2142249 0.347185 0.303155 0.342883 0.2142249 0.418508 0.303193 0.347185 0.303155 0.347185 0.303155 0.418508 0.303193 0.349758 0.383253 0.349758 0.383253 0.418508 0.303193 0.418713 0.380854 0.418508 0.303193 0.495076 0.392288 0.418713 0.380854 0.341023 0.127819 0.463227 0.138881 0.342883 0.2142249 0.342883 0.2142249 0.463227 0.138881 0.432789 0.220699 0.463227 0.138881 0.575025 0.199113 0.432789 0.220699 0.10971 0.335176 0.103648 0.287236 0.02646398 0.33925 0.02646398 0.33925 0.103648 0.287236 0.03499299 0.266934 0.03499299 0.266934 0.103648 0.287236 0.07845097 0.174953 0.103648 0.287236 0.133888 0.2102659 0.07845097 0.174953 0.133888 0.2102659 0.177612 0.086169 0.07845097 0.174953 0.07845097 0.174953 0.177612 0.086169 0.133888 0.2102659 0.177612 0.086169 0.218963 0.156417 0.133888 0.2102659 0.133888 0.2102659 0.218963 0.156417 0.18212 0.256216 0.218963 0.156417 0.251238 0.228604 0.18212 0.256216 0.18212 0.256216 0.251238 0.228604 0.26484 0.308642 0.251238 0.228604 0.347185 0.303155 0.26484 0.308642 0.26484 0.308642 0.347185 0.303155 0.264614 0.382078 0.347185 0.303155 0.349758 0.383253 0.264614 0.382078 0.349758 0.383253 0.349256 0.446714 0.264614 0.382078 0.349256 0.446714 0.255204 0.439324 0.264614 0.382078 0.264614 0.382078 0.255204 0.439324 0.199671 0.373739 0.255204 0.439324 0.185214 0.415628 0.199671 0.373739 0.199671 0.373739 0.185214 0.415628 0.132005 0.373931 0.185214 0.415628 0.08568495 0.500093 0.132005 0.373931 0.08568495 0.500093 0.04304897 0.417904 0.132005 0.373931 0.132005 0.373931 0.04304897 0.417904 0.10971 0.335176 0.04304897 0.417904 0.02646398 0.33925 0.10971 0.335176 0.10971 0.335176 0.02646398 0.33925 0.103648 0.287236 0.02646398 0.33925 0.03499299 0.266934 0.103648 0.287236 0.03499299 0.266934 0.07845097 0.174953 0.103648 0.287236 0.07845097 0.174953 0.133888 0.2102659 0.103648 0.287236 0.133888 0.2102659 0.18212 0.256216 0.103648 0.287236 0.103648 0.287236 0.18212 0.256216 0.10971 0.335176 0.18212 0.256216 0.203286 0.317638 0.10971 0.335176 0.10971 0.335176 0.203286 0.317638 0.132005 0.373931 0.132005 0.373931 0.203286 0.317638 0.199671 0.373739 0.199671 0.373739 0.203286 0.317638 0.26484 0.308642 0.203286 0.317638 0.18212 0.256216 0.26484 0.308642 0.02646398 0.33925 0.04304897 0.417904 0.10971 0.335176 0.10971 0.335176 0.04304897 0.417904 0.132005 0.373931 0.04304897 0.417904 0.08568495 0.500093 0.132005 0.373931 0.08568495 0.500093 0.185214 0.415628 0.132005 0.373931 0.185214 0.415628 0.199671 0.373739 0.132005 0.373931 0.199671 0.373739 0.203286 0.317638 0.132005 0.373931 0.132005 0.373931 0.203286 0.317638 0.10971 0.335176 0.203286 0.317638 0.18212 0.256216 0.10971 0.335176 0.10971 0.335176 0.18212 0.256216 0.103648 0.287236 0.103648 0.287236 0.18212 0.256216 0.133888 0.2102659 0.18212 0.256216 0.218963 0.156417 0.133888 0.2102659 0.133888 0.2102659 0.218963 0.156417 0.177612 0.086169 0.218963 0.156417 0.341023 0.127819 0.177612 0.086169 0.177612 0.086169 0.341023 0.127819 0.339551 0.03997099 0.341023 0.127819 0.463227 0.138881 0.339551 0.03997099 0.339551 0.03997099 0.463227 0.138881 0.494883 0.06342899 0.494883 0.06342899 0.463227 0.138881 0.621065 0.147472 0.463227 0.138881 0.575025 0.199113 0.621065 0.147472 0.575025 0.199113 0.66383 0.304034 0.621065 0.147472 0.621065 0.147472 0.66383 0.304034 0.718621 0.285041 0.66383 0.304034 0.689486 0.41296 0.718621 0.285041 0.718621 0.285041 0.689486 0.41296 0.736003 0.416533 0.736003 0.416533 0.689486 0.41296 0.692653 0.532173 0.689486 0.41296 0.671058 0.521097 0.692653 0.532173 0.26484 0.308642 0.251238 0.228604 0.18212 0.256216 0.18212 0.256216 0.251238 0.228604 0.218963 0.156417 0.218963 0.156417 0.251238 0.228604 0.341023 0.127819 0.251238 0.228604 0.342883 0.2142249 0.341023 0.127819 0.341023 0.127819 0.342883 0.2142249 0.463227 0.138881 0.342883 0.2142249 0.432789 0.220699 0.463227 0.138881 0.463227 0.138881 0.432789 0.220699 0.575025 0.199113 0.432789 0.220699 0.527632 0.253856 0.575025 0.199113 0.575025 0.199113 0.527632 0.253856 0.66383 0.304034 0.527632 0.253856 0.605388 0.329197 0.66383 0.304034 0.66383 0.304034 0.605388 0.329197 0.689486 0.41296 0.605388 0.329197 0.6406 0.415386 0.689486 0.41296 0.689486 0.41296 0.6406 0.415386 0.671058 0.521097 0.6406 0.415386 0.651265 0.517066 0.671058 0.521097 0.671058 0.521097 0.651265 0.517066 0.644602 0.571393 0.644602 0.571393 0.651265 0.517066 0.633227 0.574621 0.651265 0.517066 0.628576 0.522063 0.633227 0.574621 0.628576 0.522063 0.613235 0.533109 0.633227 0.574621 0.633227 0.574621 0.613235 0.533109 0.622506 0.573722 0.613235 0.533109 0.603464 0.544753 0.622506 0.573722 0.622506 0.573722 0.603464 0.544753 0.593302 0.563636 0.603464 0.544753 0.559989 0.541839 0.593302 0.563636 0.593302 0.563636 0.559989 0.541839 0.603464 0.544753 0.559989 0.541839 0.563757 0.490523 0.603464 0.544753 0.692653 0.532173 0.671058 0.521097 0.648368 0.579298 0.671058 0.521097 0.644602 0.571393 0.648368 0.579298 0.648368 0.579298 0.644602 0.571393 0.63385 0.584888 0.644602 0.571393 0.633227 0.574621 0.63385 0.584888 0.63385 0.584888 0.633227 0.574621 0.620717 0.583656 0.633227 0.574621 0.622506 0.573722 0.620717 0.583656 0.622506 0.573722 0.593302 0.563636 0.620717 0.583656 0.620717 0.583656 0.593302 0.563636 0.622506 0.573722 0.593302 0.563636 0.603464 0.544753 0.622506 0.573722 0.603464 0.544753 0.613235 0.533109 0.622506 0.573722 0.622506 0.573722 0.613235 0.533109 0.633227 0.574621 0.613235 0.533109 0.628576 0.522063 0.633227 0.574621 0.633227 0.574621 0.628576 0.522063 0.651265 0.517066 0.628576 0.522063 0.6406 0.415386 0.651265 0.517066 0.651265 0.517066 0.6406 0.415386 0.681855 0.526635 0.681855 0.526635 0.6406 0.415386 0.712745 0.414746 0.712745 0.414746 0.6406 0.415386 0.605388 0.329197 0.605388 0.329197 0.6406 0.415386 0.57168 0.369834 0.57168 0.369834 0.6406 0.415386 0.609238 0.431934 0.6406 0.415386 0.628576 0.522063 0.609238 0.431934 0.609238 0.431934 0.628576 0.522063 0.58379 0.467201 0.628576 0.522063 0.613235 0.533109 0.58379 0.467201 0.58379 0.467201 0.613235 0.533109 0.563757 0.490523 0.613235 0.533109 0.603464 0.544753 0.563757 0.490523 0.622506 0.573722 0.633227 0.574621 0.620717 0.583656 0.620717 0.583656 0.633227 0.574621 0.63385 0.584888 0.633227 0.574621 0.644602 0.571393 0.63385 0.584888 0.63385 0.584888 0.644602 0.571393 0.648368 0.579298 0.648368 0.579298 0.644602 0.571393 0.681855 0.526635 0.681855 0.526635 0.644602 0.571393 0.651265 0.517066 0.644602 0.571393 0.633227 0.574621 0.651265 0.517066 0.418713 0.380854 0.495076 0.392288 0.502771 0.439402 0.502771 0.439402 0.495076 0.392288 0.557498 0.42879 0.495076 0.392288 0.57168 0.369834 0.557498 0.42879 0.57168 0.369834 0.609238 0.431934 0.557498 0.42879 0.609238 0.431934 0.58379 0.467201 0.557498 0.42879 0.58379 0.467201 0.563757 0.490523 0.557498 0.42879 0.557498 0.42879 0.563757 0.490523 0.502771 0.439402 0.502771 0.439402 0.563757 0.490523 0.510915 0.479657 0.510915 0.479657 0.563757 0.490523 0.526055 0.541278 0.563757 0.490523 0.559989 0.541839 0.526055 0.541278 0.526055 0.541278 0.559989 0.541839 0.565892 0.500249 0.559989 0.541839 0.603464 0.544753 0.565892 0.500249 0.603464 0.544753 0.613235 0.533109 0.565892 0.500249 0.613235 0.533109 0.58379 0.467201 0.565892 0.500249 0.58379 0.467201 0.559486 0.471071 0.565892 0.500249 0.559486 0.471071 0.502771 0.439402 0.565892 0.500249 0.502771 0.439402 0.510915 0.479657 0.565892 0.500249 0.565892 0.500249 0.510915 0.479657 0.526055 0.541278 0.426948 0.439502 0.465248 0.493216 0.502771 0.439402 0.502771 0.439402 0.465248 0.493216 0.510915 0.479657 0.465248 0.493216 0.492108 0.555114 0.510915 0.479657 0.510915 0.479657 0.492108 0.555114 0.526055 0.541278 0.526055 0.541278 0.492108 0.555114 0.510915 0.479657 0.492108 0.555114 0.465248 0.493216 0.510915 0.479657 0.510915 0.479657 0.465248 0.493216 0.502771 0.439402 0.465248 0.493216 0.426948 0.439502 0.502771 0.439402 0.502771 0.439402 0.426948 0.439502 0.418713 0.380854 0.418713 0.380854 0.426948 0.439502 0.349758 0.383253 0.426948 0.439502 0.349256 0.446714 0.349758 0.383253 0.349256 0.446714 0.375978 0.506927 0.426948 0.439502 0.426948 0.439502 0.375978 0.506927 0.465248 0.493216 0.375978 0.506927 0.429096 0.536311 0.465248 0.493216 0.429096 0.536311 0.452633 0.572731 0.465248 0.493216 0.465248 0.493216 0.452633 0.572731 0.492108 0.555114 0.492108 0.555114 0.452633 0.572731 0.465248 0.493216 0.452633 0.572731 0.429096 0.536311 0.465248 0.493216 0.429096 0.536311 0.375978 0.506927 0.465248 0.493216 0.465248 0.493216 0.375978 0.506927 0.426948 0.439502 0.426948 0.439502 0.375978 0.506927 0.349256 0.446714 0.375978 0.506927 0.316439 0.499217 0.349256 0.446714 0.316439 0.499217 0.241877 0.496981 0.349256 0.446714 0.349256 0.446714 0.241877 0.496981 0.255204 0.439324 0.255204 0.439324 0.241877 0.496981 0.185214 0.415628 0.241877 0.496981 0.135219 0.557718 0.185214 0.415628 0.185214 0.415628 0.135219 0.557718 0.08568495 0.500093 0.135219 0.557718 0.241877 0.496981 0.08568495 0.500093 0.08568495 0.500093 0.241877 0.496981 0.185214 0.415628 0.241877 0.496981 0.255204 0.439324 0.185214 0.415628 0.185214 0.415628 0.255204 0.439324 0.199671 0.373739 0.255204 0.439324 0.264614 0.382078 0.199671 0.373739 0.264614 0.382078 0.26484 0.308642 0.199671 0.373739 0.199671 0.373739 0.26484 0.308642 0.203286 0.317638 0.26484 0.308642 0.18212 0.256216 0.203286 0.317638 0.365588 0.541122 0.39987 0.561378 0.375978 0.506927 0.375978 0.506927 0.39987 0.561378 0.429096 0.536311 0.39987 0.561378 0.422899 0.584756 0.429096 0.536311 0.429096 0.536311 0.422899 0.584756 0.452633 0.572731 0.452633 0.572731 0.422899 0.584756 0.429096 0.536311 0.422899 0.584756 0.39987 0.561378 0.429096 0.536311 0.429096 0.536311 0.39987 0.561378 0.375978 0.506927 0.39987 0.561378 0.365588 0.541122 0.375978 0.506927 0.375978 0.506927 0.365588 0.541122 0.316439 0.499217 0.365588 0.541122 0.315491 0.528099 0.316439 0.499217 0.316439 0.499217 0.315491 0.528099 0.241877 0.496981 0.315491 0.528099 0.263722 0.529827 0.241877 0.496981 0.263722 0.529827 0.228345 0.538393 0.241877 0.496981 0.241877 0.496981 0.228345 0.538393 0.135219 0.557718 0.228345 0.538393 0.1615 0.581598 0.135219 0.557718 0.135219 0.557718 0.1615 0.581598 0.241877 0.496981 0.1615 0.581598 0.228345 0.538393 0.241877 0.496981 0.228345 0.538393 0.263722 0.529827 0.241877 0.496981 0.199671 0.373739 0.26484 0.308642 0.264614 0.382078 0.604127 0.826699 0.555911 0.845909 0.560177 0.822324 0.549316 0.749943 0.609095 0.796467 0.559363 0.794373 0.609095 0.796467 0.604127 0.826699 0.559363 0.794373 0.604127 0.826699 0.560177 0.822324 0.559363 0.794373 0.559363 0.794373 0.560177 0.822324 0.489745 0.792876 0.496981 0.841246 0.428813 0.808926 0.496008 0.812722 0.428813 0.808926 0.489745 0.792876 0.496008 0.812722 0.489745 0.792876 0.560177 0.822324 0.496008 0.812722 0.496008 0.812722 0.560177 0.822324 0.496981 0.841246 0.560177 0.822324 0.555911 0.845909 0.496981 0.841246 0.555911 0.845909 0.54558 0.895519 0.496981 0.841246 0.496981 0.841246 0.54558 0.895519 0.50108 0.896293 0.54558 0.895519 0.571618 0.914332 0.50108 0.896293 0.571618 0.914332 0.525142 0.950043 0.50108 0.896293 0.50108 0.896293 0.525142 0.950043 0.481593 0.956901 0.481593 0.956901 0.525142 0.950043 0.516069 0.980618 0.525142 0.950043 0.571618 0.914332 0.516069 0.980618 0.571618 0.914332 0.589673 0.938144 0.516069 0.980618 0.516069 0.980618 0.589673 0.938144 0.571618 0.914332 0.589673 0.938144 0.600042 0.859922 0.571618 0.914332 0.571618 0.914332 0.600042 0.859922 0.54558 0.895519 0.54558 0.895519 0.600042 0.859922 0.555911 0.845909 0.600042 0.859922 0.604127 0.826699 0.555911 0.845909 0.555911 0.845909 0.604127 0.826699 0.560177 0.822324 0.560177 0.822324 0.604127 0.826699 0.559363 0.794373 0.604127 0.826699 0.609095 0.796467 0.559363 0.794373 0.559363 0.794373 0.609095 0.796467 0.549316 0.749943 0.609095 0.796467 0.603474 0.740535 0.549316 0.749943 0.549316 0.749943 0.603474 0.740535 0.563075 0.698882 0.428813 0.808926 0.496981 0.841246 0.432552 0.841247 0.496981 0.841246 0.50108 0.896293 0.432552 0.841247 0.432552 0.841247 0.50108 0.896293 0.43344 0.897629 0.50108 0.896293 0.481593 0.956901 0.43344 0.897629 0.43344 0.897629 0.481593 0.956901 0.441295 0.958053 0.441295 0.958053 0.481593 0.956901 0.474962 0.988127 0.481593 0.956901 0.516069 0.980618 0.474962 0.988127 0.474962 0.988127 0.516069 0.980618 0.481593 0.956901 0.481593 0.956901 0.516069 0.980618 0.525142 0.950043 0.516069 0.980618 0.571618 0.914332 0.525142 0.950043 0.525142 0.950043 0.571618 0.914332 0.514595 0.895498 0.571618 0.914332 0.54558 0.895519 0.514595 0.895498 0.514595 0.895498 0.54558 0.895519 0.511792 0.841313 0.54558 0.895519 0.555911 0.845909 0.511792 0.841313 0.555911 0.845909 0.560177 0.822324 0.511792 0.841313 0.511792 0.841313 0.560177 0.822324 0.512223 0.814562 0.512223 0.814562 0.560177 0.822324 0.507677 0.791531 0.560177 0.822324 0.559363 0.794373 0.507677 0.791531 0.559363 0.794373 0.549316 0.749943 0.507677 0.791531 0.507677 0.791531 0.549316 0.749943 0.507091 0.75264 0.549316 0.749943 0.563075 0.698882 0.507091 0.75264 0.507091 0.75264 0.563075 0.698882 0.510364 0.702434 0.563075 0.698882 0.572093 0.664813 0.510364 0.702434 0.572093 0.664813 0.523237 0.664901 0.510364 0.702434 0.45249 0.898677 0.481593 0.956901 0.487564 0.897089 0.481593 0.956901 0.525142 0.950043 0.487564 0.897089 0.525142 0.950043 0.514595 0.895498 0.487564 0.897089 0.487564 0.897089 0.514595 0.895498 0.48217 0.84118 0.514595 0.895498 0.511792 0.841313 0.48217 0.84118 0.48217 0.84118 0.511792 0.841313 0.479793 0.810883 0.511792 0.841313 0.512223 0.814562 0.479793 0.810883 0.479793 0.810883 0.512223 0.814562 0.471814 0.794221 0.512223 0.814562 0.507677 0.791531 0.471814 0.794221 0.471814 0.794221 0.507677 0.791531 0.471623 0.753523 0.507677 0.791531 0.507091 0.75264 0.471623 0.753523 0.471623 0.753523 0.507091 0.75264 0.47464 0.702577 0.507091 0.75264 0.510364 0.702434 0.47464 0.702577 0.47464 0.702577 0.510364 0.702434 0.481273 0.663929 0.510364 0.702434 0.523237 0.664901 0.481273 0.663929 0.481273 0.663929 0.523237 0.664901 0.478125 0.633863 0.478125 0.633863 0.523237 0.664901 0.524324 0.630912 0.523237 0.664901 0.572093 0.664813 0.524324 0.630912 0.524324 0.630912 0.572093 0.664813 0.574716 0.627145 0.572093 0.664813 0.617267 0.648662 0.574716 0.627145 0.574716 0.627145 0.617267 0.648662 0.616609 0.618741 0.616609 0.618741 0.617267 0.648662 0.574716 0.627145 0.617267 0.648662 0.572093 0.664813 0.574716 0.627145 0.572093 0.664813 0.524324 0.630912 0.574716 0.627145 0.603474 0.740535 0.647522 0.726277 0.563075 0.698882 0.647522 0.726277 0.62774 0.669611 0.563075 0.698882 0.563075 0.698882 0.62774 0.669611 0.572093 0.664813 0.572093 0.664813 0.62774 0.669611 0.617267 0.648662 0.617267 0.648662 0.62774 0.669611 0.572093 0.664813 0.572093 0.664813 0.62774 0.669611 0.563075 0.698882 0.62774 0.669611 0.647522 0.726277 0.563075 0.698882 0.563075 0.698882 0.647522 0.726277 0.603474 0.740535 0.603474 0.740535 0.647522 0.726277 0.655273 0.79467 0.647522 0.726277 0.603474 0.740535 0.655273 0.79467 0.603474 0.740535 0.609095 0.796467 0.655273 0.79467 0.655273 0.79467 0.609095 0.796467 0.649801 0.832009 0.609095 0.796467 0.604127 0.826699 0.649801 0.832009 0.649801 0.832009 0.604127 0.826699 0.634293 0.878492 0.604127 0.826699 0.600042 0.859922 0.634293 0.878492 0.600042 0.859922 0.589673 0.938144 0.634293 0.878492 0.634293 0.878492 0.589673 0.938144 0.600042 0.859922 0.589673 0.938144 0.571618 0.914332 0.600042 0.859922 0.571618 0.914332 0.54558 0.895519 0.600042 0.859922 0.54558 0.895519 0.555911 0.845909 0.600042 0.859922 0.555911 0.845909 0.604127 0.826699 0.600042 0.859922 0.600042 0.859922 0.604127 0.826699 0.634293 0.878492 0.634293 0.878492 0.604127 0.826699 0.649801 0.832009 0.604127 0.826699 0.609095 0.796467 0.649801 0.832009 0.649801 0.832009 0.609095 0.796467 0.655273 0.79467 0.655273 0.79467 0.609095 0.796467 0.603474 0.740535 0.609095 0.796467 0.549316 0.749943 0.603474 0.740535 0.603474 0.740535 0.549316 0.749943 0.563075 0.698882 0.549316 0.749943 0.489357 0.753082 0.563075 0.698882 0.489357 0.753082 0.492502 0.702505 0.563075 0.698882 0.563075 0.698882 0.492502 0.702505 0.572093 0.664813 0.572093 0.664813 0.492502 0.702505 0.502255 0.664415 0.492502 0.702505 0.419657 0.695437 0.502255 0.664415 0.502255 0.664415 0.419657 0.695437 0.418601 0.653447 0.419657 0.695437 0.344437 0.688782 0.418601 0.653447 0.418601 0.653447 0.344437 0.688782 0.324219 0.637042 0.344437 0.688782 0.26 0.698355 0.324219 0.637042 0.26 0.698355 0.239633 0.665193 0.324219 0.637042 0.324219 0.637042 0.239633 0.665193 0.273369 0.577333 0.239633 0.665193 0.208828 0.613979 0.273369 0.577333 0.208828 0.613979 0.239633 0.665193 0.273369 0.577333 0.273369 0.577333 0.239633 0.665193 0.324219 0.637042 0.239633 0.665193 0.26 0.698355 0.324219 0.637042 0.324219 0.637042 0.26 0.698355 0.344437 0.688782 0.344437 0.688782 0.26 0.698355 0.349076 0.73645 0.26 0.698355 0.27327 0.729651 0.349076 0.73645 0.27327 0.729651 0.293768 0.750063 0.349076 0.73645 0.349076 0.73645 0.293768 0.750063 0.360266 0.77517 0.419657 0.695437 0.351747 0.734091 0.344437 0.688782 0.344437 0.688782 0.351747 0.734091 0.26 0.698355 0.351747 0.734091 0.27327 0.729651 0.26 0.698355 0.27327 0.729651 0.179241 0.739065 0.26 0.698355 0.179241 0.739065 0.165005 0.718919 0.26 0.698355 0.26 0.698355 0.165005 0.718919 0.239633 0.665193 0.165005 0.718919 0.148421 0.691975 0.239633 0.665193 0.239633 0.665193 0.148421 0.691975 0.208828 0.613979 0.148421 0.691975 0.120582 0.674029 0.208828 0.613979 0.120582 0.674029 0.148421 0.691975 0.208828 0.613979 0.208828 0.613979 0.148421 0.691975 0.239633 0.665193 0.148421 0.691975 0.165005 0.718919 0.239633 0.665193 0.239633 0.665193 0.165005 0.718919 0.26 0.698355 0.165005 0.718919 0.179241 0.739065 0.26 0.698355 0.26 0.698355 0.179241 0.739065 0.27327 0.729651 0.179241 0.739065 0.189696 0.765483 0.27327 0.729651 0.179241 0.739065 0.165005 0.718919 0.1336629 0.717692 0.165005 0.718919 0.148421 0.691975 0.1336629 0.717692 0.148421 0.691975 0.120582 0.674029 0.1336629 0.717692 0.120582 0.674029 0.101217 0.711604 0.1336629 0.717692 0.1336629 0.717692 0.101217 0.711604 0.137199 0.735881 0.101217 0.711604 0.103426 0.735519 0.137199 0.735881 0.137199 0.735881 0.103426 0.735519 0.159201 0.782991 0.1336629 0.717692 0.137199 0.735881 0.179241 0.739065 0.179241 0.739065 0.137199 0.735881 0.189696 0.765483 0.137199 0.735881 0.159201 0.782991 0.189696 0.765483 0.189696 0.765483 0.159201 0.782991 0.209809 0.810988 0.209809 0.810988 0.159201 0.782991 0.187032 0.848697 0.187032 0.848697 0.159201 0.782991 0.129108 0.795844 0.159201 0.782991 0.103426 0.735519 0.129108 0.795844 0.129108 0.795844 0.103426 0.735519 0.159201 0.782991 0.103426 0.735519 0.137199 0.735881 0.159201 0.782991 0.159201 0.782991 0.137199 0.735881 0.189696 0.765483 0.137199 0.735881 0.179241 0.739065 0.189696 0.765483 0.179241 0.739065 0.27327 0.729651 0.189696 0.765483 0.27327 0.729651 0.282488 0.758254 0.189696 0.765483 0.282488 0.758254 0.209809 0.810988 0.189696 0.765483 0.189696 0.765483 0.209809 0.810988 0.159201 0.782991 0.209809 0.810988 0.187032 0.848697 0.159201 0.782991 0.159201 0.782991 0.187032 0.848697 0.129108 0.795844 0.187032 0.848697 0.177226 0.866003 0.129108 0.795844 0.177226 0.866003 0.1667129 0.876828 0.129108 0.795844 0.1667129 0.876828 0.177226 0.866003 0.129108 0.795844 0.129108 0.795844 0.177226 0.866003 0.187032 0.848697 0.177226 0.866003 0.205101 0.862466 0.187032 0.848697 0.187032 0.848697 0.205101 0.862466 0.209809 0.810988 0.205101 0.862466 0.234007 0.822564 0.209809 0.810988 0.177226 0.866003 0.1912569 0.897374 0.1667129 0.876828 0.1667129 0.876828 0.1912569 0.897374 0.177226 0.866003 0.1912569 0.897374 0.195618 0.881761 0.177226 0.866003 0.177226 0.866003 0.195618 0.881761 0.205101 0.862466 0.205101 0.862466 0.195618 0.881761 0.227986 0.89926 0.195618 0.881761 0.1912569 0.897374 0.227986 0.89926 0.351747 0.734091 0.31538 0.741241 0.27327 0.729651 0.27327 0.729651 0.31538 0.741241 0.282488 0.758254 0.31538 0.741241 0.290943 0.780943 0.282488 0.758254 0.282488 0.758254 0.290943 0.780943 0.209809 0.810988 0.209809 0.810988 0.290943 0.780943 0.234007 0.822564 0.290943 0.780943 0.292769 0.841578 0.234007 0.822564 0.234007 0.822564 0.292769 0.841578 0.205101 0.862466 0.292769 0.841578 0.276383 0.880489 0.205101 0.862466 0.276383 0.880489 0.227986 0.89926 0.205101 0.862466 0.205101 0.862466 0.227986 0.89926 0.195618 0.881761 0.227986 0.89926 0.1912569 0.897374 0.195618 0.881761 0.1912569 0.897374 0.177226 0.866003 0.195618 0.881761 0.195618 0.881761 0.177226 0.866003 0.205101 0.862466 0.177226 0.866003 0.187032 0.848697 0.205101 0.862466 0.187032 0.848697 0.209809 0.810988 0.205101 0.862466 0.205101 0.862466 0.209809 0.810988 0.234007 0.822564 0.189696 0.765483 0.209809 0.810988 0.27327 0.729651 0.27327 0.729651 0.209809 0.810988 0.293768 0.750063 0.293768 0.750063 0.209809 0.810988 0.304632 0.774223 0.209809 0.810988 0.234007 0.822564 0.304632 0.774223 0.304632 0.774223 0.234007 0.822564 0.292791 0.841672 0.234007 0.822564 0.205101 0.862466 0.292791 0.841672 0.292791 0.841672 0.205101 0.862466 0.276383 0.880489 0.205101 0.862466 0.227986 0.89926 0.276383 0.880489 0.276383 0.880489 0.227986 0.89926 0.275838 0.908079 0.227986 0.89926 0.276383 0.880489 0.275838 0.908079 0.275838 0.908079 0.276383 0.880489 0.318455 0.90474 0.276383 0.880489 0.292769 0.841578 0.318455 0.90474 0.318455 0.90474 0.292769 0.841578 0.337749 0.862315 0.337749 0.862315 0.292769 0.841578 0.30648 0.813827 0.292769 0.841578 0.290943 0.780943 0.30648 0.813827 0.30648 0.813827 0.290943 0.780943 0.318321 0.767503 0.290943 0.780943 0.31538 0.741241 0.318321 0.767503 0.318321 0.767503 0.31538 0.741241 0.360266 0.77517 0.31538 0.741241 0.351747 0.734091 0.360266 0.77517 0.360266 0.77517 0.351747 0.734091 0.426654 0.790573 0.426654 0.790573 0.351747 0.734091 0.424136 0.749141 0.351747 0.734091 0.419657 0.695437 0.424136 0.749141 0.424136 0.749141 0.419657 0.695437 0.489357 0.753082 0.419657 0.695437 0.492502 0.702505 0.489357 0.753082 0.293768 0.750063 0.304632 0.774223 0.360266 0.77517 0.360266 0.77517 0.304632 0.774223 0.352707 0.80908 0.352707 0.80908 0.304632 0.774223 0.337877 0.862218 0.304632 0.774223 0.292791 0.841672 0.337877 0.862218 0.337877 0.862218 0.292791 0.841672 0.318771 0.90498 0.292791 0.841672 0.276383 0.880489 0.318771 0.90498 0.276383 0.880489 0.275838 0.908079 0.318771 0.90498 0.318771 0.90498 0.275838 0.908079 0.307554 0.927184 0.275838 0.908079 0.318455 0.90474 0.307554 0.927184 0.307554 0.927184 0.318455 0.90474 0.353932 0.936888 0.318455 0.90474 0.337749 0.862315 0.353932 0.936888 0.337749 0.862315 0.383452 0.88641 0.353932 0.936888 0.353932 0.936888 0.383452 0.88641 0.43344 0.897629 0.383452 0.88641 0.383086 0.833307 0.43344 0.897629 0.43344 0.897629 0.383086 0.833307 0.432552 0.841247 0.383086 0.833307 0.356181 0.795991 0.432552 0.841247 0.432552 0.841247 0.356181 0.795991 0.428813 0.808926 0.356181 0.795991 0.360266 0.77517 0.428813 0.808926 0.360266 0.77517 0.426654 0.790573 0.428813 0.808926 0.428813 0.808926 0.426654 0.790573 0.489745 0.792876 0.426654 0.790573 0.424136 0.749141 0.489745 0.792876 0.424136 0.749141 0.489357 0.753082 0.489745 0.792876 0.489357 0.753082 0.549316 0.749943 0.489745 0.792876 0.489745 0.792876 0.549316 0.749943 0.559363 0.794373 0.383452 0.88641 0.337749 0.862315 0.349148 0.822236 0.337749 0.862315 0.30648 0.813827 0.349148 0.822236 0.349148 0.822236 0.30648 0.813827 0.318769 0.795838 0.30648 0.813827 0.318321 0.767503 0.318769 0.795838 0.318321 0.767503 0.360266 0.77517 0.318769 0.795838 0.360266 0.77517 0.356181 0.795991 0.318769 0.795838 0.318769 0.795838 0.356181 0.795991 0.349148 0.822236 0.356181 0.795991 0.383086 0.833307 0.349148 0.822236 0.349148 0.822236 0.383086 0.833307 0.383452 0.88641 0.383123 0.833285 0.352707 0.80908 0.383515 0.886531 0.352707 0.80908 0.337877 0.862218 0.383515 0.886531 0.383515 0.886531 0.337877 0.862218 0.353932 0.936888 0.337877 0.862218 0.318771 0.90498 0.353932 0.936888 0.318771 0.90498 0.307554 0.927184 0.353932 0.936888 0.353932 0.936888 0.307554 0.927184 0.335422 0.955712 0.307554 0.927184 0.353932 0.936888 0.335422 0.955712 0.335422 0.955712 0.353932 0.936888 0.393192 0.950404 0.353932 0.936888 0.43344 0.897629 0.393192 0.950404 0.43344 0.897629 0.441295 0.958053 0.393192 0.950404 0.393192 0.950404 0.441295 0.958053 0.428722 0.986764 0.441295 0.958053 0.474962 0.988127 0.428722 0.986764 0.428722 0.986764 0.474962 0.988127 0.441295 0.958053 0.474962 0.988127 0.481593 0.956901 0.441295 0.958053 0.481593 0.956901 0.45249 0.898677 0.441295 0.958053 0.383515 0.886531 0.353932 0.936888 0.41439 0.896582 0.41439 0.896582 0.353932 0.936888 0.393192 0.950404 0.353932 0.936888 0.335422 0.955712 0.393192 0.950404 0.393192 0.950404 0.335422 0.955712 0.370245 0.974129 0.335422 0.955712 0.393192 0.950404 0.370245 0.974129 0.393192 0.950404 0.428722 0.986764 0.370245 0.974129 0.370245 0.974129 0.428722 0.986764 0.393192 0.950404 0.428722 0.986764 0.441295 0.958053 0.393192 0.950404 0.393192 0.950404 0.441295 0.958053 0.41439 0.896582 0.441295 0.958053 0.45249 0.898677 0.41439 0.896582 0.41439 0.896582 0.45249 0.898677 0.414707 0.840737 0.45249 0.898677 0.450397 0.841757 0.414707 0.840737 0.414707 0.840737 0.450397 0.841757 0.410343 0.806901 0.450397 0.841757 0.447284 0.810951 0.410343 0.806901 0.410343 0.806901 0.447284 0.810951 0.408042 0.786935 0.447284 0.810951 0.445267 0.794211 0.408042 0.786935 0.408042 0.786935 0.445267 0.794211 0.406871 0.747068 0.445267 0.794211 0.4414 0.751215 0.406871 0.747068 0.4414 0.751215 0.438215 0.697215 0.406871 0.747068 0.406871 0.747068 0.438215 0.697215 0.401097 0.693659 0.401097 0.693659 0.438215 0.697215 0.39661 0.648751 0.438215 0.697215 0.440593 0.658143 0.39661 0.648751 0.39661 0.648751 0.440593 0.658143 0.408454 0.616401 0.440593 0.658143 0.447844 0.630239 0.408454 0.616401 0.383515 0.886531 0.41439 0.896582 0.383123 0.833285 0.41439 0.896582 0.414707 0.840737 0.383123 0.833285 0.383123 0.833285 0.414707 0.840737 0.352707 0.80908 0.414707 0.840737 0.410343 0.806901 0.352707 0.80908 0.352707 0.80908 0.410343 0.806901 0.360266 0.77517 0.410343 0.806901 0.408042 0.786935 0.360266 0.77517 0.360266 0.77517 0.408042 0.786935 0.349076 0.73645 0.408042 0.786935 0.406871 0.747068 0.349076 0.73645 0.406871 0.747068 0.401097 0.693659 0.349076 0.73645 0.349076 0.73645 0.401097 0.693659 0.344437 0.688782 0.401097 0.693659 0.39661 0.648751 0.344437 0.688782 0.344437 0.688782 0.39661 0.648751 0.324219 0.637042 0.39661 0.648751 0.408454 0.616401 0.324219 0.637042 0.408454 0.616401 0.375977 0.595892 0.324219 0.637042 0.375977 0.595892 0.308854 0.542262 0.324219 0.637042 0.324219 0.637042 0.308854 0.542262 0.273369 0.577333 0.273369 0.577333 0.308854 0.542262 0.324219 0.637042 0.308854 0.542262 0.375977 0.595892 0.324219 0.637042 0.375977 0.595892 0.408454 0.616401 0.324219 0.637042 0.324219 0.637042 0.408454 0.616401 0.418601 0.653447 0.408454 0.616401 0.462984 0.632051 0.418601 0.653447 0.418601 0.653447 0.462984 0.632051 0.502255 0.664415 0.462984 0.632051 0.524324 0.630912 0.502255 0.664415 0.502255 0.664415 0.524324 0.630912 0.572093 0.664813 0.976246 0.006753981 0.976247 0.252002 0.933454 0.006753981 0.976247 0.252002 0.933455 0.252002 0.933454 0.006753981 0.933454 0.006753981 0.933455 0.252002 0.890662 0.006754994 0.933455 0.252002 0.890662 0.252002 0.890662 0.006754994 0.890662 0.006754994 0.890662 0.252002 0.84787 0.006754994 0.890662 0.252002 0.84787 0.252003 0.84787 0.006754994 0.103426 0.735519 0.101217 0.711604 0.137199 0.735881 0.101217 0.711604 0.1336629 0.717692 0.137199 0.735881 0.137199 0.735881 0.1336629 0.717692 0.179241 0.739065 0.179241 0.739065 0.1336629 0.717692 0.165005 0.718919 0.165005 0.718919 0.1336629 0.717692 0.148421 0.691975 0.148421 0.691975 0.1336629 0.717692 0.120582 0.674029 0.1336629 0.717692 0.101217 0.711604 0.120582 0.674029 0.930057 0.979539 0.92762 0.918798 0.977569 0.97547 0.977569 0.97547 0.92762 0.918798 0.97628 0.918419 0.92762 0.918798 0.927277 0.859561 0.97628 0.918419 0.97628 0.918419 0.927277 0.859561 0.976188 0.859525 0.927277 0.859561 0.927166 0.800484 0.976188 0.859525 0.976188 0.859525 0.927166 0.800484 0.976092 0.800481 0.927166 0.800484 0.927096 0.74144 0.976092 0.800481 0.976092 0.800481 0.927096 0.74144 0.976026 0.741443 0.927096 0.74144 0.927055 0.682384 0.976026 0.741443 0.976026 0.741443 0.927055 0.682384 0.975986 0.682386 0.927055 0.682384 0.927043 0.623339 0.975986 0.682386 0.975986 0.682386 0.927043 0.623339 0.975971 0.62334 0.927043 0.623339 0.927055 0.564294 0.975971 0.62334 0.975971 0.62334 0.927055 0.564294 0.975986 0.564291 0.927055 0.564294 0.927096 0.505237 0.975986 0.564291 0.975986 0.564291 0.927096 0.505237 0.976026 0.505234 0.927096 0.505237 0.927166 0.446194 0.976026 0.505234 0.976026 0.505234 0.927166 0.446194 0.976092 0.446196 0.927166 0.446194 0.927277 0.387117 0.976092 0.446196 0.976092 0.446196 0.927277 0.387117 0.976188 0.387151 0.927277 0.387117 0.92762 0.32788 0.976188 0.387151 0.976188 0.387151 0.92762 0.32788 0.97628 0.328259 0.92762 0.32788 0.930057 0.267139 0.97628 0.328259 0.97628 0.328259 0.930057 0.267139 0.977569 0.271208 0.930057 0.979539 0.898122 0.986945 0.92762 0.918798 0.898122 0.986945 0.898789 0.919331 0.92762 0.918798 0.92762 0.918798 0.898789 0.919331 0.927277 0.859561 0.898789 0.919331 0.898901 0.859608 0.927277 0.859561 0.927277 0.859561 0.898901 0.859608 0.927166 0.800484 0.898901 0.859608 0.898866 0.800486 0.927166 0.800484 0.927166 0.800484 0.898866 0.800486 0.927096 0.74144 0.898866 0.800486 0.898802 0.741436 0.927096 0.74144 0.927096 0.74144 0.898802 0.741436 0.927055 0.682384 0.898802 0.741436 0.898761 0.68238 0.927055 0.682384 0.927055 0.682384 0.898761 0.68238 0.927043 0.623339 0.898761 0.68238 0.898751 0.62334 0.927043 0.623339 0.927043 0.623339 0.898751 0.62334 0.927055 0.564294 0.898751 0.62334 0.898761 0.564296 0.927055 0.564294 0.927055 0.564294 0.898761 0.564296 0.927096 0.505237 0.898761 0.564296 0.898802 0.505244 0.927096 0.505237 0.927096 0.505237 0.898802 0.505244 0.927166 0.446194 0.898802 0.505244 0.898866 0.446191 0.927166 0.446194 0.927166 0.446194 0.898866 0.446191 0.927277 0.387117 0.898866 0.446191 0.898901 0.387068 0.927277 0.387117 0.927277 0.387117 0.898901 0.387068 0.92762 0.32788 0.898901 0.387068 0.898789 0.327348 0.92762 0.32788 0.92762 0.32788 0.898789 0.327348 0.930057 0.267139 0.898789 0.327348 0.898122 0.259733 0.930057 0.267139</float_array>
          <technique_common>
            <accessor source="#Rubber_Hook_Duck-mesh-map-array" count="1761" stride="2">
              <param name="S" type="float"/>
              <param name="T" type="float"/>
            </accessor>
          </technique_common>
        </source>
        <vertices id="Rubber_Hook_Duck-mesh-vertices">
          <input semantic="POSITION" source="#Rubber_Hook_Duck-mesh-positions"/>
        </vertices>
        <triangles material="np_hookduck_001-material" count="587">
          <input semantic="VERTEX" source="#Rubber_Hook_Duck-mesh-vertices" offset="0"/>
          <input semantic="NORMAL" source="#Rubber_Hook_Duck-mesh-normals" offset="1"/>
          <input semantic="TEXCOORD" source="#Rubber_Hook_Duck-mesh-map" offset="2" set="0"/>
          <p>0 0 0 1 1 1 2 2 2 3 3 3 4 4 4 5 5 5 5 5 6 4 4 7 6 6 8 4 4 9 7 7 10 6 6 11 6 6 12 7 7 13 8 8 14 7 7 15 9 9 16 8 8 17 9 9 18 0 0 19 8 8 20 8 8 21 0 0 22 6 6 23 0 0 24 2 2 25 6 6 26 2 2 27 10 10 28 6 6 29 6 6 30 10 10 31 5 5 32 5 5 33 10 10 34 11 11 35 10 10 36 12 12 37 11 11 38 11 11 39 12 12 40 13 13 41 13 13 42 12 12 43 14 14 44 12 12 45 15 15 46 14 14 47 14 14 48 15 15 49 16 16 50 16 16 51 15 15 52 17 17 53 17 17 54 15 15 55 18 18 56 15 15 57 1 1 58 18 18 59 18 18 60 1 1 61 19 19 62 1 1 63 0 0 64 19 19 65 19 19 66 0 0 67 20 20 68 20 20 69 0 0 70 21 21 71 0 0 72 9 9 73 21 21 74 15 15 75 12 12 76 1 1 77 1 1 78 12 12 79 2 2 80 12 12 81 10 10 82 2 2 83 22 22 84 23 23 85 24 24 86 24 24 87 23 23 88 25 25 89 25 25 90 23 23 91 26 26 92 23 23 93 27 27 94 26 26 95 27 27 96 16 16 97 26 26 98 26 26 99 16 16 100 28 28 101 16 16 102 17 17 103 28 28 104 28 28 105 17 17 106 29 29 107 17 17 108 18 18 109 29 29 110 29 29 111 18 18 112 30 30 113 18 18 114 19 19 115 30 30 116 30 30 117 19 19 118 31 31 119 19 19 120 20 20 121 31 31 122 20 20 123 32 32 124 31 31 125 32 32 126 33 33 127 31 31 128 31 31 129 33 33 130 34 34 131 33 33 132 35 35 133 34 34 134 34 34 135 35 35 136 36 36 137 35 35 138 37 37 139 36 36 140 37 37 141 38 38 142 36 36 143 36 36 144 38 38 145 39 39 146 38 38 147 24 24 148 39 39 149 39 39 150 24 24 151 40 40 152 24 24 153 25 25 154 40 40 155 25 25 156 26 26 157 40 40 158 26 26 159 28 28 160 40 40 161 28 28 162 29 29 163 40 40 164 40 40 165 29 29 166 39 39 167 29 29 168 41 41 169 39 39 170 39 39 171 41 41 172 36 36 173 36 36 174 41 41 175 34 34 176 34 34 177 41 41 178 30 30 179 41 41 180 29 29 181 30 30 182 24 24 183 38 38 184 22 22 185 22 22 186 38 38 187 42 42 188 38 38 189 37 37 190 42 42 191 37 37 192 43 43 193 42 42 194 43 43 195 44 44 196 42 42 197 44 44 198 45 45 199 42 42 200 42 42 201 45 45 202 22 22 203 45 45 204 46 46 205 22 22 206 22 22 207 46 46 208 23 23 209 23 23 210 46 46 211 27 27 212 46 46 213 47 47 214 27 27 215 27 27 216 47 47 217 16 16 218 47 47 219 48 48 220 16 16 221 16 16 222 48 48 223 14 14 224 48 48 225 49 49 226 14 14 227 14 14 228 49 49 229 13 13 230 13 13 231 49 49 232 11 11 233 49 49 234 50 50 235 11 11 236 50 50 237 51 51 238 11 11 239 11 11 240 51 51 241 52 52 242 51 51 243 53 53 244 52 52 245 52 52 246 53 53 247 54 54 248 54 54 249 53 53 250 55 55 251 53 53 252 56 56 253 55 55 254 57 57 255 58 58 256 46 46 257 46 46 258 58 58 259 47 47 260 47 47 261 58 58 262 48 48 263 58 58 264 59 59 265 48 48 266 48 48 267 59 59 268 49 49 269 59 59 270 60 60 271 49 49 272 49 49 273 60 60 274 50 50 275 60 60 276 61 61 277 50 50 278 50 50 279 61 61 280 51 51 281 61 61 282 62 62 283 51 51 284 51 51 285 62 62 286 53 53 287 62 62 288 63 63 289 53 53 290 53 53 291 63 63 292 56 56 293 63 63 294 64 64 295 56 56 296 56 56 297 64 64 298 65 65 299 65 65 300 64 64 301 66 66 302 64 64 303 67 67 304 66 66 305 67 67 306 68 68 307 66 66 308 66 66 309 68 68 310 69 69 311 68 68 312 70 70 313 69 69 314 69 69 315 70 70 316 71 71 317 70 70 318 72 72 319 71 71 320 71 71 321 72 72 322 73 73 323 72 72 324 74 74 325 73 73 326 55 55 327 56 56 328 75 75 329 56 56 330 65 65 331 75 75 332 75 75 333 65 65 334 76 76 335 65 65 336 66 66 337 76 76 338 76 76 339 66 66 340 77 77 341 66 66 342 69 69 343 77 77 344 69 69 345 71 71 346 77 77 347 77 77 348 71 71 349 78 78 350 71 71 351 73 73 352 78 78 353 73 73 354 79 79 355 78 78 356 78 78 357 79 79 358 80 80 359 79 79 360 81 81 361 80 80 362 80 80 363 81 81 364 82 82 365 81 81 366 83 83 367 82 82 368 82 82 369 83 83 370 84 84 371 84 84 372 83 83 373 3 3 374 3 3 375 83 83 376 4 4 377 4 4 378 83 83 379 7 7 380 7 7 381 83 83 382 85 85 383 83 83 384 81 81 385 85 85 386 85 85 387 81 81 388 86 86 389 81 81 390 79 79 391 86 86 392 86 86 393 79 79 394 74 74 395 79 79 396 73 73 397 74 74 398 78 78 399 80 80 400 77 77 401 77 77 402 80 80 403 76 76 404 80 80 405 87 87 406 76 76 407 76 76 408 87 87 409 75 75 410 75 75 411 87 87 412 84 84 413 84 84 414 87 87 415 82 82 416 87 87 417 80 80 418 82 82 419 21 21 420 9 9 421 88 88 422 88 88 423 9 9 424 89 89 425 9 9 426 7 7 427 89 89 428 7 7 429 85 85 430 89 89 431 85 85 432 86 86 433 89 89 434 86 86 435 74 74 436 89 89 437 89 89 438 74 74 439 88 88 440 88 88 441 74 74 442 90 90 443 90 90 444 74 74 445 91 91 446 74 74 447 72 72 448 91 91 449 91 91 450 72 72 451 92 92 452 72 72 453 70 70 454 92 92 455 70 70 456 68 68 457 92 92 458 68 68 459 93 93 460 92 92 461 93 93 462 94 94 463 92 92 464 94 94 465 95 95 466 92 92 467 95 95 468 96 96 469 92 92 470 92 92 471 96 96 472 91 91 473 97 97 474 98 98 475 95 95 476 95 95 477 98 98 478 96 96 479 98 98 480 99 99 481 96 96 482 96 96 483 99 99 484 91 91 485 91 91 486 99 99 487 90 90 488 99 99 489 100 100 490 90 90 491 90 90 492 100 100 493 88 88 494 100 100 495 101 101 496 88 88 497 88 88 498 101 101 499 21 21 500 21 21 501 101 101 502 20 20 503 101 101 504 32 32 505 20 20 506 102 102 507 103 103 508 97 97 509 97 97 510 103 103 511 98 98 512 103 103 513 104 104 514 98 98 515 104 104 516 105 105 517 98 98 518 98 98 519 105 105 520 99 99 521 99 99 522 105 105 523 100 100 524 105 105 525 106 106 526 100 100 527 106 106 528 107 107 529 100 100 530 100 100 531 107 107 532 101 101 533 101 101 534 107 107 535 32 32 536 107 107 537 108 108 538 32 32 539 108 108 540 109 109 541 32 32 542 32 32 543 109 109 544 33 33 545 33 33 546 109 109 547 35 35 548 109 109 549 110 110 550 35 35 551 35 35 552 110 110 553 37 37 554 110 110 555 111 111 556 37 37 557 37 37 558 111 111 559 43 43 560 111 111 561 112 112 562 43 43 563 43 43 564 112 112 565 44 44 566 112 112 567 113 113 568 44 44 569 113 113 570 57 57 571 44 44 572 44 44 573 57 57 574 45 45 575 57 57 576 46 46 577 45 45 578 114 114 579 115 115 580 103 103 581 103 103 582 115 115 583 104 104 584 115 115 585 116 116 586 104 104 587 104 104 588 116 116 589 105 105 590 105 105 591 116 116 592 106 106 593 116 116 594 117 117 595 106 106 596 106 106 597 117 117 598 107 107 599 117 117 600 118 118 601 107 107 602 107 107 603 118 118 604 108 108 605 118 118 606 119 119 607 108 108 608 108 108 609 119 119 610 109 109 611 119 119 612 120 120 613 109 109 614 120 120 615 121 121 616 109 109 617 109 109 618 121 121 619 110 110 620 121 121 621 122 122 622 110 110 623 110 110 624 122 122 625 111 111 626 122 122 627 123 123 628 111 111 629 123 123 630 124 124 631 111 111 632 34 34 633 30 30 634 31 31 635 125 125 636 126 126 637 127 127 638 128 128 639 129 129 640 130 130 641 129 129 642 125 125 643 130 130 644 125 125 645 127 127 646 130 130 647 130 130 648 127 127 649 131 131 650 132 132 651 133 133 652 134 134 653 133 133 654 131 131 655 134 134 656 131 131 657 127 127 658 134 134 659 134 134 660 127 127 661 132 132 662 127 127 663 126 126 664 132 132 665 126 126 666 135 135 667 132 132 668 132 132 669 135 135 670 136 136 671 135 135 672 137 137 673 136 136 674 137 137 675 138 138 676 136 136 677 136 136 678 138 138 679 139 139 680 139 139 681 138 138 682 140 140 683 138 138 684 137 137 685 140 140 686 137 137 687 141 141 688 140 140 689 140 140 690 141 141 691 142 142 692 141 141 693 143 143 694 142 142 695 142 142 696 143 143 697 144 144 698 144 144 699 143 143 700 145 145 701 143 143 702 146 146 703 145 145 704 145 145 705 146 146 706 147 147 707 147 147 708 146 146 709 148 148 710 146 146 711 149 149 712 148 148 713 148 148 714 149 149 715 150 150 716 149 149 717 151 151 718 150 150 719 150 150 720 151 151 721 152 152 722 133 133 723 132 132 724 153 153 725 132 132 726 136 136 727 153 153 728 153 153 729 136 136 730 154 154 731 136 136 732 139 139 733 154 154 734 154 154 735 139 139 736 155 155 737 155 155 738 139 139 739 156 156 740 139 139 741 140 140 742 156 156 743 156 156 744 140 140 745 157 157 746 157 157 747 140 140 748 158 158 749 140 140 750 142 142 751 158 158 752 158 158 753 142 142 754 159 159 755 142 142 756 144 144 757 159 159 758 159 159 759 144 144 760 160 160 761 144 144 762 145 145 763 160 160 764 145 145 765 147 147 766 160 160 767 160 160 768 147 147 769 161 161 770 161 161 771 147 147 772 162 162 773 147 147 774 148 148 775 162 162 776 148 148 777 150 150 778 162 162 779 162 162 780 150 150 781 163 163 782 150 150 783 152 152 784 163 163 785 163 163 786 152 152 787 164 164 788 152 152 789 165 165 790 164 164 791 165 165 792 166 166 793 164 164 794 167 167 795 157 157 796 168 168 797 157 157 798 158 158 799 168 168 800 158 158 801 159 159 802 168 168 803 168 168 804 159 159 805 169 169 806 159 159 807 160 160 808 169 169 809 169 169 810 160 160 811 170 170 812 160 160 813 161 161 814 170 170 815 170 170 816 161 161 817 171 171 818 161 161 819 162 162 820 171 171 821 171 171 822 162 162 823 172 172 824 162 162 825 163 163 826 172 172 827 172 172 828 163 163 829 173 173 830 163 163 831 164 164 832 173 173 833 173 173 834 164 164 835 174 174 836 164 164 837 166 166 838 174 174 839 174 174 840 166 166 841 175 175 842 175 175 843 166 166 844 176 176 845 166 166 846 165 165 847 176 176 848 176 176 849 165 165 850 177 177 851 165 165 852 178 178 853 177 177 854 177 177 855 178 178 856 179 179 857 179 179 858 178 178 859 180 180 860 178 178 861 181 181 862 180 180 863 181 181 864 182 182 865 180 180 866 151 151 867 183 183 868 152 152 869 183 183 870 184 184 871 152 152 872 152 152 873 184 184 874 165 165 875 165 165 876 184 184 877 178 178 878 178 178 879 184 184 880 181 181 881 181 181 882 184 184 883 185 185 884 184 184 885 183 183 886 185 185 887 185 185 888 183 183 889 186 186 890 186 186 891 183 183 892 187 187 893 183 183 894 151 151 895 187 187 896 151 151 897 149 149 898 187 187 899 187 187 900 149 149 901 188 188 902 149 149 903 146 146 904 188 188 905 188 188 906 146 146 907 189 189 908 146 146 909 143 143 910 189 189 911 143 143 912 141 141 913 189 189 914 189 189 915 141 141 916 190 190 917 141 141 918 137 137 919 190 190 920 137 137 921 135 135 922 190 190 923 135 135 924 126 126 925 190 190 926 126 126 927 125 125 928 190 190 929 190 190 930 125 125 931 189 189 932 189 189 933 125 125 934 188 188 935 125 125 936 129 129 937 188 188 938 188 188 939 129 129 940 187 187 941 187 187 942 129 129 943 186 186 944 129 129 945 128 128 946 186 186 947 186 186 948 128 128 949 185 185 950 128 128 951 191 191 952 185 185 953 191 191 954 192 192 955 185 185 956 185 185 957 192 192 958 181 181 959 181 181 960 192 192 961 193 193 962 192 192 963 194 194 964 193 193 965 193 193 966 194 194 967 195 195 968 194 194 969 196 196 970 195 195 971 195 195 972 196 196 973 197 197 974 196 196 975 198 198 976 197 197 977 198 198 978 199 199 979 197 197 980 197 197 981 199 199 982 200 200 983 199 199 984 201 201 985 200 200 986 201 201 987 202 202 988 200 200 989 200 200 990 202 202 991 203 203 992 202 202 993 204 204 994 203 203 995 203 203 996 204 204 997 205 205 998 205 205 999 204 204 1000 206 206 1001 204 204 1002 207 207 1003 206 206 1004 207 207 1005 208 208 1006 206 206 1007 206 206 1008 208 208 1009 209 209 1010 194 194 1011 210 210 1012 196 196 1013 196 196 1014 210 210 1015 198 198 1016 210 210 1017 211 211 1018 198 198 1019 211 211 1020 212 212 1021 198 198 1022 212 212 1023 213 213 1024 198 198 1025 198 198 1026 213 213 1027 199 199 1028 213 213 1029 214 214 1030 199 199 1031 199 199 1032 214 214 1033 201 201 1034 214 214 1035 215 215 1036 201 201 1037 215 215 1038 216 216 1039 201 201 1040 201 201 1041 216 216 1042 202 202 1043 216 216 1044 217 217 1045 202 202 1046 202 202 1047 217 217 1048 204 204 1049 217 217 1050 218 218 1051 204 204 1052 204 204 1053 218 218 1054 207 207 1055 218 218 1056 219 219 1057 207 207 1058 218 218 1059 217 217 1060 220 220 1061 217 217 1062 216 216 1063 220 220 1064 216 216 1065 215 215 1066 220 220 1067 215 215 1068 221 221 1069 220 220 1070 220 220 1071 221 221 1072 222 222 1073 221 221 1074 223 223 1075 222 222 1076 222 222 1077 223 223 1078 224 224 1079 220 220 1080 222 222 1081 218 218 1082 218 218 1083 222 222 1084 219 219 1085 222 222 1086 224 224 1087 219 219 1088 219 219 1089 224 224 1090 225 225 1091 225 225 1092 224 224 1093 226 226 1094 226 226 1095 224 224 1096 227 227 1097 224 224 1098 223 223 1099 227 227 1100 227 227 1101 223 223 1102 228 228 1103 223 223 1104 229 229 1105 228 228 1106 228 228 1107 229 229 1108 230 230 1109 229 229 1110 212 212 1111 230 230 1112 212 212 1113 211 211 1114 230 230 1115 211 211 1116 231 231 1117 230 230 1118 231 231 1119 232 232 1120 230 230 1121 230 230 1122 232 232 1123 228 228 1124 232 232 1125 233 233 1126 228 228 1127 228 228 1128 233 233 1129 227 227 1130 233 233 1131 234 234 1132 227 227 1133 234 234 1134 235 235 1135 227 227 1136 235 235 1137 236 236 1138 227 227 1139 227 227 1140 236 236 1141 226 226 1142 236 236 1143 237 237 1144 226 226 1145 226 226 1146 237 237 1147 225 225 1148 237 237 1149 238 238 1150 225 225 1151 234 234 1152 239 239 1153 235 235 1154 235 235 1155 239 239 1156 236 236 1157 239 239 1158 240 240 1159 236 236 1160 236 236 1161 240 240 1162 237 237 1163 237 237 1164 240 240 1165 241 241 1166 240 240 1167 239 239 1168 241 241 1169 210 210 1170 242 242 1171 211 211 1172 211 211 1173 242 242 1174 231 231 1175 242 242 1176 243 243 1177 231 231 1178 231 231 1179 243 243 1180 232 232 1181 232 232 1182 243 243 1183 244 244 1184 243 243 1185 245 245 1186 244 244 1187 244 244 1188 245 245 1189 246 246 1190 245 245 1191 247 247 1192 246 246 1193 247 247 1194 241 241 1195 246 246 1196 246 246 1197 241 241 1198 248 248 1199 241 241 1200 239 239 1201 248 248 1202 239 239 1203 234 234 1204 248 248 1205 248 248 1206 234 234 1207 246 246 1208 234 234 1209 233 233 1210 246 246 1211 233 233 1212 232 232 1213 246 246 1214 246 246 1215 232 232 1216 244 244 1217 219 219 1218 225 225 1219 207 207 1220 207 207 1221 225 225 1222 208 208 1223 208 208 1224 225 225 1225 249 249 1226 225 225 1227 238 238 1228 249 249 1229 249 249 1230 238 238 1231 250 250 1232 238 238 1233 237 237 1234 250 250 1235 250 250 1236 237 237 1237 251 251 1238 237 237 1239 241 241 1240 251 251 1241 251 251 1242 241 241 1243 252 252 1244 241 241 1245 247 247 1246 252 252 1247 252 252 1248 247 247 1249 253 253 1250 247 247 1251 245 245 1252 253 253 1253 253 253 1254 245 245 1255 254 254 1256 254 254 1257 245 245 1258 255 255 1259 245 245 1260 243 243 1261 255 255 1262 255 255 1263 243 243 1264 256 256 1265 243 243 1266 242 242 1267 256 256 1268 256 256 1269 242 242 1270 257 257 1271 242 242 1272 210 210 1273 257 257 1274 257 257 1275 210 210 1276 258 258 1277 258 258 1278 210 210 1279 259 259 1280 210 210 1281 194 194 1282 259 259 1283 259 259 1284 194 194 1285 191 191 1286 194 194 1287 192 192 1288 191 191 1289 208 208 1290 249 249 1291 209 209 1292 209 209 1293 249 249 1294 260 260 1295 260 260 1296 249 249 1297 261 261 1298 249 249 1299 250 250 1300 261 261 1301 261 261 1302 250 250 1303 262 262 1304 250 250 1305 251 251 1306 262 262 1307 251 251 1308 252 252 1309 262 262 1310 262 262 1311 252 252 1312 263 263 1313 252 252 1314 253 253 1315 263 263 1316 263 263 1317 253 253 1318 264 264 1319 253 253 1320 254 254 1321 264 264 1322 254 254 1323 265 265 1324 264 264 1325 264 264 1326 265 265 1327 154 154 1328 265 265 1329 266 266 1330 154 154 1331 154 154 1332 266 266 1333 153 153 1334 266 266 1335 267 267 1336 153 153 1337 153 153 1338 267 267 1339 133 133 1340 267 267 1341 257 257 1342 133 133 1343 257 257 1344 258 258 1345 133 133 1346 133 133 1347 258 258 1348 131 131 1349 258 258 1350 259 259 1351 131 131 1352 259 259 1353 191 191 1354 131 131 1355 191 191 1356 128 128 1357 131 131 1358 131 131 1359 128 128 1360 130 130 1361 265 265 1362 254 254 1363 268 268 1364 254 254 1365 255 255 1366 268 268 1367 268 268 1368 255 255 1369 269 269 1370 255 255 1371 256 256 1372 269 269 1373 256 256 1374 257 257 1375 269 269 1376 257 257 1377 267 267 1378 269 269 1379 269 269 1380 267 267 1381 268 268 1382 267 267 1383 266 266 1384 268 268 1385 268 268 1386 266 266 1387 265 265 1388 270 270 1389 260 260 1390 271 271 1391 260 260 1392 261 261 1393 271 271 1394 271 271 1395 261 261 1396 272 272 1397 261 261 1398 262 262 1399 272 272 1400 262 262 1401 263 263 1402 272 272 1403 272 272 1404 263 263 1405 273 273 1406 263 263 1407 264 264 1408 273 273 1409 273 273 1410 264 264 1411 274 274 1412 264 264 1413 154 154 1414 274 274 1415 154 154 1416 155 155 1417 274 274 1418 274 274 1419 155 155 1420 275 275 1421 155 155 1422 156 156 1423 275 275 1424 275 275 1425 156 156 1426 276 276 1427 156 156 1428 157 157 1429 276 276 1430 157 157 1431 167 167 1432 276 276 1433 271 271 1434 272 272 1435 277 277 1436 277 277 1437 272 272 1438 278 278 1439 272 272 1440 273 273 1441 278 278 1442 278 278 1443 273 273 1444 279 279 1445 273 273 1446 274 274 1447 279 279 1448 274 274 1449 275 275 1450 279 279 1451 279 279 1452 275 275 1453 278 278 1454 275 275 1455 276 276 1456 278 278 1457 278 278 1458 276 276 1459 277 277 1460 276 276 1461 167 167 1462 277 277 1463 277 277 1464 167 167 1465 280 280 1466 167 167 1467 281 281 1468 280 280 1469 280 280 1470 281 281 1471 282 282 1472 281 281 1473 283 283 1474 282 282 1475 282 282 1476 283 283 1477 284 284 1478 283 283 1479 285 285 1480 284 284 1481 284 284 1482 285 285 1483 286 286 1484 285 285 1485 287 287 1486 286 286 1487 287 287 1488 288 288 1489 286 286 1490 286 286 1491 288 288 1492 289 289 1493 289 289 1494 288 288 1495 290 290 1496 288 288 1497 291 291 1498 290 290 1499 290 290 1500 291 291 1501 292 292 1502 291 291 1503 293 293 1504 292 292 1505 271 271 1506 277 277 1507 270 270 1508 277 277 1509 280 280 1510 270 270 1511 270 270 1512 280 280 1513 260 260 1514 280 280 1515 282 282 1516 260 260 1517 260 260 1518 282 282 1519 209 209 1520 282 282 1521 284 284 1522 209 209 1523 209 209 1524 284 284 1525 206 206 1526 284 284 1527 286 286 1528 206 206 1529 286 286 1530 289 289 1531 206 206 1532 206 206 1533 289 289 1534 205 205 1535 289 289 1536 290 290 1537 205 205 1538 205 205 1539 290 290 1540 203 203 1541 290 290 1542 292 292 1543 203 203 1544 292 292 1545 294 294 1546 203 203 1547 294 294 1548 295 295 1549 203 203 1550 203 203 1551 295 295 1552 200 200 1553 200 200 1554 295 295 1555 197 197 1556 295 295 1557 296 296 1558 197 197 1559 296 296 1560 297 297 1561 197 197 1562 197 197 1563 297 297 1564 195 195 1565 297 297 1566 298 298 1567 195 195 1568 195 195 1569 298 298 1570 193 193 1571 298 298 1572 182 182 1573 193 193 1574 193 193 1575 182 182 1576 181 181 1577 299 299 1578 300 300 1579 301 301 1580 300 300 1581 302 302 1582 301 301 1583 301 301 1584 302 302 1585 303 303 1586 302 302 1587 304 304 1588 303 303 1589 303 303 1590 304 304 1591 305 305 1592 304 304 1593 306 306 1594 305 305 1595 223 223 1596 221 221 1597 229 229 1598 221 221 1599 307 307 1600 229 229 1601 229 229 1602 307 307 1603 212 212 1604 212 212 1605 307 307 1606 213 213 1607 213 213 1608 307 307 1609 214 214 1610 214 214 1611 307 307 1612 215 215 1613 307 307 1614 221 221 1615 215 215 1616 308 308 1617 309 309 1618 310 310 1619 310 310 1620 309 309 1621 311 311 1622 309 309 1623 312 312 1624 311 311 1625 311 311 1626 312 312 1627 313 313 1628 312 312 1629 314 314 1630 313 313 1631 313 313 1632 314 314 1633 315 315 1634 314 314 1635 316 316 1636 315 315 1637 315 315 1638 316 316 1639 317 317 1640 316 316 1641 318 318 1642 317 317 1643 317 317 1644 318 318 1645 319 319 1646 318 318 1647 320 320 1648 319 319 1649 319 319 1650 320 320 1651 321 321 1652 320 320 1653 322 322 1654 321 321 1655 321 321 1656 322 322 1657 323 323 1658 322 322 1659 324 324 1660 323 323 1661 323 323 1662 324 324 1663 325 325 1664 324 324 1665 326 326 1666 325 325 1667 325 325 1668 326 326 1669 327 327 1670 326 326 1671 328 328 1672 327 327 1673 327 327 1674 328 328 1675 329 329 1676 328 328 1677 330 330 1678 329 329 1679 329 329 1680 330 330 1681 331 331 1682 330 330 1683 332 332 1684 331 331 1685 331 331 1686 332 332 1687 333 333 1688 334 334 1689 335 335 1690 336 336 1691 335 335 1692 337 337 1693 336 336 1694 336 336 1695 337 337 1696 338 338 1697 337 337 1698 339 339 1699 338 338 1700 338 338 1701 339 339 1702 340 340 1703 339 339 1704 341 341 1705 340 340 1706 340 340 1707 341 341 1708 342 342 1709 341 341 1710 343 343 1711 342 342 1712 342 342 1713 343 343 1714 344 344 1715 343 343 1716 345 345 1717 344 344 1718 344 344 1719 345 345 1720 346 346 1721 345 345 1722 347 347 1723 346 346 1724 346 346 1725 347 347 1726 348 348 1727 347 347 1728 349 349 1729 348 348 1730 348 348 1731 349 349 1732 350 350 1733 349 349 1734 351 351 1735 350 350 1736 350 350 1737 351 351 1738 352 352 1739 351 351 1740 353 353 1741 352 352 1742 352 352 1743 353 353 1744 354 354 1745 353 353 1746 355 355 1747 354 354 1748 354 354 1749 355 355 1750 356 356 1751 355 355 1752 357 357 1753 356 356 1754 356 356 1755 357 357 1756 358 358 1757 357 357 1758 359 359 1759 358 358 1760</p>
        </triangles>
      </mesh>
    </geometry>
  </library_geometries>
  <library_visual_scenes>
    <visual_scene id="Scene" name="Scene">
      <node id="Rubber_Hook_Duck" name="Rubber Hook Duck" type="NODE">
        <matrix sid="transform">1.196547 0 0 0 0 2.32976e-7 -1.196547 0 0 1.196547 2.32976e-7 0 0 0 0 1</matrix>
        <instance_geometry url="#Rubber_Hook_Duck-mesh" name="Rubber Hook Duck">
          <bind_material>
            <technique_common>
              <instance_material symbol="np_hookduck_001-material" target="#np_hookduck_001-material"/>
            </technique_common>
          </bind_material>
        </instance_geometry>
      </node>
    </visual_scene>
  </library_visual_scenes>
  <scene>
    <instance_visual_scene url="#Scene"/>
  </scene>
</COLLADA>